<svg width="141" height="51" viewBox="0 0 141 51" fill="none" xmlns="http://www.w3.org/2000/svg">
<path d="M36.8851 32.3679C36.8851 37.3246 34.9109 41.8135 31.6987 45.0988C28.3913 48.4898 23.7704 50.5932 18.6599 50.5932C13.5292 50.5932 8.89454 48.4729 5.58464 45.0621C2.39504 41.78 0.43457 37.3048 0.43457 32.3679C0.43457 22.303 8.59503 14.1426 18.6599 14.1426C28.7247 14.1426 36.8851 22.303 36.8851 32.3679Z" fill="#6617CA"/>
<path d="M20.427 9.26953H16.855V25.3064H20.427V9.26953Z" fill="#C42091"/>
<path d="M26.1201 36.9853C25.2099 34.0444 28.5868 32.1121 27.9765 28.3598C27.4417 25.0806 23.3729 23.2263 18.6628 23.2235V23.2207C18.6547 23.2207 18.6455 23.2235 18.6374 23.2235C18.6293 23.2235 18.6208 23.2207 18.6127 23.2207V23.2235C13.9022 23.2263 9.83271 25.0806 9.29823 28.3598C8.68754 32.1125 12.0655 34.0444 11.1553 36.9853C10.5027 39.0883 6.91829 41.1045 5.58508 45.0614C8.89534 48.4722 13.5296 50.5925 18.6603 50.5925C23.7709 50.5925 28.3917 48.4891 31.6992 45.0981C30.3762 41.1158 26.7728 39.0936 26.1201 36.9853ZM18.6003 35.4813C16.9179 35.4813 15.554 34.1174 15.554 32.4339C15.554 30.7511 16.9175 29.3903 18.6003 29.3903C20.281 29.3903 21.6446 30.7511 21.6446 32.4339C21.6446 34.1174 20.281 35.4813 18.6003 35.4813Z" fill="#C42091"/>
<path d="M21.4896 0.786377C21.4896 1.22137 21.1375 1.57311 20.7028 1.57311H16.5844C16.1504 1.57311 15.798 1.22102 15.798 0.786377C15.798 0.352089 16.1501 0 16.5844 0H20.7028C21.1375 0 21.4896 0.352089 21.4896 0.786377Z" fill="#C42091"/>
<path d="M15.2464 7.85241H15.2521C15.4327 7.85241 15.5788 7.70635 15.5788 7.52572V7.39201H15.9894L15.8585 8.4712L17.1917 10.3886L17.191 10.4596H20.0892L20.0885 10.3886L21.4253 8.4712L21.2915 7.39201H21.7043V7.52572C21.7043 7.70635 21.8476 7.85241 22.0282 7.85241H22.0342C22.2148 7.85241 22.3609 7.70635 22.3609 7.52572V6.8085C22.3609 6.63104 22.2148 6.48463 22.0342 6.48463H22.0282C21.8476 6.48463 21.7043 6.63104 21.7043 6.8085V6.92916H21.2358L21.04 5.32853H21.5307V5.46295C21.5307 5.64322 21.6768 5.78892 21.8574 5.78892H21.8638C22.0437 5.78892 22.1898 5.64322 22.1898 5.46295V4.74466C22.1898 4.5672 22.0437 4.4215 21.8638 4.4215H21.8574C21.6768 4.4215 21.5307 4.5672 21.5307 4.74466V4.86602H20.9807L20.7849 3.26857H21.3755V3.40228C21.3755 3.57938 21.5209 3.72544 21.7015 3.72544H21.7079C21.8885 3.72544 22.031 3.57938 22.031 3.40228V2.68435C22.031 2.50407 21.8885 2.35802 21.7079 2.35802H21.7015C21.5209 2.35802 21.3755 2.50407 21.3755 2.68435V2.80253H20.7292L20.4985 0.990234H16.7501L16.5543 2.80253H15.9044V2.68435C15.9044 2.50407 15.7626 2.35802 15.582 2.35802H15.5756C15.395 2.35802 15.2489 2.50407 15.2489 2.68435V3.40228C15.2489 3.57938 15.395 3.72544 15.5756 3.72544H15.582C15.7626 3.72544 15.9044 3.57938 15.9044 3.40228V3.26857H16.4957L16.2999 4.86602H15.7492V4.74466C15.7492 4.5672 15.6031 4.4215 15.4232 4.4215H15.4161C15.2397 4.4215 15.0937 4.5672 15.0937 4.74466V5.46295C15.0937 5.64322 15.2397 5.78892 15.4161 5.78892H15.4232C15.6031 5.78892 15.7492 5.64322 15.7492 5.46295V5.32853H16.2431L16.0473 6.92916H15.5781V6.8085C15.5781 6.63104 15.432 6.48463 15.2514 6.48463H15.2457C15.0651 6.48463 14.9219 6.63104 14.9219 6.8085V7.52572C14.9226 7.70635 15.0658 7.85241 15.2464 7.85241Z" fill="#C42091"/>
<path d="M21.6468 45.0393C21.6468 45.2919 21.4422 45.4965 21.1899 45.4965H16.018C15.765 45.4965 15.5604 45.2919 15.5604 45.0393C15.5604 44.787 15.765 44.582 16.018 44.582H21.1899C21.4422 44.582 21.6468 44.787 21.6468 45.0393Z" fill="#6617CA"/>
<path d="M63.63 32.41V28.51H74.25C74.35 30.19 74.18 31.76 73.74 33.22C73.3 34.68 72.62 35.97 71.7 37.09C70.78 38.21 69.63 39.09 68.25 39.73C66.87 40.35 65.29 40.66 63.51 40.66C61.83 40.66 60.29 40.4 58.89 39.88C57.49 39.34 56.28 38.58 55.26 37.6C54.24 36.6 53.44 35.42 52.86 34.06C52.3 32.68 52.02 31.16 52.02 29.5C52.02 27.84 52.31 26.34 52.89 25C53.47 23.64 54.29 22.48 55.35 21.52C56.41 20.56 57.65 19.82 59.07 19.3C60.49 18.78 62.03 18.52 63.69 18.52C65.17 18.52 66.5 18.73 67.68 19.15C68.86 19.57 69.9 20.16 70.8 20.92C71.72 21.66 72.51 22.52 73.17 23.5L68.67 25.84C68.19 25 67.54 24.31 66.72 23.77C65.92 23.21 64.91 22.93 63.69 22.93C62.53 22.93 61.46 23.19 60.48 23.71C59.52 24.23 58.75 24.98 58.17 25.96C57.61 26.92 57.33 28.1 57.33 29.5C57.33 30.88 57.6 32.08 58.14 33.1C58.7 34.1 59.45 34.88 60.39 35.44C61.35 35.98 62.45 36.25 63.69 36.25C64.45 36.25 65.14 36.16 65.76 35.98C66.38 35.78 66.91 35.51 67.35 35.17C67.79 34.81 68.16 34.4 68.46 33.94C68.78 33.46 69.03 32.95 69.21 32.41H63.63ZM77.6536 19H82.8136V40H77.6536V19ZM85.163 23.53V19H101.783V23.53H95.993V40H90.923V23.53H85.163ZM104.391 35.95L104.751 32.08H115.161L115.491 35.95H104.391ZM109.881 26.71L106.941 33.49L107.181 34.6L104.571 40H98.8411L109.881 17.68L120.951 40H115.191L112.671 34.81L112.851 33.52L109.881 26.71ZM128.402 30.49H133.652L140.222 40H134.282L128.402 30.49ZM123.152 19H128.222V40H123.152V19ZM126.332 23.29V19H130.802C132.602 19 134.102 19.29 135.302 19.87C136.502 20.45 137.412 21.26 138.032 22.3C138.652 23.32 138.962 24.51 138.962 25.87C138.962 27.21 138.652 28.4 138.032 29.44C137.412 30.46 136.502 31.26 135.302 31.84C134.102 32.42 132.602 32.71 130.802 32.71H126.332V28.78H130.442C131.122 28.78 131.702 28.68 132.182 28.48C132.682 28.26 133.062 27.95 133.322 27.55C133.582 27.13 133.712 26.63 133.712 26.05C133.712 25.47 133.582 24.98 133.322 24.58C133.062 24.16 132.682 23.84 132.182 23.62C131.702 23.4 131.122 23.29 130.442 23.29H126.332Z" fill="white"/>
</svg>
