<svg width="50" height="40" viewBox="0 0 50 40" fill="none" xmlns="http://www.w3.org/2000/svg">
<path fill-rule="evenodd" clip-rule="evenodd" d="M0 23.7059C0 29 1.68539 32.1765 4.49438 35.0882C6.17978 36.6765 8.98876 38 12.0787 38C14.8876 38 17.1348 37.2059 19.1011 35.3529C20.7865 33.5 21.9101 31.1176 21.9101 28.7353C21.9101 23.7059 17.9775 20 12.9213 19.4706C10.9551 19.2059 8.98876 19.4706 7.58427 20.2647C8.14607 16.2941 10.1124 10.2059 19.382 5.44118L16.8539 2C7.02247 6.23529 0 14.4412 0 23.7059ZM28.0899 23.7059C28.0899 29 29.7753 32.1765 32.5843 35.0882C34.2697 36.6765 37.0787 38 40.1685 38C42.9775 38 45.5056 37.2059 47.191 35.3529C48.8764 33.5 50 31.1176 50 28.7353C50 23.7059 46.0674 20 41.0112 19.4706C39.0449 19.2059 37.0787 19.4706 35.6742 20.2647C36.236 16.2941 38.2022 10.2059 47.4719 5.44118L44.9438 2C35.1124 6.23529 28.0899 14.4412 28.0899 23.7059Z" fill="url(#paint0_linear_640_23)"/>
<defs>
<linearGradient id="paint0_linear_640_23" x1="0" y1="2" x2="53.0382" y2="7.23834" gradientUnits="userSpaceOnUse">
<stop stop-color="#C42091"/>
<stop offset="1" stop-color="#6617CA"/>
</linearGradient>
</defs>
</svg>
