<svg width="80" height="80" viewBox="0 0 80 80" fill="none" xmlns="http://www.w3.org/2000/svg">
<path d="M19.7674 39.6421C19.9056 39.6401 20.0438 39.6381 20.1862 39.636C20.3343 39.6357 20.4825 39.6353 20.6351 39.635C20.7884 39.6339 20.9417 39.6329 21.0997 39.6318C21.4237 39.6302 21.7477 39.6295 22.0717 39.6296C22.5669 39.6289 23.0619 39.6232 23.5571 39.6173C23.8722 39.6164 24.1872 39.6157 24.5023 39.6154C24.724 39.6121 24.724 39.6121 24.9502 39.6086C25.6232 39.6133 25.9944 39.6259 26.5787 39.9849C26.8994 40.3383 26.9794 40.4681 26.9638 40.9375C26.9641 41.0922 26.9641 41.0922 26.9644 41.25C26.8363 41.7022 26.6099 41.8893 26.2509 42.1875C25.8501 42.2728 25.8501 42.2728 25.4037 42.2827C25.2436 42.2877 25.0835 42.2928 24.9185 42.2979C24.7523 42.3002 24.5862 42.3024 24.415 42.3047C24.2464 42.3093 24.0778 42.3139 23.9041 42.3187C23.4884 42.3297 23.0729 42.338 22.6572 42.3437C22.7415 42.4273 22.8259 42.5108 22.9129 42.5969C23.2935 42.9744 23.6736 43.3524 24.0536 43.7304C24.1865 43.862 24.3193 43.9935 24.4562 44.129C24.5826 44.2549 24.7089 44.3808 24.8392 44.5105C24.9562 44.6267 25.0732 44.7429 25.1937 44.8626C25.5398 45.2309 25.6173 45.4041 25.6845 45.9082C25.6259 46.4062 25.6259 46.4062 25.2939 46.8554C24.8447 47.1875 24.8447 47.1875 24.4052 47.3047C23.2721 47.038 22.4773 45.9166 21.6769 45.1147C21.5906 45.0283 21.5042 44.9418 21.4153 44.8528C21.2042 44.6415 20.9932 44.4301 20.7822 44.2187C20.6644 47.1266 20.5767 50.0341 20.5231 52.9439C20.4975 54.2958 20.4627 55.6461 20.405 56.997C20.3396 58.5561 20.2979 60.1142 20.2939 61.6748C20.2936 61.8003 20.2932 61.9257 20.2929 62.055C20.2974 65.022 20.4267 67.5245 22.5931 69.7807C23.5739 70.7057 24.6265 71.4957 25.7822 72.1875C25.7822 72.065 25.7823 71.9425 25.7824 71.8163C25.7848 68.8365 25.7914 65.8568 25.8028 62.877C25.8082 61.436 25.8122 59.995 25.8127 58.554C25.8132 57.2981 25.8164 56.0422 25.8229 54.7863C25.8262 54.1212 25.8282 53.4562 25.8269 52.7912C25.8257 52.1651 25.8282 51.5392 25.8334 50.9132C25.8347 50.6835 25.8347 50.4538 25.8332 50.2241C25.8314 49.9103 25.8348 49.5965 25.8385 49.2827C25.8392 49.0194 25.8392 49.0194 25.8398 48.7507C25.98 48.0833 26.1493 47.8802 26.7197 47.5C27.344 47.3848 27.9598 47.3942 28.5932 47.4001C28.8813 47.3981 28.8813 47.3981 29.1752 47.3961C29.708 47.3933 30.2405 47.394 30.7733 47.3961C31.3479 47.3975 31.9225 47.3945 32.4971 47.392C33.4925 47.3882 34.4879 47.3874 35.4833 47.3884C36.9225 47.39 38.3617 47.3872 39.8009 47.3834C42.1358 47.3773 44.4708 47.3747 46.8058 47.3743C49.074 47.3739 51.3422 47.3718 53.6104 47.3676C53.8201 47.3672 53.8201 47.3672 54.0341 47.3668C54.7355 47.3654 55.4369 47.3641 56.1382 47.3627C61.957 47.3514 67.7758 47.3457 73.5947 47.3437C73.4961 47.2492 73.3975 47.1547 73.2959 47.0574C72.9295 46.7043 72.5649 46.3494 72.2013 45.9933C72.044 45.8399 71.8859 45.6871 71.7271 45.5351C71.4983 45.3158 71.2722 45.0941 71.0464 44.8718C70.9098 44.7392 70.7731 44.6067 70.6324 44.4701C70.2666 44.0027 70.1821 43.7137 70.1572 43.125C70.3349 42.7613 70.496 42.4737 70.7822 42.1875C71.4263 42.0483 71.972 42.0497 72.5368 42.4093C72.9051 42.7363 73.2457 43.0785 73.5849 43.4356C73.7738 43.6265 73.7738 43.6265 73.9666 43.8211C74.3669 44.2272 74.7619 44.6379 75.1572 45.0488C75.4276 45.3237 75.6984 45.5982 75.9695 45.8725C76.2264 46.1341 76.4829 46.3961 76.7392 46.6583C76.8604 46.7823 76.9817 46.9064 77.1066 47.0342C77.2178 47.1499 77.329 47.2656 77.4435 47.3848C77.5417 47.4865 77.6398 47.5881 77.7409 47.6929C78.207 48.2548 78.1462 48.8272 78.1479 49.5267C78.1486 49.6939 78.1486 49.6939 78.1493 49.8646C78.1506 50.2392 78.1509 50.6138 78.1511 50.9884C78.1518 51.2566 78.1526 51.5247 78.1534 51.7929C78.1555 52.5222 78.1565 53.2515 78.1572 53.9808C78.1576 54.4362 78.1583 54.8917 78.159 55.3471C78.1611 56.7716 78.1626 58.1962 78.1632 59.6207C78.1639 61.266 78.1667 62.9114 78.1712 64.5567C78.1746 65.8279 78.1762 67.0992 78.1764 68.3704C78.1765 69.1299 78.1775 69.8895 78.1802 70.649C78.1828 71.3633 78.1832 72.0777 78.1818 72.792C78.1817 73.0542 78.1823 73.3165 78.1839 73.5787C78.1859 73.9366 78.185 74.2944 78.1833 74.6524C78.1836 74.8527 78.1838 75.053 78.184 75.2594C78.1215 75.8207 77.9963 76.1156 77.6572 76.5625C77.2555 76.7633 76.969 76.7394 76.5191 76.741C76.3429 76.742 76.1667 76.743 75.9851 76.744C75.7899 76.7443 75.5947 76.7446 75.3936 76.7449C75.0844 76.7462 75.0844 76.7462 74.769 76.7476C74.1949 76.7501 73.6208 76.7516 73.0467 76.7529C72.5548 76.7541 72.0629 76.756 71.5709 76.7578C69.8086 76.7643 68.0462 76.7686 66.2839 76.7724C66.1448 76.7727 66.0058 76.773 65.8625 76.7734C63.1022 76.7795 60.342 76.7847 57.5817 76.7882C56.9746 76.789 56.3675 76.7898 55.7604 76.7906C55.6095 76.7908 55.4586 76.791 55.3032 76.7912C52.8589 76.7945 50.4146 76.8022 47.9703 76.8116C45.4616 76.8211 42.953 76.8265 40.4444 76.828C39.0355 76.8289 37.6267 76.8317 36.2178 76.8391C35.0179 76.8455 33.818 76.8481 32.6181 76.8459C32.0059 76.8449 31.3938 76.8457 30.7816 76.8512C30.2207 76.8562 29.6601 76.8562 29.0993 76.8522C28.801 76.8513 28.5028 76.8559 28.2046 76.8606C27.2869 76.8489 26.7011 76.8018 25.9917 76.1886C25.8137 76.0045 25.6392 75.8169 25.4697 75.625C25.3304 75.4926 25.1911 75.3601 25.0475 75.2237C24.8609 75.038 24.8609 75.038 24.6704 74.8484C24.5271 74.7061 24.3838 74.5638 24.2362 74.4172C24.0844 74.2656 23.9326 74.114 23.7808 73.9624C23.6218 73.8039 23.4629 73.6454 23.3039 73.487C22.9733 73.1574 22.6431 72.8275 22.3131 72.4974C21.8901 72.0743 21.466 71.6524 21.0416 71.2307C20.7142 70.905 20.3874 70.5785 20.0609 70.2519C19.9047 70.0959 19.7483 69.9402 19.5916 69.7847C19.3736 69.5682 19.1567 69.3507 18.9399 69.1331C18.8163 69.0098 18.6927 68.8864 18.5654 68.7593C18.051 68.1748 18.106 67.627 18.105 66.8785C18.1047 66.7669 18.1043 66.6552 18.1039 66.5402C18.103 66.1653 18.1031 65.7903 18.1032 65.4154C18.1027 65.1469 18.1022 64.8785 18.1016 64.61C18.1002 63.8801 18.0999 63.1502 18.0998 62.4203C18.0996 61.8114 18.0991 61.2025 18.0985 60.5937C18.0972 59.1575 18.0968 57.7213 18.097 56.2852C18.0971 54.8025 18.0954 53.3199 18.0929 51.8372C18.0909 50.5652 18.0901 49.2931 18.0902 48.0211C18.0902 47.2609 18.0897 46.5008 18.0881 45.7407C18.0866 45.0259 18.0866 44.3112 18.0877 43.5965C18.0879 43.334 18.0875 43.0714 18.0866 42.8089C18.0854 42.4509 18.0861 42.093 18.0873 41.735C18.0872 41.5346 18.0871 41.3341 18.087 41.1276C18.1238 40.6527 18.1753 40.3907 18.4384 40C18.8815 39.7039 19.2408 39.6473 19.7674 39.6421ZM28.4384 50C28.4384 57.9922 28.4384 65.9843 28.4384 74.2187C44.0103 74.2187 59.5822 74.2187 75.6259 74.2187C75.6259 66.2265 75.6259 58.2343 75.6259 50C60.054 50 44.4822 50 28.4384 50Z" fill="url(#paint0_linear_142_147)"/>
<path d="M4.13676 12.7343C4.27282 12.7327 4.40888 12.7312 4.54905 12.7296C4.69702 12.7311 4.84499 12.7326 4.99743 12.7342C5.15579 12.7333 5.31414 12.7324 5.47729 12.7315C6.00859 12.7294 6.53977 12.7318 7.07107 12.7341C7.45168 12.7335 7.8323 12.7326 8.21291 12.7315C9.1398 12.7296 10.0666 12.7305 10.9935 12.7329C12.0729 12.7355 13.1523 12.735 14.2317 12.7344C16.1576 12.7335 18.0835 12.7357 20.0095 12.7396C21.8783 12.7433 23.747 12.7444 25.6158 12.7428C27.6509 12.741 29.6859 12.7407 31.7209 12.743C31.9379 12.7432 32.1549 12.7434 32.3719 12.7437C32.4787 12.7438 32.5854 12.7439 32.6954 12.744C33.4478 12.7448 34.2002 12.7445 34.9526 12.7438C35.9652 12.743 36.9779 12.7446 37.9905 12.748C38.3626 12.7489 38.7347 12.749 39.1067 12.7482C39.6138 12.7473 40.1208 12.7492 40.6279 12.7519C40.7758 12.751 40.9238 12.75 41.0762 12.7491C41.8316 12.7564 42.3608 12.7791 42.9689 13.2812C43.151 13.6455 43.1463 13.8608 43.1492 14.2667C43.1505 14.408 43.1519 14.5493 43.1533 14.6948C43.1543 14.928 43.1543 14.928 43.1553 15.1659C43.1566 15.3293 43.1578 15.4926 43.1592 15.661C43.163 16.2034 43.1656 16.7458 43.1679 17.2882C43.1687 17.4731 43.1695 17.658 43.1704 17.8485C43.1746 18.8271 43.1776 19.8056 43.1798 20.7842C43.1824 21.7962 43.1894 22.8081 43.1974 23.8201C43.2027 24.5971 43.2045 25.3741 43.2053 26.1512C43.2064 26.5243 43.2088 26.8974 43.2125 27.2705C43.2174 27.7924 43.2175 28.314 43.2163 28.8359C43.2189 28.9904 43.2214 29.1449 43.2241 29.3041C43.2175 30.0298 43.2063 30.3611 42.7581 30.9553C42.3439 31.25 42.3439 31.25 41.8751 31.3476C41.2274 31.2127 41.0278 30.9923 40.6251 30.4687C40.5146 29.9746 40.5263 29.4932 40.5365 28.9887C40.5364 28.8384 40.5363 28.6881 40.5362 28.5332C40.5367 28.0477 40.5427 27.5625 40.5489 27.077C40.55 26.7768 40.5508 26.4767 40.5512 26.1765C40.5553 25.0649 40.5662 23.9533 40.5763 22.8418C40.5924 20.3571 40.6085 17.8724 40.6251 15.3125C31.1376 15.3125 21.6501 15.3125 11.8751 15.3125C11.8751 32.225 11.8751 49.1375 11.8751 66.5625C13.1642 66.5625 14.4533 66.5625 15.7814 66.5625C16.4064 66.875 16.4064 66.875 16.6115 67.1386C16.7703 67.673 16.699 68.058 16.5626 68.5937C16.1804 69.0063 15.9508 69.061 15.3862 69.1231C15.1624 69.1263 14.9386 69.127 14.7148 69.1256C14.531 69.1272 14.531 69.1272 14.3435 69.1289C13.939 69.1317 13.5346 69.1311 13.13 69.1302C12.8487 69.1309 12.5673 69.1318 12.2859 69.1327C11.6964 69.1341 11.107 69.1337 10.5175 69.1322C9.7619 69.1304 9.00643 69.1335 8.25085 69.1381C7.66991 69.141 7.08899 69.1409 6.50803 69.14C6.22944 69.14 5.95084 69.141 5.67226 69.1429C5.28284 69.1452 4.89364 69.1436 4.50423 69.1409C4.38912 69.1424 4.274 69.1439 4.15539 69.1454C3.65205 69.1382 3.34602 69.1114 2.93937 68.8035C2.57982 68.3384 2.57796 68.0873 2.57731 67.5034C2.57558 67.3109 2.57385 67.1185 2.57207 66.9202C2.57332 66.7063 2.57462 66.4924 2.57598 66.2785C2.57514 66.0516 2.57404 65.8246 2.57269 65.5976C2.56977 64.9732 2.57077 64.3487 2.5724 63.7242C2.57349 63.0511 2.57099 62.3779 2.56896 61.7048C2.56558 60.3858 2.5656 59.0668 2.56687 57.7477C2.56786 56.676 2.56768 55.6042 2.56667 54.5325C2.56653 54.3801 2.56639 54.2277 2.56625 54.0707C2.56596 53.7612 2.56567 53.4517 2.56537 53.1422C2.56278 50.2379 2.56415 47.3336 2.56678 44.4293C2.56907 41.7703 2.56679 39.1115 2.56228 36.4526C2.55769 33.7243 2.55597 30.996 2.55747 28.2677C2.55763 27.9593 2.55778 27.6509 2.55793 27.3424C2.55801 27.1907 2.55808 27.0389 2.55816 26.8826C2.5585 25.8118 2.55696 24.741 2.55469 23.6702C2.55196 22.3658 2.55196 21.0613 2.55552 19.7569C2.55727 19.091 2.55775 18.4251 2.55485 17.7592C2.55224 17.1501 2.5532 16.541 2.55707 15.9319C2.55784 15.7111 2.55728 15.4903 2.55528 15.2695C2.55276 14.9702 2.5555 14.6709 2.55852 14.3716C2.55856 14.2051 2.5586 14.0386 2.55864 13.867C2.65639 13.4375 2.65639 13.4375 3.00944 13.0715C3.442 12.8098 3.64142 12.7343 4.13676 12.7343ZM5.15639 15.3125C5.15639 32.225 5.15639 49.1375 5.15639 66.5625C6.54858 66.5625 7.94077 66.5625 9.37514 66.5625C9.37514 49.65 9.37514 32.7375 9.37514 15.3125C7.98296 15.3125 6.59077 15.3125 5.15639 15.3125Z" fill="url(#paint1_linear_142_147)"/>
<path d="M33.924 32.1668C34.1111 32.1665 34.1111 32.1665 34.3019 32.1661C34.7072 32.1657 35.1124 32.1667 35.5176 32.168C35.7239 32.1685 35.7239 32.1685 35.9344 32.1691C36.873 32.1719 37.8115 32.1783 38.75 32.1876C39.0511 32.1905 39.0511 32.1905 39.3584 32.1935C43.6157 32.2538 43.6157 32.2538 45.246 33.83C46.1954 34.4125 47.7152 34.2613 48.8101 34.3058C48.9826 34.3132 49.155 34.3206 49.3327 34.3282C49.9 34.3524 50.4673 34.3759 51.0345 34.3995C51.4322 34.4163 51.8298 34.4333 52.2274 34.4502C53.1669 34.4902 54.1065 34.5298 55.0461 34.5692C56.8219 34.6436 58.5976 34.7189 60.3734 34.7943C60.9523 34.8188 61.5313 34.843 62.1102 34.8672C62.972 34.9034 63.8337 34.9408 64.6954 34.9795C64.9954 34.9929 65.2955 35.0059 65.5956 35.0186C65.9879 35.0354 66.3802 35.0536 66.7725 35.0724C66.8837 35.0769 66.9948 35.0813 67.1093 35.0859C68.2222 35.1428 68.9729 35.4418 69.8145 36.1524C70.9097 37.4667 71.0667 38.4714 70.9375 40.1563C70.7115 41.0603 70.1384 41.6414 69.4666 42.259C68.3201 42.943 67.0986 43.035 65.793 43.0077C65.6299 43.0062 65.4668 43.0048 65.2987 43.0033C64.7623 42.9979 64.226 42.9892 63.6896 42.9804C63.3111 42.976 62.9325 42.9718 62.554 42.9679C61.5569 42.9569 60.5598 42.9431 59.5627 42.9286C58.5652 42.9145 57.5677 42.9028 56.5701 42.891C56.3762 42.8886 56.1822 42.8863 55.9824 42.8839C55.0244 42.8723 54.0663 42.8612 53.1083 42.8507C52.7421 42.8466 52.3759 42.8425 52.0097 42.8384C51.8344 42.8365 51.6592 42.8345 51.4787 42.8325C50.5774 42.8218 49.6765 42.8065 48.7755 42.7822C48.4254 42.7731 48.0754 42.7658 47.7253 42.7593C47.3321 42.7517 46.939 42.7405 46.546 42.7247C45.4859 42.7091 44.8975 42.8779 44.053 43.5233C42.5391 44.6563 39.8365 44.2293 38.0348 44.1724C37.6465 44.1602 37.2582 44.1497 36.8698 44.1395C31.5181 43.9906 31.5181 43.9906 29.7235 42.2559C28.4535 40.868 27.9925 39.5295 27.9688 37.6563C28.104 35.958 28.8543 34.5942 30.0818 33.4345C31.2783 32.4777 32.4209 32.1629 33.924 32.1668ZM31.2695 35.8692C30.6733 36.6049 30.4782 37.3411 30.4688 38.2813C30.613 39.3852 31.2084 40.212 32.0312 40.9376C33.2731 41.6505 34.7591 41.5883 36.1572 41.6285C36.308 41.6328 36.4587 41.6372 36.614 41.6417C36.9307 41.6504 37.2474 41.6588 37.5642 41.6669C37.886 41.6754 38.2078 41.6852 38.5296 41.696C38.9985 41.7118 39.4675 41.7242 39.9365 41.7359C40.0787 41.7412 40.2208 41.7466 40.3672 41.7521C41.7986 41.7801 42.9151 41.4472 43.9587 40.4493C44.6715 39.6462 44.7745 38.8031 44.7418 37.768C44.6259 36.8628 44.2608 36.2921 43.623 35.6544C42.6841 35.01 41.8928 34.7697 40.7617 34.7364C40.6339 34.7316 40.506 34.7268 40.3743 34.7219C39.885 34.7065 39.3957 34.6968 38.9062 34.6876C38.6761 34.6824 38.4459 34.6773 38.2158 34.6721C37.5738 34.6585 36.9318 34.6496 36.2896 34.6432C36.0304 34.6402 35.7712 34.6363 35.5121 34.6314C33.1651 34.5762 33.1651 34.5762 31.2695 35.8692ZM47.0312 36.7188C47.0312 37.8532 47.0312 38.9876 47.0312 40.1563C49.1425 40.3436 51.2515 40.3563 53.3698 40.3785C53.5667 40.3806 53.7637 40.3828 53.9667 40.385C54.8996 40.3952 55.8326 40.405 56.7656 40.4138C57.838 40.424 58.9104 40.4362 59.9828 40.4502C60.9165 40.4622 61.8503 40.4715 62.784 40.48C63.1798 40.4839 63.5756 40.4886 63.9713 40.4942C64.5229 40.5018 65.0744 40.5063 65.626 40.5102C65.8708 40.5145 65.8708 40.5145 66.1206 40.5189C67.2004 40.526 67.2004 40.526 68.125 40.0001C68.5021 39.6892 68.5021 39.6892 68.4961 39.0821C68.4853 38.5848 68.4604 38.4674 68.1445 38.0567C67.5719 37.6357 67.1845 37.622 66.4757 37.5844C66.369 37.5786 66.2622 37.5727 66.1522 37.5668C65.792 37.5474 65.4317 37.5292 65.0714 37.511C64.8135 37.4976 64.5556 37.4841 64.2977 37.4706C61.0372 37.3026 57.7751 37.1685 54.5132 37.0326C53.6654 36.9972 52.8177 36.9615 51.9699 36.9257C50.3237 36.8564 48.6775 36.7875 47.0312 36.7188Z" fill="url(#paint2_linear_142_147)"/>
<path d="M69.0445 53.8166C69.1535 53.8977 69.2624 53.9789 69.3747 54.0625C69.5309 54.177 69.5309 54.177 69.6902 54.2939C71.5676 55.7935 72.7399 58.125 73.1247 60.4688C73.4043 63.5595 72.8264 66.222 70.8981 68.7012C69.0839 70.8274 66.6766 72.0666 63.9032 72.3793C61.1923 72.59 58.5888 71.7846 56.445 70.1172C54.4916 68.4304 53.043 66.0719 52.7654 63.4671C52.7441 63.0231 52.7391 62.5832 52.7438 62.1387C52.745 61.9821 52.7462 61.8254 52.7474 61.664C52.8058 59.0221 53.8213 56.7754 55.6247 54.8438C59.3375 51.3084 64.8263 50.8421 69.0445 53.8166ZM57.1872 56.875C55.4987 58.9269 55.1175 61.0091 55.3122 63.5938C55.6699 65.5419 56.8164 67.3061 58.4372 68.4375C60.5039 69.6493 62.4568 70.1926 64.8532 69.668C67.0445 69.055 68.7003 67.734 69.8434 65.7813C70.7768 63.8098 71.0039 61.5745 70.3317 59.4727C69.4734 57.4056 68.0219 55.9174 66.0055 54.9512C62.937 53.7013 59.4623 54.4409 57.1872 56.875Z" fill="url(#paint3_linear_142_147)"/>
<path d="M47.6569 54.0625C47.8131 54.177 47.8131 54.177 47.9724 54.2938C49.8498 55.7935 51.0221 58.1249 51.4069 60.4688C51.6865 63.5595 51.1086 66.2219 49.1803 68.7012C47.3661 70.8273 44.9587 72.0665 42.1854 72.3793C39.4745 72.59 36.8709 71.7846 34.7272 70.1172C32.7676 68.4251 31.3411 66.0784 31.045 63.4721C31.0207 63.0329 31.0133 62.5981 31.0162 62.1582C31.0171 62.0022 31.018 61.8463 31.019 61.6856C31.0831 58.999 32.1526 56.6785 34.0051 54.726C37.8226 51.1098 43.5068 50.9711 47.6569 54.0625ZM35.4694 56.875C33.7829 58.9244 33.3956 61.011 33.5944 63.5938C33.8333 64.8524 34.3827 65.8668 35.1569 66.875C35.2256 66.9711 35.2942 67.0672 35.365 67.1661C36.435 68.5568 38.1578 69.3698 39.8248 69.8047C42.332 70.0053 44.4628 69.5467 46.4459 67.9297C47.7192 66.7425 48.7785 65.0503 48.9345 63.28C49.001 60.9821 48.7769 59.2237 47.3444 57.3438C47.2284 57.1826 47.1123 57.0215 46.9928 56.8555C45.4643 55.2575 43.4754 54.3919 41.2799 54.3262C39.054 54.3742 36.998 55.2395 35.4694 56.875Z" fill="url(#paint4_linear_142_147)"/>
<path d="M58.75 2.81246C59.1406 3.0566 59.1406 3.0566 59.375 3.43746C59.4638 4.04821 59.4605 4.38873 59.1406 4.92184C58.7184 5.34403 58.278 5.73418 57.8241 6.12179C57.5203 6.38839 57.2359 6.66449 56.9531 6.95309C56.5909 7.32236 56.2187 7.66941 55.8264 8.00655C55.1636 8.58287 54.5239 9.18076 53.8867 9.78512C53.655 10.0039 53.4233 10.2226 53.1915 10.4412C53.0189 10.6042 53.0189 10.6042 52.8428 10.7705C52.3163 11.2669 51.7887 11.762 51.2598 12.2558C51.1684 12.3417 51.077 12.4275 50.9829 12.5159C50.3068 13.1458 49.9927 13.3313 49.0479 13.3142C48.75 13.2812 48.75 13.2812 48.4473 13.1054C48.208 12.6833 48.1444 12.3602 48.125 11.875C48.4201 11.2941 48.7848 10.8644 49.248 10.4101C49.3598 10.2993 49.4716 10.1886 49.5868 10.0744C49.9172 9.76503 50.2517 9.46598 50.5933 9.16927C51.248 8.5998 51.8802 8.00908 52.5098 7.41207C52.7425 7.19231 52.9752 6.97259 53.208 6.75289C53.3242 6.64312 53.4404 6.53335 53.5602 6.42025C54.285 5.73634 55.0115 5.05438 55.7434 4.37801C56.045 4.09918 56.3388 3.81756 56.6296 3.52718C57.3385 2.83904 57.7548 2.63001 58.75 2.81246Z" fill="url(#paint5_linear_142_147)"/>
<path d="M52.1894 26.9122C52.3556 26.921 52.3556 26.921 52.5252 26.9299C52.8921 26.9494 53.2589 26.9702 53.6257 26.991C53.8813 27.005 54.1368 27.0188 54.3924 27.0326C54.9287 27.0618 55.465 27.0915 56.0013 27.1217C56.6862 27.1603 57.3711 27.1977 58.056 27.2347C58.5843 27.2633 59.1126 27.2923 59.6409 27.3216C59.8932 27.3355 60.1456 27.3493 60.3979 27.363C60.7524 27.3824 61.1068 27.4024 61.4612 27.4225C61.763 27.4393 61.763 27.4393 62.071 27.4565C63.828 27.5871 63.828 27.5871 64.2977 27.9981C64.5754 28.5188 64.631 28.7937 64.5321 29.3751C64.2403 29.7349 64.0076 29.9498 63.5946 30.1563C63.1792 30.1517 62.7694 30.137 62.355 30.1142C62.2279 30.1079 62.1009 30.1016 61.97 30.0951C61.5512 30.0741 61.1325 30.0518 60.7137 30.0294C60.4245 30.0144 60.1353 29.9994 59.8461 29.9845C59.2526 29.9537 58.6591 29.9223 58.0656 29.8904C57.369 29.8532 56.6723 29.8177 55.9756 29.7832C55.4782 29.7583 54.9809 29.7323 54.4836 29.706C54.251 29.6938 54.0184 29.6821 53.7858 29.6707C51.4102 29.5537 51.4102 29.5537 50.4696 29.2188C50.0831 28.6391 50.0969 28.3422 50.1571 27.6563C50.6426 26.7778 51.2656 26.8617 52.1894 26.9122Z" fill="url(#paint6_linear_142_147)"/>
<path d="M64.5991 15.6446C64.9425 16.0566 64.9889 16.3415 64.9995 16.875C64.7962 17.4214 64.624 17.6093 64.1025 17.8719C63.1697 18.251 62.1928 18.5081 61.2263 18.786C61.0106 18.8484 60.7948 18.9108 60.579 18.9732C60.1282 19.1033 59.6772 19.2328 59.2261 19.362C58.651 19.5268 58.0767 19.694 57.5025 19.8617C57.0575 19.9912 56.6121 20.1191 56.1665 20.2465C55.9547 20.3074 55.743 20.3689 55.5316 20.431C54.3969 20.7636 53.3736 21.0537 52.187 20.9375C51.7769 20.6153 51.7769 20.6153 51.562 20.1563C51.5523 19.5996 51.5523 19.5996 51.7183 19.0625C52.2755 18.5252 52.7909 18.3042 53.5294 18.094C53.6296 18.065 53.7298 18.036 53.8331 18.006C54.1622 17.9112 54.492 17.819 54.8219 17.7271C55.0526 17.6615 55.2832 17.5959 55.5137 17.5301C55.9963 17.3928 56.4793 17.2569 56.9625 17.122C57.5795 16.9496 58.1955 16.7741 58.8112 16.5976C59.2872 16.4616 59.7636 16.3271 60.2401 16.1931C60.4673 16.129 60.6943 16.0645 60.9212 15.9995C63.6679 15.2147 63.6679 15.2147 64.5991 15.6446Z" fill="url(#paint7_linear_142_147)"/>
<path d="M62.8907 55.7227C63.0664 55.715 63.242 55.7073 63.423 55.6995C63.9064 55.7812 63.9064 55.7812 64.2829 56.1401C64.5314 56.5625 64.5314 56.5625 64.5216 57.1289C64.3731 57.6635 64.3325 57.8045 63.9064 58.125C63.4602 58.2458 63.4602 58.2458 62.9396 58.3398C61.826 58.5779 61.0676 58.9325 60.2638 59.7363C59.6402 60.7295 59.4169 61.641 59.5314 62.8125C59.5823 63.0211 59.6344 63.2295 59.6876 63.4375C59.7462 63.8661 59.7636 64.2604 59.6876 64.6875C59.3653 65.0879 59.3653 65.0879 58.9064 65.3125C58.2547 65.3239 57.9409 65.2707 57.4513 64.834C56.6778 63.4875 56.657 61.7631 57.0509 60.2832C57.6872 58.4656 58.8029 57.1437 60.5177 56.2598C61.3233 55.8771 61.9965 55.7493 62.8907 55.7227Z" fill="url(#paint8_linear_142_147)"/>
<path d="M40.8592 55.7227C41.0349 55.715 41.2105 55.7073 41.3915 55.6995C41.8749 55.7812 41.8749 55.7812 42.246 56.1456C42.5555 56.6539 42.5995 56.9148 42.4999 57.5C42.0308 58.0984 41.6451 58.2183 40.9081 58.3398C39.694 58.5922 38.8515 59.0322 38.0565 59.9902C37.5702 60.9434 37.4473 61.7612 37.4999 62.8125C37.5514 62.9672 37.603 63.1219 37.6561 63.2812C37.7178 63.7599 37.731 64.2099 37.6561 64.6875C37.3338 65.0977 37.3338 65.0977 36.8749 65.3125C36.3425 65.3033 35.9597 65.2949 35.5303 64.9615C34.8509 64.1072 34.7546 62.7574 34.7893 61.7017C35.0199 59.7842 35.8225 58.1937 37.3094 56.9641C38.4287 56.172 39.4945 55.7633 40.8592 55.7227Z" fill="url(#paint9_linear_142_147)"/>
<path d="M51.2501 37.1875C51.4257 37.1919 51.6014 37.1964 51.7823 37.2009C51.9612 37.2094 52.14 37.2178 52.3243 37.2266C52.4915 37.2338 52.6587 37.2411 52.8309 37.2485C53.3778 37.3641 53.5717 37.5268 53.9064 37.9687C53.9797 38.5552 53.9894 38.9123 53.7013 39.4336C53.2336 39.8839 52.7749 39.8625 52.1589 39.8523C51.8332 39.844 51.5074 39.8346 51.1817 39.8242C51.0177 39.8226 50.8536 39.821 50.6846 39.8193C49.4799 39.7794 49.4799 39.7794 48.954 39.3182C48.7059 38.8169 48.6678 38.5214 48.7501 37.9687C49.3141 36.9751 50.2385 37.1582 51.2501 37.1875Z" fill="url(#paint10_linear_142_147)"/>
<path d="M61.875 65.625C62.4044 66.0247 62.6215 66.2211 62.7441 66.875C62.6316 67.4754 62.4986 67.7277 62.0312 68.125C61.1164 68.2775 60.5454 68.105 59.7876 67.5769C59.3962 67.221 59.2838 66.9264 59.2188 66.4062C59.354 65.9104 59.4801 65.6762 59.8438 65.3125C60.5803 65.0353 61.1902 65.3094 61.875 65.625Z" fill="url(#paint11_linear_142_147)"/>
<path d="M40.3231 65.9766C40.715 66.5329 40.735 66.833 40.6258 67.5C40.3817 67.8809 40.3817 67.8809 40.0008 68.125C39.1014 68.2634 38.3931 68.006 37.6571 67.5C37.2706 66.9203 37.2844 66.6234 37.3446 65.9375C37.5535 65.5405 37.6769 65.3626 38.0996 65.2076C38.9165 65.0839 39.6835 65.5067 40.3231 65.9766Z" fill="url(#paint12_linear_142_147)"/>
<path d="M24.8438 30.9376C25.1367 31.1036 25.1367 31.1036 25.3125 31.4063C25.4114 32.3297 25.4114 32.3297 25.1367 32.8028C24.6976 33.0516 24.4019 33.0396 23.9062 32.9688C23.5254 32.7247 23.5254 32.7247 23.2812 32.3438C23.291 31.7774 23.291 31.7774 23.4375 31.2501C23.9796 30.8887 24.2066 30.8712 24.8438 30.9376Z" fill="url(#paint13_linear_142_147)"/>
<path d="M20.9375 30.9376C21.2305 31.1036 21.2305 31.1036 21.4062 31.4063C21.5052 32.3297 21.5052 32.3297 21.2305 32.8028C20.7914 33.0516 20.4957 33.0396 20 32.9688C19.6191 32.7247 19.6191 32.7247 19.375 32.3438C19.3848 31.7774 19.3848 31.7774 19.5312 31.2501C20.0733 30.8887 20.3003 30.8712 20.9375 30.9376Z" fill="url(#paint14_linear_142_147)"/>
<path d="M16.4748 30.8887C17.0314 30.9375 17.0314 30.9375 17.3341 31.1035C17.5991 31.5867 17.5674 31.9617 17.5002 32.5C17.256 32.8125 17.256 32.8125 16.8752 32.9688C16.3088 32.9492 16.3088 32.9492 15.7814 32.8125C15.4689 32.3438 15.4689 32.3438 15.508 31.7871C15.6636 31.0736 15.7415 30.9553 16.4748 30.8887Z" fill="url(#paint15_linear_142_147)"/>
<path d="M24.8438 23.9063C25.1367 24.0723 25.1367 24.0723 25.3125 24.3751C25.4114 25.2984 25.4114 25.2984 25.1367 25.7715C24.6976 26.0203 24.4019 26.0084 23.9062 25.9376C23.5254 25.6934 23.5254 25.6934 23.2812 25.3126C23.291 24.7461 23.291 24.7461 23.4375 24.2188C23.9796 23.8574 24.2066 23.8399 24.8438 23.9063Z" fill="url(#paint16_linear_142_147)"/>
<path d="M20.9375 23.9063C21.2305 24.0723 21.2305 24.0723 21.4062 24.3751C21.5052 25.2984 21.5052 25.2984 21.2305 25.7715C20.7914 26.0203 20.4957 26.0084 20 25.9376C19.6191 25.6934 19.6191 25.6934 19.375 25.3126C19.3848 24.7461 19.3848 24.7461 19.5312 24.2188C20.0733 23.8574 20.3003 23.8399 20.9375 23.9063Z" fill="url(#paint17_linear_142_147)"/>
<path d="M20.5566 16.9141C21.0938 17.0313 21.0938 17.0313 21.4062 17.3438C21.4915 18.282 21.4915 18.282 21.2402 18.7403C20.757 19.0053 20.382 18.9736 19.8438 18.9063C19.5312 18.6622 19.5312 18.6622 19.375 18.2813C19.3945 17.7149 19.3945 17.7149 19.5312 17.1875C20 16.875 20 16.875 20.5566 16.9141Z" fill="url(#paint18_linear_142_147)"/>
<path d="M14.8429 34.5313C15.1456 34.795 15.1456 34.795 15.3116 35.1563C15.2772 35.7302 15.2538 35.9953 14.8429 36.4063C14.5499 36.4478 14.5499 36.4478 14.2179 36.4453C14.1083 36.4462 13.9987 36.447 13.8858 36.4478C13.5929 36.4063 13.5929 36.4063 13.2804 36.0938C13.1741 34.9786 13.1741 34.9786 13.5343 34.5215C14.0417 34.3212 14.3261 34.3664 14.8429 34.5313Z" fill="url(#paint19_linear_142_147)"/>
<path d="M31.0945 27.6563C31.2508 27.8125 31.2508 27.8125 31.3094 28.418C31.302 28.9317 31.2985 29.0147 30.9187 29.3945C30.3373 29.5715 30.0723 29.4829 29.532 29.2188C29.2195 28.75 29.2195 28.75 29.2293 28.2813C29.3758 27.8125 29.3758 27.8125 29.7176 27.5C30.2888 27.2969 30.5524 27.4099 31.0945 27.6563Z" fill="url(#paint20_linear_142_147)"/>
<path d="M15 27.6563C15.3125 28.125 15.3125 28.125 15.3027 28.5938C15.1562 29.0625 15.1562 29.0625 14.8145 29.375C14.2432 29.5781 13.9796 29.4652 13.4375 29.2188C13.2812 29.0625 13.2812 29.0625 13.2227 28.4571C13.23 27.9434 13.2335 27.8603 13.6133 27.4805C14.1947 27.3036 14.4597 27.3922 15 27.6563Z" fill="url(#paint21_linear_142_147)"/>
<path d="M16.6504 23.9454C17.1875 24.0625 17.1875 24.0625 17.5 24.375C17.586 25.3207 17.586 25.3207 17.3242 25.7715C16.8851 26.0203 16.5894 26.0084 16.0938 25.9375C15.7129 25.6934 15.7129 25.6934 15.4688 25.3125C15.4785 24.7461 15.4785 24.7461 15.625 24.2188C16.0938 23.9063 16.0938 23.9063 16.6504 23.9454Z" fill="url(#paint22_linear_142_147)"/>
<path d="M38.105 20.4102C38.6187 20.4175 38.7017 20.421 39.0816 20.8008C39.2585 21.3822 39.1699 21.6472 38.9058 22.1875C38.437 22.5 38.437 22.5 37.9683 22.4902C37.4995 22.3438 37.4995 22.3438 37.187 22.002C36.9839 21.4307 37.0969 21.1671 37.3433 20.625C37.4995 20.4688 37.4995 20.4688 38.105 20.4102Z" fill="url(#paint23_linear_142_147)"/>
<path d="M33.8867 20.4272C33.9963 20.4281 34.1059 20.4289 34.2188 20.4297C34.3283 20.4289 34.4379 20.4281 34.5508 20.4272C34.8438 20.4688 34.8438 20.4688 35.1562 20.7812C35.2625 21.8964 35.2625 21.8964 34.9023 22.3535C34.3949 22.5538 34.1105 22.5087 33.5938 22.3438C33.291 22.0801 33.291 22.0801 33.125 21.7188C33.1966 20.525 33.1966 20.525 33.8867 20.4272Z" fill="url(#paint24_linear_142_147)"/>
<path d="M14.2095 20.4102C14.6646 20.4234 14.7996 20.4336 15.1665 20.7227C15.3668 21.2301 15.3217 21.5145 15.1567 22.0312C14.8931 22.334 14.8931 22.334 14.5317 22.5C13.9578 22.4656 13.6927 22.4422 13.2817 22.0312C13.2402 21.7383 13.2402 21.7383 13.2427 21.4062C13.2419 21.2967 13.2411 21.1871 13.2402 21.0742C13.328 20.4547 13.6308 20.4653 14.2095 20.4102Z" fill="url(#paint25_linear_142_147)"/>
<path d="M24.4629 16.9141C25 17.0313 25 17.0313 25.3125 17.3438C25.3985 18.2895 25.3985 18.2895 25.1367 18.7403C24.6976 18.9891 24.4019 18.9771 23.9062 18.9063C23.5254 18.6622 23.5254 18.6622 23.2812 18.2813C23.291 17.7149 23.291 17.7149 23.4375 17.1875C23.9062 16.875 23.9062 16.875 24.4629 16.9141Z" fill="url(#paint26_linear_142_147)"/>
<path d="M16.6504 16.9043C17.1875 17.0313 17.1875 17.0313 17.5 17.5C17.5503 17.9825 17.5761 18.3032 17.334 18.7305C16.853 19.0098 16.4798 18.9741 15.9375 18.9063C15.625 18.6621 15.625 18.6621 15.4688 18.2813C15.4883 17.7149 15.4883 17.7149 15.625 17.1875C16.0938 16.875 16.0938 16.875 16.6504 16.9043Z" fill="url(#paint27_linear_142_147)"/>
<path d="M19.219 34.5313C19.5804 35.0734 19.5979 35.3004 19.5315 35.9376C19.3655 36.2305 19.3655 36.2305 19.0627 36.4063C18.1394 36.5052 18.1394 36.5052 17.6662 36.2305C17.4241 35.8032 17.45 35.4825 17.5002 35.0001C17.9885 34.2677 18.4158 34.3262 19.219 34.5313Z" fill="url(#paint28_linear_142_147)"/>
<path d="M28.7499 23.9062C29.0428 24.0722 29.0428 24.0722 29.2186 24.375C29.3175 25.2983 29.3175 25.2983 29.0428 25.7714C28.6155 26.0136 28.2948 25.9877 27.8124 25.9375C27.3436 25.625 27.3436 25.625 27.2166 25.1757C27.1864 24.6723 27.2138 24.469 27.4999 24.0625C27.9371 23.8438 28.2663 23.8667 28.7499 23.9062Z" fill="url(#paint29_linear_142_147)"/>
<path d="M30.3131 20.42C30.4227 20.4174 30.5323 20.4148 30.6452 20.4121C30.7418 20.4308 30.8385 20.4496 30.9381 20.4689C31.324 21.0476 31.3239 21.3472 31.2506 22.0314C30.9967 22.3439 30.9967 22.3439 30.6256 22.5001C30.0818 22.489 29.7983 22.4398 29.3854 22.0802C29.1591 21.5878 29.2303 21.2955 29.3756 20.7814C29.7389 20.418 29.8204 20.4228 30.3131 20.42Z" fill="url(#paint30_linear_142_147)"/>
<path d="M36.0645 16.8164C36.5625 16.875 36.5625 16.875 36.9434 17.207C37.1875 17.6562 37.1875 17.6562 37.1777 18.1543C37.0312 18.5938 37.0312 18.5938 36.5625 18.9062C35.748 18.9911 35.748 18.9911 35.3418 18.7109C35.1231 18.3887 35.023 18.2039 35 17.8125C35.469 16.8958 35.469 16.8958 36.0645 16.8164Z" fill="url(#paint31_linear_142_147)"/>
<path d="M32.1963 16.7969C32.6553 16.875 32.6553 16.875 32.9385 17.0703C33.1546 17.3888 33.2464 17.5838 33.2803 17.9688C33.1534 18.3887 33.1534 18.3887 32.9678 18.75C32.5349 18.9665 32.197 18.9356 31.7178 18.9062C31.2491 18.5938 31.2491 18.5938 31.1026 18.1543C31.0928 17.6562 31.0928 17.6562 31.337 17.207C31.7178 16.875 31.7178 16.875 32.1963 16.7969Z" fill="url(#paint32_linear_142_147)"/>
<path d="M27.1875 27.6563C27.404 28.0892 27.3731 28.4271 27.3438 28.9063C27.0312 29.375 27.0312 29.375 26.6699 29.5117C26.113 29.5376 25.8897 29.425 25.4688 29.0625C25.3125 28.6035 25.3125 28.6035 25.3125 28.125C25.7898 27.2421 26.3274 27.301 27.1875 27.6563Z" fill="url(#paint33_linear_142_147)"/>
<path d="M22.9678 20.4688C23.2706 20.6446 23.2706 20.6446 23.4366 20.9376C23.503 21.5748 23.4855 21.8018 23.1241 22.3438C22.6846 22.4903 22.6846 22.4903 22.1866 22.5001C21.7374 22.256 21.7374 22.256 21.4053 21.8751C21.3235 21.3737 21.3195 21.0892 21.5714 20.6446C22.0471 20.3684 22.4308 20.4113 22.9678 20.4688Z" fill="url(#paint34_linear_142_147)"/>
<path d="M28.9062 17.0312C29.2188 17.3437 29.2188 17.3437 29.2676 17.8808C29.2188 18.4375 29.2188 18.4375 29.043 18.7402C28.6039 18.989 28.3082 18.977 27.8125 18.9062C27.4316 18.6523 27.4316 18.6523 27.1875 18.2812C27.1976 17.7852 27.2708 17.4694 27.5195 17.041C27.9994 16.769 28.3881 16.9087 28.9062 17.0312Z" fill="url(#paint35_linear_142_147)"/>
<path d="M23.2812 27.6562C23.4999 28.0935 23.477 28.4226 23.4375 28.9062C23.2128 29.232 23.0316 29.3457 22.6758 29.5117C22.1959 29.5399 21.9474 29.3329 21.5625 29.0625C21.4062 28.9062 21.4062 28.9062 21.3672 28.457C21.4062 27.9687 21.4062 27.9687 21.6113 27.6855C22.2369 27.2453 22.6114 27.3796 23.2812 27.6562Z" fill="url(#paint36_linear_142_147)"/>
<path d="M18.6924 27.3535C19.1001 27.5145 19.2916 27.6015 19.5322 27.9687C19.5945 28.4666 19.6268 28.7691 19.3369 29.1894C19.0146 29.4081 18.8299 29.5082 18.4385 29.5312C18.0879 29.3519 17.7807 29.186 17.501 28.9062C17.4424 28.4668 17.4424 28.4668 17.501 27.9687C17.8921 27.5329 18.0973 27.3393 18.6924 27.3535Z" fill="url(#paint37_linear_142_147)"/>
<path d="M19.0617 20.4688C19.3644 20.6446 19.3644 20.6446 19.5305 20.9376C19.592 21.4303 19.6215 21.7362 19.3449 22.1583C18.9811 22.3967 18.7144 22.4683 18.2805 22.5001C17.8576 22.3474 17.7019 22.2805 17.4992 21.8751C17.4298 21.06 17.4298 21.06 17.6652 20.6446C18.1409 20.3684 18.5247 20.4113 19.0617 20.4688Z" fill="url(#paint38_linear_142_147)"/>
<path d="M26.3191 20.4199C26.8757 20.4688 26.8757 20.4688 27.1785 20.6445C27.4206 21.0719 27.3947 21.3926 27.3445 21.875C27.032 22.3438 27.032 22.3438 26.5925 22.5C26.0945 22.5 26.0945 22.5 25.6355 22.1777C25.3132 21.7188 25.3132 21.7188 25.323 21.2207C25.5354 20.5835 25.6418 20.4815 26.3191 20.4199Z" fill="url(#paint39_linear_142_147)"/>
<defs>
<linearGradient id="paint0_linear_142_147" x1="18.0859" y1="39.6086" x2="81.6225" y2="46.8978" gradientUnits="userSpaceOnUse">
<stop stop-color="#C42091"/>
<stop offset="1" stop-color="#6617CA"/>
</linearGradient>
<linearGradient id="paint1_linear_142_147" x1="2.55273" y1="12.7296" x2="46.0021" y2="14.9571" gradientUnits="userSpaceOnUse">
<stop stop-color="#C42091"/>
<stop offset="1" stop-color="#6617CA"/>
</linearGradient>
<linearGradient id="paint2_linear_142_147" x1="27.9688" y1="32.166" x2="71.2817" y2="43.0843" gradientUnits="userSpaceOnUse">
<stop stop-color="#C42091"/>
<stop offset="1" stop-color="#6617CA"/>
</linearGradient>
<linearGradient id="paint3_linear_142_147" x1="52.7422" y1="51.8569" x2="74.5362" y2="53.3987" gradientUnits="userSpaceOnUse">
<stop stop-color="#C42091"/>
<stop offset="1" stop-color="#6617CA"/>
</linearGradient>
<linearGradient id="paint4_linear_142_147" x1="31.0156" y1="51.8699" x2="52.8187" y2="53.4139" gradientUnits="userSpaceOnUse">
<stop stop-color="#C42091"/>
<stop offset="1" stop-color="#6617CA"/>
</linearGradient>
<linearGradient id="paint5_linear_142_147" x1="48.125" y1="2.74976" x2="60.1588" y2="3.66497" gradientUnits="userSpaceOnUse">
<stop stop-color="#C42091"/>
<stop offset="1" stop-color="#6617CA"/>
</linearGradient>
<linearGradient id="paint6_linear_142_147" x1="50.125" y1="26.8835" x2="64.2158" y2="31.3084" gradientUnits="userSpaceOnUse">
<stop stop-color="#C42091"/>
<stop offset="1" stop-color="#6617CA"/>
</linearGradient>
<linearGradient id="paint7_linear_142_147" x1="51.5586" y1="15.3567" x2="65.5488" y2="17.7416" gradientUnits="userSpaceOnUse">
<stop stop-color="#C42091"/>
<stop offset="1" stop-color="#6617CA"/>
</linearGradient>
<linearGradient id="paint8_linear_142_147" x1="56.7988" y1="55.6995" x2="65.047" y2="56.1708" gradientUnits="userSpaceOnUse">
<stop stop-color="#C42091"/>
<stop offset="1" stop-color="#6617CA"/>
</linearGradient>
<linearGradient id="paint9_linear_142_147" x1="34.7832" y1="55.6995" x2="43.0723" y2="56.1755" gradientUnits="userSpaceOnUse">
<stop stop-color="#C42091"/>
<stop offset="1" stop-color="#6617CA"/>
</linearGradient>
<linearGradient id="paint10_linear_142_147" x1="48.7109" y1="37.1555" x2="54.2177" y2="37.9152" gradientUnits="userSpaceOnUse">
<stop stop-color="#C42091"/>
<stop offset="1" stop-color="#6617CA"/>
</linearGradient>
<linearGradient id="paint11_linear_142_147" x1="59.2188" y1="65.198" x2="62.9683" y2="65.5134" gradientUnits="userSpaceOnUse">
<stop stop-color="#C42091"/>
<stop offset="1" stop-color="#6617CA"/>
</linearGradient>
<linearGradient id="paint12_linear_142_147" x1="37.3125" y1="65.1858" x2="40.8994" y2="65.4746" gradientUnits="userSpaceOnUse">
<stop stop-color="#C42091"/>
<stop offset="1" stop-color="#6617CA"/>
</linearGradient>
<linearGradient id="paint13_linear_142_147" x1="23.2812" y1="30.9072" x2="25.5104" y2="31.0647" gradientUnits="userSpaceOnUse">
<stop stop-color="#C42091"/>
<stop offset="1" stop-color="#6617CA"/>
</linearGradient>
<linearGradient id="paint14_linear_142_147" x1="19.375" y1="30.9072" x2="21.6042" y2="31.0647" gradientUnits="userSpaceOnUse">
<stop stop-color="#C42091"/>
<stop offset="1" stop-color="#6617CA"/>
</linearGradient>
<linearGradient id="paint15_linear_142_147" x1="15.4902" y1="30.8887" x2="17.6826" y2="31.0428" gradientUnits="userSpaceOnUse">
<stop stop-color="#C42091"/>
<stop offset="1" stop-color="#6617CA"/>
</linearGradient>
<linearGradient id="paint16_linear_142_147" x1="23.2812" y1="23.876" x2="25.5104" y2="24.0334" gradientUnits="userSpaceOnUse">
<stop stop-color="#C42091"/>
<stop offset="1" stop-color="#6617CA"/>
</linearGradient>
<linearGradient id="paint17_linear_142_147" x1="19.375" y1="23.876" x2="21.6042" y2="24.0334" gradientUnits="userSpaceOnUse">
<stop stop-color="#C42091"/>
<stop offset="1" stop-color="#6617CA"/>
</linearGradient>
<linearGradient id="paint18_linear_142_147" x1="19.375" y1="16.8964" x2="21.5941" y2="17.0561" gradientUnits="userSpaceOnUse">
<stop stop-color="#C42091"/>
<stop offset="1" stop-color="#6617CA"/>
</linearGradient>
<linearGradient id="paint19_linear_142_147" x1="13.2188" y1="34.3887" x2="15.4488" y2="34.5499" gradientUnits="userSpaceOnUse">
<stop stop-color="#C42091"/>
<stop offset="1" stop-color="#6617CA"/>
</linearGradient>
<linearGradient id="paint20_linear_142_147" x1="29.2266" y1="27.395" x2="31.4463" y2="27.5522" gradientUnits="userSpaceOnUse">
<stop stop-color="#C42091"/>
<stop offset="1" stop-color="#6617CA"/>
</linearGradient>
<linearGradient id="paint21_linear_142_147" x1="13.2227" y1="27.3884" x2="15.4424" y2="27.5456" gradientUnits="userSpaceOnUse">
<stop stop-color="#C42091"/>
<stop offset="1" stop-color="#6617CA"/>
</linearGradient>
<linearGradient id="paint22_linear_142_147" x1="15.4688" y1="23.9276" x2="17.6878" y2="24.0876" gradientUnits="userSpaceOnUse">
<stop stop-color="#C42091"/>
<stop offset="1" stop-color="#6617CA"/>
</linearGradient>
<linearGradient id="paint23_linear_142_147" x1="37.082" y1="20.4102" x2="39.311" y2="20.5693" gradientUnits="userSpaceOnUse">
<stop stop-color="#C42091"/>
<stop offset="1" stop-color="#6617CA"/>
</linearGradient>
<linearGradient id="paint24_linear_142_147" x1="33.125" y1="20.4272" x2="35.355" y2="20.5884" gradientUnits="userSpaceOnUse">
<stop stop-color="#C42091"/>
<stop offset="1" stop-color="#6617CA"/>
</linearGradient>
<linearGradient id="paint25_linear_142_147" x1="13.2402" y1="20.4102" x2="15.435" y2="20.5639" gradientUnits="userSpaceOnUse">
<stop stop-color="#C42091"/>
<stop offset="1" stop-color="#6617CA"/>
</linearGradient>
<linearGradient id="paint26_linear_142_147" x1="23.2812" y1="16.8964" x2="25.5003" y2="17.0563" gradientUnits="userSpaceOnUse">
<stop stop-color="#C42091"/>
<stop offset="1" stop-color="#6617CA"/>
</linearGradient>
<linearGradient id="paint27_linear_142_147" x1="15.4688" y1="16.8922" x2="17.6691" y2="17.0489" gradientUnits="userSpaceOnUse">
<stop stop-color="#C42091"/>
<stop offset="1" stop-color="#6617CA"/>
</linearGradient>
<linearGradient id="paint28_linear_142_147" x1="17.4668" y1="34.3964" x2="19.6992" y2="34.557" gradientUnits="userSpaceOnUse">
<stop stop-color="#C42091"/>
<stop offset="1" stop-color="#6617CA"/>
</linearGradient>
<linearGradient id="paint29_linear_142_147" x1="27.207" y1="23.8805" x2="29.4153" y2="24.0361" gradientUnits="userSpaceOnUse">
<stop stop-color="#C42091"/>
<stop offset="1" stop-color="#6617CA"/>
</linearGradient>
<linearGradient id="paint30_linear_142_147" x1="29.2402" y1="20.4121" x2="31.4234" y2="20.5644" gradientUnits="userSpaceOnUse">
<stop stop-color="#C42091"/>
<stop offset="1" stop-color="#6617CA"/>
</linearGradient>
<linearGradient id="paint31_linear_142_147" x1="35" y1="16.8164" x2="37.3236" y2="16.9848" gradientUnits="userSpaceOnUse">
<stop stop-color="#C42091"/>
<stop offset="1" stop-color="#6617CA"/>
</linearGradient>
<linearGradient id="paint32_linear_142_147" x1="31.0996" y1="16.7969" x2="33.4231" y2="16.966" gradientUnits="userSpaceOnUse">
<stop stop-color="#C42091"/>
<stop offset="1" stop-color="#6617CA"/>
</linearGradient>
<linearGradient id="paint33_linear_142_147" x1="25.3125" y1="27.4132" x2="27.4998" y2="27.565" gradientUnits="userSpaceOnUse">
<stop stop-color="#C42091"/>
<stop offset="1" stop-color="#6617CA"/>
</linearGradient>
<linearGradient id="paint34_linear_142_147" x1="21.3555" y1="20.4263" x2="23.6053" y2="20.5892" gradientUnits="userSpaceOnUse">
<stop stop-color="#C42091"/>
<stop offset="1" stop-color="#6617CA"/>
</linearGradient>
<linearGradient id="paint35_linear_142_147" x1="27.1875" y1="16.8844" x2="29.4041" y2="17.0431" gradientUnits="userSpaceOnUse">
<stop stop-color="#C42091"/>
<stop offset="1" stop-color="#6617CA"/>
</linearGradient>
<linearGradient id="paint36_linear_142_147" x1="21.3672" y1="27.4006" x2="23.6012" y2="27.5582" gradientUnits="userSpaceOnUse">
<stop stop-color="#C42091"/>
<stop offset="1" stop-color="#6617CA"/>
</linearGradient>
<linearGradient id="paint37_linear_142_147" x1="17.457" y1="27.3528" x2="19.714" y2="27.5088" gradientUnits="userSpaceOnUse">
<stop stop-color="#C42091"/>
<stop offset="1" stop-color="#6617CA"/>
</linearGradient>
<linearGradient id="paint38_linear_142_147" x1="17.459" y1="20.4263" x2="19.7102" y2="20.5894" gradientUnits="userSpaceOnUse">
<stop stop-color="#C42091"/>
<stop offset="1" stop-color="#6617CA"/>
</linearGradient>
<linearGradient id="paint39_linear_142_147" x1="25.3203" y1="20.4199" x2="27.5134" y2="20.5742" gradientUnits="userSpaceOnUse">
<stop stop-color="#C42091"/>
<stop offset="1" stop-color="#6617CA"/>
</linearGradient>
</defs>
</svg>
