<svg width="80" height="80" viewBox="0 0 80 80" fill="none" xmlns="http://www.w3.org/2000/svg">
<g clip-path="url(#clip0_142_134)">
<path d="M27.7931 5.21485C29.9311 6.78079 31.7171 8.64887 32.8126 11.0938C32.8126 11.1969 32.8126 11.3 32.8126 11.4063C32.9157 11.4063 33.0188 11.4063 33.1251 11.4063C33.1672 11.2679 33.2093 11.1295 33.2526 10.9869C34.3256 7.98056 37.1863 5.52504 39.9806 4.16421C43.6865 2.45738 47.9168 2.23528 51.7561 3.62C55.5068 5.09264 58.4284 7.79046 60.1055 11.4566C61.6799 15.0768 61.7653 19.3003 60.3895 22.9889C59.4906 25.2603 58.0457 27.4629 56.0701 28.9289C55.9575 29.0126 55.8449 29.0964 55.7289 29.1827C55.6002 29.2779 55.6002 29.2779 55.4688 29.375C55.5597 29.3756 55.6505 29.3761 55.7441 29.3767C56.6948 29.3833 57.6453 29.3942 58.5959 29.4074C58.9501 29.4118 59.3042 29.4151 59.6584 29.4173C60.1693 29.4207 60.68 29.428 61.1909 29.436C61.3477 29.4362 61.5045 29.4364 61.666 29.4366C62.8905 29.4618 63.7601 29.7928 64.8048 30.4102C66.0066 31.6787 66.1185 33.1828 66.1091 34.8425C66.1088 35.0642 66.1088 35.0642 66.1084 35.2904C66.1076 35.76 66.1056 36.2296 66.1036 36.6992C66.1028 37.0186 66.1021 37.3381 66.1015 37.6575C66.0997 38.4383 66.0971 39.2192 66.0938 40C67.6499 38.8604 69.1998 37.7139 70.7325 36.543C70.8692 36.4387 71.006 36.3344 71.1468 36.227C71.7885 35.7375 72.4292 35.2468 73.0683 34.754C73.289 34.5853 73.5098 34.4167 73.7306 34.2481C73.828 34.1722 73.9254 34.0963 74.0258 34.0182C74.9774 33.2949 75.8696 32.8619 77.0899 32.9047C78.0833 33.0599 78.9399 33.5027 79.5411 34.3164C79.8703 34.8898 80.0193 35.2879 80.0219 35.9373C80.0228 36.0647 80.0237 36.1921 80.0246 36.3234C80.0248 36.4633 80.025 36.6033 80.0252 36.7475C80.026 36.8962 80.0268 37.0449 80.0276 37.1981C80.0301 37.6987 80.0314 38.1992 80.0327 38.6997C80.0342 39.0577 80.0357 39.4157 80.0373 39.7737C80.0422 40.9515 80.0454 42.1292 80.0483 43.3069C80.0488 43.5072 80.0493 43.7075 80.0499 43.9138C80.0547 45.8024 80.0589 47.691 80.0615 49.5796C80.0621 50.017 80.0627 50.4544 80.0634 50.8918C80.0635 51.0005 80.0637 51.1092 80.0638 51.2212C80.0665 52.9814 80.0729 54.7415 80.0809 56.5016C80.089 58.3095 80.0934 60.1174 80.0947 61.9252C80.0954 62.94 80.0978 63.9547 80.104 64.9694C80.1097 65.9244 80.1111 66.8792 80.109 67.8342C80.109 68.1844 80.1106 68.5345 80.1139 68.8846C80.1183 69.3635 80.1168 69.8421 80.1139 70.321C80.1178 70.5278 80.1178 70.5278 80.1218 70.7387C80.1059 71.7937 79.7467 72.4836 79.0626 73.2813C78.4011 73.8581 77.7358 74.0885 76.8653 74.1211C76.7282 74.1288 76.591 74.1364 76.4497 74.1443C75.1336 73.9341 74.0658 73.098 73.0567 72.2754C72.8118 72.0804 72.5667 71.8857 72.3213 71.6913C72.1964 71.5923 72.0716 71.4932 71.9431 71.3912C71.2167 70.8233 70.4711 70.2815 69.7264 69.7379C68.5072 68.8469 67.3009 67.9386 66.0938 67.0313C66.0955 67.2274 66.0971 67.4236 66.0988 67.6257C66.1045 68.3587 66.1081 69.0916 66.111 69.8246C66.1126 70.1408 66.1147 70.4571 66.1174 70.7734C66.1212 71.2299 66.123 71.6864 66.1244 72.143C66.126 72.2827 66.1276 72.4224 66.1292 72.5663C66.1295 74.1032 65.8862 75.3856 64.8438 76.5625C63.9766 77.2511 63.2408 77.5194 62.1314 77.5205C62.0297 77.5209 61.928 77.5212 61.8231 77.5215C61.4799 77.5224 61.1366 77.5222 60.7934 77.5219C60.5457 77.5224 60.2981 77.5228 60.0504 77.5234C59.368 77.5246 58.6856 77.5249 58.0032 77.525C57.268 77.5253 56.5327 77.5265 55.7974 77.5275C54.1888 77.5297 52.5801 77.5306 50.9714 77.5313C49.9673 77.5317 48.9631 77.5324 47.959 77.5331C45.1797 77.535 42.4004 77.5366 39.6211 77.5371C39.3542 77.5372 39.3542 77.5372 39.0819 77.5372C38.9035 77.5373 38.7251 77.5373 38.5413 77.5373C38.1798 77.5374 37.8184 77.5375 37.4569 77.5375C37.1879 77.5376 37.1879 77.5376 36.9135 77.5376C34.008 77.5383 31.1024 77.541 28.1969 77.5446C25.2151 77.5483 22.2332 77.5503 19.2514 77.5505C17.5767 77.5506 15.902 77.5515 14.2274 77.5543C12.8013 77.5567 11.3752 77.5575 9.94916 77.5563C9.22148 77.5556 8.49382 77.5558 7.76615 77.558C7.09984 77.56 6.43357 77.5598 5.76726 77.5579C5.52636 77.5576 5.28546 77.5581 5.04456 77.5594C2.16677 77.5747 2.16677 77.5747 0.99568 76.503C0.0785946 75.4206 -0.114026 74.2754 -0.09807 72.9005C-0.0991785 72.7271 -0.100287 72.5538 -0.101429 72.3751C-0.104167 71.7977 -0.101352 71.2204 -0.0985254 70.6429C-0.0993287 70.2276 -0.100437 69.8122 -0.101913 69.3968C-0.104777 68.3879 -0.10346 67.379 -0.10065 66.3701C-0.0984538 65.5499 -0.0978509 64.7298 -0.0983752 63.9096C-0.0984498 63.7927 -0.0985248 63.6757 -0.0986017 63.5552C-0.098762 63.3176 -0.0989258 63.08 -0.0990952 62.8424C-0.100432 60.7439 -0.0978337 58.6455 -0.0931848 56.5471C-0.0886775 54.5125 -0.0875732 52.478 -0.0899805 50.4434C-0.0926011 48.2255 -0.0932294 46.0076 -0.0904954 43.7897C-0.0902073 43.5531 -0.0899199 43.3165 -0.0896348 43.0798C-0.0894922 42.9634 -0.08935 42.847 -0.0892032 42.7271C-0.0883285 41.9081 -0.0888422 41.0891 -0.0898756 40.2701C-0.0910852 39.2717 -0.0900247 38.2734 -0.086099 37.2751C-0.0841499 36.7661 -0.0835188 36.2571 -0.0849331 35.7481C-0.0862911 35.1957 -0.0837992 34.6435 -0.0803317 34.0911C-0.0816193 33.931 -0.0829079 33.771 -0.0842346 33.6061C-0.0701425 32.3895 0.204419 31.567 1.01571 30.6543C2.19305 29.6241 3.16589 29.484 4.70101 29.4666C4.94873 29.462 4.94873 29.462 5.20145 29.4574C5.72676 29.4481 6.25208 29.4408 6.77743 29.4336C7.13449 29.4276 7.49154 29.4215 7.8486 29.4153C8.72199 29.4003 9.5954 29.387 10.4688 29.375C10.3832 29.3005 10.2977 29.2259 10.2095 29.1491C10.0409 29.002 10.0409 29.002 9.86886 28.8519C9.75749 28.7548 9.64612 28.6577 9.53137 28.5577C9.14908 28.2196 8.78941 27.8699 8.43758 27.5C8.35802 27.4196 8.27847 27.3393 8.1965 27.2565C5.38942 24.2695 4.58125 20.493 4.63815 16.5222C4.76849 12.612 6.70685 9.108 9.48006 6.41968C14.4437 1.97238 22.3002 1.43905 27.7931 5.21485ZM10.5177 8.96485C8.12543 11.4579 7.08049 14.5975 7.11438 17.9931C7.19904 20.7946 8.25496 23.5386 10.1563 25.625C10.2681 25.7511 10.3799 25.8772 10.4951 26.0071C12.3014 27.9342 14.8163 29.4935 17.5069 29.6358C18.0146 29.6479 18.521 29.6467 19.0287 29.6363C19.4162 29.6289 19.803 29.6299 20.1905 29.632C21.6356 29.6269 22.8774 29.4974 24.2188 28.9063C24.3207 28.8622 24.4225 28.8181 24.5274 28.7727C25.7468 28.2056 26.8092 27.4501 27.8126 26.5625C27.9083 26.4815 28.0039 26.4006 28.1025 26.3171C30.3028 24.3132 31.5884 21.0986 31.7506 18.1787C31.7897 14.9717 30.9496 12.1803 28.9063 9.68751C28.8217 9.57753 28.7371 9.46756 28.65 9.35425C26.7403 6.99034 23.8085 5.67753 20.8601 5.2295C16.9184 4.83578 13.3683 6.26659 10.5177 8.96485ZM38.5938 8.12501C38.4552 8.22984 38.4552 8.22984 38.3137 8.3368C36.1231 10.0462 34.7329 12.9865 34.289 15.6781C33.8837 18.981 34.6795 22.0993 36.5626 24.8438C38.3821 27.129 40.732 28.8265 43.5938 29.5313C44.0332 29.5789 44.4698 29.5897 44.9116 29.5947C45.0359 29.5965 45.1602 29.5983 45.2883 29.6001C45.5508 29.6031 45.8133 29.6051 46.0758 29.6063C46.4689 29.6093 46.8615 29.619 47.2544 29.6289C50.2886 29.6688 52.9407 28.493 55.1679 26.4136C57.8021 23.6138 58.9245 20.3557 58.8087 16.5234C58.6667 13.8009 57.4569 11.2207 55.6251 9.21876C55.4867 9.05893 55.4867 9.05893 55.3455 8.89588C53.2333 6.59939 50.0342 5.33308 46.9618 5.15626C43.842 5.15626 40.9928 6.09867 38.5938 8.12501ZM32.8126 23.75C32.7369 23.8898 32.6611 24.0296 32.5831 24.1736C31.621 25.9207 30.5013 27.3629 29.0626 28.75C28.6759 29.1367 28.6759 29.1367 28.2813 29.5313C31.3751 29.5313 34.4688 29.5313 37.6563 29.5313C37.0871 28.9614 37.0871 28.9614 36.5064 28.4033C35.0858 27.0477 34.0229 25.496 33.1251 23.75C33.022 23.75 32.9188 23.75 32.8126 23.75ZM2.50008 32.8125C2.35214 33.2601 2.32405 33.669 2.3233 34.1385C2.3227 34.2789 2.3221 34.4194 2.32148 34.5641C2.32162 34.7178 2.32175 34.8715 2.32189 35.0298C2.32143 35.1935 2.32096 35.3573 2.32048 35.526C2.31913 36.0764 2.31889 36.6269 2.31866 37.1773C2.31793 37.5713 2.31715 37.9652 2.31631 38.3591C2.31426 39.4306 2.31324 40.5021 2.31255 41.5736C2.31212 42.2427 2.31146 42.9118 2.31076 43.5809C2.30885 45.4337 2.30724 47.2865 2.30672 49.1393C2.30668 49.2579 2.30665 49.3765 2.30661 49.4986C2.30658 49.6175 2.30654 49.7363 2.30651 49.8587C2.30644 50.0995 2.30637 50.3404 2.3063 50.5812C2.30626 50.7006 2.30623 50.8201 2.30619 50.9432C2.30558 52.8788 2.30285 54.8144 2.29921 56.7501C2.2955 58.7377 2.29356 60.7253 2.29338 62.7129C2.29323 63.8288 2.29234 64.9446 2.2895 66.0604C2.28684 67.1099 2.28658 68.1593 2.28796 69.2088C2.28808 69.5941 2.2874 69.9794 2.28585 70.3647C2.28387 70.8905 2.28478 71.4162 2.28641 71.9419C2.28516 72.0946 2.2839 72.2472 2.2826 72.4045C2.28899 73.2838 2.37885 73.9151 2.81258 74.6875C3.36866 75.0582 3.6043 75.0395 4.26411 75.0406C4.36467 75.0412 4.46522 75.0418 4.56882 75.0424C4.90808 75.0441 5.24729 75.0434 5.58655 75.0428C5.83131 75.0435 6.07607 75.0444 6.32083 75.0453C6.99523 75.0475 7.66962 75.0478 8.34403 75.0477C9.07065 75.048 9.79728 75.05 10.5239 75.0518C12.1135 75.0554 13.7031 75.0566 15.2927 75.0574C16.2847 75.0579 17.2767 75.0589 18.2687 75.0601C21.0138 75.0631 23.7589 75.0657 26.504 75.0661C26.6797 75.0662 26.8555 75.0662 27.0366 75.0662C27.3929 75.0663 27.7492 75.0664 28.1055 75.0664C28.3708 75.0665 28.3708 75.0665 28.6415 75.0665C28.8186 75.0665 28.9957 75.0666 29.1782 75.0666C32.0492 75.0671 34.9201 75.0714 37.7911 75.0772C40.7368 75.0831 43.6824 75.0862 46.6281 75.0862C48.2827 75.0863 49.9374 75.0876 51.5921 75.0922C53.0008 75.096 54.4094 75.0971 55.8181 75.0948C56.5372 75.0937 57.2563 75.0938 57.9753 75.0973C58.6333 75.1005 59.2911 75.1002 59.949 75.0969C60.1874 75.0963 60.4258 75.0971 60.6641 75.0993C60.9876 75.1022 61.3107 75.1002 61.6342 75.097C61.814 75.0971 61.9939 75.0973 62.1791 75.0974C62.8102 74.9686 63.0417 74.7171 63.4376 74.2188C63.6118 73.7787 63.6136 73.3635 63.6144 72.8928C63.615 72.7523 63.6156 72.6119 63.6162 72.4672C63.616 72.2366 63.616 72.2366 63.6158 72.0015C63.6162 71.8377 63.6167 71.674 63.6172 71.5053C63.6185 70.9548 63.6188 70.4044 63.619 69.8539C63.6197 69.46 63.6205 69.0661 63.6214 68.6721C63.6234 67.6006 63.6244 66.5292 63.6251 65.4577C63.6255 64.7886 63.6262 64.1195 63.6269 63.4504C63.6288 61.5975 63.6304 59.7447 63.631 57.8919C63.631 57.7734 63.631 57.6548 63.6311 57.5326C63.6311 57.4138 63.6311 57.295 63.6312 57.1725C63.6312 56.9317 63.6313 56.6909 63.6314 56.4501C63.6314 56.3306 63.6314 56.2112 63.6315 56.0881C63.6321 54.1525 63.6348 52.2168 63.6385 50.2812C63.6422 48.2936 63.6441 46.306 63.6443 44.3184C63.6444 43.2025 63.6453 42.0867 63.6482 40.9708C63.6508 39.9214 63.6511 38.8719 63.6497 37.8225C63.6496 37.4372 63.6503 37.0519 63.6518 36.6666C63.6538 36.1408 63.6529 35.6151 63.6513 35.0893C63.6525 34.9367 63.6538 34.784 63.6551 34.6268C63.6487 33.7499 63.5707 33.1086 63.1251 32.3438C62.5993 31.9842 62.1288 31.9917 61.5034 31.9906C61.4032 31.99 61.3031 31.9894 61.1999 31.9888C60.8629 31.9872 60.526 31.9878 60.189 31.9884C59.9455 31.9877 59.702 31.9869 59.4585 31.9859C58.7883 31.9837 58.1182 31.9835 57.448 31.9835C56.7256 31.9833 56.0032 31.9812 55.2809 31.9794C53.701 31.9759 52.1211 31.9746 50.5411 31.9738C49.555 31.9733 48.5689 31.9723 47.5828 31.9712C44.8535 31.9681 42.1242 31.9656 39.3949 31.9651C39.2202 31.9651 39.0455 31.9651 38.8655 31.965C38.5114 31.965 38.1572 31.9649 37.803 31.9649C37.6272 31.9648 37.4514 31.9648 37.2702 31.9648C37.0942 31.9647 36.9181 31.9647 36.7368 31.9647C33.8831 31.9641 31.0294 31.9599 28.1757 31.9541C25.2472 31.9481 22.3187 31.9451 19.3901 31.945C17.7453 31.9449 16.1005 31.9436 14.4557 31.9391C13.0554 31.9353 11.6552 31.9341 10.2549 31.9365C9.54021 31.9376 8.82559 31.9375 8.11091 31.9339C7.45684 31.9307 6.80288 31.9311 6.14881 31.9344C5.91202 31.9349 5.67523 31.9341 5.43845 31.9319C3.77216 31.8712 3.77216 31.8712 2.50008 32.8125ZM74.8927 36.5723C74.5983 36.8051 74.3037 37.0376 74.0089 37.2699C73.8608 37.3877 73.7128 37.5055 73.5603 37.6269C72.9223 38.1281 72.2678 38.6053 71.6114 39.082C70.2854 40.0517 68.987 41.0544 67.6968 42.0712C67.3438 42.3438 67.3438 42.3438 67.0419 42.5064C66.5047 42.8283 66.1545 43.0729 65.975 43.6897C65.9274 44.2112 65.9196 44.7206 65.9247 45.2443C65.9217 45.4419 65.9188 45.6394 65.9157 45.8429C65.9081 46.3831 65.9083 46.923 65.9105 47.4632C65.9116 47.9152 65.909 48.3671 65.9063 48.819C65.9002 49.886 65.9006 50.9529 65.9051 52.0199C65.9097 53.1182 65.9033 54.216 65.8916 55.3142C65.8819 56.2592 65.8789 57.204 65.8813 58.1491C65.8826 58.7126 65.8815 59.2758 65.8739 59.8392C65.8658 60.4685 65.8717 61.097 65.8789 61.7263C65.8747 61.9111 65.8704 62.096 65.8661 62.2865C65.8853 63.0827 65.9254 63.5605 66.4661 64.1689C66.9007 64.5284 67.342 64.846 67.8126 65.1563C68.0475 65.331 68.2817 65.5067 68.5145 65.6842C68.7425 65.8504 68.9708 66.0162 69.1993 66.1816C70.2966 66.9827 71.3821 67.7975 72.461 68.6231C72.7355 68.8318 73.0099 69.0406 73.2844 69.2493C73.7786 69.6255 74.2695 70.0055 74.7578 70.3894C74.9654 70.5494 75.1732 70.7093 75.3809 70.8691C75.4722 70.9428 75.5635 71.0165 75.6576 71.0923C76.0988 71.4274 76.36 71.5612 76.9196 71.5765C77.362 71.4498 77.362 71.4498 77.5241 71.0917C77.7016 70.4653 77.6995 69.8852 77.696 69.2372C77.6965 69.0974 77.697 68.9575 77.6975 68.8134C77.6987 68.3448 77.6978 67.8762 77.6968 67.4075C77.6972 67.0716 77.6978 66.7356 77.6984 66.3996C77.6999 65.487 77.6993 64.5744 77.6983 63.6618C77.6975 62.7072 77.6983 61.7527 77.6987 60.7982C77.6993 59.1952 77.6986 57.5922 77.6971 55.9892C77.6954 54.1351 77.6959 52.2811 77.6976 50.4271C77.6991 48.836 77.6993 47.245 77.6984 45.654C77.698 44.7034 77.6979 43.7528 77.6989 42.8022C77.6998 41.9085 77.6992 41.0149 77.6974 40.1213C77.697 39.793 77.6971 39.4648 77.6978 39.1366C77.6986 38.689 77.6976 38.2416 77.696 37.794C77.6967 37.6637 77.6974 37.5334 77.6981 37.3991C77.6937 36.7456 77.6735 36.2093 77.3438 35.625C76.3444 35.1276 75.636 35.9648 74.8927 36.5723Z" fill="url(#paint0_linear_142_134)"/>
<path d="M7.03067 54.6874C7.56813 55.0835 7.64624 55.2747 7.81192 55.9374C7.86348 60.2171 7.91505 64.4968 7.96817 68.9062C24.4682 68.9062 40.9682 68.9062 57.9682 68.9062C58.2139 68.4147 58.1469 67.8886 58.1466 67.349C58.1471 67.2204 58.1477 67.0918 58.1482 66.9593C58.1494 66.6796 58.1502 66.3998 58.1508 66.1201C58.1519 65.6775 58.1543 65.235 58.1572 64.7924C58.1654 63.5339 58.1729 62.2753 58.1753 61.0168C58.1769 60.2474 58.1815 59.4782 58.1881 58.7089C58.19 58.4154 58.1908 58.122 58.1904 57.8286C58.1901 57.4182 58.1935 57.008 58.1979 56.5976C58.1968 56.4762 58.1958 56.3547 58.1947 56.2296C58.2042 55.6852 58.2389 55.3695 58.5642 54.9245C59.0653 54.5766 59.4044 54.6024 59.9994 54.6874C60.4537 55.0341 60.5994 55.2374 60.7807 55.7812C60.7965 56.1905 60.8036 56.5957 60.8034 57.0051C60.8042 57.1919 60.8042 57.1919 60.805 57.3825C60.8064 57.795 60.8067 58.2074 60.8069 58.6199C60.8074 58.907 60.8079 59.1941 60.8085 59.4812C60.8094 60.0837 60.8097 60.6862 60.8096 61.2887C60.8096 62.0588 60.8117 62.8288 60.8144 63.5988C60.8162 64.1922 60.8165 64.7857 60.8164 65.3791C60.8166 65.6629 60.8173 65.9466 60.8185 66.2303C60.82 66.6286 60.8196 67.0267 60.8186 67.425C60.8195 67.541 60.8204 67.6571 60.8213 67.7766C60.8154 68.766 60.7299 69.8318 60.0385 70.5956C59.9652 70.6804 59.8919 70.7652 59.8163 70.8526C58.8102 71.7018 57.7973 71.629 56.5421 71.623C56.3307 71.6237 56.1193 71.6245 55.9079 71.6256C55.3278 71.6278 54.7477 71.6272 54.1676 71.626C53.5416 71.6253 52.9156 71.6272 52.2897 71.6288C51.0637 71.6315 49.8377 71.6316 48.6117 71.6308C47.6153 71.6302 46.6189 71.6304 45.6225 71.6312C45.4098 71.6314 45.4098 71.6314 45.1928 71.6316C44.9048 71.6318 44.6167 71.6321 44.3287 71.6323C41.6272 71.6345 38.9257 71.6336 36.2242 71.6318C33.7525 71.6303 31.2809 71.6323 28.8093 71.636C26.2715 71.6398 23.7337 71.6413 21.1959 71.6403C19.7711 71.6398 18.3463 71.6401 16.9214 71.6428C15.7086 71.6451 14.4957 71.6452 13.2828 71.6425C12.664 71.6412 12.0452 71.6409 11.4264 71.6432C10.8598 71.6454 10.2932 71.6447 9.72658 71.6416C9.42484 71.6408 9.12309 71.643 8.82135 71.6453C7.62052 71.6351 6.8823 71.5178 5.9772 70.6878C5.32657 69.8465 5.28759 69.2151 5.28426 68.1827C5.28324 68.0449 5.28221 67.9072 5.28115 67.7652C5.27807 67.3092 5.27625 66.8531 5.27469 66.397C5.27405 66.2414 5.27342 66.0857 5.27276 65.9253C5.2695 65.102 5.26727 64.2786 5.2658 63.4553C5.26407 62.6039 5.25869 61.7525 5.25249 60.9012C5.24841 60.2472 5.2471 59.5932 5.24654 58.9392C5.24578 58.6253 5.24395 58.3114 5.24106 57.9974C5.23727 57.5586 5.2374 57.12 5.23849 56.6812C5.23649 56.5512 5.23448 56.4212 5.23242 56.2873C5.23752 55.7244 5.26143 55.3826 5.59483 54.9193C6.0974 54.5787 6.43812 54.6028 7.03067 54.6874Z" fill="url(#paint1_linear_142_134)"/>
<path d="M8.2173 35.4281C8.3963 35.427 8.57529 35.4259 8.75972 35.4248C8.95645 35.4252 9.15319 35.4255 9.35589 35.4259C9.56694 35.4252 9.77798 35.4244 9.98903 35.4234C10.5695 35.4212 11.15 35.421 11.7305 35.421C12.3564 35.4208 12.9823 35.4187 13.6082 35.4169C14.977 35.4134 16.3458 35.4121 17.7146 35.4113C18.5692 35.4108 19.4238 35.4098 20.2785 35.4087C22.6445 35.4056 25.0105 35.4031 27.3766 35.4026C27.528 35.4026 27.6795 35.4026 27.8355 35.4025C28.1425 35.4025 28.4495 35.4024 28.7565 35.4024C28.9089 35.4023 29.0613 35.4023 29.2183 35.4023C29.3709 35.4022 29.5235 35.4022 29.6807 35.4022C32.1533 35.4016 34.6259 35.3974 37.0984 35.3916C39.6367 35.3856 42.175 35.3826 44.7134 35.3825C46.1386 35.3824 47.5639 35.3811 48.9891 35.3766C50.2028 35.3728 51.4164 35.3716 52.63 35.374C53.2492 35.3751 53.8683 35.375 54.4874 35.3714C55.0546 35.3682 55.6216 35.3686 56.1888 35.3719C56.4904 35.3727 56.7921 35.3696 57.0937 35.3665C58.4605 35.3797 59.2397 35.6621 60.2146 36.6113C60.775 37.5382 60.8272 38.5462 60.8214 39.6013C60.8223 39.7894 60.8223 39.7894 60.8231 39.9813C60.8245 40.3918 60.8236 40.8023 60.8225 41.2128C60.8227 41.4999 60.823 41.787 60.8234 42.0741C60.8239 42.6739 60.8232 43.2737 60.8217 43.8735C60.82 44.6416 60.821 45.4097 60.8229 46.1779C60.824 46.7699 60.8236 47.362 60.8228 47.9541C60.8226 48.2373 60.8229 48.5206 60.8236 48.8039C60.8244 49.1995 60.8232 49.595 60.8214 49.9907C60.8221 50.1072 60.8227 50.2236 60.8233 50.3437C60.8182 50.972 60.7748 51.4765 60.4685 52.0313C59.8872 52.4188 59.5938 52.4162 58.906 52.3438C58.5639 52.1079 58.5639 52.1079 58.281 51.7188C58.2188 51.2706 58.1944 50.8817 58.1982 50.4336C58.1968 50.3045 58.1954 50.1753 58.194 50.0423C58.1902 49.616 58.1908 49.1898 58.1913 48.7634C58.1893 48.4673 58.1871 48.1712 58.1846 47.8751C58.1786 47.0958 58.1763 46.3166 58.1748 45.5374C58.1717 44.2889 58.1628 43.0405 58.1546 41.7921C58.1522 41.3553 58.1511 40.9186 58.1502 40.4818C58.1491 40.2153 58.148 39.9488 58.1469 39.6822C58.147 39.5602 58.1471 39.4381 58.1472 39.3123C58.1563 38.6985 58.1563 38.6985 57.9685 38.125C41.4685 38.125 24.9685 38.125 7.9685 38.125C7.91693 42.4047 7.86537 46.6844 7.81225 51.0938C7.3435 52.1875 7.3435 52.1875 7.031 52.3438C6.06958 52.4328 6.06958 52.4328 5.5944 52.1131C5.19243 51.5513 5.22485 51.0255 5.23137 50.3599C5.23028 50.2229 5.22918 50.0859 5.22806 49.9447C5.2253 49.4917 5.22713 49.0388 5.22924 48.5858C5.22882 48.2705 5.22821 47.9553 5.22743 47.64C5.2265 46.9789 5.22784 46.3179 5.23076 45.6568C5.23432 44.8109 5.23228 43.9651 5.22853 43.1191C5.22627 42.4678 5.22699 41.8165 5.22861 41.1652C5.22903 40.8534 5.22852 40.5416 5.22706 40.2298C5.22547 39.793 5.2279 39.3563 5.23137 38.9195C5.23011 38.7915 5.22884 38.6634 5.22754 38.5315C5.24049 37.648 5.43368 37.1357 5.93725 36.4063C6.66438 35.7337 7.22541 35.4301 8.2173 35.4281Z" fill="url(#paint2_linear_142_134)"/>
<path d="M42.9874 43.8477C45.7257 46.6917 46.9625 50.3442 46.9077 54.2542C46.7878 57.9423 45.0836 61.4691 42.4051 63.9852C39.2128 66.8293 35.4513 67.7059 31.2491 67.5C27.7328 67.1829 24.3887 65.2127 22.1378 62.5293C19.8522 59.4818 18.6217 55.7891 19.1099 51.9656C19.608 48.6609 20.9216 45.9932 23.2804 43.5938C23.3875 43.4846 23.4947 43.3754 23.6051 43.263C29.1308 38.0033 37.7046 38.9007 42.9874 43.8477ZM25.3116 45.1563C25.2097 45.2407 25.1078 45.3251 25.0028 45.412C22.9177 47.3019 21.7424 50.2981 21.5171 53.0426C21.44 56.0142 22.3629 58.6338 24.2179 60.9375C24.2912 61.0364 24.3645 61.1353 24.44 61.2372C25.9325 63.1554 28.4811 64.468 30.8371 64.9317C34.2394 65.341 37.4678 64.6596 40.2001 62.5191C42.5719 60.5485 43.9443 57.8832 44.3741 54.8438C44.5657 51.6606 43.6992 48.6195 41.6109 46.1698C39.5053 43.8027 36.7332 42.4843 33.5929 42.1875C30.4824 42.025 27.6489 43.1606 25.3116 45.1563Z" fill="url(#paint3_linear_142_134)"/>
<path d="M30.9829 46.2613C32.5151 47.1677 33.986 48.1653 35.4597 49.1631C35.9189 49.4738 36.3788 49.7834 36.8388 50.0928C37.1334 50.2917 37.428 50.4907 37.7226 50.6897C37.8588 50.7814 37.9951 50.8731 38.1355 50.9675C40.2896 52.4294 40.2896 52.4294 40.468 53.2813C40.4894 53.9391 40.4181 54.3895 40.0187 54.9219C39.8601 55.0572 39.6965 55.1866 39.5305 55.3126C39.4163 55.4018 39.302 55.491 39.1844 55.5829C38.2975 56.2511 37.3717 56.8453 36.4235 57.4211C35.6734 57.8828 34.9485 58.3738 34.2277 58.8794C34.033 59.0151 33.8383 59.1507 33.6436 59.2864C33.3511 59.4901 33.0595 59.6947 32.7699 59.9024C30.8149 61.3041 30.8149 61.3041 29.5305 61.2501C29.0094 61.0672 28.581 60.8281 28.2534 60.3671C28.067 59.8376 28.0781 59.32 28.0788 58.7654C28.0778 58.6415 28.0767 58.5177 28.0756 58.3902C28.0727 57.9814 28.072 57.5726 28.0717 57.1637C28.0707 56.8793 28.0697 56.5948 28.0686 56.3103C28.0667 55.7141 28.0661 55.1179 28.0663 54.5217C28.0663 53.7581 28.0621 52.9946 28.0567 52.231C28.0532 51.6434 28.0526 51.0559 28.0527 50.4684C28.0524 50.1869 28.051 49.9054 28.0486 49.6239C28.0455 49.23 28.0464 48.8363 28.0483 48.4425C28.0465 48.3265 28.0448 48.2104 28.043 48.0909C28.0522 47.3279 28.2111 46.9447 28.7492 46.4063C29.421 45.9024 30.246 45.9172 30.9829 46.2613ZM30.6242 49.2188C30.6242 52.1579 30.6242 55.0969 30.6242 58.1251C31.5621 57.604 32.4495 57.084 33.3299 56.4814C33.4458 56.4027 33.5617 56.3241 33.6812 56.243C34.046 55.9953 34.4103 55.7467 34.7746 55.4981C35.0241 55.3285 35.2736 55.1589 35.5232 54.9894C36.1302 54.5769 36.7367 54.1637 37.343 53.7501C36.7171 53.0737 36.033 52.5791 35.2659 52.0722C35.1429 51.9901 35.0199 51.9079 34.8932 51.8233C34.6346 51.651 34.3758 51.4791 34.1167 51.3077C33.7188 51.0442 33.3221 50.7791 32.9255 50.5137C32.6738 50.3462 32.4221 50.1789 32.1702 50.0116C31.9918 49.8923 31.9918 49.8923 31.8097 49.7705C31.6996 49.698 31.5895 49.6254 31.4761 49.5506C31.3308 49.4543 31.3308 49.4543 31.1826 49.3559C30.9381 49.1934 30.9381 49.1934 30.6242 49.2188Z" fill="url(#paint4_linear_142_134)"/>
<path d="M50.6747 13.3888C51.8069 14.6147 52.2647 16.0004 52.3447 17.6564C52.2595 19.2492 51.5992 20.7456 50.4697 21.8751C49.0118 23.0548 47.4876 23.4589 45.6259 23.2814C44.0513 23.0047 42.8104 22.1847 41.7984 20.9614C40.7772 19.4999 40.5762 17.8794 40.8487 16.1372C41.2124 14.7293 42.0542 13.5153 43.2559 12.6948C45.695 11.2929 48.5636 11.4391 50.6747 13.3888ZM44.415 14.9317C43.728 15.676 43.244 16.5724 43.1943 17.5978C43.2625 18.6161 43.6886 19.3756 44.4345 20.0587C45.169 20.6326 45.8995 20.8689 46.8423 20.84C47.7642 20.6839 48.6368 20.2299 49.2197 19.4923C49.7188 18.6735 49.9476 17.7927 49.747 16.8458C49.4573 15.9178 48.9438 15.2147 48.1259 14.6876C46.7295 14.1138 45.7388 14.1796 44.415 14.9317Z" fill="url(#paint5_linear_142_134)"/>
<path d="M22.8126 12.8125C22.9101 12.88 23.0075 12.9474 23.108 13.017C24.1106 13.7863 24.8756 14.9623 25.1173 16.2109C25.3147 17.9878 25.1415 19.5005 24.0919 20.9863C23.0841 22.2183 21.9054 23.025 20.3126 23.2812C18.6536 23.4281 17.168 23.1429 15.8008 22.1582C14.8357 21.34 13.9815 20.1694 13.7501 18.9062C13.6164 17.0217 13.6523 15.4159 14.8872 13.8928C15.9627 12.6978 17.2036 11.8479 18.8557 11.7139C20.3187 11.7335 21.6128 11.9511 22.8126 12.8125ZM16.944 15.3778C16.2131 16.18 16.1758 16.948 16.2055 17.9938C16.3025 18.9602 16.7747 19.5438 17.5001 20.1562C18.3487 20.7263 19.1389 20.9541 20.1563 20.7812C21.2797 20.4342 21.9807 19.6898 22.5587 18.6914C22.8052 17.6559 22.7256 16.7499 22.2474 15.7935C21.6998 14.9706 20.9564 14.5315 20.0098 14.2871C18.7893 14.1055 17.8223 14.5403 16.944 15.3778Z" fill="url(#paint6_linear_142_134)"/>
</g>
<defs>
<linearGradient id="paint0_linear_142_134" x1="-0.103516" y1="2.69922" x2="85.3306" y2="9.20968" gradientUnits="userSpaceOnUse">
<stop stop-color="#C42091"/>
<stop offset="1" stop-color="#6617CA"/>
</linearGradient>
<linearGradient id="paint1_linear_142_134" x1="5.23242" y1="54.6333" x2="61.7241" y2="67.76" gradientUnits="userSpaceOnUse">
<stop stop-color="#C42091"/>
<stop offset="1" stop-color="#6617CA"/>
</linearGradient>
<linearGradient id="paint2_linear_142_134" x1="5.22656" y1="35.3665" x2="61.7314" y2="48.4857" gradientUnits="userSpaceOnUse">
<stop stop-color="#C42091"/>
<stop offset="1" stop-color="#6617CA"/>
</linearGradient>
<linearGradient id="paint3_linear_142_134" x1="19.0039" y1="39.7078" x2="48.7425" y2="41.8289" gradientUnits="userSpaceOnUse">
<stop stop-color="#C42091"/>
<stop offset="1" stop-color="#6617CA"/>
</linearGradient>
<linearGradient id="paint4_linear_142_134" x1="28.043" y1="46.0139" x2="41.3106" y2="46.7827" gradientUnits="userSpaceOnUse">
<stop stop-color="#C42091"/>
<stop offset="1" stop-color="#6617CA"/>
</linearGradient>
<linearGradient id="paint5_linear_142_134" x1="40.7383" y1="11.7651" x2="53.1069" y2="12.6485" gradientUnits="userSpaceOnUse">
<stop stop-color="#C42091"/>
<stop offset="1" stop-color="#6617CA"/>
</linearGradient>
<linearGradient id="paint6_linear_142_134" x1="13.6973" y1="11.7139" x2="25.9449" y2="12.5764" gradientUnits="userSpaceOnUse">
<stop stop-color="#C42091"/>
<stop offset="1" stop-color="#6617CA"/>
</linearGradient>
<clipPath id="clip0_142_134">
<rect width="80" height="80" fill="white"/>
</clipPath>
</defs>
</svg>
