<svg width="40" height="40" viewBox="0 0 40 40" fill="none" xmlns="http://www.w3.org/2000/svg">
<path d="M21.2076 1.43436C21.6791 1.73851 22.0884 2.12095 22.5 2.50003C22.5464 2.54252 22.5928 2.585 22.6405 2.62878C22.8173 2.79097 22.9939 2.95327 23.1689 3.1174C23.2837 3.22496 23.3997 3.33126 23.5157 3.43753C23.579 3.50536 23.6423 3.57319 23.7076 3.64307C24.0572 3.92998 24.4612 3.8806 24.8933 3.87471C24.9843 3.87503 25.0753 3.87535 25.169 3.87567C25.3662 3.87611 25.5634 3.87564 25.7606 3.87437C26.0725 3.87239 26.3844 3.87271 26.6963 3.87374C27.3018 3.87535 27.9074 3.87414 28.5129 3.87253C29.2842 3.87056 30.0556 3.86956 30.8269 3.87175C31.1868 3.87265 31.5467 3.87104 31.9067 3.86898C32.0947 3.86918 32.2827 3.86946 32.4708 3.86983C32.5566 3.86882 32.6424 3.86782 32.7308 3.86678C32.8094 3.8673 32.8881 3.86783 32.9691 3.86836C33.0373 3.86814 33.1056 3.86792 33.1759 3.8677C33.4207 3.91915 33.5139 4.02966 33.6719 4.21878C33.7624 4.39966 33.7585 4.49839 33.7561 4.69946C33.7555 4.76745 33.7549 4.83545 33.7543 4.90551C33.7533 4.9803 33.7523 5.05509 33.7512 5.13215C33.7497 5.29523 33.7482 5.45831 33.7468 5.62139C33.7459 5.7082 33.745 5.79502 33.7441 5.88447C33.7393 6.4403 33.7393 6.99615 33.7384 7.552C33.7374 8.04044 33.7347 8.52876 33.7284 9.01715C33.7223 9.48949 33.7209 9.96165 33.7226 10.434C33.7224 10.6137 33.7205 10.7933 33.717 10.9729C33.6574 11.9806 33.6574 11.9806 34.0327 12.875C34.2538 13.0976 34.5019 13.2678 34.7657 13.4375C34.8748 13.53 34.9827 13.6239 35.0879 13.7207C35.1365 13.7628 35.185 13.8049 35.235 13.8483C35.4859 14.0676 35.7324 14.2918 35.9797 14.5151C36.1563 14.6735 36.3345 14.8298 36.5137 14.9854C37.0725 15.473 37.0725 15.473 37.1875 15.7032C37.1951 15.8142 37.1978 15.9255 37.198 16.0368C37.1984 16.1072 37.1987 16.1777 37.1991 16.2502C37.1991 16.3671 37.1991 16.3671 37.199 16.4863C37.1993 16.5686 37.1996 16.651 37.1999 16.7358C37.2008 17.0137 37.2011 17.2915 37.2014 17.5694C37.2019 17.7679 37.2024 17.9664 37.2029 18.1649C37.2044 18.7621 37.2053 19.3594 37.2059 19.9566C37.2063 20.2381 37.2067 20.5195 37.2071 20.8009C37.2084 21.7368 37.2096 22.6727 37.2101 23.6086C37.2103 23.8516 37.2104 24.0946 37.2106 24.3376C37.2106 24.398 37.2107 24.4584 37.2107 24.5206C37.2114 25.4975 37.2133 26.4743 37.2159 27.4512C37.2185 28.4547 37.2199 29.4582 37.2201 30.4617C37.2203 31.0249 37.221 31.5881 37.223 32.1513C37.2248 32.6816 37.2251 33.212 37.2243 33.7424C37.2243 33.9366 37.2248 34.1308 37.2258 34.325C37.2387 36.7882 37.2387 36.7882 36.3282 37.8125C35.5098 38.6168 34.5747 38.8087 33.4659 38.7996C33.3446 38.8001 33.2233 38.8007 33.102 38.8015C32.771 38.8031 32.44 38.8023 32.109 38.8011C31.7511 38.8002 31.3933 38.8016 31.0354 38.8027C30.3352 38.8044 29.6351 38.804 28.9349 38.8029C28.3657 38.802 27.7965 38.8019 27.2272 38.8023C27.1461 38.8024 27.065 38.8024 26.9814 38.8025C26.8166 38.8026 26.6517 38.8027 26.4869 38.8029C24.9426 38.804 23.3984 38.8027 21.8541 38.8006C20.5301 38.7989 19.2061 38.7992 17.8821 38.801C16.3432 38.803 14.8043 38.8039 13.2655 38.8027C13.1012 38.8025 12.937 38.8024 12.7728 38.8023C12.6516 38.8022 12.6516 38.8022 12.528 38.8021C11.9597 38.8018 11.3914 38.8024 10.8231 38.8033C10.1302 38.8044 9.43733 38.8041 8.74441 38.802C8.39113 38.801 8.03787 38.8006 7.68458 38.8019C7.36072 38.803 7.03692 38.8024 6.71307 38.8003C6.59637 38.7999 6.47966 38.8001 6.36296 38.801C5.31767 38.8089 4.43361 38.561 3.67191 37.8125C2.69598 36.7146 2.76745 35.4383 2.77334 34.0563C2.77305 33.8582 2.77262 33.6601 2.77206 33.462C2.77109 32.9819 2.77156 32.5019 2.77274 32.0218C2.77406 31.4623 2.77381 30.9028 2.77351 30.3432C2.77306 29.3451 2.77416 28.347 2.77609 27.3488C2.77796 26.3808 2.77851 25.4128 2.77769 24.4448C2.7768 23.389 2.77665 22.3333 2.77778 21.2775C2.7779 21.165 2.77801 21.0525 2.77813 20.94C2.77819 20.8846 2.77825 20.8292 2.77831 20.7722C2.77868 20.3823 2.77854 19.9924 2.77821 19.6025C2.77778 19.0782 2.77862 18.554 2.78031 18.0297C2.78075 17.8371 2.78078 17.6445 2.78039 17.4519C2.77993 17.1895 2.7809 16.9271 2.78225 16.6648C2.78178 16.5882 2.78131 16.5116 2.78083 16.4326C2.78517 15.9688 2.83547 15.6818 3.17356 15.3412C3.22039 15.3027 3.26722 15.2643 3.31547 15.2246C3.59699 14.9872 3.8702 14.7421 4.14066 14.4922C4.39845 14.2548 4.65703 14.0187 4.92191 13.7891C4.98888 13.7277 4.98888 13.7277 5.0572 13.665C5.23441 13.5157 5.23441 13.5157 5.46638 13.3672C5.8115 13.1178 6.1049 12.8916 6.22531 12.4687C6.30969 11.9064 6.28698 11.3386 6.27506 10.7718C6.27467 10.5881 6.27471 10.4044 6.27517 10.2207C6.27532 9.73928 6.27001 9.25803 6.26339 8.77661C6.25626 8.19046 6.2551 7.60426 6.25356 7.01807C6.25233 6.56234 6.25004 6.1067 6.24447 5.651C6.24372 5.56744 6.24297 5.48387 6.24219 5.39778C6.24077 5.24181 6.23877 5.08585 6.23605 4.9299C6.23557 4.86104 6.23509 4.79217 6.23459 4.72122C6.23381 4.66155 6.23302 4.60189 6.23221 4.54041C6.2531 4.34663 6.30186 4.22675 6.40629 4.06253C6.66043 3.8931 6.72563 3.88735 7.01845 3.89031C7.13523 3.89086 7.13523 3.89086 7.25436 3.89143C7.33971 3.89261 7.42506 3.89379 7.51299 3.89501C7.6995 3.89624 7.88602 3.89748 8.07254 3.89871C8.22127 3.90012 8.22127 3.90012 8.373 3.90156C8.6834 3.90416 8.99379 3.90529 9.3042 3.90574C9.38289 3.90586 9.38289 3.90586 9.46318 3.90599C9.57047 3.90615 9.67777 3.90632 9.78507 3.90648C10.5075 3.90764 11.2299 3.91008 11.9524 3.91778C12.4399 3.92296 12.9273 3.92505 13.4148 3.92368C13.6725 3.92307 13.9299 3.92447 14.1875 3.92871C15.4061 3.99886 15.4061 3.99886 16.4796 3.52787C16.6542 3.35381 16.804 3.16481 16.9532 2.96878C17.0581 2.87161 17.165 2.77646 17.2754 2.68558C17.4419 2.54252 17.6036 2.39764 17.7625 2.24612C18.6775 1.38224 19.9836 0.852094 21.2076 1.43436ZM18.0469 3.82816C18.0469 3.85394 18.0469 3.87972 18.0469 3.90628C19.336 3.90628 20.625 3.90628 21.9532 3.90628C21.5157 3.3595 20.9197 2.69133 20.2024 2.53787C19.2979 2.47636 18.6441 3.23545 18.0469 3.82816ZM7.57816 5.23441C7.5556 7.46932 7.53305 9.70423 7.5098 12.0069C7.49985 12.7114 7.48989 13.4159 7.47963 14.1418C7.47597 14.7758 7.47597 14.7758 7.47377 15.4097C7.47276 15.6912 7.46867 15.9725 7.46269 16.2539C7.45514 16.614 7.45295 16.9736 7.45449 17.3337C7.45417 17.4652 7.45203 17.5967 7.44777 17.7282C7.43033 18.2936 7.42536 18.7671 7.81833 19.2064C8.04647 19.4311 8.28925 19.6321 8.54454 19.8251C8.70503 19.9471 8.85452 20.0797 9.00394 20.2149C9.05138 20.2558 9.09881 20.2966 9.14768 20.3388C9.3252 20.4934 9.49883 20.652 9.67289 20.8106C9.93671 21.0491 10.2057 21.2769 10.4834 21.4991C10.9573 21.8821 11.397 22.2987 11.8402 22.7164C12.0842 22.9461 12.3331 23.1691 12.587 23.3878C12.7685 23.5452 12.9467 23.7062 13.125 23.8672C13.5428 24.2439 13.9643 24.6156 14.3924 24.9805C14.9034 25.4163 15.408 25.8565 15.9031 26.3105C16.0673 26.4603 16.2334 26.6074 16.4014 26.753C16.6678 26.9843 16.928 27.222 17.1875 27.461C17.5476 27.792 17.9102 28.1189 18.2813 28.4375C18.3554 28.5031 18.4295 28.5687 18.5059 28.6362C19.2277 29.2668 19.2277 29.2668 20.1514 29.458C20.93 29.3102 21.5204 28.5987 22.073 28.076C22.2646 27.8966 22.463 27.7254 22.6615 27.5537C22.8343 27.4029 23.004 27.2489 23.1739 27.0948C23.4883 26.8107 23.8083 26.5343 24.1309 26.2598C24.5292 25.9206 24.9189 25.5738 25.303 25.2186C25.563 24.9782 25.8269 24.7431 26.0944 24.5111C26.2782 24.3504 26.4594 24.1871 26.6407 24.0235C26.9235 23.7682 27.2086 23.516 27.4961 23.266C27.6767 23.1071 27.8544 22.9452 28.0323 22.7832C28.2961 22.5447 28.5651 22.3169 28.8428 22.0948C29.3167 21.7117 29.7564 21.2951 30.1996 20.8774C30.4435 20.6478 30.6922 20.4249 30.9461 20.2063C31.1917 19.9932 31.4318 19.7739 31.6727 19.5554C31.875 19.375 31.875 19.375 32.0122 19.3009C32.1979 19.186 32.3 19.0891 32.4219 18.9063C32.5047 18.4711 32.491 18.0395 32.484 17.598C32.4838 17.4611 32.4839 17.3241 32.4842 17.1872C32.4843 16.8209 32.4812 16.4547 32.4773 16.0884C32.4742 15.7445 32.474 15.4007 32.4737 15.0568C32.4708 14.0515 32.4631 13.0463 32.4561 12.041C32.4448 9.79486 32.4335 7.54866 32.4219 5.23441C24.2235 5.23441 16.025 5.23441 7.57816 5.23441ZM33.75 14.375C33.75 15.4578 33.75 16.5407 33.75 17.6563C34.144 17.3966 34.144 17.3966 34.4928 17.1021C34.5625 17.037 34.5625 17.037 34.6335 16.9706C34.6804 16.9261 34.7272 16.8817 34.7754 16.836C34.8229 16.7916 34.8703 16.7471 34.9192 16.7014C35.1585 16.4767 35.3946 16.2495 35.625 16.0157C35.033 15.4095 34.4293 14.8845 33.75 14.375ZM5.82523 14.8389C5.60793 15.0368 5.3906 15.2345 5.17063 15.4294C5.10144 15.4907 5.03226 15.5521 4.96098 15.6153C4.89733 15.6715 4.83368 15.7277 4.7681 15.7856C4.59582 15.9395 4.59582 15.9395 4.45316 16.1719C4.7131 16.4068 4.97364 16.641 5.23441 16.875C5.32218 16.9543 5.32218 16.9543 5.41172 17.0352C5.46439 17.0823 5.51706 17.1293 5.57133 17.1778C5.61775 17.2195 5.66418 17.2612 5.71201 17.3041C5.89176 17.4531 5.89176 17.4531 6.25004 17.6563C6.25004 16.625 6.25004 15.5938 6.25004 14.5313C6.08808 14.5313 5.93512 14.7386 5.82523 14.8389ZM4.14066 17.6563C4.13353 19.962 4.128 22.2676 4.12471 24.5733C4.12431 24.8457 4.12391 25.1182 4.1235 25.3906C4.12341 25.4448 4.12333 25.499 4.12325 25.5549C4.12189 26.4322 4.11943 27.3094 4.11655 28.1867C4.11363 29.0873 4.11192 29.988 4.11126 30.8887C4.11085 31.3943 4.1099 31.9 4.10762 32.4057C4.1055 32.8818 4.10485 33.358 4.10532 33.8342C4.10523 34.0087 4.10461 34.1833 4.10341 34.3578C4.10185 34.5967 4.10223 34.8355 4.10308 35.0744C4.10217 35.1429 4.10126 35.2115 4.10032 35.2821C4.10588 35.8625 4.25071 36.3944 4.62376 36.8482C4.68186 36.8957 4.73997 36.9432 4.79984 36.9922C4.8867 37.0659 4.8867 37.0659 4.97532 37.1411C5.46674 37.4793 6.01134 37.5097 6.59469 37.5101C6.74141 37.5105 6.74141 37.5105 6.89109 37.5108C6.99861 37.5107 7.10613 37.5106 7.21366 37.5105C7.32867 37.5106 7.44369 37.5108 7.5587 37.511C7.8741 37.5115 8.18951 37.5115 8.50491 37.5114C8.84532 37.5114 9.18574 37.5118 9.52615 37.5122C10.1928 37.5128 10.8595 37.513 11.5261 37.5131C12.068 37.5131 12.6099 37.5133 13.1518 37.5135C14.6884 37.5142 16.225 37.5146 17.7616 37.5145C17.8444 37.5145 17.9273 37.5145 18.0126 37.5145C18.137 37.5145 18.137 37.5145 18.2638 37.5145C19.6079 37.5145 20.952 37.5152 22.2961 37.5163C23.6764 37.5174 25.0567 37.518 26.437 37.5179C27.2119 37.5179 27.9867 37.5181 28.7616 37.5189C29.4212 37.5196 30.0808 37.5198 30.7405 37.5193C31.077 37.519 31.4134 37.519 31.7499 37.5197C32.0581 37.5203 32.3664 37.5202 32.6746 37.5195C32.7859 37.5194 32.8972 37.5196 33.0085 37.52C33.9082 37.5233 34.6243 37.5023 35.3125 36.875C35.8134 36.3606 35.8944 35.778 35.8876 35.0932C35.8878 35.0183 35.888 34.9435 35.8882 34.8663C35.8886 34.6167 35.8873 34.3671 35.886 34.1175C35.886 33.938 35.886 33.7586 35.8861 33.5792C35.8862 33.0929 35.8848 32.6066 35.8832 32.1203C35.8817 31.6118 35.8816 31.1033 35.8813 30.5948C35.8806 29.7415 35.8792 28.8883 35.8771 28.035C35.8749 27.1564 35.8733 26.2778 35.8723 25.3992C35.8722 25.345 35.8722 25.2907 35.8721 25.2349C35.8718 24.9629 35.8715 24.691 35.8712 24.419C35.8688 22.1648 35.8646 19.9105 35.8594 17.6563C35.8223 17.6882 35.7851 17.7202 35.7468 17.7532C35.6979 17.7952 35.6489 17.8373 35.5985 17.8806C35.5501 17.9222 35.5016 17.9639 35.4517 18.0068C35.2782 18.1543 35.1002 18.2958 34.9219 18.4375C34.444 18.8264 33.9986 19.2471 33.5505 19.6695C33.3062 19.8995 33.0572 20.1228 32.8028 20.3415C32.626 20.4951 32.4534 20.6529 32.2803 20.8106C32.0165 21.0491 31.7475 21.2769 31.4698 21.4991C30.9959 21.8821 30.5562 22.2987 30.113 22.7164C29.869 22.9461 29.6201 23.1691 29.3662 23.3878C29.1847 23.5452 29.0065 23.7062 28.8282 23.8672C28.5453 24.1225 28.2602 24.3747 27.9728 24.6247C27.7922 24.7836 27.6145 24.9455 27.4366 25.1075C27.1694 25.349 26.8969 25.5801 26.6162 25.8057C26.1076 26.2167 25.6326 26.6619 25.1563 27.1094C25.3404 27.3479 25.5216 27.5598 25.752 27.7539C25.9994 27.9654 26.243 28.1801 26.4844 28.3985C26.9003 28.7734 27.3195 29.1438 27.7463 29.5063C28.304 29.9803 28.8486 30.465 29.3845 30.9635C29.7416 31.2944 30.1088 31.6122 30.4798 31.9272C30.9941 32.3647 31.4995 32.8089 31.9938 33.2691C32.2633 33.52 32.5364 33.7656 32.815 34.0064C33.0675 34.2269 33.3149 34.4531 33.563 34.6787C33.7498 34.8484 33.7498 34.8484 33.964 35.0016C34.1521 35.1663 34.196 35.2256 34.2188 35.4688C34.2188 35.7813 34.2188 35.7813 34.1358 35.9717C33.9247 36.1419 33.7863 36.1666 33.5157 36.1719C33.1021 36.0068 32.8241 35.7535 32.5098 35.4492C32.4128 35.3572 32.3158 35.2653 32.2187 35.1734C32.1726 35.1296 32.1266 35.0858 32.0791 35.0406C31.8838 34.8565 31.6815 34.681 31.4783 34.5056C31.2961 34.3471 31.1168 34.1854 30.9375 34.0235C30.6547 33.7682 30.3696 33.516 30.0821 33.266C29.9015 33.1071 29.7238 32.9452 29.5459 32.7832C29.2821 32.5447 29.0132 32.3169 28.7354 32.0948C28.2615 31.7117 27.8218 31.2951 27.3786 30.8774C27.1343 30.6474 26.8853 30.4242 26.6309 30.2054C26.4541 30.0519 26.2815 29.894 26.1084 29.7364C25.7663 29.4273 25.4128 29.1352 25.0544 28.8452C24.7418 28.588 24.4406 28.3187 24.1407 28.0469C23.8642 28.283 23.5885 28.5198 23.3155 28.7598C23.1999 28.8607 23.0844 28.9616 22.9688 29.0625C22.9281 29.0983 22.8875 29.134 22.8456 29.1708C21.0581 30.7396 21.0581 30.7396 19.8539 30.7144C18.8526 30.6465 18.1897 30.0958 17.4857 29.4275C17.3064 29.2575 17.1252 29.0925 16.9385 28.9307C16.6022 28.639 16.2699 28.3431 15.9375 28.0469C15.5781 28.2392 15.3069 28.4906 15.0147 28.7696C14.917 28.8616 14.8192 28.9535 14.7214 29.0454C14.6749 29.0892 14.6283 29.1331 14.5804 29.1782C14.3837 29.3618 14.1812 29.5381 13.9774 29.7138C13.7999 29.8684 13.6262 30.027 13.4522 30.1856C13.1884 30.4241 12.9194 30.6519 12.6416 30.8741C12.1678 31.2571 11.728 31.6737 11.2848 32.0914C11.0408 32.3211 10.792 32.5441 10.5381 32.7628C10.3566 32.9202 10.1784 33.0812 10 33.2422C9.71721 33.4975 9.43208 33.7497 9.14463 33.9997C8.96403 34.1586 8.78634 34.3205 8.60844 34.4825C8.26407 34.7935 7.90896 35.0883 7.54734 35.3791C7.36041 35.5332 7.18392 35.6942 7.00687 35.8594C6.76176 36.0745 6.58883 36.187 6.25004 36.1719C6.03031 36.0938 6.03031 36.0938 5.85941 35.9375C5.77284 35.6453 5.73912 35.4763 5.87559 35.199C6.02619 34.9851 6.18462 34.8298 6.38187 34.6582C6.45146 34.5972 6.52105 34.5362 6.59275 34.4733C6.66012 34.4151 6.7275 34.3569 6.79691 34.2969C6.90112 34.2058 7.00529 34.1147 7.10941 34.0235C7.15936 33.98 7.20932 33.9365 7.26078 33.8916C7.4461 33.7288 7.62938 33.5638 7.81254 33.3985C8.09537 33.1432 8.38049 32.891 8.66795 32.641C8.84854 32.4821 9.02623 32.3202 9.20414 32.1582C9.46796 31.9197 9.73693 31.6919 10.0147 31.4698C10.4886 31.0867 10.9283 30.6701 11.3715 30.2524C11.6155 30.0227 11.8643 29.7997 12.1183 29.581C12.2998 29.4236 12.478 29.2626 12.6563 29.1016C12.8891 28.8914 13.1229 28.6826 13.3594 28.4766C13.6001 28.2666 13.8392 28.0549 14.0772 27.8418C14.1707 27.7581 14.1707 27.7581 14.2661 27.6728C14.464 27.49 14.6545 27.3011 14.8438 27.1094C14.1989 26.5071 13.5527 25.91 12.88 25.3388C12.3656 24.9011 11.86 24.4569 11.3657 23.9966C11.0958 23.7454 10.8224 23.4996 10.5436 23.2584C10.3605 23.0988 10.1803 22.9362 10 22.7735C9.58415 22.3985 9.16499 22.0281 8.73814 21.6657C8.22401 21.2286 7.71897 20.7846 7.22507 20.3247C6.95522 20.0735 6.68173 19.8278 6.40293 19.5865C6.21991 19.4269 6.03967 19.2643 5.85941 19.1016C5.57395 18.8441 5.28678 18.5888 4.99668 18.3365C4.88696 18.2408 4.77777 18.1445 4.66892 18.0478C4.61222 17.9976 4.55553 17.9473 4.49711 17.8955C4.44565 17.8497 4.39418 17.8039 4.34116 17.7567C4.2351 17.648 4.2351 17.648 4.14066 17.6563Z" fill="url(#paint0_linear_141_389)"/>
<path d="M11.7139 11.239C11.8238 11.2387 11.8238 11.2387 11.9359 11.2383C12.1828 11.2376 12.4297 11.2375 12.6766 11.2374C12.8531 11.237 13.0295 11.2366 13.2059 11.2362C13.6863 11.2352 14.1666 11.2347 14.647 11.2343C14.9469 11.2341 15.2468 11.2338 15.5466 11.2334C16.3767 11.2325 17.2067 11.2317 18.0367 11.2314C18.0899 11.2314 18.143 11.2314 18.1978 11.2314C18.251 11.2313 18.3043 11.2313 18.3592 11.2313C18.4671 11.2313 18.5751 11.2312 18.683 11.2312C18.7366 11.2312 18.7901 11.2312 18.8453 11.2312C19.713 11.2308 20.5806 11.2295 21.4483 11.2277C22.3388 11.2258 23.2293 11.2249 24.1198 11.2247C24.6199 11.2247 25.12 11.2242 25.6201 11.2228C26.0905 11.2215 26.5608 11.2214 27.0312 11.222C27.204 11.2221 27.3768 11.2218 27.5496 11.221C27.7852 11.22 28.0207 11.2205 28.2563 11.2213C28.325 11.2206 28.3936 11.22 28.4644 11.2194C28.8315 11.2223 29.0777 11.2438 29.375 11.4844C29.4976 11.7296 29.4806 11.9171 29.4531 12.1875C29.2981 12.4027 29.1741 12.5523 28.9077 12.6139C28.7141 12.6287 28.5241 12.6302 28.3301 12.6277C28.219 12.6286 28.219 12.6286 28.1056 12.6296C27.8572 12.6311 27.6089 12.6299 27.3605 12.6286C27.1825 12.6292 27.0045 12.6299 26.8266 12.6307C26.343 12.6325 25.8594 12.6318 25.3758 12.6306C24.8701 12.6296 24.3643 12.6305 23.8586 12.6311C22.9549 12.6319 22.0511 12.6307 21.1474 12.6287C20.328 12.6269 19.5087 12.6272 18.6893 12.629C17.7378 12.6311 16.7862 12.6319 15.8346 12.6307C15.3309 12.6301 14.8272 12.6301 14.3235 12.6313C13.85 12.6325 13.3766 12.6317 12.9031 12.6294C12.7291 12.6289 12.5552 12.6291 12.3812 12.6299C12.1441 12.631 11.9071 12.6297 11.6699 12.6277C11.6008 12.6286 11.5317 12.6294 11.4605 12.6303C11.1195 12.6249 10.9789 12.6095 10.6992 12.3971C10.5469 12.1875 10.5469 12.1875 10.5029 11.9092C10.553 11.603 10.6168 11.5136 10.8594 11.3281C11.1235 11.1961 11.4234 11.2387 11.7139 11.239Z" fill="url(#paint1_linear_141_389)"/>
<path d="M11.6701 16.9817C11.7812 16.9808 11.7812 16.9808 11.8946 16.9798C12.143 16.9783 12.3913 16.9795 12.6396 16.9807C12.8176 16.9802 12.9956 16.9795 13.1736 16.9787C13.6572 16.9769 14.1408 16.9776 14.6244 16.9788C15.1301 16.9798 15.6358 16.9789 16.1416 16.9783C17.0453 16.9775 17.949 16.9787 18.8528 16.9807C19.6722 16.9825 20.4915 16.9822 21.3108 16.9804C22.2624 16.9783 23.214 16.9775 24.1656 16.9787C24.6693 16.9793 25.173 16.9793 25.6766 16.9781C26.1501 16.9769 26.6236 16.9777 27.0971 16.98C27.2711 16.9805 27.445 16.9803 27.6189 16.9795C27.8561 16.9784 28.0931 16.9797 28.3302 16.9817C28.3994 16.9808 28.4685 16.9799 28.5397 16.979C28.8807 16.9845 29.0211 16.9995 29.3004 17.2126C29.4533 17.4219 29.4533 17.4219 29.507 17.6954C29.4485 17.9931 29.3688 18.0948 29.1322 18.2789C28.8511 18.4322 28.5615 18.4122 28.2481 18.4074C28.1746 18.4079 28.101 18.4083 28.0252 18.4088C27.7791 18.4098 27.533 18.408 27.2868 18.4062C27.1102 18.4064 26.9336 18.4067 26.757 18.4072C26.2776 18.408 25.7983 18.4063 25.3189 18.4042C24.8175 18.4023 24.3161 18.4025 23.8148 18.4025C22.9729 18.4021 22.1311 18.4003 21.2893 18.3975C20.4231 18.3945 19.5569 18.3929 18.6907 18.3927C18.6106 18.3926 18.6106 18.3926 18.529 18.3926C18.4491 18.3926 18.4491 18.3926 18.3675 18.3926C18.2602 18.3925 18.153 18.3925 18.0457 18.3925C17.9928 18.3925 17.9399 18.3925 17.8854 18.3924C17.0099 18.3921 16.1345 18.3905 15.2591 18.3889C14.9601 18.3884 14.6612 18.3881 14.3623 18.3879C13.893 18.3874 13.4237 18.3861 12.9545 18.3842C12.782 18.3837 12.6095 18.3833 12.4371 18.3833C12.2022 18.3832 11.9673 18.3821 11.7324 18.3808C11.6637 18.381 11.595 18.3812 11.5243 18.3814C11.4613 18.3809 11.3984 18.3803 11.3336 18.3797C11.2794 18.3796 11.2251 18.3794 11.1693 18.3793C10.9833 18.3552 10.8621 18.3026 10.7033 18.2032C10.508 17.9102 10.5052 17.7689 10.5471 17.4219C10.8692 16.9761 11.1607 16.9753 11.6701 16.9817Z" fill="url(#paint2_linear_141_389)"/>
<path d="M11.4968 19.8727C11.5616 19.8722 11.6264 19.8716 11.6932 19.8711C11.9107 19.8697 12.1281 19.8711 12.3456 19.8725C12.5014 19.8721 12.6572 19.8715 12.813 19.8708C13.2364 19.8694 13.6597 19.8704 14.0831 19.8719C14.5258 19.8732 14.9685 19.8725 15.4111 19.8721C16.1546 19.8718 16.8981 19.873 17.6415 19.8752C18.5016 19.8777 19.3616 19.8777 20.2216 19.8763C21.0483 19.8751 21.875 19.8756 22.7017 19.877C23.0538 19.8775 23.4059 19.8774 23.758 19.8768C24.1726 19.8762 24.587 19.8772 25.0015 19.8793C25.1538 19.8799 25.3061 19.8799 25.4584 19.8793C25.666 19.8786 25.8735 19.8799 26.0811 19.8816C26.1719 19.8806 26.1719 19.8806 26.2647 19.8797C26.5406 19.8839 26.6904 19.9001 26.9121 20.0708C27.0411 20.2481 27.0736 20.3302 27.0702 20.5468C27.0714 20.6242 27.0714 20.6242 27.0726 20.7031C27.01 20.9389 26.9119 21.023 26.7186 21.1718C26.496 21.2027 26.3036 21.2144 26.0811 21.212C25.9838 21.2128 25.9838 21.2128 25.8847 21.2137C25.6672 21.2151 25.4498 21.2143 25.2323 21.2135C25.0765 21.214 24.9207 21.2147 24.7649 21.2155C24.3415 21.2173 23.9181 21.2171 23.4948 21.2164C23.1416 21.216 22.7884 21.2165 22.4352 21.2171C21.6023 21.2184 20.7693 21.2182 19.9364 21.2168C19.0763 21.2155 18.2163 21.2168 17.3562 21.2193C16.6184 21.2214 15.8805 21.2219 15.1426 21.2213C14.7017 21.2209 14.2608 21.2211 13.8198 21.2227C13.4053 21.2241 12.9908 21.2236 12.5763 21.2217C12.424 21.2213 12.2717 21.2216 12.1194 21.2226C11.9118 21.2238 11.7044 21.2227 11.4968 21.2209C11.4362 21.2218 11.3756 21.2227 11.3132 21.2237C11.0143 21.2185 10.886 21.1972 10.6656 20.9881C10.5192 20.7332 10.4985 20.602 10.5467 20.3124C10.7899 19.8891 11.0407 19.8658 11.4968 19.8727Z" fill="url(#paint3_linear_141_389)"/>
<path d="M15.4877 8.33903C15.5734 8.33858 15.5734 8.33858 15.6607 8.33812C15.8521 8.33732 16.0435 8.33763 16.2349 8.33794C16.3721 8.3376 16.5093 8.33719 16.6464 8.33673C17.0191 8.33568 17.3918 8.33564 17.7645 8.33583C18.0756 8.33592 18.3866 8.33554 18.6976 8.33516C19.4314 8.3343 20.1651 8.33426 20.8988 8.33473C21.6559 8.33521 22.4131 8.33424 23.1703 8.33258C23.8202 8.3312 24.4701 8.33073 25.1199 8.33099C25.5082 8.33113 25.8964 8.33092 26.2847 8.32984C26.6497 8.32886 27.0148 8.32901 27.3798 8.33003C27.5138 8.33021 27.6478 8.33 27.7818 8.32935C27.9647 8.32854 28.1476 8.32917 28.3305 8.33016C28.4328 8.33015 28.5352 8.33013 28.6407 8.33012C28.9262 8.36159 29.0707 8.41991 29.2969 8.59377C29.4801 8.86863 29.4984 8.97328 29.4531 9.2969C29.2456 9.5648 29.1294 9.67542 28.792 9.73646C28.6863 9.7385 28.5806 9.7384 28.4749 9.7366C28.4164 9.73715 28.3579 9.73771 28.2976 9.73828C28.1019 9.73965 27.9064 9.73824 27.7107 9.73683C27.5703 9.73723 27.4299 9.7378 27.2895 9.73852C26.9084 9.73997 26.5273 9.73895 26.1462 9.73742C25.7476 9.73614 25.3489 9.73683 24.9502 9.73723C24.2808 9.73758 23.6113 9.73634 22.9419 9.73416C22.1676 9.73165 21.3934 9.73165 20.6191 9.733C19.8746 9.73424 19.13 9.73371 18.3855 9.73238C18.0685 9.73184 17.7515 9.73192 17.4344 9.7325C17.0613 9.7331 16.6882 9.73216 16.315 9.73001C16.178 9.72947 16.0409 9.72947 15.9038 9.73003C15.717 9.73071 15.5302 9.72947 15.3433 9.72773C15.2617 9.72869 15.2617 9.72869 15.1783 9.72968C14.919 9.72522 14.7859 9.70313 14.5778 9.5431C14.4153 9.32398 14.3806 9.17866 14.375 8.90627C14.4681 8.69071 14.5438 8.56003 14.7391 8.42781C14.9936 8.33255 15.2161 8.33945 15.4877 8.33903Z" fill="url(#paint4_linear_141_389)"/>
<path d="M11.5127 14.0915C11.5985 14.0907 11.5985 14.0907 11.686 14.0898C11.8771 14.0884 12.0682 14.0898 12.2594 14.0913C12.3966 14.0909 12.5338 14.0903 12.671 14.0896C13.0434 14.0881 13.4157 14.0891 13.7881 14.0907C14.1778 14.0919 14.5674 14.0913 14.9571 14.0909C15.6115 14.0905 16.2659 14.0917 16.9203 14.0939C17.6769 14.0964 18.4335 14.0964 19.1901 14.0951C19.9179 14.0938 20.6456 14.0944 21.3734 14.0957C21.6832 14.0962 21.9929 14.0962 22.3027 14.0956C22.6674 14.095 23.0321 14.0959 23.3969 14.0981C23.5308 14.0986 23.6646 14.0986 23.7985 14.0981C23.9813 14.0974 24.1639 14.0986 24.3466 14.1004C24.5 14.1007 24.5 14.1007 24.6565 14.101C24.9663 14.1472 25.0954 14.2309 25.3125 14.4531C25.4091 14.7369 25.4175 14.8626 25.293 15.1367C25.1562 15.3124 25.1562 15.3124 24.9219 15.4687C24.6757 15.489 24.6757 15.489 24.3654 15.4901C24.3084 15.4905 24.2514 15.4909 24.1926 15.4913C24.001 15.4925 23.8094 15.4926 23.6177 15.4926C23.4806 15.4932 23.3434 15.4939 23.2062 15.4946C22.8332 15.4963 22.4602 15.497 22.0871 15.4974C21.8542 15.4977 21.6212 15.4982 21.3882 15.4987C20.5758 15.5006 19.7633 15.5017 18.9509 15.5019C18.1931 15.5022 17.4354 15.5046 16.6776 15.5078C16.0274 15.5105 15.3772 15.5117 14.727 15.5118C14.3385 15.5119 13.95 15.5125 13.5615 15.5148C13.1961 15.5168 12.8307 15.517 12.4654 15.5157C12.3312 15.5156 12.1971 15.5161 12.063 15.5174C11.8798 15.519 11.6969 15.5181 11.5138 15.5167C11.4113 15.5169 11.3089 15.517 11.2033 15.5172C10.8685 15.4561 10.7531 15.344 10.5469 15.0781C10.498 14.8046 10.498 14.8046 10.5469 14.5312C10.8414 14.1515 11.0397 14.0917 11.5127 14.0915Z" fill="url(#paint5_linear_141_389)"/>
<path d="M27.9298 14.0966C28.0843 14.0938 28.0843 14.0938 28.242 14.091C28.3412 14.0911 28.4404 14.0913 28.5426 14.0914C28.633 14.0914 28.7234 14.0913 28.8165 14.0913C29.1365 14.1554 29.2536 14.2779 29.4532 14.5312C29.495 14.8285 29.4967 14.9995 29.3507 15.2636C28.9934 15.6077 28.3614 15.4897 27.9005 15.4931C27.8005 15.4954 27.7005 15.4977 27.5975 15.5C27.4529 15.501 27.4529 15.501 27.3054 15.502C27.2173 15.5031 27.1292 15.5043 27.0384 15.5054C26.7444 15.4607 26.6158 15.3634 26.4064 15.1562C26.3545 14.9829 26.3545 14.9829 26.3575 14.8046C26.3565 14.7458 26.3555 14.687 26.3545 14.6264C26.5568 13.9505 27.3777 14.0921 27.9298 14.0966Z" fill="url(#paint6_linear_141_389)"/>
<path d="M11.9826 8.3399C12.064 8.33829 12.1453 8.33668 12.2292 8.33502C12.9818 8.33117 12.9818 8.33117 13.2814 8.5938C13.4036 8.83829 13.414 9.11027 13.3595 9.37505C13.1877 9.59603 13.0946 9.67899 12.8157 9.72923C12.5281 9.73201 12.2409 9.73395 11.9533 9.7315C11.853 9.73336 11.7527 9.73523 11.6493 9.73715C11.553 9.73699 11.4568 9.73684 11.3576 9.73669C11.2696 9.73674 11.1815 9.7368 11.0909 9.73686C10.8595 9.68755 10.8595 9.68755 10.6746 9.50657C10.5073 9.23168 10.501 9.0666 10.547 8.75005C10.9206 8.26054 11.4203 8.34266 11.9826 8.3399Z" fill="url(#paint7_linear_141_389)"/>
<defs>
<linearGradient id="paint0_linear_141_389" x1="2.77002" y1="1.18945" x2="39.5228" y2="3.5837" gradientUnits="userSpaceOnUse">
<stop stop-color="#C42091"/>
<stop offset="1" stop-color="#6617CA"/>
</linearGradient>
<linearGradient id="paint1_linear_141_389" x1="10.5029" y1="11.2194" x2="21.1295" y2="21.3681" gradientUnits="userSpaceOnUse">
<stop stop-color="#C42091"/>
<stop offset="1" stop-color="#6617CA"/>
</linearGradient>
<linearGradient id="paint2_linear_141_389" x1="10.5254" y1="16.9775" x2="21.3011" y2="27.1249" gradientUnits="userSpaceOnUse">
<stop stop-color="#C42091"/>
<stop offset="1" stop-color="#6617CA"/>
</linearGradient>
<linearGradient id="paint3_linear_141_389" x1="10.5234" y1="19.8701" x2="20.6186" y2="28.6471" gradientUnits="userSpaceOnUse">
<stop stop-color="#C42091"/>
<stop offset="1" stop-color="#6617CA"/>
</linearGradient>
<linearGradient id="paint4_linear_141_389" x1="14.375" y1="8.32898" x2="24.613" y2="16.1238" gradientUnits="userSpaceOnUse">
<stop stop-color="#C42091"/>
<stop offset="1" stop-color="#6617CA"/>
</linearGradient>
<linearGradient id="paint5_linear_141_389" x1="10.5103" y1="14.0889" x2="20.8052" y2="21.7077" gradientUnits="userSpaceOnUse">
<stop stop-color="#C42091"/>
<stop offset="1" stop-color="#6617CA"/>
</linearGradient>
<linearGradient id="paint6_linear_141_389" x1="26.3545" y1="14.0813" x2="29.6209" y2="14.5891" gradientUnits="userSpaceOnUse">
<stop stop-color="#C42091"/>
<stop offset="1" stop-color="#6617CA"/>
</linearGradient>
<linearGradient id="paint7_linear_141_389" x1="10.5225" y1="8.33423" x2="13.5314" y2="8.77172" gradientUnits="userSpaceOnUse">
<stop stop-color="#C42091"/>
<stop offset="1" stop-color="#6617CA"/>
</linearGradient>
</defs>
</svg>
