<svg width="40" height="40" viewBox="0 0 40 40" fill="none" xmlns="http://www.w3.org/2000/svg">
<g clip-path="url(#clip0_242_197)">
<path d="M16.0353 0.418371C16.1946 0.531274 16.3389 0.650665 16.4839 0.781224C16.5321 0.823119 16.5802 0.865014 16.6298 0.908178C17.3045 1.5336 17.6567 2.39497 17.7642 3.30198C17.7954 4.19356 17.5426 4.97806 17.0308 5.7031C17.1441 5.72168 17.1441 5.72168 17.2597 5.74064C17.3625 5.75898 17.4652 5.7774 17.5679 5.79587C17.6676 5.81309 17.7673 5.83031 17.8701 5.84806C18.5891 6.01571 19.1144 6.40128 19.6285 6.91404C19.7428 7.02497 19.8571 7.13585 19.9715 7.24668C20.0563 7.32965 20.0563 7.32965 20.1429 7.4143C20.4484 7.71007 20.7633 7.99584 21.0775 8.28229C21.4697 8.64344 21.4697 8.64344 21.5132 8.9697C21.4839 9.21872 21.4839 9.21872 21.3179 9.44333C21.0493 9.64188 20.9513 9.64754 20.6246 9.60935C19.9431 9.19924 19.3801 8.53547 18.8277 7.96872C18.8102 8.31186 18.7975 8.65476 18.7891 8.99821C18.7856 9.11471 18.7808 9.23118 18.7747 9.34756C18.7283 10.0532 18.7283 10.0532 18.976 10.6965C19.1523 10.8738 19.3301 11.0233 19.5308 11.1718C19.6389 11.2655 19.7464 11.3598 19.8531 11.4551C19.904 11.4988 19.955 11.5425 20.0075 11.5875C20.1542 11.7173 20.292 11.8524 20.4293 11.9922C20.6263 12.1915 20.8271 12.3849 21.0347 12.5732C21.1103 12.6419 21.1103 12.6419 21.1873 12.7121C21.3307 12.8352 21.3307 12.8352 21.5621 12.8125C21.7233 12.7408 21.7233 12.7408 21.8926 12.6416C21.9553 12.6063 22.018 12.5711 22.0825 12.5348C22.1802 12.4789 22.1802 12.4789 22.2798 12.4218C22.3459 12.3846 22.4119 12.3473 22.4799 12.3089C22.643 12.2168 22.8057 12.1242 22.9683 12.0312C22.8512 11.7821 22.7391 11.6431 22.5289 11.4648C22.321 11.263 22.224 11.1378 22.2115 10.8447C22.2652 10.5468 22.2652 10.5468 22.3873 10.3515C22.6728 10.1758 22.792 10.1646 23.1246 10.2343C23.3374 10.3943 23.5257 10.5671 23.716 10.7531C23.9009 10.9327 24.0943 11.0905 24.2964 11.25C24.6009 11.0763 24.9052 10.9026 25.2096 10.7288C25.313 10.6697 25.4164 10.6107 25.5199 10.5517C25.669 10.4666 25.8182 10.3815 25.9673 10.2963C26.036 10.2571 26.036 10.2571 26.1062 10.2171C26.3068 10.1025 26.5056 9.98647 26.7018 9.86427C26.8746 9.7656 26.8746 9.7656 27.0308 9.7656C27.0357 9.63508 27.0357 9.63508 27.0406 9.50193C27.1104 8.95574 27.3939 8.50594 27.8198 8.16631C28.123 7.95463 28.4264 7.84694 28.7795 7.74534C28.8402 7.727 28.9009 7.70866 28.9635 7.68977C29.1556 7.63204 29.3481 7.57578 29.5406 7.51951C29.6703 7.48064 29.8 7.44168 29.9297 7.40262C31.7084 6.8706 31.7084 6.8706 32.5777 7.2656C33.0756 7.54452 33.3962 7.89929 33.5933 8.43747C33.7548 9.12331 33.6474 9.75468 33.2906 10.3613C33.0911 10.6087 32.8592 10.7531 32.5884 10.9167C32.5436 10.9438 32.4989 10.9709 32.4528 10.9989C31.9703 11.2895 31.4809 11.5681 30.9908 11.8457C30.7992 11.9546 30.6076 12.0637 30.4161 12.1728C30.3444 12.2137 30.3444 12.2137 30.2712 12.2554C29.7851 12.5326 29.3012 12.8136 28.8179 13.0957C28.7436 13.139 28.6692 13.1824 28.5926 13.2271C28.4527 13.3089 28.3129 13.3909 28.1733 13.4733C28.03 13.5575 27.8862 13.6408 27.742 13.7233C27.6702 13.765 27.5985 13.8066 27.5246 13.8495C27.4598 13.8867 27.3949 13.9239 27.3281 13.9622C27.2583 14.0118 27.2583 14.0118 27.1871 14.0625C27.1871 14.3236 27.3549 14.522 27.4846 14.743C27.7044 15.1653 27.7203 15.6413 27.6198 16.1029C27.3517 16.9135 26.776 17.2415 26.0512 17.6092C25.5494 17.8414 25.1077 17.8803 24.5699 17.7246C24.0206 17.5222 23.7132 17.2028 23.4209 16.7019C23.3591 16.5968 23.3591 16.5968 23.2961 16.4896C23.2653 16.4363 23.2345 16.383 23.2027 16.3281C23.1565 16.3551 23.1104 16.3821 23.0628 16.4099C22.6236 16.6667 22.1842 16.9231 21.7445 17.1791C21.5103 17.3155 21.2761 17.452 21.0421 17.5887C20.8082 17.7252 20.5742 17.8614 20.34 17.9974C20.2057 18.0755 20.0716 18.154 19.9375 18.2324C19.8559 18.2797 19.7742 18.3271 19.6901 18.3758C19.6178 18.418 19.5454 18.4601 19.4709 18.5035C19.2964 18.5937 19.2964 18.5937 19.1402 18.5937C19.4439 18.9393 19.7898 19.1545 20.1854 19.3872C20.6351 19.7035 20.8073 20.0782 20.9224 20.6006C20.9674 21.0331 20.8705 21.4957 20.6063 21.8468C20.5104 21.9622 20.4115 22.0751 20.3121 22.1875C20.4013 22.291 20.4013 22.291 20.4924 22.3965C20.9294 22.904 21.3627 23.4135 21.7845 23.9337C21.8999 24.0756 22.0161 24.2167 22.1331 24.3573C23.6574 26.1926 23.6363 27.6831 23.4935 29.971C23.4832 30.1401 23.4729 30.3093 23.4626 30.4785C23.441 30.8307 23.4193 31.183 23.3973 31.5353C23.3693 31.9865 23.3417 32.4379 23.3143 32.8892C23.2932 33.2375 23.2717 33.5858 23.2502 33.9341C23.2399 34.1006 23.2297 34.2671 23.2196 34.4336C23.2055 34.6656 23.191 34.8976 23.1765 35.1295C23.1703 35.2322 23.1703 35.2322 23.164 35.337C23.1442 35.6477 23.1191 35.9462 23.0464 36.25C23.1012 36.2473 23.156 36.2445 23.2125 36.2417C23.9204 36.2215 24.4313 36.3252 24.9572 36.8197C25.3923 37.3012 25.4403 37.7704 25.4204 38.4103C25.357 38.9592 25.1142 39.338 24.6871 39.6875C24.1174 40.0541 23.6064 40.0456 22.9409 40.0415C22.8325 40.0417 22.7242 40.042 22.6159 40.0424C22.3898 40.0428 22.1638 40.0422 21.9378 40.0407C21.649 40.0389 21.3603 40.04 21.0715 40.0418C20.8482 40.043 20.6249 40.0426 20.4015 40.0418C20.2951 40.0416 20.1886 40.0418 20.0822 40.0426C19.0364 40.0482 19.0364 40.0482 18.6714 39.6875C18.2995 39.3125 18.3206 38.9236 18.3155 38.4232C18.3161 38.3179 18.3167 38.2126 18.3174 38.1073C18.3172 37.9983 18.3169 37.8894 18.3165 37.7805C18.3161 37.5529 18.3167 37.3253 18.3182 37.0977C18.32 36.8062 18.319 36.5149 18.3171 36.2234C18.316 35.9988 18.3163 35.7741 18.3171 35.5495C18.3173 35.442 18.3171 35.3345 18.3164 35.2271C18.3156 35.0769 18.317 34.9268 18.3185 34.7767C18.3188 34.6914 18.319 34.606 18.3193 34.5181C18.3681 34.2456 18.4569 34.1537 18.6714 33.9843C18.8277 33.9401 18.8277 33.9401 18.9839 33.9404C19.0355 33.9387 19.0871 33.937 19.1402 33.9352C19.4085 34.0196 19.4738 34.1273 19.6089 34.375C19.647 34.6968 19.6382 35.0135 19.6285 35.3369C19.622 35.6382 19.6156 35.9395 19.6089 36.25C20.3308 36.25 21.0527 36.25 21.7964 36.25C21.8079 36.0084 21.8079 36.0084 21.8196 35.762C21.8313 35.5226 21.8431 35.2833 21.855 35.0439C21.8582 34.9796 21.8614 34.9154 21.8647 34.8492C21.9141 33.8667 21.9712 32.8848 22.0327 31.903C22.0379 31.8186 22.0379 31.8186 22.0433 31.7325C22.0788 31.1633 22.1147 30.5941 22.1513 30.025C22.1652 29.8082 22.1789 29.5914 22.1925 29.3747C22.202 29.2256 22.2118 29.0766 22.2215 28.9276C22.3002 27.6719 22.3365 26.7015 21.4839 25.7031C21.4182 25.6249 21.3524 25.5468 21.2847 25.4663C21.1362 25.2902 20.987 25.1148 20.8376 24.9395C20.6071 24.6683 20.3859 24.3901 20.165 24.111C19.9247 23.8135 19.6766 23.5228 19.4277 23.2325C19.2678 23.0454 19.1207 22.8614 18.9839 22.6562C18.5237 22.734 18.1758 22.8249 17.8121 23.125C17.7228 23.3927 17.7441 23.4432 17.8373 23.6988C17.8619 23.7671 17.8864 23.8355 17.9117 23.9059C17.9389 23.9796 17.9662 24.0533 17.9943 24.1293C18.0217 24.2055 18.0492 24.2817 18.0775 24.3603C18.1658 24.6047 18.255 24.8487 18.3443 25.0927C18.4326 25.3354 18.5208 25.5782 18.6085 25.821C18.6632 25.9722 18.7182 26.1233 18.7737 26.2742C18.9645 26.7998 19.1461 27.3168 19.1646 27.8808C19.1881 28.1803 19.2519 28.3526 19.4142 28.6026C19.7042 29.162 19.6646 29.7532 19.6556 30.3683C19.6529 30.5722 19.654 30.7758 19.6555 30.9797C19.6549 31.1102 19.6542 31.2407 19.6532 31.3711C19.6536 31.4316 19.654 31.4921 19.6544 31.5544C19.6459 31.9426 19.5776 32.1513 19.2964 32.4218C19.1402 32.471 19.1402 32.471 18.9839 32.4658C18.9324 32.4659 18.8808 32.466 18.8277 32.4661C18.5837 32.397 18.5044 32.3202 18.3589 32.1093C18.3096 31.8429 18.3045 31.579 18.3004 31.3086C18.298 31.2355 18.2957 31.1623 18.2933 31.087C18.2878 30.9069 18.2837 30.727 18.2808 30.5468C17.7845 31.1184 17.2886 31.6904 16.7964 32.2656C16.2618 32.8904 15.7226 33.5114 15.1835 34.1324C14.9299 34.4246 14.6766 34.717 14.4235 35.0097C14.2925 35.1607 14.1611 35.3114 14.0297 35.462C13.9445 35.5603 13.8592 35.6585 13.774 35.7568C13.7345 35.8018 13.695 35.8469 13.6543 35.8932C13.4711 36.1052 13.3109 36.3025 13.2027 36.5625C13.2578 36.6193 13.2578 36.6193 13.3141 36.6772C13.7378 37.1334 13.9539 37.4975 14.0132 38.1201C13.987 38.6788 13.8019 39.164 13.4142 39.5697C12.933 39.9947 12.4693 40.0552 11.8334 40.0348C11.2159 39.9556 10.7949 39.6618 10.3813 39.2135C10.2097 39.0377 10.0256 38.8886 9.83356 38.7353C9.44772 38.4249 9.08341 38.0973 8.72211 37.7591C8.48546 37.5377 8.24558 37.3231 7.99762 37.1142C7.63424 36.796 7.46123 36.5185 7.41645 36.0232C7.43263 35.4924 7.72349 35.1138 8.08551 34.7558C8.41668 34.4129 8.72712 34.0642 9.01813 33.6865C9.32816 33.2844 9.64375 32.888 9.96539 32.4951C10.3376 32.0392 10.7006 31.5777 11.0576 31.1099C11.2608 30.8438 11.4673 30.5804 11.6744 30.3174C11.7096 30.2725 11.7449 30.2276 11.7812 30.1814C11.9697 29.9418 12.1588 29.7028 12.3488 29.4644C12.3879 29.4151 12.4271 29.3658 12.4674 29.315C12.5423 29.2207 12.6174 29.1265 12.6927 29.0326C12.8632 28.8174 13.0154 28.6122 13.1246 28.3593C13.0522 28.2812 13.0522 28.2812 12.9784 28.2016C12.4576 27.6348 11.9371 27.0619 11.4931 26.4319C11.2937 26.2126 11.1391 26.1558 10.8589 26.0644C9.64884 25.6286 8.32805 24.7819 7.73395 23.5937C7.69173 23.2771 7.70723 23.1611 7.89996 22.9004C8.12457 22.7343 8.12457 22.7343 8.35895 22.6904C8.77153 22.7678 8.97547 23.0334 9.23785 23.3398C10.1097 24.346 11.1889 24.9792 12.531 25.1025C13.5234 25.1376 14.3429 24.8541 15.1558 24.2968C15.2598 24.2292 15.2598 24.2292 15.3658 24.1601C15.708 23.8271 15.9574 23.4162 16.2133 23.0151C16.8089 22.0875 17.5162 21.5826 18.5933 21.3281C18.7349 21.305 18.8765 21.2822 19.0181 21.2597C19.2918 21.2085 19.3527 21.1962 19.5455 20.9814C19.6325 20.7752 19.6325 20.7752 19.5308 20.5468C19.332 20.4165 19.332 20.4165 19.0914 20.2929C18.7154 20.0842 18.4411 19.8797 18.1713 19.5459C18.0488 19.4349 18.0488 19.4349 17.8701 19.4577C17.5434 19.5698 17.263 19.7541 16.973 19.9379C16.6673 20.1226 16.4496 20.2255 16.0933 20.1562C15.7989 19.8971 15.6037 19.6283 15.4109 19.2886C15.3857 19.2444 15.3604 19.2003 15.3344 19.1548C15.2547 19.0153 15.176 18.8753 15.0972 18.7353C15.0433 18.6405 14.9893 18.5458 14.9352 18.4511C14.4046 17.5185 14.4046 17.5185 14.4527 17.1093C14.7065 16.8179 14.9718 16.6248 15.3066 16.4352C15.3945 16.385 15.4824 16.3348 15.573 16.2831C15.665 16.2313 15.7571 16.1796 15.8492 16.1279C15.9407 16.0759 16.0321 16.0239 16.1235 15.9718C16.2929 15.8755 16.4625 15.7794 16.6322 15.6837C16.8958 15.5348 17.1586 15.3845 17.4214 15.2343C17.4214 14.4609 17.4214 13.6875 17.4214 12.8906C17.0237 12.8004 17.0237 12.8004 16.707 12.9593C16.6477 12.9926 16.5883 13.026 16.5271 13.0604C16.4661 13.0962 16.4052 13.132 16.3423 13.1689C16.2823 13.2026 16.2222 13.2363 16.1603 13.271C15.5506 13.6194 15.0339 13.9945 14.5796 14.5312C13.9726 15.2166 13.3296 15.567 12.4214 15.7031C12.1335 15.7189 11.8499 15.7184 11.5621 15.7031C11.5988 15.7965 11.6356 15.8898 11.6735 15.986C11.7226 16.1114 11.7717 16.2368 11.8209 16.3623C11.845 16.4235 11.8691 16.4846 11.8939 16.5477C12.5425 18.2066 12.5425 18.2066 12.2801 19.1281C12.0165 19.7202 11.543 20.2055 10.9468 20.4687C10.3325 20.6568 9.63084 20.6145 9.06207 20.3125C8.57242 19.9684 8.27309 19.6143 8.04645 19.0625C8.02066 19.0625 7.99488 19.0625 7.96832 19.0625C7.96914 19.12 7.96996 19.1775 7.9708 19.2368C7.97405 19.4977 7.97608 19.7586 7.97809 20.0195C7.9794 20.11 7.98071 20.2006 7.98205 20.2939C7.98256 20.381 7.98306 20.4681 7.98358 20.5578C7.9844 20.638 7.98522 20.7182 7.98606 20.8008C7.96799 21.0196 7.92916 21.1443 7.81207 21.3281C7.60146 21.4919 7.49231 21.484 7.22125 21.4697C6.85996 21.3843 6.85996 21.3843 6.71832 21.1718C6.39325 20.1346 6.57893 18.7322 6.9527 17.7343C6.98353 17.6787 7.01435 17.6231 7.04612 17.5658C7.20303 17.2589 7.28355 17.0522 7.21957 16.7067C7.12588 16.4326 7.01927 16.169 6.90387 15.9033C6.16958 14.1368 6.36796 12.8714 6.84741 11.0696C6.87436 10.9677 6.9013 10.8658 6.92824 10.7638C6.98412 10.5527 7.04029 10.3417 7.09664 10.1307C7.16836 9.86201 7.2391 9.5931 7.30961 9.32411C7.3647 9.11453 7.42043 8.90512 7.47632 8.69574C7.51533 8.54908 7.55372 8.40224 7.5921 8.25541C7.8579 7.26854 8.18948 6.57814 9.07825 6.03879C9.59328 5.79964 10.1045 5.75425 10.6636 5.7324C10.7279 5.72937 10.7921 5.72635 10.8583 5.72324C11.0148 5.71596 11.1712 5.70945 11.3277 5.7031C11.2863 5.64196 11.2863 5.64196 11.2441 5.57958C10.7002 4.76688 10.5118 3.8579 10.6606 2.8909C10.875 1.92081 11.3377 1.17613 12.1089 0.54685C13.2474 -0.175954 14.8597 -0.287442 16.0353 0.418371ZM12.7339 1.71872C12.213 2.22609 11.9124 2.72025 11.855 3.45212C11.9039 4.19648 12.169 4.77323 12.7095 5.28806C13.2193 5.71318 13.7422 5.82693 14.3987 5.80228C15.1309 5.72895 15.6098 5.39596 16.0933 4.84372C16.416 4.31122 16.5517 3.74382 16.4839 3.12497C16.3061 2.43177 15.9147 1.90395 15.3316 1.49412C14.4779 1.00792 13.4868 1.09861 12.7339 1.71872ZM9.31598 7.4365C8.89299 7.96523 8.78101 8.7147 8.61224 9.35727C8.58475 9.46136 8.55725 9.56544 8.52973 9.66952C8.47238 9.8868 8.4153 10.1042 8.35837 10.3216C8.2859 10.5982 8.21258 10.8746 8.13903 11.151C8.08205 11.3656 8.02562 11.5804 7.96933 11.7953C7.92966 11.9462 7.88946 12.097 7.84924 12.2478C7.5073 13.5631 7.66374 14.4102 8.13159 15.6781C8.16173 15.7606 8.19187 15.8431 8.22292 15.9282C8.28617 16.1009 8.34967 16.2736 8.4134 16.4461C8.51056 16.7096 8.60653 16.9736 8.70242 17.2375C8.76435 17.4062 8.82635 17.5749 8.88843 17.7435C8.93104 17.8611 8.93104 17.8611 8.97452 17.981C9.15058 18.4542 9.31619 18.8724 9.70172 19.2138C10.0278 19.337 10.2944 19.3311 10.6246 19.2187C10.8437 19.0676 10.9901 18.9179 11.0933 18.6718C11.1579 18.1248 11.0229 17.6837 10.8254 17.1789C10.798 17.1063 10.7706 17.0336 10.7424 16.9588C10.6554 16.7286 10.5668 16.4991 10.4781 16.2695C10.4191 16.1142 10.3602 15.9589 10.3014 15.8035C10.0429 15.1041 10.0429 15.1041 9.75619 14.4163C9.52921 13.7675 9.84805 12.9467 10.0073 12.3037C10.05 12.1314 10.0918 11.9588 10.1333 11.7861C10.2514 11.296 10.371 10.8062 10.4913 10.3165C10.5653 10.0154 10.6382 9.71397 10.7104 9.4124C10.738 9.29834 10.766 9.18437 10.7943 9.07052C11.0111 8.25195 11.0111 8.25195 10.9371 7.42185C10.7426 7.20518 10.5971 7.12586 10.3218 7.03611C9.90951 7.02786 9.63352 7.18391 9.31598 7.4365ZM12.1089 7.03122C12.1214 7.08871 12.1338 7.1462 12.1466 7.20543C12.2904 7.97468 12.0954 8.69364 11.9136 9.43937C11.8855 9.55778 11.8575 9.67621 11.8296 9.79466C11.7563 10.1045 11.6821 10.4142 11.6076 10.7238C11.4882 11.2199 11.3697 11.7162 11.2523 12.2128C11.2113 12.3853 11.1695 12.5576 11.1277 12.7299C11.1023 12.8363 11.0771 12.9428 11.0518 13.0492C11.0296 13.1414 11.0074 13.2336 10.9845 13.3286C10.9125 13.731 10.8657 14.0974 11.0933 14.4531C12.3066 14.5073 12.3066 14.5073 13.3638 13.9795C13.53 13.8229 13.6791 13.6627 13.8253 13.4872C14.287 12.9333 14.7799 12.6124 15.4028 12.2691C15.5362 12.1933 15.6656 12.1107 15.7946 12.0276C15.8706 11.9788 15.9466 11.9301 16.025 11.8799C16.1219 11.816 16.1219 11.816 16.2209 11.7508C16.6308 11.5791 17.0607 11.5392 17.4996 11.4843C17.5055 10.9115 17.5096 10.3387 17.5124 9.76583C17.5136 9.57092 17.5152 9.37601 17.5173 9.18111C17.5201 8.90108 17.5214 8.62108 17.5225 8.34104C17.5237 8.25379 17.5249 8.16654 17.5261 8.07665C17.5261 7.99534 17.5262 7.91402 17.5262 7.83025C17.5267 7.75877 17.5272 7.6873 17.5278 7.61366C17.4937 7.3821 17.4263 7.27718 17.2652 7.10935C17.009 7.02396 16.822 7.02182 16.5524 7.02235C16.4539 7.02236 16.3554 7.02237 16.2538 7.02237C16.1463 7.02277 16.0388 7.02318 15.9313 7.02359C15.8213 7.02374 15.7112 7.02385 15.6012 7.02393C15.3119 7.02423 15.0225 7.02499 14.7331 7.02586C14.4378 7.02666 14.1424 7.02702 13.8471 7.02741C13.2677 7.02825 12.6883 7.02958 12.1089 7.03122ZM30.891 8.44663C30.8331 8.4636 30.7752 8.48057 30.7156 8.49805C30.5932 8.53402 30.4709 8.57015 30.3486 8.60643C30.1618 8.66175 29.9749 8.71643 29.7879 8.77103C29.669 8.80609 29.55 8.84118 29.431 8.87632C29.3753 8.8926 29.3195 8.90888 29.2621 8.92566C28.7604 9.06613 28.7604 9.06613 28.3736 9.38962C28.2484 9.68619 28.2888 9.84202 28.3589 10.1562C28.4623 10.3856 28.5865 10.5996 28.7154 10.8154C28.7652 10.9011 28.7652 10.9011 28.8159 10.9886C28.8972 11.1283 28.9795 11.2673 29.0621 11.4062C29.4317 11.2725 29.7652 11.0852 30.107 10.8935C30.1685 10.8591 30.23 10.8247 30.2933 10.7893C30.7022 10.5594 31.1094 10.3265 31.5132 10.0879C31.561 10.06 31.6088 10.0322 31.658 10.0035C32.0007 9.79843 32.2847 9.6181 32.4214 9.23337C32.4214 8.90106 32.3219 8.69049 32.1089 8.43747C31.6791 8.19636 31.3381 8.3139 30.891 8.44663ZM26.8428 11.2478C26.7551 11.2982 26.6674 11.3486 26.577 11.4004C26.4809 11.4561 26.3847 11.5117 26.2886 11.5674C26.1894 11.6245 26.0901 11.6816 25.9908 11.7387C25.7354 11.8857 25.4801 12.033 25.225 12.1805C25.0008 12.31 24.7765 12.4392 24.5522 12.5683C24.1339 12.8093 23.7158 13.0507 23.2978 13.2922C22.8756 13.5362 22.4532 13.7798 22.0308 14.0234C21.8615 14.1211 21.6923 14.2187 21.523 14.3164C20.5074 14.9023 20.5074 14.9023 20.2532 15.0489C20.0848 15.1461 19.9163 15.2433 19.7479 15.3406C19.3578 15.5657 18.9676 15.7907 18.5771 16.015C17.6896 16.5246 16.8037 17.0337 15.9371 17.5781C16.1433 17.939 16.3496 18.3 16.5621 18.6718C17.7805 18.0094 18.9955 17.3395 20.1884 16.6319C20.6815 16.3395 21.1777 16.0528 21.6744 15.7666C21.7609 15.7167 21.8474 15.6669 21.9365 15.6155C22.1139 15.5133 22.2913 15.4112 22.4687 15.309C22.9798 15.0146 23.4906 14.7198 24.0014 14.4249C24.4352 14.1746 24.8691 13.9245 25.3032 13.6749C26.1965 13.161 27.0881 12.6453 27.9683 12.1093C27.9162 11.834 27.804 11.6263 27.6607 11.3867C27.6197 11.317 27.5787 11.2473 27.5365 11.1755C27.4985 11.1227 27.4606 11.07 27.4214 11.0156C27.1874 11.0156 27.0449 11.1314 26.8428 11.2478ZM18.7496 12.2656C18.7496 12.9875 18.7496 13.7093 18.7496 14.4531C18.994 14.3553 19.196 14.2733 19.4176 14.1449C19.4657 14.1172 19.5138 14.0895 19.5633 14.0609C19.6122 14.0324 19.6611 14.0039 19.7115 13.9746C19.7619 13.9455 19.8123 13.9164 19.8642 13.8864C19.9876 13.8151 20.1108 13.7435 20.2339 13.6718C20.125 13.4179 20.0021 13.2755 19.7896 13.1006C19.5154 12.8698 19.2648 12.6264 19.0187 12.366C18.9115 12.2483 18.9115 12.2483 18.7496 12.2656ZM25.1461 15.1465C25.0966 15.175 25.0472 15.2035 24.9962 15.2328C24.7946 15.3505 24.6184 15.4592 24.4527 15.625C24.4722 15.9758 24.6201 16.219 24.8433 16.4843C25.1365 16.5775 25.2718 16.5795 25.5574 16.4587C25.6376 16.4092 25.7178 16.3596 25.8004 16.3086C25.8813 16.2598 25.9623 16.2111 26.0457 16.1609C26.2647 16.0231 26.2647 16.0231 26.4058 15.7812C26.3907 15.3742 26.3145 15.1259 26.0152 14.8437C25.6504 14.8437 25.4487 14.9661 25.1461 15.1465ZM16.7183 24.5312C16.6555 24.6102 16.5926 24.6891 16.5279 24.7705C16.2235 25.1301 15.8661 25.3769 15.4683 25.625C15.4116 25.6604 15.3549 25.6959 15.2965 25.7324C14.6509 26.0929 13.9157 26.2342 13.2027 26.4062C13.3662 26.6988 13.5501 26.9333 13.7789 27.1777C14.5787 28.0597 14.5787 28.0597 14.5644 28.5827C14.5 28.903 14.2853 29.1135 14.0718 29.3506C13.9777 29.4604 13.8837 29.5704 13.7899 29.6805C13.7197 29.7614 13.7197 29.7614 13.6481 29.8441C13.462 30.0624 13.2877 30.2887 13.1148 30.5176C12.7425 31.0053 12.3641 31.488 11.9843 31.97C11.8731 32.1112 11.7621 32.2526 11.6512 32.3941C11.2337 32.9264 10.8142 33.4571 10.3902 33.9843C10.513 34.3003 10.738 34.4926 10.9859 34.7119C11.0276 34.7494 11.0693 34.787 11.1123 34.8257C11.2357 34.9364 11.3597 35.0465 11.4839 35.1562C11.5502 35.2148 11.6165 35.2734 11.6848 35.3338C11.8256 35.4575 11.9669 35.5807 12.1089 35.7031C12.4142 35.4057 12.6957 35.0938 12.9732 34.7705C13.0175 34.7192 13.0617 34.6679 13.1073 34.615C13.439 34.2302 13.7694 33.8444 14.0996 33.4585C14.5959 32.8789 15.0966 32.3031 15.5969 31.7269C15.6392 31.6781 15.6816 31.6292 15.7253 31.579C15.7887 31.5059 15.7887 31.5059 15.8535 31.4313C15.9382 31.3336 16.0227 31.2358 16.1072 31.1379C16.317 30.8948 16.5282 30.6531 16.7424 30.4138C17.4264 29.644 17.9214 28.9586 17.9104 27.8935C17.8758 27.4879 17.7448 27.124 17.607 26.7431C17.5788 26.6622 17.5507 26.5812 17.5217 26.4978C17.4379 26.2583 17.352 26.0196 17.2652 25.7812C17.2278 25.6784 17.2278 25.6784 17.1896 25.5735C17.0618 25.2248 16.9309 24.8774 16.7964 24.5312C16.7707 24.5312 16.7449 24.5312 16.7183 24.5312ZM9.53082 35.0781C9.39645 35.2196 9.26524 35.3623 9.13531 35.5078C9.0984 35.5488 9.06149 35.5898 9.02347 35.632C8.93198 35.7336 8.84075 35.8355 8.74957 35.9375C8.87272 36.2757 9.13452 36.4635 9.40387 36.6845C9.50358 36.768 9.60316 36.8516 9.70263 36.9354C9.77762 36.9985 9.77762 36.9985 9.85412 37.0629C10.069 37.2469 10.276 37.4389 10.483 37.6318C10.6341 37.7704 10.7854 37.9088 10.9371 38.0468C11.013 38.1161 11.0889 38.1854 11.1672 38.2568C11.2411 38.3213 11.315 38.3857 11.3912 38.4521C11.4561 38.5096 11.5211 38.5671 11.588 38.6264C11.8558 38.7852 12.0369 38.7781 12.3433 38.75C12.5372 38.6795 12.5372 38.6795 12.6558 38.5156C12.7681 38.2642 12.7681 38.2642 12.7339 37.9687C12.4332 37.432 11.8377 37.0339 11.3723 36.6427C11.0496 36.371 10.7392 36.0872 10.428 35.8023C10.2441 35.6343 10.0592 35.4678 9.87262 35.3027C9.82327 35.259 9.77392 35.2153 9.72308 35.1703C9.62327 35.0699 9.62327 35.0699 9.53082 35.0781ZM19.6089 37.5C19.6089 37.9383 19.6089 38.3765 19.6089 38.8281C20.1581 38.832 20.7073 38.8348 21.2564 38.8367C21.4432 38.8375 21.63 38.8385 21.8168 38.8399C22.0854 38.8418 22.354 38.8427 22.6226 38.8434C22.706 38.8442 22.7894 38.845 22.8754 38.8458C22.9926 38.8458 22.9926 38.8458 23.1123 38.8458C23.2151 38.8464 23.2151 38.8464 23.3199 38.8469C23.5957 38.8203 23.8165 38.7303 24.0474 38.5791C24.1981 38.3491 24.1683 38.1576 24.1402 37.8906C24.0027 37.6418 23.945 37.5911 23.6714 37.5C23.5384 37.4931 23.4051 37.4908 23.2719 37.4911C23.1499 37.4911 23.1499 37.4911 23.0255 37.4911C22.9378 37.4915 22.8502 37.4919 22.7599 37.4923C22.67 37.4925 22.5802 37.4926 22.4876 37.4927C22.2003 37.4931 21.9129 37.4941 21.6255 37.4951C21.4309 37.4955 21.2362 37.4958 21.0416 37.4962C20.564 37.497 20.0865 37.4984 19.6089 37.5Z" fill="url(#paint0_linear_242_197)"/>
</g>
<defs>
<linearGradient id="paint0_linear_242_197" x1="6.41895" y1="-0.0568848" x2="35.5362" y2="1.35002" gradientUnits="userSpaceOnUse">
<stop stop-color="#C42091"/>
<stop offset="1" stop-color="#6617CA"/>
</linearGradient>
<clipPath id="clip0_242_197">
<rect width="40" height="40" fill="white"/>
</clipPath>
</defs>
</svg>
