<svg width="80" height="80" viewBox="0 0 80 80" fill="none" xmlns="http://www.w3.org/2000/svg">
<g clip-path="url(#clip0_142_106)">
<path d="M25.8409 -0.0213978C25.9895 -0.0221907 26.1382 -0.0229836 26.2914 -0.0238005C26.5393 -0.0239172 26.5393 -0.0239172 26.7922 -0.0240362C27.0533 -0.0250633 27.0533 -0.0250633 27.3197 -0.0261111C27.908 -0.0282118 28.4962 -0.0291704 29.0845 -0.0301254C29.5043 -0.0313592 29.924 -0.0326504 30.3438 -0.0339973C31.6074 -0.0378341 32.8711 -0.0401157 34.1347 -0.0421317C34.4915 -0.0427114 34.8484 -0.0433323 35.2052 -0.043968C37.4204 -0.0479119 39.6356 -0.0513583 41.8507 -0.0533006C42.3642 -0.0537583 42.8777 -0.0542211 43.3911 -0.054692C43.5187 -0.0548086 43.6463 -0.0549252 43.7778 -0.0550453C45.8443 -0.0570215 47.9107 -0.0622111 49.9771 -0.0687236C52.098 -0.075353 54.2189 -0.0790344 56.3398 -0.0798507C57.5308 -0.080384 58.7219 -0.0822198 59.9129 -0.0873667C60.9276 -0.091744 61.9422 -0.0934595 62.9568 -0.0917112C63.4744 -0.0909012 63.9919 -0.0917755 64.5095 -0.0952214C65.0712 -0.0987576 65.6327 -0.0974749 66.1944 -0.0949895C66.3572 -0.0971586 66.5201 -0.0993277 66.6879 -0.101562C67.7186 -0.0903258 68.4296 0.0967656 69.219 0.781261C69.9076 1.66405 70.0233 2.33317 70.0212 3.42276C70.0216 3.55061 70.022 3.67846 70.0223 3.81018C70.0234 4.24229 70.0233 4.67438 70.0233 5.10649C70.0238 5.41794 70.0244 5.72939 70.025 6.04084C70.0266 6.89961 70.0271 7.75838 70.0276 8.61716C70.0282 9.54222 70.0297 10.4673 70.031 11.3923C70.034 13.5221 70.0356 15.6518 70.0369 17.7816C70.0375 18.8338 70.0384 19.886 70.0392 20.9383C70.042 24.5395 70.0443 28.1408 70.0455 31.7421C70.0456 31.9682 70.0456 32.1943 70.0457 32.4204C70.0457 32.5326 70.0458 32.6447 70.0458 32.7602C70.046 33.3284 70.0462 33.8965 70.0464 34.4647C70.0464 34.5774 70.0465 34.6902 70.0465 34.8064C70.0477 38.4625 70.0514 42.1185 70.0565 45.7746C70.0618 49.6392 70.0649 53.5038 70.0654 57.3683C70.0655 57.7925 70.0656 58.2167 70.0656 58.6409C70.0657 58.7453 70.0657 58.8498 70.0657 58.9574C70.066 60.5347 70.0681 62.112 70.0711 63.6892C70.0745 65.4833 70.0758 67.2773 70.0742 69.0714C70.0735 69.987 70.0738 70.9026 70.0769 71.8183C70.0796 72.6564 70.0795 73.4944 70.077 74.3324C70.0767 74.6358 70.0774 74.9391 70.0792 75.2425C70.0816 75.6547 70.0801 76.0667 70.0776 76.479C70.0792 76.5969 70.0808 76.7148 70.0824 76.8363C70.0713 77.6912 69.8449 78.3456 69.3753 79.0625C68.5533 79.8434 67.904 80.0468 66.7867 80.0429C66.6685 80.0437 66.5503 80.0445 66.4285 80.0453C66.0385 80.0475 65.6485 80.0474 65.2584 80.047C64.9872 80.0476 64.716 80.0483 64.4447 80.049C63.8767 80.0502 63.3086 80.0502 62.7405 80.0493C62.0119 80.0484 61.2834 80.0511 60.5548 80.0547C59.9949 80.057 59.435 80.0571 58.8751 80.0567C58.6064 80.0567 58.3377 80.0576 58.069 80.0591C57.6938 80.061 57.3188 80.06 56.9436 80.0582C56.8323 80.0594 56.721 80.0606 56.6063 80.0618C56.1555 80.057 55.8551 80.0528 55.4824 79.7852C55.2474 79.4335 55.1867 79.1721 55.1565 78.75C55.3028 78.2662 55.4228 78.015 55.7815 77.6563C56.2371 77.6138 56.2371 77.6138 56.8279 77.6089C56.9354 77.6076 57.0429 77.6063 57.1537 77.6049C57.5099 77.6009 57.8661 77.599 58.2223 77.5971C58.4695 77.5945 58.7166 77.5918 58.9638 77.589C59.6153 77.5819 60.2668 77.5764 60.9183 77.5715C61.9606 77.5634 63.003 77.5532 64.0453 77.5421C64.4098 77.5385 64.7743 77.536 65.1387 77.5335C65.362 77.5314 65.5853 77.5293 65.8086 77.5271C66.1013 77.5249 66.1013 77.5249 66.3998 77.5226C66.8823 77.5212 66.8823 77.5212 67.344 77.3438C67.344 52.6969 67.344 28.05 67.344 2.65626C66.8999 2.50824 66.6275 2.48024 66.1674 2.47965C66.0214 2.47909 65.8754 2.47852 65.725 2.47794C65.5644 2.4781 65.4037 2.47827 65.2382 2.47844C64.9826 2.47778 64.9826 2.47778 64.7218 2.47711C64.1478 2.4758 63.5738 2.47559 62.9998 2.47537C62.5895 2.47464 62.1792 2.47383 61.7689 2.47296C60.8839 2.47116 59.9989 2.46987 59.1139 2.46888C57.7157 2.46727 56.3175 2.46406 54.9193 2.46058C54.4412 2.45941 53.963 2.45825 53.4849 2.4571C53.3654 2.45681 53.2459 2.45652 53.1227 2.45622C51.7623 2.45295 50.4019 2.45001 49.0415 2.44722C48.9171 2.44696 48.7927 2.4467 48.6646 2.44644C46.6477 2.44233 44.6308 2.43942 42.6139 2.43681C40.5443 2.43409 38.4748 2.42959 36.4053 2.42355C35.128 2.41989 33.8508 2.4177 32.5736 2.4174C31.5957 2.41703 30.6178 2.41425 29.6399 2.41055C29.238 2.40942 28.836 2.4091 28.4341 2.40963C27.8872 2.41023 27.3404 2.40799 26.7935 2.40501C26.5526 2.40631 26.5526 2.40631 26.3067 2.40763C26.0878 2.40556 26.0878 2.40556 25.8644 2.40344C25.675 2.40313 25.675 2.40313 25.4817 2.4028C25.0728 2.32856 24.9384 2.20135 24.6878 1.87501C24.5123 1.29845 24.4788 1.04534 24.7463 0.498058C25.1283 -0.0160391 25.2047 -0.0196064 25.8409 -0.0213978Z" fill="url(#paint0_linear_142_106)"/>
<path d="M12.8957 -0.0453653C13.0688 -0.047359 13.2419 -0.0493527 13.4203 -0.0514069C13.6065 -0.0517546 13.7927 -0.0521024 13.9845 -0.0524607C14.1764 -0.0535008 14.3682 -0.0545409 14.5659 -0.0556126C14.9715 -0.0571944 15.377 -0.0579277 15.7826 -0.0578775C16.404 -0.0585616 17.0253 -0.0642393 17.6466 -0.0701609C18.0405 -0.0710776 18.4344 -0.0716979 18.8283 -0.0719919C19.1076 -0.0753601 19.1076 -0.0753601 19.3925 -0.0787964C19.6522 -0.0773542 19.6522 -0.0773542 19.9171 -0.0758829C20.1454 -0.0765509 20.1454 -0.0765509 20.3783 -0.0772324C20.9005 0.0228601 21.0853 0.208139 21.4064 0.62503C21.4894 1.20596 21.5078 1.5541 21.1965 2.05985C20.5314 2.51481 19.8496 2.43494 19.062 2.4335C18.8941 2.43571 18.7262 2.43793 18.5531 2.44021C18.0166 2.44676 17.4801 2.44914 16.9435 2.4512C16.4064 2.45574 15.8693 2.46114 15.3322 2.46722C14.998 2.47073 14.6638 2.4732 14.3295 2.47454C14.1027 2.47618 14.1027 2.47618 13.8713 2.47787C13.7382 2.47841 13.6051 2.47895 13.468 2.47951C13.0972 2.48685 13.0972 2.48685 12.6564 2.65628C12.6564 27.3032 12.6564 51.95 12.6564 77.3438C13.0867 77.4872 13.3387 77.5197 13.7818 77.52C13.9163 77.5204 14.0509 77.5209 14.1895 77.5214C14.3374 77.5211 14.4852 77.5208 14.6376 77.5205C14.7946 77.5209 14.9517 77.5212 15.1135 77.5215C15.6421 77.5225 16.1707 77.5223 16.6994 77.5222C17.0774 77.5227 17.4554 77.5232 17.8334 77.5238C18.6485 77.5251 19.4637 77.5259 20.2789 77.5264C21.5668 77.5272 22.8547 77.5299 24.1426 77.5328C24.5831 77.5338 25.0236 77.5348 25.4641 77.5358C25.5741 77.5361 25.6842 77.5363 25.7976 77.5366C27.0508 77.5394 28.3039 77.5419 29.557 77.5442C29.6716 77.5445 29.7862 77.5447 29.9042 77.5449C31.762 77.5483 33.6197 77.55 35.4775 77.5512C37.3839 77.5524 39.2903 77.5561 41.1967 77.5618C42.3731 77.5652 43.5496 77.5667 44.7261 77.5658C45.6269 77.5652 46.5276 77.5679 47.4284 77.5718C47.7986 77.5729 48.1688 77.5729 48.539 77.5718C49.0428 77.5704 49.5464 77.5728 50.0502 77.5762C50.1981 77.5749 50.3459 77.5736 50.4983 77.5722C51.4804 77.5846 51.4804 77.5846 51.8879 77.9396C52.0995 78.4435 52.0893 78.8349 52.0314 79.375C51.8902 79.7167 51.8902 79.7167 51.5627 80C51.0481 80.0976 50.5363 80.0849 50.0139 80.0804C49.853 80.0815 49.692 80.0826 49.5262 80.0837C48.9843 80.0866 48.4424 80.085 47.9004 80.0834C47.5129 80.0845 47.1254 80.0859 46.7379 80.0875C45.7929 80.0906 44.8479 80.0908 43.9028 80.0895C43.1345 80.0886 42.3661 80.0888 41.5978 80.0898C41.4338 80.09 41.4338 80.09 41.2666 80.0902C41.0446 80.0905 40.8226 80.0908 40.6005 80.091C38.517 80.0936 36.4335 80.0923 34.3499 80.0896C32.4447 80.0873 30.5395 80.0896 28.6342 80.0941C26.6779 80.0987 24.7215 80.1004 22.7652 80.099C22.5437 80.0988 22.3223 80.0986 22.1008 80.0985C21.9919 80.0984 21.8829 80.0983 21.7706 80.0983C21.0038 80.0979 20.2371 80.0995 19.4703 80.1017C18.437 80.1048 17.4037 80.1037 16.3704 80.0998C15.9912 80.099 15.612 80.0996 15.2328 80.1016C14.7149 80.104 14.1972 80.1017 13.6793 80.0982C13.4545 80.101 13.4545 80.101 13.2252 80.1038C12.2292 80.09 11.547 79.8706 10.7814 79.2188C10.0928 78.336 9.97707 77.6669 9.97918 76.5773C9.97881 76.4494 9.97844 76.3216 9.97806 76.1899C9.97702 75.7578 9.97709 75.3257 9.97715 74.8936C9.97664 74.5821 9.97606 74.2707 9.97541 73.9592C9.97385 73.1004 9.97327 72.2417 9.97285 71.3829C9.97224 70.4578 9.97075 69.5328 9.96938 68.6077C9.96644 66.478 9.96485 64.3482 9.96353 62.2185C9.96287 61.1663 9.96206 60.114 9.96123 59.0618C9.95844 55.4605 9.9561 51.8592 9.95493 48.258C9.95486 48.0318 9.95479 47.8057 9.95471 47.5796C9.95467 47.4675 9.95464 47.3553 9.9546 47.2398C9.95441 46.6716 9.95422 46.1035 9.95403 45.5353C9.95399 45.4226 9.95396 45.3098 9.95392 45.1937C9.95268 41.5376 9.94902 37.8815 9.94394 34.2254C9.93859 30.3609 9.9355 26.4963 9.93499 22.6317C9.93492 22.2075 9.93485 21.7833 9.93477 21.3591C9.93475 21.2547 9.93473 21.1502 9.93471 21.0426C9.93437 19.4654 9.93229 17.8881 9.92929 16.3108C9.92591 14.5168 9.92464 12.7227 9.92616 10.9287C9.92687 10.013 9.92657 9.09739 9.92354 8.18174C9.9208 7.34369 9.92094 6.50569 9.92337 5.66763C9.92374 5.36427 9.92306 5.06091 9.92121 4.75756C9.91886 4.34534 9.92035 3.93331 9.92281 3.52109C9.92121 3.40318 9.91961 3.28527 9.91797 3.16379C9.92909 2.30882 10.1555 1.65444 10.6252 0.93753C11.335 0.263156 11.9178 -0.0377104 12.8957 -0.0453653Z" fill="url(#paint1_linear_142_106)"/>
<path d="M48.4258 23.4098C48.5371 23.4088 48.6484 23.4078 48.7631 23.4067C49.1323 23.4036 49.5014 23.4018 49.8706 23.4002C50.0598 23.3993 50.0598 23.3993 50.2528 23.3983C50.9205 23.3951 51.5882 23.3928 52.2559 23.3914C52.9449 23.3896 53.6338 23.3843 54.3228 23.378C54.853 23.374 55.3833 23.3727 55.9136 23.3721C56.1675 23.3713 56.4215 23.3695 56.6754 23.3666C57.0314 23.3628 57.3873 23.363 57.7434 23.364C57.9458 23.3631 58.1481 23.3622 58.3567 23.3613C59.2038 23.4787 59.6775 23.8558 60.2051 24.5117C60.613 25.267 60.6447 26 60.6427 26.8471C60.6427 27.0222 60.6427 27.1974 60.6427 27.3778C60.6419 27.5643 60.6411 27.7509 60.6403 27.9431C60.6399 28.2324 60.6399 28.2324 60.6396 28.5276C60.6387 29.1421 60.6368 29.7566 60.6348 30.3711C60.6339 30.7883 60.6333 31.2056 60.6326 31.6229C60.6309 32.6444 60.6283 33.666 60.625 34.6875C60.7976 34.7078 60.9702 34.7282 61.1481 34.7491C61.7188 34.8437 61.7188 34.8437 62.0996 35.1074C62.4235 35.5868 62.4366 35.8374 62.3438 36.4062C62.1191 36.8554 62.1191 36.8554 61.7188 37.1875C61.2429 37.2522 60.7895 37.2333 60.3125 37.1875C60.2996 37.297 60.2867 37.4066 60.2734 37.5195C59.9837 38.6301 59.2144 39.2557 58.2813 39.8437C57.2888 40.3289 56.0181 40.3249 54.9707 39.9902C53.6747 39.4207 53.1288 38.6014 52.5 37.3437C51.0047 37.2922 49.5094 37.2406 47.9688 37.1875C47.8656 37.5484 47.7625 37.9094 47.6563 38.2812C47.0523 39.1963 46.2098 39.7699 45.1581 40.0964C43.9204 40.3319 42.8128 40.1572 41.7188 39.5312C40.9971 38.971 40.495 38.3569 40.1563 37.5C40.1563 37.3969 40.1563 37.2937 40.1563 37.1875C40.0441 37.1882 39.9319 37.1889 39.8164 37.1897C37.0883 37.2069 34.3603 37.2198 31.6322 37.228C30.3129 37.232 28.9937 37.2375 27.6744 37.2464C26.5247 37.2542 25.3749 37.2592 24.2252 37.261C23.6162 37.262 23.0074 37.2644 22.3985 37.2701C21.8255 37.2754 21.2525 37.277 20.6795 37.2758C20.3687 37.2762 20.058 37.2804 19.7472 37.2847C19.5623 37.2836 19.3774 37.2825 19.1869 37.2814C19.0261 37.2821 18.8654 37.2829 18.6998 37.2836C18.1255 37.1517 17.964 36.8956 17.6563 36.4062C17.5781 35.9277 17.5781 35.9277 17.6563 35.4687C18.005 35.0238 18.2109 34.8672 18.75 34.6875C19.0414 34.6733 19.3332 34.6684 19.625 34.6687C19.807 34.6685 19.9891 34.6683 20.1767 34.668C20.3766 34.6686 20.5766 34.6692 20.7826 34.6697C20.9951 34.6698 21.2076 34.6698 21.4201 34.6697C21.9973 34.6696 22.5744 34.6705 23.1516 34.6716C23.7547 34.6726 24.3578 34.6727 24.9609 34.6729C26.103 34.6734 27.2452 34.6747 28.3873 34.6762C29.6876 34.678 30.9878 34.6788 32.2881 34.6796C34.9629 34.6812 37.6377 34.684 40.3125 34.6875C40.3566 34.5412 40.4007 34.395 40.4462 34.2444C40.6616 33.6488 40.9346 33.3856 41.4063 32.9687C41.5948 32.7995 41.5948 32.7995 41.7871 32.6269C42.7786 31.9256 43.8247 31.9583 45 32.0312C45.1547 32.0828 45.3094 32.1344 45.4688 32.1875C45.471 31.9897 45.4733 31.7919 45.4757 31.5881C45.4847 30.851 45.4968 30.114 45.5098 29.377C45.5149 29.0586 45.5193 28.7402 45.5229 28.4218C45.5282 27.9629 45.5363 27.5041 45.545 27.0453C45.546 26.9039 45.547 26.7626 45.5481 26.617C45.57 25.6648 45.6791 24.8456 46.3336 24.1028C47.1108 23.5263 47.4562 23.4172 48.4258 23.4098ZM48.125 25.9375C48.1104 26.2108 48.1067 26.4847 48.1073 26.7584C48.1073 26.9336 48.1073 27.1088 48.1073 27.2893C48.1081 27.4798 48.1089 27.6704 48.1097 27.8668C48.11 28.0608 48.1102 28.2548 48.1104 28.4547C48.1111 28.9712 48.1125 29.4878 48.1143 30.0044C48.1159 30.5312 48.1166 31.058 48.1174 31.5848C48.1191 32.619 48.1217 33.6532 48.125 34.6875C48.753 34.7224 49.3807 34.7478 50.0095 34.7647C50.2229 34.7718 50.4363 34.7813 50.6496 34.7936C51.3388 34.832 51.9816 34.8419 52.6563 34.6875C53.1155 34.2752 53.334 33.8325 53.5938 33.2812C54.4458 32.451 55.2594 32.1599 56.4258 32.1484C57.0143 32.1576 57.55 32.223 58.125 32.3437C58.1289 31.4594 58.1317 30.575 58.1336 29.6906C58.1344 29.3896 58.1354 29.0886 58.1368 28.7876C58.1387 28.3555 58.1396 27.9235 58.1403 27.4914C58.1411 27.3563 58.1419 27.2212 58.1427 27.082C58.1631 26.4105 58.1631 26.4105 57.9688 25.7812C56.7084 25.7776 55.448 25.7748 54.1876 25.7731C53.6024 25.7723 53.0172 25.7712 52.432 25.7694C51.8677 25.7677 51.3034 25.7668 50.7391 25.7664C50.5233 25.7661 50.3076 25.7655 50.0919 25.7647C49.7907 25.7636 49.4895 25.7635 49.1883 25.7635C49.0165 25.7631 48.8448 25.7628 48.6678 25.7624C48.2901 25.7374 48.2901 25.7374 48.125 25.9375ZM42.6563 35.3125C42.4295 35.7661 42.4418 36.0582 42.5 36.5625C42.7833 37.0202 43.1052 37.4119 43.5938 37.6562C44.0569 37.7194 44.3889 37.7443 44.7955 37.4927C45.1382 37.2119 45.4252 36.9622 45.625 36.5625C45.6894 35.8382 45.6054 35.4212 45.1563 34.8437C44.1748 34.133 43.4145 34.5719 42.6563 35.3125ZM55.1563 35.1562C54.8753 35.7884 54.7932 36.0954 55.0098 36.7578C55.3469 37.2363 55.5479 37.4453 56.0938 37.6562C56.7635 37.6562 57.0972 37.5634 57.6465 37.1777C58.011 36.6586 58.0751 36.3898 58.0365 35.7709C57.93 35.2959 57.6871 35.0208 57.3438 34.6875C56.5029 34.2671 55.7588 34.4849 55.1563 35.1562Z" fill="url(#paint2_linear_142_106)"/>
<path d="M29.6866 39.6874C30.0561 39.9791 30.2585 40.2063 30.4678 40.6249C30.482 40.9185 30.4862 41.2127 30.4855 41.5066C30.4855 41.7834 30.4855 41.7834 30.4855 42.0659C30.4847 42.2659 30.4839 42.4659 30.4831 42.672C30.4828 42.8762 30.4826 43.0804 30.4824 43.2907C30.4818 43.8338 30.4803 44.3768 30.4785 44.9198C30.4769 45.4739 30.4762 46.0279 30.4754 46.5819C30.4738 47.6692 30.4711 48.7564 30.4678 49.8437C30.7047 49.8432 30.7047 49.8432 30.9464 49.8428C34.7867 49.8358 38.6271 49.8307 42.4675 49.8275C44.3246 49.8259 46.1818 49.8237 48.039 49.8201C49.6574 49.817 51.2759 49.8149 52.8944 49.8143C53.7516 49.8138 54.6087 49.8129 55.4659 49.8106C56.2724 49.8085 57.079 49.8078 57.8855 49.8083C58.1818 49.8082 58.478 49.8076 58.7742 49.8064C59.1783 49.8049 59.5824 49.8052 59.9865 49.8061C60.104 49.8052 60.2215 49.8043 60.3426 49.8033C60.9713 49.8069 61.4752 49.8492 62.0303 50.1562C62.3962 50.705 62.4203 50.9163 62.3428 51.5624C62.106 51.9777 62.106 51.9777 61.7178 52.3437C61.2641 52.4203 60.902 52.4459 60.4486 52.4372C60.3196 52.4379 60.1907 52.4385 60.0578 52.4392C59.6249 52.4404 59.1923 52.4361 58.7594 52.4318C58.4494 52.4316 58.1394 52.4317 57.8293 52.4322C57.1614 52.4325 56.4935 52.4304 55.8256 52.4265C54.7699 52.4205 53.7144 52.4206 52.6587 52.4216C50.0368 52.4232 47.4149 52.4164 44.793 52.4086C42.7553 52.4027 40.7177 52.3989 38.68 52.4014C37.6301 52.4025 36.5803 52.3991 35.5304 52.3924C34.8779 52.3892 34.2254 52.3898 33.5729 52.3915C33.2698 52.3915 32.9667 52.3899 32.6636 52.3866C32.2504 52.3822 31.8377 52.3836 31.4245 52.3865C31.3039 52.3838 31.1834 52.3812 31.0592 52.3784C30.6816 52.3748 30.6816 52.3748 30.1553 52.4999C29.7709 52.939 29.7709 52.939 29.5303 53.4374C29.2233 53.7572 29.2233 53.7572 28.9151 54.0233C28.8138 54.1128 28.7125 54.2022 28.6081 54.2943C27.5743 55.0413 26.3728 54.9461 25.1553 54.8437C24.1755 54.5892 23.4392 53.8984 22.8116 53.1249C22.7047 52.9179 22.6001 52.7098 22.4991 52.4999C22.3745 52.4993 22.25 52.4986 22.1217 52.498C21.5573 52.4928 20.9931 52.4818 20.4287 52.4706C20.2328 52.4697 20.0368 52.4688 19.8349 52.4679C19.6466 52.4633 19.4582 52.4588 19.2642 52.4541C19.0907 52.4517 18.9173 52.4492 18.7385 52.4467C18.2803 52.3437 18.2803 52.3437 17.9112 51.976C17.598 51.4698 17.5557 51.2102 17.6553 50.6249C18.0041 50.1799 18.21 50.0233 18.7491 49.8437C19.0259 49.8205 19.3034 49.805 19.581 49.7942C19.7416 49.7877 19.9022 49.7811 20.0677 49.7744C20.2352 49.7682 20.4027 49.7621 20.5752 49.7558C20.8292 49.7456 20.8292 49.7456 21.0882 49.7353C21.5064 49.7187 21.9246 49.7028 22.3428 49.6874C22.3924 49.5808 22.442 49.4743 22.4931 49.3645C22.5939 49.1542 22.5939 49.1542 22.6968 48.9397C22.7954 48.7315 22.7954 48.7315 22.8959 48.5192C23.4505 47.5607 24.4082 47.0912 25.4428 46.7913C26.3647 46.5929 27.081 46.7668 27.9678 47.0312C27.9629 46.7308 27.9629 46.7308 27.9579 46.4243C27.9466 45.6812 27.9394 44.9381 27.9335 44.1949C27.9303 43.8733 27.9261 43.5517 27.9207 43.2301C27.9131 42.7678 27.9095 42.3056 27.9068 41.8432C27.9036 41.6994 27.9003 41.5557 27.897 41.4076C27.8967 40.4141 27.8967 40.4141 28.2499 39.9091C28.7549 39.5826 29.0989 39.6035 29.6866 39.6874ZM25.1553 49.6874C24.8034 50.183 24.8034 50.183 24.6866 50.7812C24.8501 51.3583 25.0272 51.7331 25.4287 52.1776C25.9517 52.4246 26.3022 52.4225 26.8741 52.3437C27.3852 52.0664 27.7366 51.73 27.9776 51.1913C27.9633 50.5896 27.7979 50.208 27.4991 49.6874C26.6023 49.1082 26.0521 49.1082 25.1553 49.6874Z" fill="url(#paint3_linear_142_106)"/>
<path d="M50.1569 54.5312C50.5731 54.785 50.5731 54.785 50.9381 55.1562C51.0321 55.611 51.0321 55.611 51.0268 56.1452C51.0268 56.3453 51.0267 56.5455 51.0267 56.7517C51.0227 56.9694 51.0186 57.1871 51.0144 57.4048C51.013 57.6281 51.0119 57.8514 51.0111 58.0747C51.0081 58.6615 51.0004 59.2481 50.9918 59.8348C50.9838 60.4339 50.9802 61.033 50.9763 61.6321C50.9679 62.8069 50.9546 63.9815 50.9381 65.1562C51.0718 65.1545 51.2055 65.1528 51.3432 65.151C52.6031 65.1353 53.8629 65.1234 55.1229 65.1158C55.7706 65.1117 56.4183 65.1062 57.066 65.0973C57.6911 65.0888 58.3161 65.0841 58.9413 65.0821C59.1797 65.0807 59.4182 65.0779 59.6567 65.0736C59.9908 65.068 60.3246 65.0672 60.6588 65.0675C60.8489 65.0658 61.039 65.0641 61.2349 65.0623C61.7194 65.1562 61.7194 65.1562 62.0988 65.517C62.3444 65.9375 62.3444 65.9375 62.3346 66.5039C62.1394 67.2066 62.1394 67.2066 61.7194 67.5C61.2359 67.5564 61.2359 67.5564 60.6335 67.5532C60.5237 67.5533 60.4139 67.5533 60.3007 67.5534C59.938 67.5531 59.5754 67.5494 59.2127 67.5458C58.9611 67.5449 58.7096 67.5442 58.458 67.5438C57.796 67.542 57.1341 67.5374 56.4721 67.5322C55.7966 67.5274 55.1211 67.5252 54.4455 67.5229C53.1201 67.5179 51.7948 67.5099 50.4694 67.5C50.4235 67.6226 50.3777 67.7452 50.3304 67.8716C49.9986 68.655 49.2542 69.1791 48.526 69.5898C47.2572 69.8993 46.1194 69.9506 44.9341 69.3341C44.3533 68.9719 43.9792 68.7228 43.6382 68.1143C43.3266 67.6165 43.3266 67.6165 42.8163 67.5402C42.5418 67.541 42.5418 67.541 42.2618 67.5418C42.1597 67.5408 42.0575 67.5398 41.9522 67.5388C41.61 67.5365 41.2681 67.541 40.9259 67.5454C40.6806 67.5451 40.4352 67.5445 40.1898 67.5434C39.6615 67.542 39.1333 67.5435 38.605 67.5473C37.7699 67.5532 36.9349 67.5523 36.0997 67.5505C34.4779 67.5478 32.8561 67.5522 31.2343 67.5573C29.1699 67.5633 27.1055 67.5658 25.0411 67.5627C24.2107 67.5617 23.3804 67.5639 22.55 67.5687C22.0337 67.5711 21.5175 67.571 21.0012 67.5702C20.7616 67.5703 20.522 67.5716 20.2824 67.574C19.9555 67.5771 19.6288 67.5764 19.3019 67.5748C19.119 67.5754 18.936 67.5761 18.7475 67.5767C18.1802 67.4832 17.9961 67.3324 17.6569 66.875C17.5705 66.2703 17.5404 65.9376 17.9114 65.4396C18.396 65.0689 18.6814 65.0771 19.2884 65.0751C19.3891 65.074 19.4898 65.0728 19.5935 65.0716C19.9307 65.0684 20.2676 65.0697 20.6047 65.0709C20.8465 65.0696 21.0883 65.0679 21.3301 65.066C21.9863 65.0617 22.6426 65.0612 23.2988 65.0613C23.9847 65.0608 24.6706 65.0568 25.3565 65.0532C26.6552 65.0469 27.9539 65.0437 29.2527 65.0416C30.7313 65.0392 32.2099 65.0332 33.6885 65.0269C36.73 65.014 39.7716 65.0055 42.8131 65C42.8597 64.8545 42.8597 64.8545 42.9072 64.706C42.9692 64.5155 42.9692 64.5155 43.0325 64.3212C43.0732 64.1952 43.1139 64.0691 43.1558 63.9393C43.4736 63.0682 44.1737 62.4118 44.9713 61.9629C46.1811 61.4364 47.2012 61.5546 48.4381 61.875C48.4345 61.59 48.4345 61.59 48.4307 61.2993C48.4222 60.5932 48.4168 59.887 48.4124 59.1809C48.41 58.8755 48.4068 58.5701 48.4028 58.2647C48.3971 57.8253 48.3944 57.3859 48.3924 56.9464C48.3899 56.8103 48.3875 56.6742 48.385 56.534C48.3848 55.7904 48.4169 55.2887 48.9069 54.6875C49.3527 54.4646 49.6623 54.4827 50.1569 54.5312ZM45.7819 64.5312C45.3759 65.0027 45.3131 65.2337 45.3131 65.8594C45.5002 66.5142 45.7147 66.7734 46.2506 67.1875C46.7837 67.4062 46.9773 67.3645 47.5202 67.1582C47.97 66.8746 48.2019 66.7225 48.4381 66.25C48.5184 65.6191 48.5045 65.2757 48.194 64.7168C47.3867 63.9923 46.6699 63.9056 45.7819 64.5312Z" fill="url(#paint4_linear_142_106)"/>
<path d="M30.3133 10.4688C30.7344 10.8899 30.7721 11.2041 30.8008 11.7899C30.8005 11.9329 30.8001 12.0758 30.7998 12.2231C30.7998 12.467 30.7998 12.467 30.7997 12.7159C30.7989 12.8904 30.7981 13.0649 30.7973 13.2447C30.7971 13.4241 30.7969 13.6036 30.7966 13.7885C30.7958 14.3616 30.7938 14.9347 30.7918 15.5079C30.791 15.8965 30.7903 16.2851 30.7897 16.6736C30.7879 17.6262 30.7853 18.5788 30.782 19.5313C30.9232 19.5306 31.0644 19.5299 31.2098 19.5292C32.5409 19.5229 33.872 19.5182 35.2031 19.5151C35.8875 19.5135 36.5718 19.5113 37.2561 19.5077C37.9166 19.5043 38.5772 19.5025 39.2377 19.5017C39.4896 19.5011 39.7414 19.5 39.9933 19.4983C40.3464 19.496 40.6994 19.4957 41.0525 19.4958C41.2534 19.4951 41.4543 19.4944 41.6613 19.4937C42.1723 19.5302 42.5161 19.6116 42.9695 19.8438C43.3082 20.2594 43.2813 20.4826 43.2527 21.0254C43.0839 21.7397 43.0839 21.7397 42.657 22.0313C42.2582 22.0751 41.898 22.0906 41.4994 22.0845C41.382 22.0846 41.2646 22.0847 41.1436 22.0847C40.7555 22.0844 40.3675 22.0808 39.9794 22.0771C39.7104 22.0762 39.4413 22.0755 39.1722 22.0751C38.464 22.0733 37.7558 22.0687 37.0476 22.0635C36.325 22.0587 35.6023 22.0566 34.8796 22.0542C33.4617 22.0492 32.0437 22.0412 30.6258 22.0313C30.5915 22.2531 30.5915 22.2531 30.5566 22.4793C30.3836 23.4524 29.8411 24.1429 29.0731 24.7462C28.0257 25.4625 27.0346 25.6082 25.782 25.4688C24.6981 25.1665 23.6966 24.5417 23.0757 23.5901C22.7684 23.0121 22.657 22.7048 22.657 22.0313C22.4631 22.0374 22.4631 22.0374 22.2653 22.0437C21.6798 22.0599 21.0943 22.0701 20.5086 22.0801C20.3052 22.0867 20.1017 22.0932 19.8921 22.1C19.6968 22.1025 19.5014 22.105 19.3001 22.1076C19.1201 22.1117 18.9401 22.1158 18.7546 22.12C18.282 22.0313 18.282 22.0313 17.9108 21.6658C17.601 21.1582 17.5575 20.8973 17.657 20.3126C18.0058 19.8676 18.2117 19.711 18.7508 19.5313C19.0589 19.5242 19.3673 19.5253 19.6755 19.5313C19.8587 19.5311 20.0418 19.5309 20.2306 19.5307C20.6147 19.5311 20.9989 19.5363 21.3829 19.5466C22.4461 19.5494 22.4461 19.5494 23.357 19.0656C23.6852 18.6969 23.6852 18.6969 23.9495 18.31C24.4251 17.709 25.0488 17.4991 25.782 17.3438C26.5883 17.2769 27.3532 17.2425 28.1258 17.5001C28.1281 17.299 28.1303 17.0979 28.1327 16.8907C28.1417 16.1455 28.1538 15.4004 28.1668 14.6552C28.172 14.3326 28.1764 14.0099 28.1799 13.6872C28.1852 13.2237 28.1933 12.7603 28.2021 12.2968C28.2031 12.1523 28.2041 12.0077 28.2051 11.8588C28.2082 11.7243 28.2113 11.5898 28.2145 11.4513C28.2162 11.333 28.2179 11.2147 28.2197 11.0927C28.2984 10.6994 28.4428 10.5616 28.7508 10.3126C29.3296 10.0531 29.7466 10.2347 30.3133 10.4688ZM25.3133 20.4688C25.0323 21.101 24.9503 21.408 25.1668 22.0704C25.5039 22.5489 25.7049 22.7579 26.2508 22.9688C26.9205 22.9688 27.2542 22.876 27.8035 22.4903C28.168 21.9712 28.2321 21.7024 28.1935 21.0834C28.087 20.6085 27.8442 20.3333 27.5008 20.0001C26.6599 19.5796 25.9158 19.7974 25.3133 20.4688Z" fill="url(#paint5_linear_142_106)"/>
<path d="M34.726 11.9509C34.8402 11.9499 34.9544 11.9488 35.0721 11.9477C35.4549 11.9448 35.8375 11.9464 36.2203 11.948C36.4947 11.9469 36.7691 11.9455 37.0434 11.9439C37.7889 11.9404 38.5342 11.9409 39.2797 11.9423C39.9017 11.9431 40.5238 11.9419 41.1459 11.9408C42.6133 11.9381 44.0807 11.9387 45.5481 11.9413C47.0625 11.9439 48.5768 11.9415 50.0911 11.9364C51.3909 11.9322 52.6907 11.9311 53.9905 11.9324C54.7669 11.9332 55.5434 11.9329 56.3199 11.9297C57.05 11.9268 57.7801 11.9277 58.5102 11.9316C58.7782 11.9323 59.0462 11.9318 59.3142 11.9298C59.6801 11.9273 60.0457 11.9297 60.4115 11.9332C60.6162 11.9333 60.821 11.9334 61.0319 11.9335C61.6992 12.0564 61.9305 12.2853 62.3443 12.8126C62.442 13.2814 62.442 13.2814 62.3443 13.7501C61.9314 14.2756 61.6999 14.506 61.0348 14.6292C60.7297 14.6294 60.7297 14.6294 60.4185 14.6295C60.3048 14.6306 60.1911 14.6317 60.074 14.6329C59.6938 14.6356 59.3139 14.6328 58.9337 14.63C58.6608 14.6308 58.3879 14.6319 58.1151 14.6334C57.3745 14.6363 56.634 14.6342 55.8934 14.6312C55.1185 14.6286 54.3435 14.63 53.5685 14.6308C52.2671 14.6315 50.9657 14.629 49.6643 14.6246C48.1596 14.6196 46.6549 14.6196 45.1502 14.6223C43.7028 14.6248 42.2555 14.6237 40.8081 14.6211C40.1921 14.62 39.5761 14.6202 38.96 14.6213C38.2346 14.6225 37.5093 14.6206 36.7839 14.6163C36.5177 14.6153 36.2514 14.6153 35.9852 14.6164C35.6217 14.6177 35.2585 14.6152 34.8951 14.6118C34.5901 14.6111 34.5901 14.6111 34.2789 14.6104C33.664 14.5184 33.4037 14.3431 32.9693 13.9064C32.871 13.5939 32.871 13.5939 32.8814 13.2814C32.8812 13.1782 32.881 13.0751 32.8808 12.9689C33.1502 12.0178 33.8469 11.9528 34.726 11.9509Z" fill="url(#paint6_linear_142_106)"/>
<path d="M34.726 42.2634C34.8402 42.2624 34.9544 42.2613 35.0721 42.2602C35.4549 42.2573 35.8375 42.2589 36.2203 42.2605C36.4947 42.2594 36.7691 42.258 37.0434 42.2564C37.7889 42.2529 38.5342 42.2534 39.2797 42.2548C39.9017 42.2556 40.5238 42.2544 41.1459 42.2533C42.6133 42.2506 44.0807 42.2512 45.5481 42.2538C47.0625 42.2564 48.5768 42.254 50.0911 42.2489C51.3909 42.2447 52.6907 42.2436 53.9905 42.2449C54.7669 42.2457 55.5434 42.2454 56.3199 42.2422C57.05 42.2393 57.7801 42.2402 58.5102 42.2441C58.7782 42.2448 59.0462 42.2443 59.3142 42.2423C59.6801 42.2398 60.0457 42.2422 60.4115 42.2457C60.6162 42.2458 60.821 42.2459 61.0319 42.246C61.6992 42.3689 61.9305 42.5978 62.3443 43.1251C62.442 43.5939 62.442 43.5939 62.3443 44.0626C61.9314 44.5881 61.6999 44.8185 61.0348 44.9417C60.7297 44.9419 60.7297 44.9419 60.4185 44.942C60.3048 44.9431 60.1911 44.9442 60.074 44.9454C59.6938 44.9481 59.3139 44.9453 58.9337 44.9425C58.6608 44.9433 58.3879 44.9444 58.1151 44.9459C57.3745 44.9488 56.634 44.9467 55.8934 44.9437C55.1185 44.9411 54.3435 44.9425 53.5685 44.9433C52.2671 44.944 50.9657 44.9415 49.6643 44.9371C48.1596 44.9321 46.6549 44.9321 45.1502 44.9348C43.7028 44.9373 42.2555 44.9362 40.8081 44.9336C40.1921 44.9325 39.5761 44.9327 38.96 44.9338C38.2346 44.935 37.5093 44.9331 36.7839 44.9288C36.5177 44.9278 36.2514 44.9278 35.9852 44.9289C35.6217 44.9302 35.2585 44.9277 34.8951 44.9243C34.5901 44.9236 34.5901 44.9236 34.2789 44.9229C33.664 44.8309 33.4037 44.6556 32.9693 44.2189C32.871 43.9064 32.871 43.9064 32.8814 43.5939C32.8812 43.4907 32.881 43.3876 32.8808 43.2814C33.1502 42.3303 33.8469 42.2653 34.726 42.2634Z" fill="url(#paint7_linear_142_106)"/>
<path d="M19.5396 57.4017C19.7034 57.4001 19.7034 57.4001 19.8705 57.3984C20.2356 57.3956 20.6004 57.3984 20.9655 57.4013C21.2276 57.4005 21.4897 57.3993 21.7518 57.3979C22.463 57.395 23.1741 57.397 23.8853 57.4001C24.6296 57.4026 25.3739 57.4013 26.1182 57.4005C27.3682 57.3998 28.6181 57.4022 29.868 57.4066C31.3131 57.4116 32.7581 57.4116 34.2031 57.4089C35.5933 57.4064 36.9834 57.4075 38.3736 57.4102C38.9652 57.4112 39.5568 57.4111 40.1483 57.4099C40.845 57.4087 41.5416 57.4106 42.2383 57.4149C42.4939 57.416 42.7496 57.416 43.0053 57.4149C43.3544 57.4135 43.7032 57.416 44.0522 57.4195C44.3452 57.4201 44.3452 57.4201 44.644 57.4208C45.2475 57.5141 45.508 57.6979 45.9365 58.1249C46.0403 58.4374 46.0403 58.4374 46.0342 58.7499C46.0362 58.853 46.0382 58.9561 46.0403 59.0624C45.877 59.5542 45.5823 59.719 45.1553 59.9999C44.644 60.079 44.644 60.079 44.0522 60.0803C43.943 60.0814 43.8338 60.0825 43.7213 60.0836C43.3562 60.0864 42.9913 60.0848 42.6263 60.0832C42.3642 60.0843 42.1021 60.0857 41.84 60.0873C41.1288 60.0908 40.4177 60.0904 39.7065 60.089C39.1128 60.0882 38.519 60.0893 37.9253 60.0905C36.5248 60.0931 35.1243 60.0926 33.7238 60.0899C32.2787 60.0873 30.8337 60.0898 29.3887 60.0948C28.1479 60.099 26.9072 60.1001 25.6665 60.0988C24.9255 60.098 24.1845 60.0984 23.4434 60.1016C22.7468 60.1045 22.0502 60.1035 21.3535 60.0997C21.0978 60.0989 20.8422 60.0994 20.5865 60.1014C20.2374 60.1039 19.8887 60.1016 19.5396 60.098C19.3443 60.0979 19.149 60.0979 18.9477 60.0978C18.2952 59.9728 18.0627 59.733 17.6553 59.2186C17.5576 58.7499 17.5576 58.7499 17.6553 58.2811C18.2385 57.5449 18.6112 57.4022 19.5396 57.4017Z" fill="url(#paint8_linear_142_106)"/>
<path d="M19.4091 27.0884C19.7028 27.0851 19.7028 27.0851 20.0025 27.0817C20.2183 27.0832 20.4341 27.0848 20.65 27.0865C20.8782 27.0854 21.1064 27.084 21.3346 27.0823C21.9535 27.0788 22.5723 27.0802 23.1912 27.0826C23.8391 27.0846 24.4871 27.0828 25.1351 27.0816C26.2232 27.0801 27.3113 27.082 28.3994 27.0857C29.657 27.09 30.9145 27.0886 32.1721 27.0843C33.2523 27.0808 34.3324 27.0803 35.4126 27.0823C36.0576 27.0835 36.7025 27.0837 37.3475 27.0811C37.9539 27.0788 38.5601 27.0804 39.1665 27.0849C39.3889 27.086 39.6114 27.0857 39.8338 27.0839C40.1376 27.0818 40.4414 27.085 40.7452 27.0884C41.0002 27.0888 41.0002 27.0888 41.2602 27.0893C41.8723 27.2208 42.1098 27.4895 42.499 27.9688C42.5967 28.4376 42.5967 28.4376 42.499 28.9063C42.1098 29.3857 41.8723 29.6544 41.2602 29.7859C41.0903 29.7862 40.9203 29.7865 40.7452 29.7868C40.5494 29.789 40.3536 29.7912 40.1518 29.7935C39.936 29.7919 39.7202 29.7903 39.5043 29.7887C39.2761 29.7897 39.0479 29.7911 38.8197 29.7928C38.2008 29.7964 37.582 29.795 36.9631 29.7925C36.3152 29.7905 35.6672 29.7924 35.0192 29.7936C33.9311 29.795 32.843 29.7932 31.7549 29.7894C30.4973 29.7852 29.2398 29.7866 27.9822 29.7909C26.902 29.7944 25.8219 29.7949 24.7417 29.7929C24.0967 29.7916 23.4518 29.7915 22.8068 29.7941C22.2004 29.7963 21.5942 29.7948 20.9878 29.7902C20.7654 29.7892 20.5429 29.7895 20.3205 29.7912C20.0167 29.7934 19.7129 29.7902 19.4091 29.7868C19.2391 29.7865 19.0692 29.7862 18.8941 29.7859C18.282 29.6544 18.0445 29.3857 17.6553 28.9063C17.5576 28.4376 17.5576 28.4376 17.6553 27.9688C18.206 27.2906 18.5384 27.0899 19.4091 27.0884Z" fill="url(#paint9_linear_142_106)"/>
<path d="M54.6321 57.4699C54.7829 57.4673 54.9336 57.4648 55.0889 57.4622C55.7786 57.4553 56.4683 57.4489 57.158 57.4453C57.5219 57.4427 57.8858 57.4384 58.2496 57.4325C58.7739 57.4239 59.298 57.4205 59.8224 57.4182C60.0661 57.4129 60.0661 57.4129 60.3147 57.4075C61.4424 57.4108 61.4424 57.4108 62.0558 57.8664C62.3438 58.2812 62.3438 58.2812 62.4414 58.75C62.3045 59.407 62.1016 59.5978 61.5625 60C60.9862 60.115 60.4194 60.1058 59.8334 60.0983C59.5823 60.0988 59.5823 60.0988 59.3263 60.0994C58.9731 60.0992 58.6199 60.0972 58.2668 60.0933C57.7259 60.0879 57.1855 60.09 56.6446 60.0931C56.3013 60.092 55.9579 60.0905 55.6146 60.0885C55.4528 60.0893 55.291 60.09 55.1243 60.0908C54.0091 60.0725 54.0091 60.0725 53.4961 59.7106C53.2133 59.2689 53.1357 58.9625 53.125 58.4375C53.4992 57.6356 53.7761 57.4828 54.6321 57.4699Z" fill="url(#paint10_linear_142_106)"/>
<path d="M20.1324 11.933C20.2963 11.9326 20.4602 11.9322 20.6291 11.9319C20.9749 11.932 21.3207 11.9341 21.6665 11.938C22.196 11.9434 22.7251 11.9412 23.2547 11.9382C23.5909 11.9393 23.9271 11.9408 24.2633 11.9428C24.5009 11.9416 24.5009 11.9416 24.7432 11.9404C25.8375 11.9588 25.8375 11.9588 26.3491 12.3298C26.5779 12.6799 26.6512 12.8659 26.6504 13.2813C26.6538 13.3844 26.6572 13.4875 26.6608 13.5938C26.4989 14.1087 26.2397 14.2508 25.7812 14.5313C25.2298 14.626 24.6845 14.6226 24.126 14.6198C23.8859 14.6212 23.8859 14.6212 23.641 14.6227C23.3032 14.6238 22.9654 14.6233 22.6276 14.6213C22.1111 14.6192 21.595 14.6245 21.0785 14.6304C20.7499 14.6306 20.4213 14.6303 20.0928 14.6295C19.9386 14.6316 19.7845 14.6337 19.6256 14.6358C18.8942 14.6259 18.5482 14.6146 17.9495 14.1638C17.6562 13.75 17.6562 13.75 17.5586 13.2813C17.8497 11.8839 18.9506 11.9175 20.1324 11.933Z" fill="url(#paint11_linear_142_106)"/>
<path d="M19.8932 42.2455C20.1026 42.2449 20.1026 42.2449 20.3162 42.2443C20.6105 42.2445 20.9049 42.2466 21.1992 42.2505C21.6495 42.2558 22.0994 42.2537 22.5497 42.2507C22.8361 42.2517 23.1225 42.2532 23.4088 42.2552C23.5433 42.2545 23.6777 42.2537 23.8162 42.2529C24.7469 42.2712 24.7469 42.2712 25.2368 42.638C25.5133 43.0323 25.6132 43.2669 25.625 43.75C25.3716 44.2947 25.193 44.5067 24.6875 44.8437C24.2208 44.8801 23.7691 44.8987 23.302 44.9017C23.1658 44.9031 23.0296 44.9045 22.8892 44.906C22.6011 44.9083 22.3129 44.9096 22.0248 44.9102C21.5847 44.9121 21.145 44.9198 20.705 44.9277C20.4248 44.9291 20.1447 44.9303 19.8645 44.931C19.6677 44.9356 19.6677 44.9356 19.4669 44.9403C18.7876 44.935 18.5185 44.9064 17.9638 44.477C17.6562 44.0625 17.6562 44.0625 17.5586 43.5937C17.8274 42.3035 18.7791 42.2283 19.8932 42.2455Z" fill="url(#paint12_linear_142_106)"/>
</g>
<defs>
<linearGradient id="paint0_linear_142_106" x1="24.5508" y1="-0.101562" x2="73.2408" y2="1.86503" gradientUnits="userSpaceOnUse">
<stop stop-color="#C42091"/>
<stop offset="1" stop-color="#6617CA"/>
</linearGradient>
<linearGradient id="paint1_linear_142_106" x1="9.91797" y1="-0.0787964" x2="55.0016" y2="1.60646" gradientUnits="userSpaceOnUse">
<stop stop-color="#C42091"/>
<stop offset="1" stop-color="#6617CA"/>
</linearGradient>
<linearGradient id="paint2_linear_142_106" x1="17.5977" y1="23.3613" x2="63.9265" y2="32.1117" gradientUnits="userSpaceOnUse">
<stop stop-color="#C42091"/>
<stop offset="1" stop-color="#6617CA"/>
</linearGradient>
<linearGradient id="paint3_linear_142_106" x1="17.6074" y1="39.6345" x2="63.5668" y2="49.2117" gradientUnits="userSpaceOnUse">
<stop stop-color="#C42091"/>
<stop offset="1" stop-color="#6617CA"/>
</linearGradient>
<linearGradient id="paint4_linear_142_106" x1="17.6016" y1="54.5005" x2="63.5363" y2="64.0433" gradientUnits="userSpaceOnUse">
<stop stop-color="#C42091"/>
<stop offset="1" stop-color="#6617CA"/>
</linearGradient>
<linearGradient id="paint5_linear_142_106" x1="17.6094" y1="10.1855" x2="44.7091" y2="13.4109" gradientUnits="userSpaceOnUse">
<stop stop-color="#C42091"/>
<stop offset="1" stop-color="#6617CA"/>
</linearGradient>
<linearGradient id="paint6_linear_142_106" x1="32.877" y1="11.928" x2="52.6244" y2="27.2535" gradientUnits="userSpaceOnUse">
<stop stop-color="#C42091"/>
<stop offset="1" stop-color="#6617CA"/>
</linearGradient>
<linearGradient id="paint7_linear_142_106" x1="32.877" y1="42.2405" x2="52.6244" y2="57.566" gradientUnits="userSpaceOnUse">
<stop stop-color="#C42091"/>
<stop offset="1" stop-color="#6617CA"/>
</linearGradient>
<linearGradient id="paint8_linear_142_106" x1="17.582" y1="57.3965" x2="37.1347" y2="72.0149" gradientUnits="userSpaceOnUse">
<stop stop-color="#C42091"/>
<stop offset="1" stop-color="#6617CA"/>
</linearGradient>
<linearGradient id="paint9_linear_142_106" x1="17.582" y1="27.0801" x2="36.3211" y2="39.3456" gradientUnits="userSpaceOnUse">
<stop stop-color="#C42091"/>
<stop offset="1" stop-color="#6617CA"/>
</linearGradient>
<linearGradient id="paint10_linear_142_106" x1="53.125" y1="57.4075" x2="62.5352" y2="59.7209" gradientUnits="userSpaceOnUse">
<stop stop-color="#C42091"/>
<stop offset="1" stop-color="#6617CA"/>
</linearGradient>
<linearGradient id="paint11_linear_142_106" x1="17.5586" y1="11.9291" x2="26.7807" y2="14.1345" gradientUnits="userSpaceOnUse">
<stop stop-color="#C42091"/>
<stop offset="1" stop-color="#6617CA"/>
</linearGradient>
<linearGradient id="paint12_linear_142_106" x1="17.5586" y1="42.2436" x2="25.8246" y2="44.0019" gradientUnits="userSpaceOnUse">
<stop stop-color="#C42091"/>
<stop offset="1" stop-color="#6617CA"/>
</linearGradient>
<clipPath id="clip0_142_106">
<rect width="80" height="80" fill="white"/>
</clipPath>
</defs>
</svg>
