<svg width="40" height="40" viewBox="0 0 40 40" fill="none" xmlns="http://www.w3.org/2000/svg">
<g clip-path="url(#clip0_302_56)">
<path d="M13.1357 1.83351C13.1991 1.83286 13.2624 1.83221 13.3277 1.83154C13.4302 1.83372 13.4302 1.83372 13.5349 1.83595C13.6431 1.83745 13.6431 1.83745 13.7535 1.83898C16.9813 1.93013 20.0286 3.32297 22.6179 5.17366C24.4653 6.4903 26.3922 7.52942 28.5935 8.12501C28.6488 8.14008 28.7042 8.15515 28.7612 8.17067C30.1776 8.545 31.6451 8.67043 33.1052 8.71095C35.1535 8.76996 36.9094 9.49028 38.3347 10.9961C39.4573 12.2951 40.0495 13.862 40.0339 15.5713C40.033 15.7094 40.033 15.7094 40.0321 15.8503C40.0185 16.5763 39.933 17.2061 39.6873 17.8906C39.6541 17.9839 39.621 18.0771 39.5869 18.1732C39.1105 19.386 38.3179 20.4082 37.2654 21.1719C37.3871 21.1749 37.3871 21.1749 37.5114 21.178C38.9226 21.2283 38.9226 21.2283 39.4599 21.7084C39.9504 22.24 40.0244 22.6748 40.026 23.3804C40.0265 23.4582 40.027 23.5359 40.0276 23.616C40.0284 23.7802 40.0287 23.9445 40.0287 24.1087C40.029 24.3587 40.0319 24.6086 40.0349 24.8586C40.0353 25.0185 40.0356 25.1785 40.0358 25.3385C40.0369 25.4126 40.038 25.4868 40.0392 25.5632C40.0353 26.128 39.9076 26.5408 39.5365 26.9721C39.4863 27.0142 39.4362 27.0562 39.3845 27.0996C39.3348 27.1429 39.285 27.1862 39.2338 27.2308C38.8421 27.4887 38.4781 27.5185 38.0173 27.5098C37.9201 27.5084 37.8228 27.507 37.7225 27.5055C37.6123 27.5028 37.6123 27.5028 37.4998 27.5C37.5034 27.5774 37.507 27.6547 37.5107 27.7344C37.5483 28.8578 37.5483 28.8578 37.1873 29.2969C36.9251 29.5664 36.688 29.8018 36.3279 29.9219C36.3276 30.0138 36.3273 30.1058 36.327 30.2005C36.3241 31.0672 36.3196 31.934 36.3135 32.8007C36.3104 33.2463 36.3079 33.6918 36.3067 34.1374C36.3055 34.5675 36.3028 34.9976 36.2991 35.4276C36.2979 35.5916 36.2973 35.7557 36.2973 35.9197C36.2971 36.1496 36.295 36.3794 36.2924 36.6092C36.2928 36.677 36.2932 36.7447 36.2936 36.8144C36.2846 37.3375 36.1288 37.6259 35.7493 37.9956C35.3124 38.197 34.8888 38.1701 34.4138 38.1641C34.3193 38.1653 34.2247 38.1665 34.1273 38.1677C33.2709 38.164 33.2709 38.164 32.8904 37.8125C32.4804 37.3693 32.4889 37.0047 32.4936 36.4203C32.4941 36.2763 32.4946 36.1322 32.495 35.9882C32.4956 35.8738 32.4956 35.8738 32.4961 35.7572C32.4976 35.3535 32.4964 34.9498 32.4956 34.5461C32.4947 34.0324 32.4946 33.5187 32.4979 33.005C32.5005 32.5898 32.5001 32.1746 32.4976 31.7593C32.4972 31.6011 32.4979 31.4429 32.4998 31.2847C32.5022 31.0634 32.5008 30.8424 32.4985 30.6211C32.501 30.5231 32.501 30.5231 32.5035 30.4231C32.4992 30.2362 32.4895 30.0963 32.4216 29.9219C32.2715 29.7887 32.1257 29.7007 31.9464 29.6112C31.7331 29.4973 31.6432 29.3494 31.5281 29.1406C31.4911 29.0762 31.4542 29.0117 31.4161 28.9453C31.2608 28.6015 31.2404 28.2794 31.2449 27.9053C31.2456 27.829 31.2463 27.7528 31.247 27.6743C31.2479 27.6168 31.2488 27.5593 31.2498 27.5C29.7808 27.4938 28.312 27.4916 26.843 27.4941C26.161 27.4952 25.4789 27.495 24.7969 27.4917C24.2024 27.4888 23.6079 27.4884 23.0134 27.491C22.6986 27.4922 22.3839 27.4922 22.0691 27.4893C21.7727 27.4866 21.4764 27.4872 21.18 27.4903C21.0713 27.4909 20.9627 27.4902 20.854 27.4883C20.2586 27.4606 20.2586 27.4606 19.7618 27.7322C19.6368 27.9158 19.6368 27.9158 19.5489 28.1076C19.3526 28.4625 18.9654 28.6261 18.5935 28.75C18.4557 28.7569 18.3176 28.7592 18.1796 28.7589C18.0952 28.7589 18.0107 28.7589 17.9237 28.7589C17.8327 28.7585 17.7416 28.7581 17.6478 28.7576C17.5545 28.7575 17.4612 28.7574 17.365 28.7573C17.0665 28.7569 16.768 28.7559 16.4695 28.7549C16.2673 28.7545 16.0651 28.7541 15.8629 28.7538C15.3669 28.753 14.8708 28.7517 14.3748 28.75C14.3763 28.8188 14.3779 28.8876 14.3796 28.9584C14.3808 29.0492 14.382 29.1399 14.3833 29.2334C14.3849 29.3231 14.3865 29.4129 14.3881 29.5053C14.3614 30.0269 14.1175 30.4917 13.7498 30.8594C13.6111 30.9241 13.6111 30.9241 13.4697 30.9902C13.322 31.0677 13.322 31.0677 13.2029 31.1719C13.1466 31.3931 13.1315 31.5285 13.1386 31.7497C13.1382 31.8074 13.1379 31.8651 13.1376 31.9246C13.137 32.1152 13.1402 32.3057 13.1434 32.4963C13.1434 32.6293 13.1432 32.7622 13.1427 32.8951C13.142 33.2453 13.1442 33.5954 13.1473 33.9455C13.1521 34.5048 13.1537 35.0641 13.1528 35.6233C13.1531 35.8181 13.1555 36.0128 13.158 36.2075C13.1648 37.3125 13.1648 37.3125 12.8123 37.8125C12.334 38.2193 11.8109 38.1719 11.2058 38.1641C11.1116 38.1653 11.0174 38.1665 10.9203 38.1677C10.0486 38.1639 10.0486 38.1639 9.68726 37.8125C9.39916 37.4523 9.33063 37.1793 9.34079 36.7289C9.34086 36.6692 9.34093 36.6094 9.341 36.5478C9.34132 36.4188 9.34233 36.2898 9.34396 36.1607C9.3464 35.9565 9.3467 35.7523 9.34639 35.548C9.34588 34.9675 9.34905 34.3871 9.3541 33.8066C9.35704 33.451 9.35735 33.0954 9.35605 32.7397C9.35611 32.6043 9.35721 32.469 9.35937 32.3336C9.36236 32.1445 9.36201 31.9556 9.36093 31.7665C9.36352 31.6827 9.36352 31.6827 9.36616 31.5972C9.36869 31.4198 9.36869 31.4198 9.29663 31.1719C9.12344 31.0265 8.95889 30.955 8.74976 30.8594C8.5993 30.7257 8.5993 30.7257 8.49097 30.5957C8.45421 30.5532 8.41745 30.5107 8.37958 30.4669C8.13356 30.0815 8.10652 29.7163 8.11499 29.2676C8.1164 29.1703 8.11781 29.073 8.11926 28.9728C8.12108 28.8993 8.12289 28.8258 8.12476 28.75C8.07906 28.7516 8.03336 28.7533 7.98628 28.755C7.77855 28.7615 7.57083 28.7655 7.36304 28.7695C7.29113 28.7722 7.21923 28.7748 7.14514 28.7775C6.61414 28.7852 6.61414 28.7852 6.3587 28.6121C6.2458 28.4312 6.2054 28.3363 6.20581 28.125C6.20324 28.0477 6.20324 28.0477 6.20062 27.9688C6.27781 27.7233 6.43004 27.6406 6.64038 27.5C6.87081 27.4608 6.87081 27.4608 7.13067 27.4605C7.22947 27.4597 7.32827 27.4588 7.43007 27.4579C7.53896 27.4585 7.64786 27.4592 7.75675 27.4598C7.87188 27.4594 7.98702 27.4589 8.10215 27.4582C8.3497 27.457 8.59723 27.4567 8.84478 27.4573C9.23607 27.4581 9.62733 27.4568 10.0186 27.4551C10.6373 27.4527 11.2559 27.4518 11.8746 27.4515C12.9831 27.451 14.0917 27.4488 15.2002 27.4449C15.5894 27.4436 15.9785 27.4432 16.3676 27.4435C16.6094 27.4435 16.8511 27.4429 17.0929 27.4422C17.2052 27.4419 17.3174 27.442 17.4297 27.4424C17.5827 27.4428 17.7357 27.4422 17.8887 27.4415C18.0172 27.4415 18.0172 27.4415 18.1484 27.4415C18.3765 27.4371 18.3765 27.4371 18.5935 27.2656C18.6749 27.0216 18.6838 26.8449 18.6877 26.5887C18.6892 26.498 18.6908 26.4073 18.6924 26.3138C18.6937 26.2159 18.695 26.118 18.6964 26.0172C18.6988 25.8668 18.6988 25.8668 18.7013 25.7134C18.7056 25.4471 18.7094 25.1809 18.7132 24.9147C18.7171 24.6429 18.7215 24.3711 18.7258 24.0993C18.7342 23.5662 18.7421 23.0331 18.7498 22.5C17.0133 22.5029 15.2769 22.5076 13.5404 22.5144C12.7342 22.5175 11.9279 22.52 11.1217 22.5212C10.4191 22.5222 9.7165 22.5243 9.0139 22.5277C8.64177 22.5295 8.26966 22.5307 7.89752 22.5306C7.5474 22.5306 7.1973 22.532 6.84718 22.5345C6.71856 22.5351 6.58994 22.5353 6.46132 22.5348C6.28588 22.5343 6.11056 22.5357 5.93513 22.5376C5.83691 22.5379 5.73868 22.5382 5.63747 22.5385C5.34532 22.5854 5.25212 22.6553 5.07788 22.8906C5.0316 23.1292 5.0316 23.1292 5.03851 23.3948C5.03705 23.4932 5.03559 23.5916 5.03409 23.6929C5.03401 23.8469 5.03401 23.8469 5.03394 24.0039C5.02876 25.4942 5.02876 25.4942 4.65474 25.9019C4.29088 26.2221 4.00773 26.26 3.53766 26.2692C3.43303 26.2718 3.32841 26.2744 3.22379 26.277C3.05938 26.2807 2.89498 26.2842 2.73056 26.2873C2.57151 26.2904 2.41251 26.2944 2.25348 26.2985C2.15842 26.3005 2.06335 26.3025 1.96541 26.3045C1.73235 26.3268 1.59834 26.3548 1.40601 26.4844C1.2754 26.7181 1.23755 26.9394 1.20673 27.2015C1.19514 27.3 1.18356 27.3985 1.17163 27.5C1.27135 27.4984 1.37107 27.4967 1.47381 27.4951C1.84435 27.4894 2.21488 27.4858 2.58545 27.4828C2.74573 27.4813 2.906 27.4791 3.06626 27.4764C3.29685 27.4726 3.52738 27.4709 3.758 27.4695C3.82946 27.4679 3.90093 27.4663 3.97456 27.4646C4.30467 27.4645 4.48287 27.4705 4.76975 27.6466C4.95035 27.8439 4.99976 27.9356 4.99976 28.2031C4.82186 28.6436 4.82186 28.6436 4.60913 28.75C4.47359 28.7587 4.33772 28.7624 4.20191 28.7638C4.11691 28.7648 4.0319 28.7658 3.94432 28.7669C3.85212 28.7675 3.75991 28.768 3.66492 28.7686C3.57051 28.7693 3.47609 28.7699 3.37882 28.7705C3.17878 28.7716 2.97873 28.7725 2.77869 28.7731C2.47226 28.7744 2.1659 28.7778 1.8595 28.7813C1.66541 28.7821 1.47131 28.7827 1.27722 28.7833C1.18534 28.7846 1.09345 28.786 0.99878 28.7874C0.870532 28.7871 0.870532 28.7871 0.739693 28.7867C0.664524 28.7872 0.589356 28.7876 0.51191 28.7881C0.253188 28.7387 0.160762 28.6419 -0.000244141 28.4375C-0.0406799 28.2183 -0.0406799 28.2183 -0.041748 27.9675C-0.0421509 27.8762 -0.0425537 27.7849 -0.0429688 27.6907C-0.0417603 27.5956 -0.0405518 27.5004 -0.0393066 27.4024C-0.0405151 27.3084 -0.0417236 27.2144 -0.0429688 27.1176C-0.0401713 26.4805 0.025961 26.0501 0.44043 25.5478C0.481921 25.5137 0.523413 25.4795 0.566162 25.4443C0.627191 25.3916 0.627191 25.3916 0.689453 25.3378C1.32997 24.9473 1.92244 24.9714 2.65601 24.9854C2.76231 24.9865 2.86861 24.9876 2.97491 24.9886C3.23323 24.9913 3.49148 24.9952 3.74976 25C3.74812 24.9299 3.74648 24.8598 3.7448 24.7876C3.73944 24.5249 3.73554 24.2623 3.73259 23.9996C3.73103 23.8864 3.7289 23.7732 3.72618 23.66C3.70926 22.9377 3.70745 22.3831 4.19043 21.7978C4.23192 21.7637 4.27341 21.7295 4.31616 21.6943C4.37719 21.6416 4.37719 21.6416 4.43945 21.5878C4.94293 21.2809 5.3962 21.216 5.97205 21.2234C6.043 21.2234 6.11396 21.2233 6.18707 21.2233C6.41957 21.2235 6.65203 21.2253 6.88452 21.2271C7.04653 21.2276 7.20853 21.2279 7.37053 21.2281C7.7954 21.229 8.22025 21.2313 8.64511 21.2339C9.07926 21.2363 9.51342 21.2374 9.94757 21.2386C10.7983 21.2411 11.649 21.2451 12.4998 21.25C12.4995 21.1521 12.4992 21.0541 12.4989 20.9532C12.4921 18.629 12.487 16.3048 12.4838 13.9806C12.4834 13.6947 12.483 13.4087 12.4826 13.1228C12.4825 13.0659 12.4824 13.0089 12.4823 12.9503C12.481 12.028 12.4785 11.1057 12.4756 10.1835C12.4727 9.23742 12.471 8.29139 12.4704 7.34535C12.4699 6.76139 12.4686 6.17744 12.466 5.59348C12.4642 5.14603 12.464 4.69859 12.4644 4.25114C12.4643 4.06733 12.4637 3.88353 12.4625 3.69973C12.461 3.44939 12.4613 3.19912 12.4622 2.94878C12.4613 2.87552 12.4604 2.80226 12.4594 2.72677C12.464 2.23591 12.464 2.23591 12.6486 1.98621C12.8295 1.8633 12.9191 1.83489 13.1357 1.83351ZM13.7498 3.12501C13.7498 9.10626 13.7498 15.0875 13.7498 21.25C14.1623 21.25 14.5748 21.25 14.9998 21.25C15.0002 21.0665 15.0007 20.883 15.0011 20.694C15.0056 18.9684 15.0113 17.2427 15.0182 15.5171C15.0217 14.6299 15.0248 13.7426 15.0268 12.8554C15.0286 12.0822 15.0312 11.3091 15.0348 10.536C15.0367 10.1264 15.0381 9.71691 15.0386 9.30736C15.0391 8.92216 15.0407 8.53698 15.0431 8.15179C15.0437 8.01016 15.044 7.86853 15.0439 7.7269C15.0438 7.53401 15.0451 7.34118 15.0467 7.14829C15.0464 7.09183 15.046 7.03536 15.0456 6.97718C15.0488 6.74916 15.0516 6.59886 15.1876 6.41083C15.3424 6.30817 15.4397 6.29431 15.6248 6.29396C15.6779 6.29245 15.7311 6.29094 15.7859 6.28938C15.9373 6.32814 15.9373 6.32814 16.062 6.4498C16.2107 6.70858 16.2047 6.94248 16.2028 7.23284C16.2033 7.29277 16.2038 7.35269 16.2044 7.41444C16.2058 7.61537 16.2056 7.81627 16.2054 8.01721C16.2061 8.16119 16.2069 8.30517 16.2078 8.44915C16.21 8.84022 16.2107 9.2313 16.2112 9.62238C16.2119 10.031 16.2139 10.4396 16.2159 10.8483C16.2193 11.6221 16.2215 12.396 16.2233 13.1699C16.2254 14.0509 16.2288 14.9319 16.2324 15.8129C16.2396 17.6253 16.2452 19.4376 16.2498 21.25C16.3526 21.2503 16.3526 21.2503 16.4575 21.2506C18.1247 21.2552 19.7919 21.2611 21.4591 21.2684C22.2653 21.2719 23.0716 21.275 23.8778 21.2771C24.5804 21.2789 25.283 21.2815 25.9856 21.2851C26.3577 21.2869 26.7299 21.2884 27.102 21.2889C27.4521 21.2894 27.8022 21.2909 28.1523 21.2933C28.2809 21.294 28.4096 21.2943 28.5382 21.2942C28.7136 21.294 28.889 21.2953 29.0644 21.297C29.1626 21.2973 29.2608 21.2977 29.362 21.2981C29.6259 21.3302 29.7355 21.3765 29.9216 21.5625C29.9631 21.7139 29.9631 21.7139 29.9607 21.875C29.9619 21.9548 29.9619 21.9548 29.9631 22.0361C29.9035 22.2535 29.7989 22.3055 29.6091 22.4219C29.4206 22.4519 29.4206 22.4519 29.2067 22.453C29.1255 22.454 29.0442 22.455 28.9604 22.456C28.8273 22.4558 28.8273 22.4558 28.6915 22.4557C28.5978 22.4565 28.504 22.4573 28.4074 22.4581C28.1506 22.46 27.8938 22.461 27.637 22.4614C27.3685 22.4622 27.1001 22.4642 26.8316 22.4661C26.3233 22.4695 25.815 22.4718 25.3068 22.4736C24.7281 22.4757 24.1494 22.4791 23.5707 22.4826C22.3804 22.4899 21.1901 22.4953 19.9998 22.5C19.9998 23.7375 19.9998 24.975 19.9998 26.25C22.332 26.2569 24.6642 26.2627 26.9964 26.266C27.2717 26.2664 27.547 26.2668 27.8223 26.2672C27.8771 26.2673 27.9319 26.2673 27.9883 26.2674C28.876 26.2688 29.7636 26.2713 30.6512 26.2741C31.5618 26.277 32.4725 26.2788 33.3831 26.2794C33.8947 26.2798 34.4062 26.2808 34.9177 26.2831C35.399 26.2852 35.8802 26.2858 36.3615 26.2854C36.5383 26.2854 36.7152 26.2861 36.892 26.2873C37.1331 26.2888 37.3741 26.2884 37.6152 26.2876C37.6855 26.2885 37.7558 26.2894 37.8282 26.2903C38.1522 26.2872 38.3168 26.2767 38.597 26.1002C38.9711 25.7017 38.8453 25.0757 38.8466 24.5591C38.8474 24.3859 38.8498 24.2128 38.8523 24.0396C38.8528 23.9286 38.8532 23.8177 38.8535 23.7067C38.8546 23.5562 38.8546 23.5562 38.8557 23.4028C38.8253 23.0994 38.7548 22.9136 38.5935 22.6563C38.2979 22.4592 38.062 22.4772 37.7195 22.4776C37.6543 22.477 37.5891 22.4765 37.5219 22.476C37.3804 22.4749 37.2388 22.4742 37.0972 22.4738C36.8733 22.4732 36.6494 22.4715 36.4255 22.4697C35.9503 22.4659 35.475 22.4634 34.9998 22.4609C34.4491 22.4582 33.8985 22.4549 33.3478 22.4503C33.127 22.4488 32.9062 22.4481 32.6853 22.4475C32.5502 22.4465 32.4151 22.4454 32.28 22.4443C32.2184 22.4444 32.1568 22.4445 32.0933 22.4445C31.7966 22.4412 31.659 22.4343 31.406 22.2656C31.3407 21.9944 31.3 21.8003 31.3914 21.5332C31.4841 21.4063 31.4841 21.4063 31.6404 21.3281C31.7902 21.3198 31.9402 21.316 32.0902 21.3144C33.9821 21.2811 35.6798 21.0507 37.0661 19.661C37.1319 19.5924 37.1976 19.5238 37.2654 19.4531C37.3459 19.3708 37.3459 19.3708 37.428 19.2868C38.5036 18.1269 38.799 16.6947 38.776 15.1578C38.7204 13.7003 38.0072 12.3948 36.9529 11.4063C35.6975 10.3463 34.3195 9.97268 32.7162 9.92313C32.3882 9.91266 32.0604 9.89715 31.7325 9.8816C31.6691 9.87863 31.6056 9.87566 31.5402 9.8726C30.8339 9.83774 30.1454 9.75252 29.4529 9.60939C29.3892 9.59662 29.3255 9.58386 29.2599 9.57071C26.3899 8.98214 23.9338 7.6894 21.5779 5.99248C19.8827 4.78185 17.9699 3.90707 15.9519 3.40333C15.8374 3.37434 15.8374 3.37434 15.7206 3.34476C15.0471 3.18776 14.4652 3.16972 13.7498 3.12501ZM32.4998 27.5C32.4372 28.2202 32.4372 28.2202 32.653 28.5609C32.9673 28.8112 33.1733 28.8159 33.5642 28.8068C33.6286 28.8069 33.693 28.8069 33.7594 28.807C33.8952 28.8066 34.031 28.8051 34.1668 28.8025C34.3741 28.7989 34.5812 28.7993 34.7886 28.8004C34.9208 28.7995 35.0531 28.7984 35.1853 28.797C35.247 28.7972 35.3087 28.7973 35.3723 28.7974C35.6475 28.7904 35.8408 28.7578 36.0966 28.6494C36.3413 28.3545 36.3413 28.3545 36.2498 27.5C35.0123 27.5 33.7748 27.5 32.4998 27.5ZM9.37476 28.75C9.29909 29.5361 9.29909 29.5361 9.52778 29.8553C9.84383 30.0478 10.0784 30.0552 10.442 30.0491C10.5066 30.0493 10.5712 30.0495 10.6377 30.0497C10.7738 30.0496 10.91 30.0486 11.0461 30.0466C11.2543 30.044 11.4622 30.045 11.6704 30.0466C11.8029 30.046 11.9354 30.0453 12.0679 30.0443C12.1611 30.0448 12.1611 30.0448 12.2561 30.0454C12.5381 30.0394 12.7007 30.0258 12.9271 29.8508C13.2262 29.4422 13.1248 29.4188 13.1248 28.75C11.8873 28.75 10.6498 28.75 9.37476 28.75ZM33.7498 30C33.7498 32.2688 33.7498 34.5375 33.7498 36.875C34.1623 36.875 34.5748 36.875 34.9998 36.875C34.9998 34.6063 34.9998 32.3375 34.9998 30C34.5873 30 34.1748 30 33.7498 30ZM10.6248 31.25C10.6248 33.1063 10.6248 34.9625 10.6248 36.875C11.0373 36.875 11.4498 36.875 11.8748 36.875C11.8748 35.0188 11.8748 33.1625 11.8748 31.25C11.4623 31.25 11.0498 31.25 10.6248 31.25Z" fill="url(#paint0_linear_302_56)"/>
</g>
<defs>
<linearGradient id="paint0_linear_302_56" x1="-0.0429688" y1="1.83154" x2="42.6269" y2="5.17847" gradientUnits="userSpaceOnUse">
<stop stop-color="#C42091"/>
<stop offset="1" stop-color="#6617CA"/>
</linearGradient>
<clipPath id="clip0_302_56">
<rect width="40" height="40" fill="white"/>
</clipPath>
</defs>
</svg>
