<svg width="80" height="80" viewBox="0 0 80 80" fill="none" xmlns="http://www.w3.org/2000/svg">
<path d="M24.046 5.3487C25.3122 6.55358 26.3904 7.8698 27.4268 9.27325C28.0029 10.0508 28.6005 10.8116 29.1971 11.5735C29.899 12.4697 30.5992 13.3669 31.29 14.2716C32.7384 16.3445 32.7384 16.3445 34.7902 17.7055C34.913 17.7055 35.0358 17.7055 35.1623 17.7055C35.1037 17.5726 35.0452 17.4397 34.9849 17.3027C34.4862 15.9595 34.4382 14.405 34.9762 13.0688C35.7635 11.5675 36.8639 10.514 38.5017 9.98397C40.4172 9.64207 41.987 10.0065 43.5925 11.0635C44.6925 12.211 45.4103 13.6476 45.3876 15.2517C45.3227 16.1461 45.2008 16.88 44.8367 17.7055C46.7587 17.2382 47.764 15.6219 48.8775 14.1289C49.2463 13.6364 49.6231 13.1499 49.9995 12.6631C50.074 12.5666 50.1485 12.47 50.2253 12.3705C51.2415 11.0542 52.264 9.74273 53.2897 8.43375C53.5405 8.11287 53.7899 7.79097 54.0388 7.46855C54.7672 6.53646 55.4759 5.6329 56.5576 5.09369C57.9894 4.97192 59.1252 4.93036 60.2786 5.83556C61.2269 6.83201 61.4326 7.69295 61.4806 9.02692C61.2477 10.4337 60.2963 11.5667 59.453 12.6747C59.2188 12.9869 58.9848 13.2991 58.751 13.6115C58.633 13.7685 58.5151 13.9254 58.3936 14.0872C57.8633 14.7973 57.3437 15.5148 56.8251 16.2334C56.7262 16.3702 56.6273 16.5071 56.5254 16.6481C56.3258 16.9242 56.1262 17.2004 55.9267 17.4767C55.5253 18.0324 55.1231 18.5875 54.7208 19.1426C54.5193 19.4206 54.3179 19.6987 54.1166 19.9768C53.6091 20.6776 53.1009 21.3779 52.5911 22.0771C51.9877 22.9052 51.3878 23.7356 50.7902 24.5679C50.6926 24.7034 50.595 24.839 50.4944 24.9787C50.2112 25.3736 49.9306 25.7703 49.6507 26.1675C49.5671 26.2838 49.4834 26.4 49.3973 26.5197C47.7478 28.8843 48.1145 31.3719 48.4297 34.1311C48.4545 34.36 48.4793 34.589 48.5048 34.8248C48.5831 35.5481 48.6632 36.2712 48.7437 36.9943C48.8499 37.9485 48.9543 38.9029 49.0576 39.8574C49.0821 40.0712 49.1065 40.285 49.1316 40.5052C49.5707 44.5674 49.5707 44.5674 48.9297 45.5258C48.3716 45.7113 48.3716 45.7113 46.6972 45.7113C46.6972 49.9956 46.6972 54.2799 46.6972 58.6941C48.2595 58.6844 48.2595 58.6844 49.8534 58.6745C50.5156 58.6717 51.1778 58.669 51.84 58.6669C52.8897 58.6636 53.9393 58.6597 54.989 58.6521C55.8358 58.6461 56.6827 58.6427 57.5295 58.6413C57.8516 58.6403 58.1738 58.6383 58.4959 58.6353C60.8484 58.6141 62.6459 58.6748 64.4392 60.3727C65.4785 61.5316 66.6644 62.9545 67.1623 64.4436C67.2812 64.4397 67.4001 64.4359 67.5226 64.4318C72.4344 64.2923 72.4344 64.2923 73.8559 65.4975C74.7345 66.3728 75.4494 67.2798 76.1274 68.3153C76.7604 69.2646 77.3964 70.2062 78.0817 71.119C78.1925 71.2673 78.3034 71.4156 78.4177 71.5683C78.6298 71.8501 78.8438 72.1305 79.06 72.4093C79.6531 73.2016 80.0145 73.8025 79.9995 74.8299C79.8011 75.2325 79.8011 75.2325 79.4414 75.5717C78.8669 75.6647 78.8669 75.6647 78.1423 75.6651C78.0087 75.6662 77.875 75.6673 77.7373 75.6684C77.2859 75.6711 76.8347 75.6685 76.3833 75.6659C76.0578 75.6668 75.7324 75.668 75.4069 75.6695C74.5098 75.6726 73.6128 75.671 72.7157 75.6687C71.7493 75.667 70.783 75.6696 69.8166 75.6717C67.9223 75.675 66.0281 75.6743 64.1339 75.6721C62.595 75.6704 61.056 75.6702 59.5171 75.671C59.2984 75.6711 59.0797 75.6712 58.8544 75.6714C58.4102 75.6716 57.966 75.6718 57.5217 75.6721C53.3524 75.6742 49.183 75.6718 45.0137 75.6678C41.433 75.6645 37.8524 75.665 34.2718 75.6685C30.1178 75.6724 25.9638 75.674 21.8097 75.6717C21.3671 75.6715 20.9245 75.6712 20.4819 75.671C20.1552 75.6708 20.1552 75.6708 19.8219 75.6707C18.2841 75.67 16.7463 75.6711 15.2085 75.6728C13.3354 75.6749 11.4624 75.6744 9.58938 75.6704C8.63299 75.6685 7.67664 75.6677 6.72025 75.6702C5.84578 75.6724 4.97139 75.6712 4.09693 75.6672C3.77955 75.6664 3.46218 75.6668 3.14481 75.6686C2.71532 75.6708 2.2861 75.6686 1.85663 75.6651C1.61752 75.665 1.3784 75.6649 1.13204 75.6647C0.557556 75.5717 0.557557 75.5717 0.197839 75.2325C-0.118115 74.5914 -0.00472339 74.2136 0.185462 73.5316C0.496474 72.9856 0.870426 72.4976 1.25523 72.0015C1.47615 71.7079 1.69658 71.414 1.91657 71.1198C2.03019 70.9684 2.1438 70.817 2.26087 70.6611C2.92825 69.7512 3.55025 68.8091 4.17075 67.867C5.28504 66.2097 6.53058 64.8629 8.55757 64.4436C8.89354 64.4288 9.23 64.4236 9.56629 64.4255C9.75695 64.4261 9.94762 64.4267 10.1441 64.4273C10.4408 64.4297 10.4408 64.4297 10.7436 64.432C10.9444 64.4329 11.1451 64.4337 11.3519 64.4346C11.8468 64.4367 12.3417 64.4398 12.8366 64.4436C12.9156 64.2807 12.9156 64.2807 12.9961 64.1145C14.0938 61.9835 15.6691 59.5758 18.0389 58.812C19.3272 58.5432 20.6722 58.6275 21.9827 58.6398C22.3099 58.6408 22.637 58.6416 22.9641 58.6421C23.8202 58.6443 24.6763 58.6497 25.5324 58.6559C26.5622 58.6626 27.592 58.6651 28.6218 58.6684C30.1818 58.6738 31.7417 58.6844 33.3018 58.6941C33.3018 54.4098 33.3018 50.1255 33.3018 45.7113C32.7492 45.7113 32.1967 45.7113 31.6274 45.7113C30.8832 45.3404 30.8832 45.3404 30.6971 44.9694C30.6081 43.2534 30.7467 41.5608 30.9413 39.8574C30.9661 39.6285 30.9909 39.3996 31.0164 39.1637C31.1211 38.1972 31.2289 37.2311 31.3365 36.2649C31.4152 35.5538 31.4922 34.8424 31.5692 34.1311C31.5937 33.9174 31.6181 33.7036 31.6432 33.4834C31.9841 30.3296 31.9192 28.1501 29.9646 25.588C29.7477 25.2963 29.5309 25.0045 29.3141 24.7128C29.2039 24.5657 29.0936 24.4187 28.9799 24.2672C28.4591 23.5694 27.9506 22.8629 27.4413 22.1568C27.2398 21.8785 27.0383 21.6003 26.8367 21.3222C25.0227 18.8184 25.0227 18.8184 23.2088 16.3145C23.0589 16.1077 23.0589 16.1077 22.9059 15.8966C22.7059 15.6205 22.506 15.3443 22.3063 15.0679C21.7799 14.3401 21.251 13.6144 20.7182 12.8913C20.6076 12.7406 20.4971 12.5899 20.3832 12.4345C20.1715 12.1461 19.9591 11.8582 19.7458 11.571C18.8088 10.2907 18.4079 9.29426 18.6041 7.69025C18.9412 6.59048 19.533 5.93121 20.4646 5.27915C21.5913 4.90474 22.9507 4.88677 24.046 5.3487ZM57.6739 7.50478C56.7092 8.19527 56.08 9.03045 55.3825 9.98252C54.8027 10.7732 54.1974 11.5437 53.5925 12.3154C53.367 12.6037 53.1414 12.892 52.9159 13.1804C52.8074 13.3191 52.6989 13.4579 52.5872 13.6008C52.2328 14.0549 51.8799 14.5101 51.5282 14.9663C51.3051 15.2554 51.0811 15.5437 50.8571 15.832C50.5494 16.2352 50.2502 16.6395 49.9559 17.0521C48.7551 18.7136 47.4822 19.9076 45.3948 20.3021C44.5897 20.3602 43.7862 20.3629 42.9791 20.3644C42.6299 20.3663 42.6299 20.3663 42.2736 20.3682C41.782 20.37 41.2904 20.3711 40.7987 20.3708C40.2982 20.3708 39.7978 20.3734 39.2973 20.3784C38.571 20.3853 37.8449 20.3871 37.1187 20.3876C36.8973 20.3903 36.6759 20.3929 36.4478 20.3957C34.5729 20.3856 32.6334 19.9947 31.2553 18.6329C30.7005 17.9716 30.1852 17.2841 29.6716 16.591C29.156 15.9033 28.6229 15.229 28.0925 14.5526C26.8594 12.9744 25.6339 11.3906 24.4152 9.8014C24.3301 9.69066 24.245 9.57992 24.1573 9.46583C23.9942 9.25346 23.8313 9.04092 23.6686 8.82819C23.3601 8.42689 23.0562 8.04823 22.6971 7.69025C22.139 7.61297 22.139 7.61297 21.5808 7.69025C21.156 8.20796 21.156 8.20796 21.2284 8.77045C21.4286 9.47916 21.7287 9.86918 22.1971 10.4375C22.3683 10.65 22.5388 10.8631 22.7088 11.0765C22.7985 11.1889 22.8881 11.3014 22.9806 11.4172C23.4539 12.0261 23.8945 12.6575 24.3367 13.2891C25.1117 14.3923 25.8933 15.4901 26.6855 16.5811C26.7859 16.7195 26.8864 16.8578 26.9899 17.0004C27.1936 17.2808 27.3973 17.5613 27.6011 17.8417C28.2066 18.6752 28.8108 19.5097 29.4148 20.3444C29.9357 21.064 30.4579 21.7828 30.982 22.5002C31.0901 22.6484 31.1981 22.7967 31.3094 22.9494C31.5142 23.2303 31.7194 23.5109 31.925 23.7912C35.0979 28.149 34.4447 32.2543 33.9006 37.3744C33.832 38.0235 33.7654 38.6728 33.6986 39.3221C33.5682 40.5865 33.4357 41.8507 33.3018 43.1147C33.5169 43.1284 33.5169 43.1284 33.7364 43.1423C34.0163 43.1631 34.0163 43.1631 34.3018 43.1843C34.5802 43.2037 34.5802 43.2037 34.8643 43.2234C35.3483 43.3002 35.3483 43.3002 35.7204 43.6711C35.7691 44.0412 35.7691 44.0412 35.7722 44.5044C35.7743 44.6796 35.7764 44.8549 35.7785 45.0355C35.7789 45.2284 35.7793 45.4214 35.7797 45.6201C35.7816 45.8228 35.7835 46.0254 35.7854 46.2342C35.7912 46.9066 35.7943 47.579 35.7974 48.2513C35.8009 48.7165 35.8046 49.1817 35.8084 49.6469C35.817 50.7478 35.8239 51.8487 35.8301 52.9496C35.8379 54.3256 35.8482 55.7017 35.8585 57.0778C35.8765 59.533 35.892 61.9883 35.9065 64.4436C38.6079 64.4436 41.3093 64.4436 44.0925 64.4436C44.0962 63.8163 44.0999 63.189 44.1037 62.5427C44.1161 60.4743 44.1306 58.406 44.146 56.3377C44.1553 55.0831 44.164 53.8286 44.171 52.5741C44.1778 51.3643 44.1865 50.1545 44.1963 48.9448C44.1998 48.4823 44.2026 48.0198 44.2048 47.5573C44.2079 46.9116 44.2133 46.2659 44.2192 45.6201C44.2196 45.4272 44.22 45.2343 44.2205 45.0355C44.2225 44.8603 44.2246 44.685 44.2268 44.5044C44.2283 44.2751 44.2283 44.2751 44.2299 44.0412C44.2786 43.6711 44.2786 43.6711 44.6507 43.3002C45.1347 43.2234 45.1347 43.2234 45.6972 43.1843C45.977 43.1635 45.977 43.1635 46.2626 43.1423C46.406 43.1332 46.5494 43.1241 46.6972 43.1147C46.6832 42.9827 46.6692 42.8507 46.6548 42.7147C46.5216 41.455 46.3902 40.1951 46.2605 38.9349C46.1939 38.2875 46.1266 37.6401 46.0578 36.9929C45.079 27.767 45.079 27.767 48.4356 23.3097C48.8444 22.7642 49.2425 22.2113 49.6409 21.6582C49.9432 21.2385 50.2469 20.8198 50.5511 20.4014C51.1588 19.5652 51.7653 18.7282 52.3716 17.891C52.5731 17.6128 52.7747 17.3346 52.9762 17.0564C53.076 16.9187 53.1758 16.781 53.2786 16.6391C54.1856 15.3872 54.1856 15.3872 54.4884 14.9692C54.6883 14.6933 54.8882 14.4173 55.088 14.1414C55.6171 13.411 56.1464 12.6808 56.6761 11.951C56.7867 11.7985 56.8972 11.6461 57.0111 11.4891C57.2235 11.1963 57.436 10.9036 57.6485 10.611C57.7439 10.4794 57.8394 10.3478 57.9377 10.2122C58.0217 10.0965 58.1057 9.98078 58.1922 9.86158C58.6824 9.2112 58.6824 9.2112 58.7786 8.42053C58.661 7.83514 58.661 7.83514 58.1274 7.62069C57.9029 7.56332 57.9029 7.56332 57.6739 7.50478ZM37.7088 13.6832C37.3115 14.3139 37.2217 14.7351 37.2088 15.4799C37.5295 16.5709 37.9893 17.0609 38.8832 17.7055C39.4816 18.0038 40.0946 17.9779 40.7437 17.891C41.5501 17.4736 42.1203 16.99 42.6041 16.2218C42.8187 15.4517 42.8186 15.0203 42.5925 14.2512C42.1252 13.4398 41.5948 12.9367 40.7437 12.5124C39.3597 12.3975 38.7091 12.686 37.7088 13.6832ZM17.4384 62.281C17.2557 62.5195 17.2557 62.5195 17.0692 62.7628C16.9455 62.9213 16.8217 63.0798 16.6942 63.2431C16.3338 63.7314 16.3338 63.7314 15.9994 64.4436C21.7092 64.4436 27.419 64.4436 33.3018 64.4436C33.3018 63.4031 33.3018 62.3627 33.3018 61.2907C31.4533 61.2781 29.6047 61.2679 27.7562 61.2618C26.8977 61.2589 26.0394 61.255 25.181 61.2487C24.3522 61.2426 23.5235 61.2393 22.6948 61.2379C22.3789 61.2368 22.0631 61.2348 21.7473 61.2318C21.3041 61.2278 20.8611 61.2272 20.418 61.2275C20.288 61.2255 20.1581 61.2235 20.0242 61.2214C18.9407 61.2282 18.1935 61.5037 17.4384 62.281ZM46.6972 61.2907C46.6972 62.3311 46.6972 63.3716 46.6972 64.4436C52.4069 64.4436 58.1167 64.4436 63.9995 64.4436C62.8552 62.4304 62.8552 62.4304 61.0228 61.2907C60.5615 61.2738 60.1056 61.2673 59.6444 61.2696C59.5046 61.2696 59.3647 61.2695 59.2207 61.2695C58.7586 61.2696 58.2966 61.2711 57.8345 61.2725C57.5142 61.2729 57.1938 61.2732 56.8734 61.2733C56.0301 61.2741 55.1869 61.2759 54.3436 61.2779C53.4832 61.2798 52.6227 61.2807 51.7622 61.2816C50.0739 61.2836 48.3855 61.2869 46.6972 61.2907ZM7.46382 67.9327C5.23476 70.412 5.23476 70.412 3.9064 73.1606C27.7278 73.1606 51.5493 73.1606 76.0926 73.1606C75.4593 72.0559 74.796 71.0258 74.0693 69.9845C73.902 69.7396 73.902 69.7396 73.7314 69.4897C72.6645 67.9507 72.6645 67.9507 71.0693 67.0402C70.7243 67.0227 70.3787 67.0162 70.0333 67.0158C69.8164 67.0151 69.5995 67.0144 69.3761 67.0136C69.017 67.0139 69.017 67.0139 68.6506 67.0141C68.3946 67.0137 68.1386 67.0131 67.8826 67.0125C67.1776 67.011 66.4725 67.0106 65.7674 67.0105C65.0076 67.0102 64.2478 67.0088 63.488 67.0075C61.8259 67.005 60.1638 67.0039 58.5017 67.0031C57.4642 67.0025 56.4268 67.0018 55.3893 67.0009C52.518 66.9987 49.6466 66.9967 46.7753 66.9961C46.4995 66.9961 46.4995 66.9961 46.2182 66.996C46.034 66.996 45.8497 66.9959 45.6598 66.9959C45.2864 66.9958 44.913 66.9957 44.5396 66.9956C44.3544 66.9956 44.1691 66.9955 43.9783 66.9955C40.9762 66.9948 37.9741 66.9915 34.972 66.9872C31.8912 66.9828 28.8104 66.9805 25.7296 66.9803C23.9993 66.9801 22.269 66.979 20.5386 66.9757C19.0654 66.9728 17.5921 66.9719 16.1188 66.9734C15.367 66.9741 14.6152 66.974 13.8633 66.9714C13.1751 66.969 12.4869 66.9692 11.7986 66.9715C11.4316 66.972 11.0646 66.9698 10.6975 66.9675C9.40916 66.9747 8.43615 66.9977 7.46382 67.9327Z" fill="url(#paint0_linear_632_23)"/>
<path d="M73.1859 23.9844C73.7749 24.236 73.924 24.376 74.2324 24.9349C74.2866 25.4847 74.3087 25.9952 74.3047 26.5449C74.3056 26.7072 74.3066 26.8696 74.3076 27.0368C74.3101 27.5736 74.3085 28.1104 74.3066 28.6472C74.307 29.021 74.3075 29.3947 74.3082 29.7685C74.309 30.5525 74.3078 31.3363 74.3052 32.1203C74.302 33.1227 74.3039 34.125 74.3072 35.1274C74.3092 35.8997 74.3086 36.6721 74.3071 37.4444C74.3068 37.8138 74.3072 38.1833 74.3085 38.5527C74.3099 39.0707 74.3078 39.5886 74.3047 40.1066C74.3058 40.2579 74.3069 40.4092 74.3081 40.5651C74.294 41.8448 73.9942 42.8225 73.2673 43.8991C72.3483 44.7949 71.5267 45.1901 70.2324 45.2437C69.0776 45.1943 68.2401 44.8956 67.3945 44.1034C66.4453 43.0591 66.1524 42.1973 66.1859 40.791C66.2979 39.6785 66.8531 38.6306 67.7208 37.9177C69.0357 37.1989 70.1595 36.9954 71.6278 37.3613C71.6278 34.3011 71.6278 31.2408 71.6278 28.0879C68.8554 30.1181 68.8554 30.1181 66.1336 32.2066C65.6743 32.5391 65.6743 32.5391 65.1162 32.7246C65.117 32.9137 65.1178 33.1029 65.1187 33.2978C65.1262 35.085 65.1318 36.8722 65.1354 38.6594C65.1374 39.5782 65.14 40.4969 65.1442 41.4156C65.1483 42.3031 65.1505 43.1905 65.1515 44.078C65.1521 44.4157 65.1535 44.7534 65.1555 45.0911C65.1582 45.566 65.1586 46.0409 65.1584 46.5159C65.1597 46.6538 65.1611 46.7917 65.1625 46.9339C65.1567 48.4275 64.9369 49.7778 63.9672 50.9505C63.1244 51.7475 62.1575 52.0499 61.0115 52.106C59.8083 52.052 58.9872 51.5936 58.0813 50.8309C57.191 49.7659 57.0114 48.9236 57.0522 47.5563C57.184 46.4212 57.6482 45.6697 58.4766 44.896C59.4212 44.1638 60.2614 43.9928 61.4381 44.1244C61.6878 44.1516 61.6878 44.1516 61.9426 44.1794C62.0689 44.194 62.1953 44.2086 62.3255 44.2236C62.3257 44.0677 62.326 43.9117 62.3263 43.7511C62.3296 42.2802 62.3373 40.8094 62.35 39.3385C62.3564 38.5824 62.3611 37.8263 62.3618 37.0701C62.3626 36.3401 62.3679 35.6102 62.3763 34.8802C62.3787 34.602 62.3795 34.3237 62.3787 34.0455C62.3778 33.6551 62.3826 33.2651 62.3888 32.8748C62.3901 32.6528 62.3913 32.4308 62.3926 32.2021C62.6012 31.1667 63.4536 30.6472 64.263 30.036C64.4182 29.9184 64.5734 29.8007 64.7333 29.6795C64.898 29.5559 65.0627 29.4323 65.2324 29.305C65.4038 29.1757 65.5753 29.0464 65.7519 28.9131C66.9155 28.0373 68.0836 27.1673 69.2557 26.3027C69.4646 26.1484 69.4646 26.1484 69.6777 25.9909C70.3726 25.4812 71.0736 24.9805 71.7833 24.4915C71.9167 24.3992 72.0502 24.3068 72.1877 24.2117C72.558 24.0076 72.558 24.0076 73.1859 23.9844ZM69.0231 40.3288C68.7745 40.9512 68.7745 40.9512 68.8371 41.6271C69.1782 42.2144 69.1782 42.2144 69.7673 42.5544C70.4453 42.6168 70.4453 42.6168 71.0697 42.3689C71.5014 41.8847 71.6278 41.6137 71.6278 40.9663C71.3793 40.3625 71.057 40.1219 70.5115 39.7724C69.8184 39.7724 69.5588 39.8932 69.0231 40.3288ZM59.9068 47.1911C59.6426 47.718 59.6623 48.0915 59.7208 48.6749C59.9999 49.1385 59.9999 49.1385 60.465 49.4167C61.1415 49.5292 61.4479 49.5042 62.0231 49.127C62.437 48.5081 62.4185 48.1057 62.3255 47.3766C62.0401 46.9274 61.8242 46.8411 61.3255 46.6579C60.6898 46.6277 60.4091 46.8156 59.9068 47.1911Z" fill="url(#paint1_linear_632_23)"/>
<path d="M15.2361 25.5835C15.8667 25.7453 16.1802 26.1405 16.6031 26.6152C16.9219 26.9724 17.2522 27.2756 17.617 27.5853C18.2596 28.1379 18.8879 28.7048 19.5123 29.2777C21.3657 30.9802 21.3657 30.9802 23.2681 32.6277C23.865 33.1468 23.9713 33.2494 24.0705 34.0071C24.0007 34.5867 24.0007 34.5867 23.6053 35.0388C22.9328 35.4032 22.6832 35.3394 21.9542 35.1431C21.5167 34.8316 21.5167 34.8316 21.0937 34.4244C20.9345 34.2743 20.7752 34.1241 20.6111 33.9694C20.4404 33.8059 20.2696 33.6424 20.0937 33.4739C19.7157 33.1241 19.3348 32.7775 18.9542 32.4306C18.781 32.2714 18.6079 32.1122 18.4295 31.9481C17.9856 31.5431 17.5346 31.147 17.0814 30.7524C16.9484 30.6366 16.8154 30.5207 16.6784 30.4014C16.5775 30.3136 16.4767 30.2259 16.3728 30.1355C16.3717 30.3664 16.3706 30.5974 16.3695 30.8354C16.3588 33.0157 16.3453 35.1959 16.3289 37.3761C16.3206 38.4969 16.3133 39.6177 16.3083 40.7385C16.3035 41.8209 16.2959 42.9032 16.2866 43.9855C16.2835 44.3977 16.2814 44.8099 16.2802 45.2221C16.2784 45.8011 16.2732 46.3798 16.2672 46.9587C16.2674 47.1279 16.2677 47.297 16.268 47.4713C16.2425 49.2173 15.7785 50.7694 14.5123 52.0207C13.2422 52.9207 11.9828 53.2821 10.4193 53.1336C9.10323 52.8836 8.13719 52.282 7.25647 51.2789C6.34133 49.8419 6.06915 48.3796 6.4338 46.7045C6.91446 45.2974 7.83767 44.3817 9.11912 43.645C10.5552 43.0206 11.9405 43.2482 13.396 43.6747C13.3971 43.4575 13.3982 43.2403 13.3993 43.0165C13.41 40.9724 13.4235 38.9283 13.4399 36.8841C13.4482 35.8332 13.4555 34.7822 13.4605 33.7312C13.4653 32.7174 13.4728 31.7037 13.4822 30.69C13.4853 30.3027 13.4874 29.9154 13.4886 29.5282C13.4904 28.9868 13.4956 28.4455 13.5016 27.9042C13.5014 27.7432 13.5011 27.5821 13.5008 27.4162C13.5181 26.325 13.5181 26.325 13.8222 25.9241C14.2673 25.5883 14.6884 25.5626 15.2361 25.5835ZM9.1402 47.0711C8.86556 47.7251 8.84416 48.1637 8.93089 48.8678C9.27323 49.5503 9.56826 49.9072 10.1983 50.3399C10.9402 50.5865 11.3421 50.5656 12.0937 50.3515C12.6889 49.9985 13.1161 49.5787 13.4774 48.9837C13.6209 48.3162 13.5734 47.8586 13.396 47.1986C12.7479 46.4128 12.1987 45.9623 11.1867 45.8307C10.2665 45.9408 9.71643 46.3626 9.1402 47.0711Z" fill="url(#paint2_linear_632_23)"/>
<defs>
<linearGradient id="paint0_linear_632_23" x1="0" y1="5" x2="85.1372" y2="11.8531" gradientUnits="userSpaceOnUse">
<stop stop-color="#C42091"/>
<stop offset="1" stop-color="#6617CA"/>
</linearGradient>
<linearGradient id="paint1_linear_632_23" x1="57.0469" y1="23.9844" x2="75.5013" y2="24.7899" gradientUnits="userSpaceOnUse">
<stop stop-color="#C42091"/>
<stop offset="1" stop-color="#6617CA"/>
</linearGradient>
<linearGradient id="paint2_linear_632_23" x1="6.27734" y1="25.5781" x2="25.2957" y2="26.4504" gradientUnits="userSpaceOnUse">
<stop stop-color="#C42091"/>
<stop offset="1" stop-color="#6617CA"/>
</linearGradient>
</defs>
</svg>
