<svg width="40" height="40" viewBox="0 0 40 40" fill="none" xmlns="http://www.w3.org/2000/svg">
<g clip-path="url(#clip0_141_399)">
<path d="M27.1643 2.51922C27.3588 2.69084 27.5471 2.86723 27.7343 3.04687C27.8032 3.11082 27.8721 3.17477 27.9431 3.24066C29.9317 5.14223 31.1082 7.89385 31.1877 10.6412C31.2084 12.1252 31.0375 13.518 30.5468 14.9219C30.5191 15.0017 30.5191 15.0017 30.4908 15.0831C29.989 16.4868 29.1352 17.7139 28.3306 18.9583C28.1116 19.2983 27.9046 19.6329 27.7343 20C27.8177 20.0315 27.8177 20.0315 27.9027 20.0635C28.1308 20.1587 28.3402 20.2688 28.5559 20.3894C28.6397 20.4361 28.7236 20.4829 28.81 20.531C28.8997 20.5814 28.9895 20.6317 29.082 20.6836C29.1766 20.7364 29.2711 20.7893 29.3657 20.8421C29.5603 20.9508 29.7549 21.0597 29.9493 21.1686C30.2943 21.3618 30.6399 21.5538 30.9855 21.7457C31.1457 21.8353 31.3056 21.9255 31.4652 22.0165C31.8733 22.2491 32.2828 22.4711 32.7044 22.6785C32.7888 22.7223 32.8733 22.766 32.9603 22.8111C33.1183 22.893 33.2782 22.9714 33.4403 23.0451C34.1794 23.4393 34.3494 24.0978 34.6065 24.8463C34.7192 25.169 34.8424 25.4873 34.9653 25.8062C35.0666 26.0692 35.1665 26.3326 35.2661 26.5962C35.3007 26.6876 35.3352 26.7791 35.3708 26.8733C35.4063 26.9673 35.4419 27.0613 35.4785 27.1582C35.5537 27.3571 35.6291 27.5561 35.7044 27.755C35.8409 28.1155 35.9774 28.4761 36.1138 28.8367C36.4663 29.7685 36.8196 30.7 37.173 31.6315C37.2799 31.9133 37.3868 32.1951 37.4937 32.4769C37.9466 33.6709 38.3998 34.8647 38.8533 36.0585C38.9168 36.2258 38.9804 36.3931 39.0439 36.5604C39.1034 36.7169 39.1629 36.8735 39.2224 37.0301C39.2777 37.1756 39.3329 37.3212 39.3881 37.4668C39.5021 37.7671 39.6167 38.0671 39.7355 38.3655C39.7711 38.4555 39.8067 38.5454 39.8434 38.638C39.8882 38.749 39.8882 38.749 39.9339 38.8622C40.0398 39.1832 40.0432 39.4306 40 39.7656C39.8828 39.9216 39.8082 39.9884 39.6193 40.0399C39.0462 40.0571 38.6719 39.8161 38.1982 39.5166C38.0317 39.4153 37.8651 39.3143 37.6983 39.2136C37.6136 39.1621 37.529 39.1106 37.4417 39.0576C37.0462 38.8222 36.6414 38.6052 36.2353 38.3887C35.5833 38.0391 34.9379 37.6805 34.2967 37.3115C33.6871 36.9608 33.0738 36.6169 32.4596 36.2742C32.0408 36.0404 31.6228 35.8051 31.2063 35.567C31.1242 35.5202 31.0421 35.4733 30.9576 35.4251C30.8012 35.3357 30.6449 35.2461 30.4889 35.1561C30.4189 35.1162 30.3489 35.0762 30.2767 35.0351C30.2155 34.9999 30.1543 34.9647 30.0913 34.9285C29.9213 34.8435 29.7987 34.7833 29.6093 34.7656C29.4149 34.8393 29.4149 34.8393 29.2147 34.9615C29.1369 35.0059 29.059 35.0503 28.9788 35.096C28.8535 35.1693 28.8535 35.1693 28.7255 35.2441C28.6384 35.294 28.5513 35.3439 28.4616 35.3953C28.2806 35.499 28.0999 35.603 27.9194 35.7075C27.5337 35.9301 27.1457 36.1485 26.7578 36.3672C26.6096 36.451 26.4615 36.5348 26.3134 36.6186C25.8373 36.8878 25.3601 37.1549 24.8828 37.4219C24.3283 37.732 23.7741 38.0426 23.2211 38.3553C23.0734 38.4388 22.9257 38.5221 22.7778 38.6052C22.3892 38.8241 22.0032 39.0464 21.6195 39.2737C21.5389 39.3209 21.4582 39.368 21.3751 39.4166C21.221 39.5068 21.0676 39.5981 20.9148 39.6906C20.2453 40.0799 20.2453 40.0799 19.8577 40.0474C19.4448 39.9324 19.0825 39.6982 18.7158 39.4824C18.6225 39.4288 18.5292 39.3754 18.4357 39.3221C18.2436 39.2123 18.0518 39.1018 17.8603 38.9908C17.4339 38.7442 17.0027 38.5061 16.5722 38.2666C15.9145 37.8986 15.2593 37.5264 14.6056 37.1514C13.9932 36.8007 13.3779 36.4553 12.7608 36.113C12.3563 35.888 11.9553 35.6593 11.5591 35.4199C11.4847 35.3755 11.4102 35.3311 11.3336 35.2853C11.1935 35.2014 11.0542 35.1162 10.9158 35.0296C10.8533 34.9924 10.7909 34.9553 10.7266 34.917C10.6727 34.8839 10.6189 34.8507 10.5634 34.8166C10.2502 34.7242 9.99974 34.8829 9.72032 35.0227C9.65338 35.0607 9.58644 35.0987 9.51747 35.1379C9.44093 35.1811 9.36438 35.2243 9.28552 35.2689C9.20385 35.3155 9.12218 35.3621 9.03804 35.4101C8.86186 35.5099 8.68567 35.6095 8.50947 35.7092C8.46454 35.7347 8.4196 35.7602 8.37331 35.7865C8.07358 35.9566 7.77303 36.1252 7.47188 36.2927C6.66721 36.7405 5.8669 37.1942 5.07319 37.6611C4.36817 38.0759 3.65487 38.4718 2.93281 38.8561C2.57501 39.0474 2.2221 39.2417 1.87739 39.4559C1.81792 39.4926 1.75845 39.5293 1.69717 39.5672C1.58923 39.6347 1.48208 39.7035 1.37601 39.7739C1.01322 40.0008 0.661449 40.0942 0.234328 40C0.08234 39.8791 0.00901332 39.8078 -0.0322266 39.6158C-0.0293168 39.1315 0.0851197 38.7458 0.264235 38.2986C0.292483 38.2253 0.320731 38.152 0.349834 38.0765C0.443732 37.8334 0.53924 37.591 0.634718 37.3486C0.701885 37.1755 0.768919 37.0023 0.835829 36.8291C0.978029 36.4611 1.12075 36.0934 1.26376 35.7257C1.59295 34.8778 1.91406 34.0268 2.23576 33.176C2.41636 32.6985 2.59749 32.2213 2.77858 31.7441C2.85011 31.5555 2.92163 31.367 2.99316 31.1784C3.04551 31.0404 3.04551 31.0404 3.09892 30.8996C3.16755 30.7187 3.23617 30.5377 3.30479 30.3568C3.6787 29.371 4.05302 28.3854 4.42846 27.4002C4.60186 26.9448 4.77407 26.489 4.94534 26.0328C5.05323 25.7458 5.16176 25.4591 5.27044 25.1724C5.3206 25.0396 5.37047 24.9067 5.42002 24.7736C5.48747 24.5926 5.55593 24.4121 5.62465 24.2316C5.64395 24.1789 5.66325 24.1263 5.68314 24.0721C5.87438 23.576 6.13747 23.3604 6.59511 23.111C6.67924 23.0647 6.76336 23.0185 6.85004 22.9708C6.94044 22.9218 7.03084 22.8728 7.12398 22.8223C7.21878 22.7703 7.31355 22.7183 7.40829 22.6662C7.60339 22.559 7.79861 22.452 7.99392 22.3452C8.42649 22.1082 8.85682 21.8672 9.28706 21.626C9.36656 21.5815 9.44607 21.537 9.52798 21.4912C9.92226 21.2703 10.3155 21.0477 10.7073 20.8224C10.8199 20.7577 10.8199 20.7577 10.9347 20.6917C11.0755 20.6106 11.2162 20.5293 11.3567 20.4476C11.4194 20.4115 11.482 20.3754 11.5466 20.3381C11.6008 20.3066 11.6551 20.2751 11.711 20.2427C11.8914 20.1476 12.0752 20.0727 12.2656 20C11.9583 19.4191 11.6271 18.8616 11.2695 18.3105C10.2091 16.6548 9.39232 15.1423 8.98433 13.2031C8.96499 13.112 8.94566 13.0208 8.92573 12.9269C8.44342 10.1704 9.1415 7.1422 10.7128 4.83428C11.095 4.31341 11.5096 3.82865 11.9531 3.35937C12.0153 3.29119 12.0776 3.22301 12.1417 3.15277C13.562 1.65303 15.3835 0.794515 17.3437 0.234369C17.4 0.218029 17.4562 0.201689 17.5142 0.184854C20.8062 -0.717479 24.5993 0.38794 27.1643 2.51922ZM12.7367 4.33999C10.9412 6.21526 10.0262 8.76139 10.0508 11.3409C10.1195 13.8616 11.1803 15.8472 12.5209 17.9156C12.7229 18.2282 12.9216 18.5427 13.1201 18.8574C13.1576 18.9169 13.1952 18.9764 13.2339 19.0376C13.5475 19.5348 13.8587 20.0335 14.1699 20.5322C14.5921 21.209 15.0184 21.8831 15.4476 22.5555C15.8334 23.1606 16.2136 23.7691 16.5933 24.378C16.9625 24.9698 17.3362 25.5586 17.7116 26.1465C18.1148 26.7789 18.5123 27.4146 18.9083 28.0514C19.0373 28.2586 19.1668 28.4654 19.2968 28.6719C19.3289 28.7229 19.361 28.774 19.3941 28.8266C19.5413 29.0629 19.5413 29.0629 19.7656 29.2187C20.0974 29.2574 20.0974 29.2574 20.379 29.1028C20.6098 28.8326 20.7904 28.5394 20.9765 28.2373C21.0603 28.1029 21.1441 27.9685 21.228 27.8342C21.2706 27.7656 21.3132 27.697 21.3571 27.6263C21.5541 27.3097 21.7537 26.9948 21.9531 26.6797C22.0312 26.556 22.1093 26.4323 22.1875 26.3086C22.6562 25.5664 22.6562 25.5664 22.7733 25.3809C22.8517 25.2569 22.93 25.1329 23.0083 25.0089C23.2005 24.7044 23.3929 24.4 23.5855 24.0958C24.0169 23.4138 24.4459 22.7305 24.873 22.0459C25.3453 21.2889 25.8227 20.5353 26.3024 19.783C26.6213 19.283 26.9387 18.7821 27.2543 18.28C27.4336 17.995 27.6149 17.7113 27.7969 17.428C29.4536 14.8353 30.4021 12.1251 29.7333 9.01924C29.1088 6.41409 27.5761 4.18056 25.3125 2.73437C25.2267 2.67908 25.141 2.62379 25.0527 2.56683C21.0346 0.126082 15.969 1.07099 12.7367 4.33999ZM11.7013 21.7023C11.6166 21.7495 11.532 21.7968 11.4447 21.8455C11.3521 21.8977 11.2595 21.9498 11.1669 22.0019C11.0719 22.0552 10.9768 22.1084 10.8817 22.1616C10.6851 22.2716 10.4886 22.3818 10.2922 22.4922C10.0164 22.6471 9.74026 22.8014 9.46406 22.9556C8.87195 23.2847 8.87195 23.2847 8.28372 23.6206C8.04683 23.75 8.04683 23.75 7.76904 23.8682C7.16555 24.1364 6.86065 24.425 6.61067 25.0424C6.50653 25.3175 6.41226 25.5953 6.31831 25.874C6.26366 26.0265 6.2086 26.1788 6.15317 26.331C6.03544 26.6555 5.91966 26.9806 5.80516 27.3062C5.53388 28.0738 5.24162 28.8334 4.952 29.5941C4.78668 30.0293 4.62304 30.4651 4.45918 30.9009C4.09734 31.8621 3.7325 32.8222 3.36704 33.7821C2.83667 35.1751 2.30895 36.5689 1.79683 37.9687C2.10103 37.8546 2.3793 37.7139 2.66353 37.5568C2.70879 37.5318 2.75405 37.5068 2.80069 37.4811C2.94798 37.3997 3.09506 37.3181 3.24214 37.2363C3.34501 37.1794 3.44788 37.1224 3.55075 37.0655C4.19934 36.7059 4.84501 36.3415 5.48793 35.9719C6.01321 35.67 6.54138 35.3736 7.07027 35.0781C7.23394 34.9863 7.39762 34.8944 7.56129 34.8025C7.88311 34.6221 8.20606 34.444 8.52992 34.2673C8.67977 34.1844 8.82961 34.1015 8.97944 34.0185C9.04883 33.9813 9.11822 33.9441 9.18971 33.9058C9.25316 33.8704 9.3166 33.835 9.38197 33.7985C9.4652 33.7531 9.4652 33.7531 9.5501 33.7068C9.84514 33.464 9.88517 33.0483 9.95936 32.6904C9.9698 32.6406 9.98024 32.5907 9.991 32.5394C10.0135 32.4318 10.0358 32.3241 10.058 32.2165C10.0932 32.0459 10.1288 31.8755 10.1645 31.7051C10.2531 31.2821 10.341 30.859 10.4288 30.4358C10.5031 30.0777 10.5778 29.7196 10.6529 29.3616C10.6879 29.194 10.7225 29.0262 10.757 28.8584C10.7786 28.7554 10.8002 28.6524 10.8218 28.5495C10.8404 28.4597 10.859 28.37 10.8782 28.2776C10.9305 28.0738 10.983 27.9124 11.0937 27.7344C11.332 27.6152 11.5345 27.6378 11.7968 27.6562C11.9296 27.7561 11.9296 27.7561 12.0312 27.8906C12.0907 28.5112 11.9436 29.0903 11.809 29.6939C11.7862 29.799 11.7634 29.9041 11.7407 30.0092C11.6812 30.2839 11.6209 30.5585 11.5604 30.833C11.4633 31.2736 11.3674 31.7144 11.2717 32.1553C11.2383 32.3087 11.2043 32.4621 11.1704 32.6154C11.1501 32.7085 11.1298 32.8016 11.1088 32.8976C11.0817 33.0204 11.0817 33.0204 11.0541 33.1456C11.0063 33.3744 11.0063 33.3744 11.0156 33.6719C11.0748 33.7044 11.134 33.737 11.195 33.7705C12.4213 34.4448 13.6448 35.1236 14.8617 35.8147C15.2298 36.0236 15.5983 36.2321 15.9667 36.4404C16.0395 36.4816 16.1122 36.5227 16.1872 36.5651C16.8538 36.9419 17.522 37.3159 18.1907 37.689C18.2683 37.7324 18.3459 37.7758 18.4259 37.8204C18.5284 37.8776 18.5284 37.8776 18.633 37.936C18.7699 38.0138 18.9051 38.0949 19.0388 38.1782C19.2067 38.2942 19.2067 38.2942 19.375 38.2812C19.3912 37.2606 19.4037 36.2399 19.4114 35.2191C19.4151 34.7451 19.42 34.2712 19.428 33.7972C19.4356 33.3398 19.4398 32.8825 19.4417 32.425C19.443 32.2505 19.4455 32.076 19.4493 31.9015C19.4544 31.6569 19.4551 31.4128 19.4548 31.1682C19.4586 31.06 19.4586 31.06 19.4624 30.9497C19.4594 30.7409 19.4494 30.586 19.375 30.3906C19.2066 30.2335 19.0403 30.1254 18.8386 30.0148C18.6298 29.8985 18.5276 29.7696 18.4051 29.566C18.3641 29.4997 18.323 29.4333 18.2807 29.3649C18.239 29.2941 18.1973 29.2233 18.1542 29.1504C18.1083 29.0754 18.0623 29.0003 18.0149 28.923C17.9176 28.7642 17.8209 28.605 17.7248 28.4455C17.485 28.0494 17.2381 27.6578 16.9921 27.2656C16.8937 27.1077 16.7952 26.9499 16.6967 26.792C16.3761 26.2789 16.0509 25.7688 15.7253 25.2588C15.3295 24.638 14.9389 24.014 14.5497 23.3891C14.234 22.8825 13.915 22.3781 13.5937 21.875C13.4083 22.0604 13.3966 22.155 13.3445 22.4085C13.3281 22.487 13.3117 22.5655 13.2947 22.6464C13.2775 22.7315 13.2602 22.8167 13.2424 22.9044C13.2049 23.0836 13.1673 23.2629 13.1297 23.4422C13.071 23.7256 13.0126 24.009 12.9543 24.2924C12.898 24.5655 12.8408 24.8385 12.7835 25.1114C12.7664 25.196 12.7493 25.2807 12.7316 25.3679C12.715 25.4471 12.6983 25.5264 12.6811 25.608C12.6668 25.6774 12.6525 25.7469 12.6378 25.8184C12.5695 26.044 12.481 26.2148 12.3437 26.4062C12.0918 26.4866 11.9448 26.5089 11.6943 26.4209C11.5625 26.3281 11.5625 26.3281 11.4843 26.1719C11.4566 25.6245 11.535 25.1405 11.6552 24.6078C11.6726 24.5281 11.6899 24.4483 11.7078 24.3661C11.7628 24.1134 11.8188 23.8609 11.875 23.6084C11.9309 23.3545 11.9867 23.1005 12.0421 22.8465C12.0765 22.6889 12.1113 22.5315 12.1465 22.3741C12.1621 22.3029 12.1777 22.2316 12.1939 22.1583C12.2147 22.0646 12.2147 22.0646 12.2359 21.9691C12.2744 21.7747 12.2744 21.7747 12.2656 21.4844C12.0371 21.4844 11.9002 21.5907 11.7013 21.7023ZM27.7343 21.4844C27.7883 22.0915 27.9064 22.6768 28.034 23.2723C28.0569 23.3803 28.0797 23.4883 28.1025 23.5963C28.1642 23.8877 28.2263 24.179 28.2885 24.4703C28.3537 24.7759 28.4186 25.0815 28.4835 25.3872C28.5924 25.9 28.7017 26.4127 28.8111 26.9255C28.9375 27.5178 29.0634 28.1102 29.1891 28.7027C29.2972 29.2123 29.4055 29.7219 29.5141 30.2314C29.5789 30.5353 29.6436 30.8393 29.708 31.1433C29.7686 31.4288 29.8294 31.7143 29.8906 31.9997C29.9236 32.1542 29.9562 32.3087 29.9889 32.4633C30.0087 32.5555 30.0285 32.6477 30.049 32.7427C30.066 32.8226 30.083 32.9026 30.1006 32.985C30.2052 33.4173 30.2052 33.4173 30.4978 33.7308C30.5749 33.7719 30.652 33.813 30.7315 33.8553C30.8608 33.9255 30.8608 33.9255 30.9927 33.9971C31.0866 34.0465 31.1805 34.096 31.2744 34.1455C31.371 34.1975 31.4675 34.2497 31.5639 34.302C31.7585 34.4075 31.9533 34.5125 32.1482 34.6173C32.5196 34.8186 32.8861 35.028 33.2519 35.2393C34.0013 35.6697 34.7549 36.0926 35.5096 36.5137C35.8162 36.6848 36.1221 36.857 36.4273 37.0307C36.5636 37.1083 36.7 37.1856 36.8364 37.2629C37.0088 37.3607 37.181 37.4588 37.3529 37.5573C37.4303 37.601 37.5076 37.6448 37.5872 37.6898C37.6554 37.7287 37.7236 37.7675 37.7938 37.8076C37.9717 37.9074 37.9717 37.9074 38.2031 37.8906C38.1878 37.8504 38.1725 37.8101 38.1567 37.7686C38.1094 37.644 38.062 37.5194 38.0147 37.3948C37.9575 37.2442 37.9002 37.0937 37.843 36.9432C37.6788 36.5108 37.5145 36.0785 37.3502 35.6462C37.0467 34.8476 36.7433 34.0489 36.4397 33.2503C36.3201 32.9357 36.2005 32.621 36.0809 32.3064C36.0209 32.1486 35.9609 31.9908 35.901 31.833C35.5448 30.8961 35.1891 29.9591 34.8342 29.0217C34.7755 28.8667 34.7168 28.7117 34.6581 28.5567C34.6388 28.5058 34.6195 28.4549 34.5996 28.4024C34.5609 28.3 34.5221 28.1976 34.4833 28.0952C34.389 27.8462 34.2947 27.5973 34.2005 27.3482C34.1649 27.2539 34.1292 27.1596 34.0924 27.0624C34.0578 26.9707 34.0231 26.879 33.9874 26.7846C33.9201 26.6074 33.8524 26.4303 33.7842 26.2535C33.6467 25.8968 33.5112 25.5416 33.3958 25.1771C33.1888 24.5439 32.9549 24.2229 32.3547 23.9108C32.2657 23.869 32.1767 23.8272 32.0849 23.7842C31.9911 23.7367 31.8974 23.6888 31.8039 23.6406C31.6116 23.5416 31.4184 23.4444 31.2246 23.3483C30.7733 23.1226 30.3362 22.8711 29.8974 22.6221C29.7373 22.5324 29.5772 22.4428 29.4171 22.3532C29.1521 22.2044 28.8879 22.0544 28.6248 21.9022C28.5731 21.8722 28.5214 21.8423 28.4681 21.8115C28.3373 21.7356 28.2069 21.6591 28.0764 21.5826C27.9026 21.4722 27.9026 21.4722 27.7343 21.4844ZM26.4062 21.875C26.3279 21.9895 26.2535 22.1067 26.1807 22.2247C26.1337 22.3005 26.0867 22.3763 26.0383 22.4543C25.9873 22.5371 25.9363 22.6198 25.8837 22.7051C25.7764 22.8781 25.669 23.0512 25.5615 23.2242C25.5341 23.2683 25.5067 23.3124 25.4785 23.3579C25.2131 23.7852 24.9435 24.2098 24.6728 24.6338C24.5821 24.7761 24.4913 24.9184 24.4006 25.0607C24.3569 25.1292 24.3133 25.1977 24.2683 25.2682C24.0705 25.5788 23.8734 25.8899 23.6767 26.2012C23.6393 26.2603 23.602 26.3194 23.5635 26.3803C23.2939 26.8075 23.0267 27.2362 22.76 27.6652C22.5626 27.9821 22.3641 28.2982 22.1654 28.6142C22.0809 28.7489 21.9968 28.8839 21.9132 29.0191C21.8122 29.1825 21.7096 29.3448 21.6064 29.5068C21.5517 29.5941 21.497 29.6815 21.4407 29.7714C21.2567 29.9919 21.1755 30.0428 20.93 30.1615C20.7391 30.2787 20.6433 30.3386 20.568 30.5518C20.5479 30.7567 20.5476 30.9535 20.554 31.1593C20.5539 31.2363 20.5538 31.3133 20.5537 31.3927C20.5542 31.6469 20.559 31.9007 20.5639 32.1548C20.5651 32.3312 20.566 32.5075 20.5666 32.6839C20.569 33.1477 20.5751 33.6114 20.582 34.0752C20.5884 34.5486 20.5913 35.022 20.5944 35.4954C20.6011 36.4241 20.6118 37.3527 20.625 38.2812C20.9111 38.1882 21.1698 38.0951 21.4297 37.9431C21.5233 37.8889 21.5233 37.8889 21.6188 37.8336C21.6856 37.7944 21.7524 37.7552 21.8212 37.7148C21.9686 37.6295 22.116 37.5443 22.2634 37.4591C22.379 37.3922 22.379 37.3922 22.4969 37.324C22.8932 37.0961 23.2923 36.8733 23.6914 36.6504C23.8135 36.5821 23.8135 36.5821 23.9381 36.5124C24.2714 36.3261 24.6047 36.14 24.938 35.9538C25.8729 35.4316 26.8068 34.9077 27.7355 34.3745C28.1498 34.1367 28.5661 33.9028 28.9843 33.6719C28.9256 33.1062 28.8101 32.5567 28.6918 32.0008C28.6697 31.8961 28.6477 31.7913 28.6256 31.6865C28.566 31.4035 28.506 31.1206 28.4459 30.8377C28.3957 30.601 28.3457 30.3643 28.2957 30.1276C28.1777 29.5692 28.0594 29.0109 27.9409 28.4526C27.8189 27.8773 27.6972 27.302 27.5757 26.7266C27.4712 26.2317 27.3665 25.7368 27.2616 25.2419C27.1991 24.9468 27.1366 24.6516 27.0743 24.3564C27.0157 24.0789 26.9569 23.8015 26.8979 23.5242C26.8661 23.3743 26.8345 23.2243 26.8029 23.0744C26.7838 22.9846 26.7646 22.8948 26.7449 22.8022C26.7202 22.6857 26.7202 22.6857 26.695 22.5668C26.6375 22.3309 26.5641 22.1042 26.4843 21.875C26.4585 21.875 26.4328 21.875 26.4062 21.875Z" fill="url(#paint0_linear_141_399)"/>
<path d="M23.7336 5.77334C23.9006 5.90143 24.06 6.03359 24.2186 6.1719C24.2935 6.23162 24.3684 6.29134 24.4456 6.35287C25.6771 7.38127 26.3554 9.00519 26.5013 10.5744C26.6109 12.2406 26.1787 13.9512 25.067 15.2283C25.019 15.2819 24.9711 15.3355 24.9217 15.3907C24.8742 15.4534 24.8266 15.5161 24.7776 15.5808C23.8841 16.6443 22.3873 17.4222 21.0154 17.5782C19.1557 17.7146 17.4066 17.4586 15.9367 16.2296C15.8853 16.1848 15.834 16.1399 15.7811 16.0938C15.7053 16.0334 15.6296 15.9729 15.5516 15.9107C14.6412 15.1507 13.9552 13.8791 13.6717 12.7344C13.6559 12.6747 13.6401 12.615 13.6238 12.5534C13.248 10.8792 13.5879 9.12181 14.4529 7.65628C14.6447 7.37831 14.8525 7.126 15.0779 6.87503C15.1392 6.79446 15.2004 6.71389 15.2635 6.63089C17.4035 4.28703 21.1606 4.0244 23.7336 5.77334ZM16.6258 7.13382C16.4992 7.25459 16.3738 7.37663 16.2498 7.50003C16.1951 7.55199 16.1404 7.60396 16.0841 7.6575C15.1751 8.58596 14.7754 9.84688 14.7313 11.1231C14.7668 12.5514 15.3002 13.8423 16.3279 14.8438C16.4057 14.9254 16.4057 14.9254 16.4851 15.0086C17.4138 15.9214 18.7906 16.4047 20.0779 16.4063C21.6109 16.3157 22.9415 15.6934 23.9851 14.5725C24.9254 13.502 25.3151 12.1166 25.2478 10.7088C25.1414 9.44672 24.5764 8.29912 23.6717 7.4219C23.6153 7.36571 23.5589 7.30951 23.5008 7.25161C21.6127 5.46463 18.5781 5.42035 16.6258 7.13382Z" fill="url(#paint1_linear_141_399)"/>
<path d="M22.4614 7.74266C23.2955 8.37672 23.8969 9.26626 24.1093 10.3025C24.2709 11.5715 24.0622 12.6993 23.278 13.7238C22.5971 14.5203 21.693 15.157 20.6183 15.2483C19.2044 15.2872 18.0988 15.0801 17.0165 14.0967C16.1575 13.183 15.8069 12.0724 15.8373 10.8338C15.9257 9.67915 16.4299 8.75982 17.2655 7.9688C18.7405 6.74075 20.8787 6.65316 22.4614 7.74266ZM17.8166 9.22978C17.2335 9.94704 17.0423 10.642 17.1092 11.5625C17.2601 12.4206 17.7366 13.0886 18.4374 13.5938C19.1721 14.0333 20.0242 14.1217 20.8586 13.931C21.6652 13.6282 22.3175 13.0624 22.6814 12.2767C22.9774 11.4751 22.9957 10.7126 22.6561 9.92192C22.2522 9.15567 21.6264 8.58758 20.8 8.31395C19.6611 8.10164 18.608 8.35891 17.8166 9.22978Z" fill="url(#paint2_linear_141_399)"/>
</g>
<defs>
<linearGradient id="paint0_linear_141_399" x1="-0.0322266" y1="-0.13147" x2="42.6601" y2="2.89434" gradientUnits="userSpaceOnUse">
<stop stop-color="#C42091"/>
<stop offset="1" stop-color="#6617CA"/>
</linearGradient>
<linearGradient id="paint1_linear_141_399" x1="13.4722" y1="4.63855" x2="27.3744" y2="5.63272" gradientUnits="userSpaceOnUse">
<stop stop-color="#C42091"/>
<stop offset="1" stop-color="#6617CA"/>
</linearGradient>
<linearGradient id="paint2_linear_141_399" x1="15.8354" y1="6.98267" x2="24.7068" y2="7.6177" gradientUnits="userSpaceOnUse">
<stop stop-color="#C42091"/>
<stop offset="1" stop-color="#6617CA"/>
</linearGradient>
<clipPath id="clip0_141_399">
<rect width="40" height="40" fill="white"/>
</clipPath>
</defs>
</svg>
