<svg width="40" height="40" viewBox="0 0 40 40" fill="none" xmlns="http://www.w3.org/2000/svg">
<g clip-path="url(#clip0_574_67)">
<path d="M24.2681 30.2903C23.7296 30.3071 23.3248 29.7013 23.547 29.2105C23.8031 28.573 24.7331 28.573 24.9892 29.2105C25.2113 29.7013 24.8067 30.3072 24.2681 30.2903Z" fill="url(#paint0_linear_574_67)"/>
<path d="M13.1163 35.1686C12.9164 35.1686 12.7164 35.0924 12.5639 34.9398L8.52129 30.8972C8.21621 30.5921 8.21621 30.0974 8.52129 29.7923C8.82637 29.4872 9.32105 29.4872 9.62621 29.7923L13.6688 33.8349C13.9739 34.1399 13.9739 34.6346 13.6688 34.9398C13.5162 35.0924 13.3162 35.1686 13.1163 35.1686Z" fill="url(#paint1_linear_574_67)"/>
<path d="M14.1373 31.6934C13.9373 31.6934 13.7375 31.6172 13.5849 31.4646L11.9964 29.8761C11.6913 29.571 11.6913 29.0763 11.9965 28.7713C12.3015 28.4663 12.7962 28.4662 13.1013 28.7713L14.6898 30.3598C14.9949 30.6649 14.9949 31.1595 14.6897 31.4646C14.5372 31.6171 14.3372 31.6934 14.1373 31.6934Z" fill="url(#paint2_linear_574_67)"/>
<path d="M39.9999 7.27407C39.9999 7.06689 39.9176 6.86813 39.771 6.72165L36.7388 3.69017C36.4337 3.38517 35.9391 3.38517 35.634 3.69024L34.5186 4.80556L34.1958 4.48274C33.8908 4.17767 33.3961 4.17767 33.0909 4.48274C32.7858 4.78782 32.7858 5.28251 33.0909 5.58767L33.4138 5.91056L32.8186 6.50579L32.4957 6.1829C32.1906 5.87782 31.6959 5.87782 31.3908 6.1829C31.0857 6.48798 31.0857 6.98267 31.3908 7.28782L31.7137 7.61071L25.4108 13.9135C22.3516 12.0199 19.278 12.0581 17.2807 14.0556C16.7138 14.6219 16.289 15.1779 15.9822 15.7552C14.8587 17.8685 12.3501 19.7688 10.1466 20.1754C8.50638 20.4784 7.02193 21.2225 5.85365 22.3275C4.34849 23.7517 3.53123 25.6095 3.49037 27.7C3.43545 30.5047 4.7974 33.5395 7.22724 36.026C9.67951 38.5354 12.7027 39.9839 15.5217 40.0002C15.5379 40.0002 15.554 40.0003 15.5703 40.0003C17.6475 40.0003 19.5154 39.2299 20.9749 37.7706C22.1687 36.5766 22.9676 35.0359 23.2857 33.3153C23.3285 33.0836 23.3891 32.8441 23.4658 32.6036C23.5969 32.1925 23.3698 31.753 22.9587 31.622C22.5476 31.4909 22.1081 31.7178 21.9771 32.129C21.8805 32.4318 21.8039 32.7355 21.7491 33.0314C21.4889 34.4397 20.839 35.6965 19.8699 36.6659C18.7101 37.8256 17.224 38.4377 15.5696 38.4377C15.5568 38.4377 15.5436 38.4377 15.5308 38.4377C13.1265 38.4238 10.5072 37.1467 8.34482 34.9339C6.20584 32.7449 5.00592 30.1194 5.05263 27.7306C5.08521 26.0683 5.73357 24.5924 6.92756 23.4626C7.87623 22.5653 9.08748 21.9599 10.4304 21.7119C13.0997 21.2193 16.0149 19.0226 17.3621 16.4886C17.5951 16.0502 17.9297 15.616 18.3855 15.1606C20.268 13.2781 22.8364 14.2545 24.2675 15.057L17.8697 21.4549C16.6854 21.3981 15.4823 21.8207 14.58 22.7231C13.7575 23.5456 13.3045 24.6391 13.3045 25.8022C13.3045 26.9652 13.7575 28.0588 14.5799 28.8813C15.4022 29.7038 16.4958 30.1567 17.659 30.1567C18.8221 30.1567 19.9156 29.7038 20.7383 28.8813C21.6404 27.979 22.063 26.7759 22.0062 25.5919L28.3977 19.2002C29.1919 20.642 30.139 23.2411 28.161 25.2192C27.8257 25.5547 27.4433 25.8411 27.0247 26.0702C26.8135 26.1856 26.5997 26.3146 26.3893 26.4538C26.0293 26.6916 25.9303 27.1763 26.1681 27.5363C26.3183 27.7637 26.567 27.8869 26.8207 27.8869C26.9686 27.8869 27.118 27.8449 27.2506 27.7574C27.425 27.6421 27.6012 27.5358 27.7744 27.441C28.3239 27.1404 28.8258 26.7645 29.2661 26.3238C30.4387 25.1512 30.9985 23.6411 30.8849 21.9567C30.7995 20.6909 30.338 19.353 29.5432 18.0549L35.8506 11.7475L36.3089 12.2058C36.4615 12.3584 36.6614 12.4346 36.8613 12.4346C37.0612 12.4346 37.2612 12.3584 37.4137 12.2058C37.7188 11.9007 37.7188 11.406 37.4137 11.1009L36.9554 10.6426L37.5507 10.0474L38.009 10.5057C38.1616 10.6583 38.3615 10.7345 38.5615 10.7345C38.7614 10.7345 38.9614 10.6583 39.1139 10.5057C39.419 10.2006 39.419 9.70595 39.1139 9.40079L38.6555 8.94243L39.7711 7.82673C39.9176 7.68001 39.9999 7.48126 39.9999 7.27407ZM19.6333 27.7763C19.1058 28.3037 18.4047 28.5942 17.6589 28.5942C16.9131 28.5942 16.212 28.3038 15.6847 27.7763C14.5961 26.6877 14.5961 24.9164 15.6847 23.8279C16.229 23.2837 16.9439 23.0116 17.6589 23.0116C18.3738 23.0116 19.089 23.2837 19.6332 23.8278C20.7215 24.9164 20.7215 26.6878 19.6333 27.7763ZM21.5472 23.8411C21.3441 23.4377 21.0745 23.0595 20.7382 22.7231C20.7382 22.7231 20.7381 22.723 20.7381 22.7229C20.4018 22.3867 20.0236 22.117 19.6203 21.9141L31.1183 10.4158L33.0455 12.3426L21.5472 23.8411ZM34.1504 11.2378L32.2234 9.31087L32.8186 8.71563L34.7457 10.6426L34.1504 11.2378ZM35.8505 9.53759L33.9236 7.61064L34.5188 7.0154L36.4458 8.94235L35.8505 9.53759ZM35.6237 5.9104L36.1866 5.34743L38.1138 7.27423L37.5507 7.83743L35.6237 5.9104Z" fill="url(#paint3_linear_574_67)"/>
<path d="M11.413 6.2144C11.413 5.9626 11.2917 5.72627 11.0871 5.57955C10.8825 5.43276 10.6198 5.39362 10.3813 5.4744L4.25922 7.54698C3.94195 7.6544 3.72844 7.95205 3.72844 8.28698V14.1927C3.39773 14.0437 3.03109 13.9607 2.64547 13.9607C1.1868 13.9607 0 15.1474 0 16.6062C0 18.0649 1.18672 19.2517 2.64547 19.2517C4.10422 19.2517 5.29094 18.0649 5.29094 16.6062C5.29094 16.5608 5.29094 8.84729 5.29094 8.84729L9.85047 7.3037V12.12C9.51977 11.971 9.15312 11.8881 8.7675 11.8881C7.30875 11.8881 6.12203 13.0748 6.12203 14.5335C6.12203 15.9923 7.30875 17.179 8.7675 17.179C10.2262 17.179 11.413 15.9923 11.413 14.5335C11.413 14.4881 11.413 6.2144 11.413 6.2144ZM2.64547 17.6892C2.04828 17.6892 1.5625 17.2034 1.5625 16.6062C1.5625 16.009 2.04836 15.5232 2.64547 15.5232C3.24258 15.5232 3.72844 16.0091 3.72844 16.6062C3.72852 17.2033 3.24266 17.6892 2.64547 17.6892ZM8.76758 15.6165C8.17039 15.6165 7.68461 15.1306 7.68461 14.5335C7.68461 13.9364 8.17047 13.4506 8.76758 13.4506C9.36477 13.4506 9.85055 13.9364 9.85055 14.5335C9.85055 15.1307 9.36469 15.6165 8.76758 15.6165Z" fill="url(#paint4_linear_574_67)"/>
<path d="M36.4167 27.4877L33.7783 26.5945C33.5397 26.5137 33.2771 26.5529 33.0724 26.6997C32.8678 26.8464 32.7465 27.0827 32.7465 27.3345V33.2401C32.4158 33.0911 32.0492 33.0082 31.6635 33.0082C30.2048 33.0082 29.0181 34.1949 29.0181 35.6536C29.0181 37.1124 30.2048 38.2991 31.6635 38.2991C33.1223 38.2991 34.309 37.1124 34.309 35.6536C34.309 35.6082 34.309 35.4699 34.309 35.4453V28.4238L35.9156 28.9677C36.3243 29.1062 36.7678 28.8869 36.9061 28.4782C37.0446 28.0695 36.8253 27.6261 36.4167 27.4877ZM31.6635 36.7366C31.0663 36.7366 30.5806 36.2507 30.5806 35.6536C30.5806 35.0565 31.0664 34.5707 31.6635 34.5707C32.2607 34.5707 32.7465 35.0565 32.7465 35.6536C32.7465 36.2508 32.2607 36.7366 31.6635 36.7366Z" fill="url(#paint5_linear_574_67)"/>
<path d="M21.3558 8.40627C21.202 8.40627 21.0482 8.36096 20.9156 8.27041C20.3643 7.89439 17.5818 5.96799 16.9353 4.96354C16.6537 4.52604 16.2868 3.83174 16.3493 2.85635C16.4535 1.2376 17.7786 -0.0170896 19.3643 0.000176059C20.2557 0.00986356 20.9645 0.483613 21.4338 0.926582C21.9145 0.500176 22.6271 0.0447073 23.4774 0.0447073C23.486 0.0447073 23.4945 0.0447073 23.5031 0.0447854C25.0896 0.0618948 26.3867 1.34471 26.4559 2.96518C26.4976 3.93947 26.116 4.6265 25.8253 5.05853C25.1531 6.05697 22.3393 7.91689 21.782 8.27963C21.6524 8.36416 21.504 8.40627 21.3558 8.40627ZM19.3332 1.5626C18.5958 1.5626 17.9582 2.18486 17.9086 2.95666C17.8824 3.36494 17.981 3.70143 18.2491 4.11791C18.5614 4.60314 20.1341 5.81447 21.3658 6.68143C22.6113 5.84377 24.2043 4.66869 24.5289 4.18627C24.8062 3.77424 24.9122 3.43979 24.8948 3.03205C24.8616 2.25447 24.2296 1.61533 23.4862 1.60736C22.8636 1.60197 22.1907 2.35158 22.0456 2.55307C21.8949 2.76244 21.6518 2.88322 21.3925 2.8776C21.1346 2.87135 20.8964 2.73807 20.7561 2.52158C20.5824 2.25947 19.9865 1.56963 19.3475 1.56268C19.3428 1.5626 19.338 1.5626 19.3332 1.5626Z" fill="url(#paint6_linear_574_67)"/>
</g>
<defs>
<linearGradient id="paint0_linear_574_67" x1="23.4849" y1="28.7324" x2="25.1542" y2="28.8518" gradientUnits="userSpaceOnUse">
<stop stop-color="#C42091"/>
<stop offset="1" stop-color="#6617CA"/>
</linearGradient>
<linearGradient id="paint1_linear_574_67" x1="8.29248" y1="29.5635" x2="14.266" y2="29.9883" gradientUnits="userSpaceOnUse">
<stop stop-color="#C42091"/>
<stop offset="1" stop-color="#6617CA"/>
</linearGradient>
<linearGradient id="paint2_linear_574_67" x1="11.7676" y1="28.5425" x2="15.1257" y2="28.7813" gradientUnits="userSpaceOnUse">
<stop stop-color="#C42091"/>
<stop offset="1" stop-color="#6617CA"/>
</linearGradient>
<linearGradient id="paint3_linear_574_67" x1="3.48877" y1="3.46143" x2="42.3998" y2="6.22633" gradientUnits="userSpaceOnUse">
<stop stop-color="#C42091"/>
<stop offset="1" stop-color="#6617CA"/>
</linearGradient>
<linearGradient id="paint4_linear_574_67" x1="0" y1="5.43311" x2="12.1826" y2="6.14862" gradientUnits="userSpaceOnUse">
<stop stop-color="#C42091"/>
<stop offset="1" stop-color="#6617CA"/>
</linearGradient>
<linearGradient id="paint5_linear_574_67" x1="29.0181" y1="26.5532" x2="37.492" y2="26.96" gradientUnits="userSpaceOnUse">
<stop stop-color="#C42091"/>
<stop offset="1" stop-color="#6617CA"/>
</linearGradient>
<linearGradient id="paint6_linear_574_67" x1="16.3423" y1="0" x2="27.0997" y2="0.920625" gradientUnits="userSpaceOnUse">
<stop stop-color="#C42091"/>
<stop offset="1" stop-color="#6617CA"/>
</linearGradient>
<clipPath id="clip0_574_67">
<rect width="40" height="40" fill="white"/>
</clipPath>
</defs>
</svg>
