<svg width="40" height="40" viewBox="0 0 40 40" fill="none" xmlns="http://www.w3.org/2000/svg">
<g clip-path="url(#clip0_307_192)">
<path d="M39.5748 7.31935C39.8867 7.61534 40.0118 7.83593 40.0293 8.26674C40.0307 8.42285 40.0308 8.57897 40.0298 8.73508C40.0305 8.86427 40.0305 8.86427 40.0311 8.99607C40.0322 9.28527 40.0317 9.57443 40.0311 9.86362C40.0316 10.0707 40.0321 10.2779 40.0328 10.485C40.0341 10.9897 40.0342 11.4943 40.0338 11.999C40.0334 12.4094 40.0335 12.8199 40.034 13.2304C40.034 13.2888 40.0341 13.3472 40.0341 13.4074C40.0343 13.5262 40.0344 13.6449 40.0345 13.7636C40.0356 14.8773 40.0352 15.991 40.0343 17.1047C40.0335 18.1222 40.0345 19.1398 40.0364 20.1574C40.0383 21.203 40.039 22.2486 40.0385 23.2943C40.0382 23.881 40.0384 24.4677 40.0398 25.0544C40.0409 25.5542 40.041 26.0539 40.0396 26.5537C40.0389 26.8084 40.0389 27.0631 40.04 27.3178C40.041 27.5948 40.0401 27.8717 40.0387 28.1486C40.0395 28.228 40.0402 28.3074 40.041 28.3892C40.0314 29.3364 39.6867 30.1006 39.1402 30.8594C39.105 30.909 39.0699 30.9587 39.0337 31.0098C38.1346 32.1635 36.631 32.7256 35.2339 32.9688C34.0667 33.0404 32.9061 33.0544 31.7964 32.6563C31.7129 32.6271 31.6295 32.5979 31.5434 32.5678C30.2282 32.0631 29.1799 31.2012 28.5604 29.928C28.1642 28.9578 28.0962 27.7547 28.4892 26.7713C28.6775 26.3937 28.8937 26.0453 29.1402 25.7031C29.1753 25.6535 29.2105 25.6038 29.2467 25.5527C30.1458 24.399 31.6494 23.8369 33.0464 23.5938C34.6936 23.4927 36.0897 23.631 37.5777 24.375C37.6035 21.2555 37.6292 18.136 37.6558 14.9219C36.3023 15.502 36.3023 15.502 34.9214 16.0938C30.5387 17.9721 30.5387 17.9721 30.2561 18.0932C30.0666 18.1744 29.877 18.2557 29.6875 18.3369C29.2185 18.5379 28.7495 18.7389 28.2805 18.9397C27.4691 19.2872 26.6578 19.6352 25.8476 19.9857C25.6577 20.0677 25.4678 20.1497 25.2778 20.2317C25.1077 20.3052 24.9378 20.3792 24.7678 20.4532C24.6674 20.4965 24.5669 20.5399 24.4664 20.5832C24.3818 20.62 24.2971 20.6567 24.2099 20.6946C24.0024 20.7742 23.8109 20.819 23.5933 20.8594C23.5936 20.937 23.5939 21.0147 23.5942 21.0947C23.6011 22.9864 23.6063 24.8781 23.6095 26.7698C23.6111 27.6846 23.6133 28.5994 23.6169 29.5142C23.62 30.3118 23.622 31.1094 23.6227 31.907C23.6231 32.3291 23.6241 32.7512 23.6264 33.1733C23.6285 33.5711 23.6291 33.9689 23.6287 34.3668C23.6287 34.5123 23.6294 34.6578 23.6306 34.8032C23.64 36.0064 23.4519 36.8938 22.7339 37.8906C22.6988 37.9403 22.6636 37.9899 22.6274 38.0411C21.7283 39.1948 20.2247 39.7569 18.8277 40C17.6604 40.0717 16.4999 40.0856 15.3902 39.6875C15.3067 39.6583 15.2232 39.6291 15.1372 39.599C13.8219 39.0943 12.7737 38.2324 12.1541 36.9592C11.758 35.9891 11.6899 34.7859 12.083 33.8025C12.2712 33.4249 12.4875 33.0766 12.7339 32.7344C12.7691 32.6847 12.8042 32.6351 12.8404 32.5839C13.7395 31.4303 15.2431 30.8682 16.6402 30.625C18.2873 30.5239 19.6834 30.6623 21.1714 31.4063C21.1716 31.3217 21.1717 31.2372 21.1718 31.1501C21.1746 29.0943 21.1793 27.0385 21.1858 24.9827C21.1889 23.9885 21.1914 22.9943 21.1926 22.0001C21.1936 21.1337 21.1957 20.2673 21.1991 19.4008C21.2009 18.942 21.2021 18.4831 21.2021 18.0243C21.202 17.5925 21.2034 17.1607 21.2059 16.7289C21.2066 16.5703 21.2067 16.4118 21.2063 16.2533C21.2057 16.0368 21.2071 15.8205 21.209 15.6041C21.2084 15.5413 21.2078 15.4785 21.2072 15.4138C21.2134 15.0072 21.2951 14.777 21.5621 14.4531C21.7311 14.3333 21.7311 14.3333 21.9319 14.2401C22.0155 14.2012 22.099 14.1623 22.1851 14.1223C22.2898 14.076 22.3946 14.0301 22.4996 13.9844C22.5628 13.9567 22.626 13.9291 22.6911 13.9006C23.167 13.6934 23.6446 13.4904 24.1227 13.2885C24.546 13.1097 24.9689 12.9301 25.3918 12.7506C25.5394 12.6879 25.687 12.6253 25.8346 12.5628C26.8562 12.1295 27.8762 11.6924 28.896 11.2549C29.0776 11.177 29.2591 11.0992 29.4407 11.0213C29.7145 10.9039 29.9884 10.7864 30.2623 10.6689C30.8735 10.4067 31.4848 10.1448 32.0962 9.883C32.2395 9.82166 32.3827 9.7603 32.5259 9.69894C32.992 9.49928 33.4581 9.29983 33.9245 9.10084C34.7366 8.75393 35.547 8.40434 36.3524 8.04201C36.5499 7.95385 36.7475 7.86579 36.9451 7.77775C37.1212 7.69859 37.2964 7.61762 37.4715 7.53649C38.1603 7.22503 38.8488 6.97548 39.5748 7.31935ZM37.164 10.3696C37.0935 10.3996 37.023 10.4296 36.9504 10.4605C36.8728 10.4938 36.7952 10.5272 36.7153 10.5615C36.6337 10.5963 36.5522 10.6311 36.4681 10.667C36.1966 10.7829 35.9252 10.8993 35.6539 11.0156C35.4642 11.0967 35.2746 11.1778 35.0849 11.2588C34.5846 11.4726 34.0846 11.6868 33.5845 11.9011C33.2856 12.0292 32.9866 12.1573 32.6875 12.2853C31.6835 12.7152 30.6795 13.1454 29.6757 13.576C28.9497 13.8875 28.2235 14.1987 27.4973 14.5099C26.9716 14.7352 26.4459 14.9606 25.9203 15.1862C25.749 15.2597 25.5778 15.3331 25.4065 15.4066C25.2915 15.4559 25.1765 15.5053 25.0615 15.5547C24.8888 15.6288 24.7161 15.7029 24.5433 15.777C24.4924 15.7989 24.4415 15.8208 24.389 15.8433C24.125 15.9565 23.8601 16.0652 23.5933 16.1719C23.5933 16.8422 23.5933 17.5125 23.5933 18.2031C23.887 18.1444 24.0933 18.0891 24.3605 17.9738C24.4341 17.9422 24.5077 17.9107 24.5835 17.8782C24.7032 17.8262 24.7032 17.8262 24.8253 17.7732C24.9099 17.7368 24.9945 17.7004 25.0816 17.6629C25.3135 17.5631 25.5451 17.463 25.7768 17.3628C26.0228 17.2564 26.269 17.1505 26.5152 17.0445C26.8743 16.89 27.2333 16.7353 27.5923 16.5805C28.4869 16.1946 29.3824 15.8109 30.2781 15.4274C30.7272 15.2351 31.1762 15.0426 31.6252 14.8502C31.8069 14.7723 31.9886 14.6945 32.1702 14.6166C32.2619 14.5773 32.3536 14.538 32.4481 14.4975C34.184 13.7536 35.9199 13.0096 37.6558 12.2656C37.6558 11.5953 37.6558 10.925 37.6558 10.2344C37.4614 10.2344 37.3431 10.293 37.164 10.3696ZM31.4058 26.875C30.9783 27.2985 30.6821 27.6427 30.6685 28.2617C30.683 28.9232 30.9522 29.2555 31.4156 29.7022C32.4467 30.5755 33.7097 30.6437 34.9996 30.5469C35.9108 30.416 36.7586 29.9253 37.3433 29.2188C37.6498 28.7937 37.6463 28.3174 37.5777 27.8125C37.3655 27.216 36.8073 26.7442 36.2694 26.442C34.7156 25.7071 32.7726 25.7476 31.4058 26.875ZM14.9996 33.9063C14.572 34.3297 14.2759 34.674 14.2623 35.293C14.2767 35.9545 14.546 36.2867 15.0093 36.7334C16.0405 37.6067 17.3035 37.675 18.5933 37.5781C19.5045 37.4473 20.3524 36.9565 20.9371 36.25C21.2435 35.8249 21.24 35.3486 21.1714 34.8438C20.9593 34.2472 20.401 33.7755 19.8631 33.4732C18.3093 32.7383 16.3663 32.7789 14.9996 33.9063Z" fill="url(#paint0_linear_307_192)"/>
<path d="M11.0152 1.45771e-05C11.581 0.241205 11.9945 0.8355 12.3951 1.28858C12.5485 1.46135 12.705 1.63122 12.8609 1.80177C13.154 2.12851 13.4344 2.46374 13.7102 2.80519C13.8533 2.98203 13.9975 3.15764 14.1429 3.33253C14.7546 4.07109 15.3178 4.83362 15.8589 5.62501C15.9111 5.70039 15.9111 5.70039 15.9642 5.7773C16.47 6.5095 16.9247 7.26161 17.3433 8.04689C17.3709 8.09857 17.3985 8.15024 17.427 8.20348C17.828 8.96135 18.1735 9.7303 18.4371 10.5469C18.4619 10.623 18.4619 10.623 18.4872 10.7007C19.0658 12.5527 18.7871 14.3434 17.928 16.0483C17.6527 16.5707 17.3208 17.0396 16.9527 17.5C16.9157 17.5466 16.8788 17.5932 16.8407 17.6412C16.7279 17.7823 16.6137 17.9222 16.4986 18.0615C16.4639 18.1038 16.4292 18.1461 16.3935 18.1897C16.1241 18.5064 15.8946 18.7213 15.4759 18.7839C14.9956 18.7845 14.6626 18.7849 14.2964 18.4375C13.9945 18.0116 13.9824 17.6165 14.0621 17.1094C14.1793 16.8626 14.3452 16.683 14.5308 16.4844C15.0647 15.8699 15.4904 15.2539 15.8589 14.5313C15.9004 14.4501 15.9419 14.3689 15.9847 14.2853C16.5144 13.1039 16.2845 11.9048 15.853 10.7306C15.6794 10.2888 15.4702 9.8698 15.2418 9.45413C15.1526 9.29107 15.0666 9.1266 14.9806 8.96181C14.2003 7.48765 13.1898 6.1548 12.1354 4.86713C12.072 4.78964 12.0085 4.71214 11.9432 4.6323C11.8948 4.57318 11.8463 4.51405 11.7964 4.45314C11.7963 4.54206 11.7962 4.63099 11.7961 4.7226C11.7932 6.88813 11.7886 9.05364 11.7821 11.2192C11.7815 11.4278 11.7808 11.6364 11.7802 11.8451C11.78 11.9229 11.78 11.9229 11.7798 12.0022C11.7775 12.7884 11.7761 13.5746 11.7753 14.3609C11.7742 15.2738 11.7721 16.1868 11.7687 17.0997C11.767 17.583 11.7657 18.0662 11.7658 18.5494C11.7659 19.0047 11.7645 19.46 11.762 19.9153C11.7613 20.0819 11.7612 20.2486 11.7616 20.4152C11.7645 21.6855 11.6188 22.6168 10.8589 23.6719C10.8238 23.7215 10.7886 23.7712 10.7524 23.8223C9.85335 24.976 8.34974 25.5381 6.95269 25.7813C5.78542 25.8529 4.62488 25.8668 3.51519 25.4688C3.4317 25.4396 3.34821 25.4104 3.2622 25.3803C1.94694 24.8756 0.898677 24.0137 0.279102 22.7405C-0.117001 21.7703 -0.185091 20.5672 0.207996 19.5838C0.396241 19.2062 0.61249 18.8578 0.858936 18.5156C0.894083 18.466 0.92923 18.4163 0.965442 18.3652C1.86452 17.2115 3.36813 16.6494 4.76519 16.4063C6.41234 16.3052 7.80842 16.4435 9.29644 17.1875C9.29655 17.103 9.29667 17.0185 9.29678 16.9314C9.29964 14.8756 9.30428 12.8197 9.3108 10.7639C9.31391 9.76974 9.31644 8.77557 9.31761 7.78139C9.31862 6.91495 9.32073 6.04852 9.32414 5.18208C9.32591 4.72323 9.32713 4.26439 9.32705 3.80554C9.32699 3.37372 9.32839 2.94193 9.3309 2.51012C9.33157 2.35158 9.3317 2.19304 9.33126 2.0345C9.33075 1.81807 9.33214 1.60174 9.33402 1.38532C9.33341 1.32255 9.3328 1.25977 9.33218 1.19509C9.33842 0.788193 9.42011 0.55841 9.68706 0.23439C10.0966 -0.0813383 10.5182 -0.0760894 11.0152 1.45771e-05ZM3.12456 19.6875C2.69703 20.111 2.40089 20.4552 2.38726 21.0742C2.40171 21.7357 2.67099 22.068 3.13433 22.5147C4.16549 23.388 5.42846 23.4562 6.71831 23.3594C7.62953 23.2285 8.47738 22.7378 9.06206 22.0313C9.36854 21.6061 9.36504 21.1299 9.29644 20.625C9.08425 20.0284 8.52604 19.5567 7.98815 19.2545C6.43434 18.5196 4.49132 18.5601 3.12456 19.6875Z" fill="url(#paint1_linear_307_192)"/>
</g>
<defs>
<linearGradient id="paint0_linear_307_192" x1="11.8203" y1="7.1535" x2="41.9357" y2="8.99124" gradientUnits="userSpaceOnUse">
<stop stop-color="#C42091"/>
<stop offset="1" stop-color="#6617CA"/>
</linearGradient>
<linearGradient id="paint1_linear_307_192" x1="-0.0546875" y1="-0.0432129" x2="20.0778" y2="0.999993" gradientUnits="userSpaceOnUse">
<stop stop-color="#C42091"/>
<stop offset="1" stop-color="#6617CA"/>
</linearGradient>
<clipPath id="clip0_307_192">
<rect width="40" height="40" fill="white"/>
</clipPath>
</defs>
</svg>
