<svg width="64" height="64" viewBox="0 0 64 64" fill="none" xmlns="http://www.w3.org/2000/svg">
<g clip-path="url(#clip0_314_104)">
<path fill-rule="evenodd" clip-rule="evenodd" d="M21.562 0.14567C13.4889 1.0578 6.1399 6.27929 2.50227 13.6875C-0.902229 20.6212 -0.831729 28.802 2.69127 35.5995L3.3584 36.8867L1.73265 42.7679C0.838646 46.0027 0.133646 48.6759 0.166146 48.7084C0.198646 48.7409 2.8719 48.0359 6.10665 47.1419L11.9879 45.5162L13.275 46.1833C16.0264 47.6093 19.2059 48.5208 22.462 48.8173L23.362 48.8992L23.6981 49.9183C25.6905 55.9607 30.6394 60.8873 36.768 62.9297C39.178 63.7328 40.3833 63.9205 43.187 63.9295C45.1155 63.9357 45.9728 63.8845 46.937 63.7058C48.6945 63.38 50.9725 62.6178 52.5461 61.829L53.8871 61.1568L58.8298 62.5253C61.5483 63.278 63.7996 63.8667 63.8329 63.8334C63.8661 63.8002 63.2775 61.5488 62.5248 58.8303L61.1563 53.8877L61.8285 52.5467C62.6173 50.973 63.3795 48.695 63.7053 46.9375C63.884 45.9733 63.9351 45.116 63.929 43.1875C63.92 40.3838 63.7323 39.1785 62.9291 36.7685C60.8868 30.6399 55.9601 25.691 49.9178 23.6987L48.8986 23.3625L48.8164 22.4625C47.8323 11.687 40.1635 2.89242 29.7349 0.57942C27.2008 0.0174203 24.1368 -0.145205 21.562 0.14567ZM22.2495 3.88867C15.2369 4.68292 9.08915 8.97392 5.91827 15.2874C4.31252 18.4845 3.52377 22.5999 3.85102 26.0727C3.93152 26.9265 4.0859 28.061 4.19415 28.5938C4.63965 30.787 5.78165 33.6235 6.96127 35.4667C7.21502 35.8632 7.4154 36.2719 7.40665 36.375C7.39777 36.4782 6.96852 38.08 6.45277 39.9348C5.93702 41.7895 5.52677 43.3189 5.54115 43.3334C5.55565 43.3478 7.08502 42.9375 8.93977 42.4218C10.7945 41.906 12.3964 41.4768 12.4995 41.4679C12.6026 41.4592 13.0114 41.6595 13.4079 41.9133C14.4808 42.5999 16.1678 43.4197 17.437 43.8712C23.5388 46.0417 30.2515 45.2698 35.6245 41.78C42.007 37.6347 45.6975 30.1868 45.0196 22.8194C44.834 20.8014 44.6015 19.669 44.0016 17.8619C42.31 12.7649 38.4851 8.37867 33.5871 5.9188C30.2231 4.2293 25.9685 3.46742 22.2495 3.88867ZM22.3745 11.5415C19.4044 12.4228 17.3145 14.944 16.9433 18.0938L16.8659 18.75H18.8078H20.7495V18.3973C20.7495 17.2887 21.7516 15.8772 22.9021 15.3654C24.3645 14.7149 26.1163 15.0855 27.1819 16.2708C27.8899 17.0582 28.1669 17.8745 28.104 18.988C28.0249 20.3869 27.7568 20.7564 24.9655 23.3125L22.5085 25.5625L22.504 27.8438L22.4995 30.125H24.437H26.3745V28.642V27.1589L28.1736 25.5208C30.4936 23.4083 31.1644 22.4872 31.6974 20.6822C31.9918 19.685 31.9916 17.8164 31.6971 16.8125C30.5015 12.7377 26.3173 10.3718 22.3745 11.5415ZM48.685 27.729C48.6454 27.9812 48.4719 28.8519 48.2994 29.6639C46.5328 37.981 40.2881 44.9198 32.1306 47.63C30.9079 48.0363 30.0933 48.2313 27.6436 48.7043C27.2678 48.7768 27.3233 49.0275 28.0604 50.5888C30.3435 55.4244 34.8703 58.8805 40.3278 59.9544C41.9696 60.2775 44.9213 60.2519 46.562 59.9004C48.7644 59.4285 50.6494 58.6843 52.328 57.6243C52.7626 57.3497 53.2183 57.1254 53.3401 57.1259C53.4621 57.1264 54.6581 57.4318 55.9978 57.8048C57.3374 58.1777 58.4446 58.4715 58.4584 58.4578C58.4721 58.444 58.1785 57.337 57.806 55.9977C57.4334 54.6584 57.1276 53.4614 57.1265 53.3378C57.1254 53.2142 57.3206 52.8064 57.5604 52.4317C58.6264 50.7653 59.4323 48.7485 59.8961 46.586C60.1138 45.572 60.1689 44.905 60.1668 43.3125C60.1638 41.0683 59.9249 39.6214 59.2344 37.664C57.6269 33.1075 54.0964 29.4402 49.5318 27.5854L48.757 27.2705L48.685 27.729ZM22.4995 35.75V37.625H24.437H26.3745V35.75V33.875H24.437H22.4995V35.75Z" fill="white"/>
</g>
<defs>
<clipPath id="clip0_314_104">
<rect width="64" height="64" fill="white"/>
</clipPath>
</defs>
</svg>
