<svg width="40" height="40" viewBox="0 0 40 40" fill="none" xmlns="http://www.w3.org/2000/svg">
<g clip-path="url(#clip0_242_191)">
<path d="M22.8126 0.312465C22.8937 0.364883 22.8937 0.364883 22.9764 0.418361C24.2582 1.31198 24.7361 2.90945 25.0007 4.38027C25.0536 4.70181 25.087 5.01943 25.1054 5.34481C25.1622 6.33005 25.3275 7.05421 25.8594 7.89059C25.9059 7.96501 25.9523 8.03944 26.0001 8.11612C26.1283 8.3085 26.263 8.49057 26.4063 8.67184C26.4516 8.72995 26.497 8.78806 26.5436 8.84793C27.1569 9.58558 27.9337 10.0969 28.7501 10.581C29.3818 10.9561 29.9298 11.3771 30.4688 11.875C30.527 11.9277 30.5852 11.9805 30.6452 12.0349C31.9449 13.2683 32.7897 14.9953 33.2032 16.7187C33.2298 16.8291 33.2298 16.8291 33.2569 16.9418C33.7183 19.3159 33.1914 21.8827 31.8751 23.9062C31.6781 24.1278 31.5512 24.1972 31.2501 24.2187C30.9902 24.1569 30.8846 24.0926 30.713 23.8867C30.6011 23.6132 30.6322 23.4888 30.7032 23.2031C30.7945 23.0287 30.8929 22.858 30.9962 22.6904C32.0308 20.9522 32.3143 18.8273 31.8775 16.8557C31.2039 14.4037 29.7301 12.7333 27.5822 11.4218C26.6246 10.8361 25.7053 10.0812 25.0782 9.14059C25.0692 9.19777 25.0603 9.25494 25.051 9.31385C24.5847 12.2453 23.834 15.0664 22.5001 17.7343C22.5432 17.7307 22.5864 17.7272 22.6308 17.7234C24.1539 17.604 25.5199 17.6502 26.7432 18.6914C27.6227 19.5341 28.0624 20.5024 28.1251 21.7187C28.089 22.6198 27.9026 23.4843 27.2852 24.165C26.9597 24.5496 26.9689 24.9289 26.9663 25.4181C26.9522 25.7257 26.8916 25.9588 26.7969 26.25C27.6842 25.9228 28.4409 25.4882 29.1849 24.9106C29.4725 24.6913 29.637 24.6512 30.0001 24.6875C30.2301 24.8491 30.3003 24.9616 30.3858 25.2295C30.3919 25.5281 30.3315 25.6187 30.1563 25.8593C29.9846 26.0084 29.8176 26.1423 29.6339 26.2744C29.5829 26.3115 29.532 26.3486 29.4795 26.3868C29.0085 26.72 28.511 26.9776 27.9896 27.222C27.7313 27.3378 27.7313 27.3378 27.5001 27.5C27.55 27.5757 27.6 27.6514 27.6514 27.7295C27.9116 28.1844 27.9282 28.6374 27.8126 29.1406C27.9116 29.1388 28.0106 29.137 28.1126 29.1351C28.2453 29.1336 28.3781 29.1322 28.5108 29.1308C28.5757 29.1295 28.6406 29.1282 28.7075 29.1269C29.5151 29.1206 30.1849 29.2596 30.7773 29.8355C31.3063 30.4154 31.5183 30.9572 31.5055 31.7386C31.4339 32.4685 31.0948 33.0381 30.5469 33.5156C30.2704 33.698 30.0262 33.8281 29.6876 33.8281C29.6883 33.8753 29.689 33.9225 29.6897 33.9711C29.6966 34.4655 29.7013 34.9598 29.7047 35.4541C29.7063 35.6382 29.7084 35.8224 29.7111 36.0065C29.715 36.2722 29.7167 36.5378 29.7181 36.8036C29.7197 36.885 29.7213 36.9664 29.723 37.0503C29.7232 37.9279 29.4102 38.6169 28.8184 39.2627C28.2565 39.8101 27.6061 40.0117 26.8409 40.0115C26.7822 40.0118 26.7234 40.012 26.6629 40.0123C26.466 40.0132 26.2691 40.0135 26.0721 40.0138C25.9309 40.0143 25.7898 40.0148 25.6486 40.0154C25.1848 40.017 24.721 40.0178 24.2573 40.0186C24.0975 40.0189 23.9377 40.0192 23.7779 40.0195C23.027 40.021 22.2762 40.0221 21.5254 40.0228C20.6594 40.0236 19.7934 40.0256 18.9274 40.0288C18.2576 40.0311 17.5878 40.0323 16.918 40.0325C16.5182 40.0327 16.1183 40.0334 15.7185 40.0354C15.3421 40.0372 14.9657 40.0375 14.5893 40.0367C14.4515 40.0367 14.3138 40.0372 14.1761 40.0383C13.0569 40.0465 12.2739 39.8729 11.4335 39.1C10.5208 38.1455 10.656 36.9491 10.6788 35.7226C10.6807 35.5387 10.6825 35.3548 10.6841 35.1709C10.6884 34.7232 10.6949 34.2757 10.7032 33.8281C10.642 33.8167 10.5808 33.8054 10.5178 33.7936C9.96244 33.6754 9.5318 33.2702 9.21881 32.8125C8.90277 32.2347 8.80557 31.5985 8.95697 30.9573C9.18757 30.2468 9.57958 29.7763 10.2045 29.3756C10.7485 29.1455 11.2967 29.1191 11.8799 29.1308C11.9476 29.1315 12.0152 29.1322 12.0849 29.133C12.2493 29.1348 12.4138 29.1376 12.5782 29.1406C12.5746 29.0745 12.5709 29.0085 12.5672 28.9404C12.5467 28.2971 12.5763 27.8567 13.0085 27.3663C13.5418 26.8578 14.1832 26.7619 14.8946 26.7631C14.9664 26.7623 15.0381 26.7615 15.112 26.7607C15.3466 26.7583 15.5812 26.7576 15.8158 26.7569C15.9794 26.7555 16.1431 26.7541 16.3067 26.7526C16.7356 26.7489 17.1644 26.7466 17.5933 26.7445C18.0316 26.7422 18.47 26.7386 18.9083 26.735C19.767 26.7283 20.6257 26.7231 21.4844 26.7187C21.4626 26.6758 21.4408 26.633 21.4184 26.5888C21.3899 26.5325 21.3615 26.4762 21.3322 26.4183C21.304 26.3625 21.2757 26.3067 21.2466 26.2493C20.9193 25.5674 20.9585 24.833 21.1692 24.1253C21.4393 23.3936 21.8722 22.832 22.562 22.4606C23.3725 22.0926 24.142 22.016 25.0001 22.2656C25.5501 22.4725 25.9437 22.7613 26.3282 23.2031C26.7055 22.7572 26.8018 22.2122 26.7969 21.6406C26.6812 20.7804 26.3197 20.0414 25.6418 19.4897C24.7818 18.9194 23.8314 18.8988 22.8467 19.082C22.6525 19.1253 22.4588 19.1707 22.2657 19.2187C22.1919 19.2368 22.1181 19.255 22.042 19.2736C21.4364 19.4658 21.1469 19.8936 20.7813 20.3906C19.8476 21.5976 18.7355 22.6656 17.1876 22.9687C16.4247 23.0611 15.8088 22.8858 15.1417 22.5195C14.4607 21.9748 13.9833 21.366 13.6719 20.5468C13.414 20.7145 13.1695 20.8863 12.9298 21.0791C11.7284 21.9824 10.383 22.2422 8.90631 22.1093C8.58922 22.0464 8.32949 21.9524 8.04694 21.7968C7.984 21.7628 7.92105 21.7288 7.8562 21.6937C7.2779 21.345 6.86649 20.8639 6.67762 20.209C6.53778 19.4174 6.60022 18.6902 6.95319 17.9687C6.99881 17.8729 6.99881 17.8729 7.04535 17.7752C7.69998 16.5551 8.92737 15.7098 10.2344 15.3125C10.3981 15.281 10.5624 15.2524 10.727 15.2264C10.8106 15.213 10.8941 15.1997 10.9803 15.1859C11.0435 15.1761 11.1068 15.1663 11.1719 15.1562C11.1712 15.0777 11.1706 14.9992 11.1698 14.9183C11.1635 14.1758 11.1588 13.4334 11.1557 12.6909C11.1541 12.3092 11.1519 11.9276 11.1484 11.5459C11.145 11.1772 11.1431 10.8084 11.1423 10.4396C11.1417 10.2994 11.1406 10.1592 11.1389 10.019C11.1196 8.35912 11.1196 8.35912 11.7432 7.6611C12.1407 7.26936 12.5798 7.1588 13.1196 7.15924C13.2141 7.16112 13.2141 7.16112 13.3106 7.16305C13.3731 7.1628 13.4355 7.16255 13.4998 7.16229C13.9387 7.16619 14.3415 7.23274 14.7657 7.34372C14.7757 7.28631 14.7857 7.2289 14.796 7.16975C14.8406 6.96764 14.8995 6.80015 14.9833 6.6116C15.0116 6.54789 15.0399 6.48418 15.069 6.41854C15.0994 6.35163 15.1298 6.28472 15.1612 6.21579C15.1924 6.14686 15.2237 6.07794 15.2558 6.00693C15.9856 4.42108 15.9856 4.42108 16.4063 4.14059C16.7042 4.12257 16.9575 4.15646 17.1876 4.35055C17.2913 4.59039 17.2905 4.73825 17.2657 4.99997C17.1785 5.21418 17.064 5.41041 16.9483 5.61032C16.5803 6.27191 16.29 6.95146 16.0157 7.65622C16.162 7.75373 16.3106 7.84797 16.4622 7.93698C17.8007 8.72875 19.1622 9.86693 19.582 11.4398C19.6688 11.9974 19.5701 12.5168 19.2579 12.9882C18.9153 13.402 18.5009 13.6239 17.9719 13.7091C17.1376 13.7498 16.571 13.3712 15.9305 12.8784C15.7113 12.7395 15.4958 12.6361 15.2593 12.53C15.1427 12.4776 15.1427 12.4776 15.0238 12.4241C14.9644 12.3976 14.905 12.371 14.8438 12.3437C14.8432 12.4185 14.8426 12.4933 14.8419 12.5703C14.8358 13.2772 14.829 13.984 14.8214 14.6909C14.8175 15.0542 14.8138 15.4175 14.8109 15.7809C14.808 16.1319 14.8043 16.483 14.8002 16.834C14.7988 16.9675 14.7976 17.1011 14.7967 17.2346C14.792 17.8899 14.7744 18.5022 14.6094 19.1406C14.769 19.9738 15.2059 20.8707 15.8869 21.3971C16.2506 21.6436 16.5977 21.6987 17.0313 21.6406C17.6589 21.4858 18.1107 21.2007 18.5938 20.7812C18.6441 20.7421 18.6943 20.7031 18.7461 20.6628C21.9842 18.0618 23.3021 12.6538 23.7501 8.74997C23.7603 8.66386 23.7706 8.57775 23.7812 8.48904C23.9856 6.38652 23.96 3.76323 22.7344 1.95309C22.4408 1.62753 22.109 1.35721 21.6642 1.30184C20.6259 1.28827 19.9295 1.7577 19.1752 2.4487C18.8817 2.73784 18.6132 3.03452 18.3594 3.35934C18.1179 3.48011 17.9224 3.4604 17.6563 3.43746C17.4659 3.32028 17.4659 3.32028 17.3438 3.12496C17.3011 2.7354 17.2886 2.58074 17.5126 2.25308C17.5865 2.17592 17.6622 2.10036 17.7393 2.02633C17.7791 1.98602 17.8188 1.9457 17.8598 1.90417C17.9385 1.82457 18.0178 1.74557 18.0978 1.66722C18.1826 1.58288 18.2638 1.49477 18.3436 1.4056C19.3661 0.272386 21.4 -0.636104 22.8126 0.312465ZM12.5038 8.76026C12.351 9.03266 12.3699 9.31003 12.3754 9.6155C12.3751 9.6853 12.3747 9.75509 12.3744 9.827C12.374 9.97791 12.3745 10.1288 12.3757 10.2797C12.3777 10.5184 12.3773 10.757 12.3764 10.9958C12.3747 11.5021 12.3763 12.0083 12.378 12.5146C12.3796 13.1021 12.38 13.6896 12.378 14.2772C12.3777 14.5126 12.3794 14.7479 12.3811 14.9833C12.3809 15.1271 12.3806 15.271 12.3803 15.4148C12.3813 15.4804 12.3823 15.546 12.3833 15.6136C12.3795 16.0539 12.3795 16.0539 12.2033 16.2506C11.9458 16.3666 11.6842 16.3769 11.4063 16.3965C10.2292 16.5094 9.20346 17.0582 8.43756 17.9687C8.01522 18.5461 7.78338 19.1194 7.89069 19.8437C8.07691 20.3292 8.36388 20.5702 8.82819 20.7812C9.77562 21.0984 10.8204 20.8088 11.6749 20.3906C12.4615 19.9504 13.2233 19.262 13.4798 18.3684C13.5395 18.0936 13.529 17.8144 13.5305 17.5343C13.5311 17.4669 13.5318 17.3996 13.5325 17.3302C13.5338 17.1841 13.535 17.038 13.536 16.8919C13.5377 16.6608 13.5398 16.4296 13.542 16.1985C13.5467 15.7078 13.5508 15.2172 13.5548 14.7265C13.5594 14.158 13.5642 13.5894 13.5697 13.0209C13.5718 12.7931 13.5734 12.5653 13.5751 12.3375C13.5764 12.1979 13.5777 12.0583 13.579 11.9188C13.5793 11.8554 13.5797 11.792 13.58 11.7266C13.5831 11.4507 13.598 11.203 13.6719 10.9375C14.6876 10.7058 15.7772 11.2955 16.6407 11.7968C16.8682 11.9598 17.0887 12.1265 17.3048 12.3043C17.5456 12.4492 17.6922 12.4539 17.9688 12.4218C18.1734 12.2726 18.2623 12.1687 18.3396 11.9275C18.3821 11.4807 18.0617 11.0751 17.7939 10.7372C17.5527 10.4522 17.2946 10.1863 17.0313 9.92184C16.9817 9.86947 16.932 9.8171 16.8809 9.76315C15.8862 8.79273 14.391 8.42179 13.046 8.3807C12.7794 8.44553 12.6718 8.54694 12.5038 8.76026ZM22.8663 23.7646C22.4866 24.162 22.2955 24.5883 22.2587 25.1388C22.2801 25.6689 22.5445 26.0523 22.9005 26.4297C23.2987 26.7906 23.7242 26.8407 24.2414 26.8237C24.778 26.7557 25.1128 26.4916 25.4511 26.0843C25.7411 25.64 25.7605 25.2037 25.7032 24.6875C25.5654 24.2057 25.265 23.8578 24.8438 23.5937C24.1228 23.271 23.5256 23.3292 22.8663 23.7646ZM13.8282 28.3593C13.7769 28.7172 13.7769 28.7172 13.9171 29.0383C14.1301 29.1881 14.2959 29.1701 14.5548 29.1704C14.63 29.1709 14.63 29.1709 14.7067 29.1715C14.875 29.1724 15.0432 29.1717 15.2114 29.1709C15.3319 29.1712 15.4524 29.1717 15.5729 29.1722C15.9004 29.1732 16.2279 29.1728 16.5554 29.1721C16.8978 29.1715 17.2402 29.172 17.5826 29.1724C18.1577 29.1728 18.7327 29.1723 19.3078 29.1711C19.9731 29.1699 20.6383 29.1703 21.3036 29.1716C21.8744 29.1726 22.4451 29.1728 23.0158 29.1722C23.3569 29.1718 23.698 29.1718 24.039 29.1725C24.3597 29.1732 24.6803 29.1727 25.0009 29.1714C25.1187 29.1711 25.2365 29.1712 25.3543 29.1717C25.5149 29.1723 25.6754 29.1715 25.8359 29.1704C25.9259 29.1703 26.0158 29.1702 26.1084 29.1701C26.3287 29.159 26.3287 29.159 26.4719 29.0307C26.5846 28.876 26.6294 28.7862 26.6407 28.5937C26.5125 28.3245 26.4231 28.2143 26.1719 28.0468C25.9494 28.0227 25.9494 28.0227 25.6926 28.0259C25.5923 28.0253 25.4919 28.0246 25.3886 28.0239C25.2771 28.024 25.1657 28.0241 25.0543 28.0241C24.9371 28.0237 24.8199 28.0231 24.7028 28.0226C24.3843 28.0212 24.0658 28.0208 23.7474 28.0207C23.4816 28.0206 23.2158 28.02 22.95 28.0194C22.3229 28.0182 21.6959 28.0178 21.0688 28.0179C20.4218 28.018 19.7748 28.0163 19.1278 28.0139C18.5725 28.0118 18.0172 28.011 17.4618 28.0111C17.1301 28.0111 16.7984 28.0107 16.4666 28.009C16.1546 28.0075 15.8426 28.0075 15.5305 28.0086C15.4161 28.0088 15.3016 28.0084 15.1871 28.0075C15.0307 28.0063 14.8744 28.0072 14.718 28.0082C14.6305 28.0081 14.543 28.008 14.4529 28.008C14.1628 28.0561 14.0319 28.1499 13.8282 28.3593ZM10.4005 30.83C10.1945 31.1571 10.1227 31.4114 10.1563 31.7968C10.2709 32.1575 10.4701 32.3815 10.7881 32.5884C11.0897 32.7253 11.4133 32.6992 11.7388 32.6964C11.8582 32.6972 11.8582 32.6972 11.98 32.6981C12.2423 32.6996 12.5045 32.6989 12.7668 32.6983C12.9493 32.6991 13.1318 32.7 13.3143 32.7011C13.7943 32.7037 14.2742 32.7045 14.7542 32.7048C15.523 32.7055 16.2918 32.7082 17.0606 32.712C17.3293 32.713 17.5979 32.7129 17.8666 32.7127C18.031 32.7133 18.1953 32.7138 18.3596 32.7144C18.4345 32.7141 18.5093 32.7137 18.5864 32.7134C18.6552 32.7138 18.724 32.7143 18.7948 32.7147C18.8544 32.7147 18.914 32.7147 18.9754 32.7148C19.1659 32.7373 19.2907 32.7897 19.4532 32.8906C19.5723 33.1289 19.5497 33.3314 19.5313 33.5937C19.4321 33.7264 19.4321 33.7264 19.2969 33.8281C19.0582 33.8523 18.8351 33.8623 18.5962 33.8619C18.4887 33.8631 18.4887 33.8631 18.379 33.8643C18.1419 33.8666 17.9048 33.8674 17.6676 33.8681C17.5033 33.8694 17.339 33.8708 17.1747 33.8723C16.742 33.876 16.3093 33.8784 15.8766 33.8804C15.4351 33.8827 14.9937 33.8864 14.5522 33.8899C13.6859 33.8966 12.8195 33.9019 11.9532 33.9062C11.9452 34.4066 11.9398 34.9069 11.936 35.4073C11.9345 35.5773 11.9323 35.7474 11.9296 35.9174C11.9258 36.1625 11.924 36.4076 11.9227 36.6528C11.9211 36.7282 11.9194 36.8036 11.9178 36.8812C11.9176 37.4391 12.0316 37.8591 12.4049 38.2831C12.4713 38.3353 12.4713 38.3353 12.5391 38.3886C12.5834 38.4247 12.6278 38.4607 12.6734 38.4979C13.1535 38.8285 13.6599 38.8378 14.2318 38.8385C14.3122 38.8388 14.3122 38.8388 14.3943 38.8391C14.5725 38.8396 14.7507 38.8395 14.9289 38.8394C15.0573 38.8397 15.1857 38.8399 15.3141 38.8402C15.6618 38.8409 16.0094 38.8411 16.3571 38.8412C16.5745 38.8412 16.792 38.8414 17.0094 38.8416C17.7684 38.8423 18.5274 38.8426 19.2865 38.8426C19.9932 38.8425 20.6999 38.8433 21.4066 38.8446C22.0142 38.8456 22.6218 38.846 23.2293 38.846C23.5918 38.846 23.9544 38.8462 24.3169 38.847C24.6578 38.8478 24.9988 38.8478 25.3397 38.8472C25.4646 38.8471 25.5894 38.8473 25.7142 38.8478C26.8749 38.8673 26.8749 38.8673 27.8907 38.3593C28.2303 38.0093 28.458 37.7016 28.4553 37.2056C28.4553 37.1321 28.4553 37.0586 28.4553 36.9829C28.4545 36.9041 28.4537 36.8254 28.4528 36.7444C28.4526 36.6633 28.4524 36.5822 28.4522 36.4987C28.4513 36.24 28.4493 35.9813 28.4473 35.7226C28.4465 35.5471 28.4458 35.3717 28.4452 35.1962C28.4435 34.7662 28.4409 34.3362 28.4376 33.9062C28.3451 33.9059 28.2526 33.9056 28.1574 33.9054C27.2871 33.9025 26.4169 33.898 25.5466 33.8918C25.0992 33.8888 24.6518 33.8862 24.2043 33.885C23.7727 33.8839 23.3412 33.8812 22.9096 33.8774C22.7447 33.8763 22.5798 33.8757 22.415 33.8756C22.1845 33.8754 21.9541 33.8733 21.7236 33.8707C21.655 33.8711 21.5865 33.8715 21.5159 33.8719C21.0566 33.864 21.0566 33.864 20.8543 33.6866C20.7404 33.4196 20.7796 33.2432 20.8594 32.9687C21.2103 32.6612 21.599 32.702 22.04 32.7055C22.1193 32.7052 22.1986 32.7049 22.2803 32.7046C22.4523 32.7041 22.6243 32.7042 22.7962 32.7046C23.0685 32.7054 23.3406 32.7046 23.6129 32.7034C24.3868 32.7002 25.1606 32.7001 25.9345 32.7003C26.4081 32.7003 26.8817 32.6988 27.3552 32.6964C27.6233 32.6956 27.8913 32.6965 28.1594 32.6975C28.324 32.6968 28.4886 32.696 28.6532 32.6951C28.7648 32.6963 28.7648 32.6963 28.8786 32.6975C29.4154 32.6916 29.669 32.5793 30.0635 32.2119C30.2099 31.9269 30.2428 31.6468 30.2344 31.3281C30.0997 30.916 29.8747 30.714 29.5313 30.4687C29.3175 30.3993 29.124 30.3807 28.9 30.3803C28.8369 30.38 28.7737 30.3797 28.7087 30.3794C28.6053 30.3795 28.6053 30.3795 28.4998 30.3796C28.4262 30.3794 28.3526 30.3792 28.2768 30.3789C28.0297 30.3782 27.7825 30.3781 27.5354 30.378C27.3584 30.3776 27.1815 30.3773 27.0045 30.3768C26.5233 30.3758 26.0421 30.3753 25.561 30.375C25.2604 30.3747 24.9599 30.3744 24.6594 30.3741C23.8271 30.3731 22.9947 30.3723 22.1624 30.372C22.0825 30.372 22.0825 30.372 22.0011 30.372C21.921 30.372 21.921 30.372 21.8393 30.3719C21.7311 30.3719 21.623 30.3719 21.5148 30.3718C21.4612 30.3718 21.4075 30.3718 21.3522 30.3718C20.4829 30.3715 19.6136 30.3701 18.7443 30.3683C17.8515 30.3664 16.9587 30.3655 16.0659 30.3654C15.5647 30.3653 15.0636 30.3648 14.5624 30.3634C14.091 30.3621 13.6197 30.362 13.1483 30.3627C12.9753 30.3627 12.8023 30.3624 12.6293 30.3616C12.3931 30.3606 12.1569 30.3611 11.9207 30.3619C11.8523 30.3613 11.7839 30.3606 11.7134 30.36C11.1778 30.3643 10.8073 30.4586 10.4005 30.83Z" fill="url(#paint0_linear_242_191)"/>
<path d="M21.0094 4.18703C21.4686 4.27662 21.713 4.49273 21.9729 4.8633C22.1696 5.18406 22.3187 5.49773 22.4221 5.8594C22.4372 5.91146 22.4523 5.96353 22.4679 6.01717C23.2893 9.416 21.9825 13.6861 20.2501 16.604C19.9202 17.1375 19.5237 17.6214 19.0627 18.0469C19.0211 18.0862 18.9795 18.1255 18.9367 18.1659C18.4194 18.6362 17.9484 18.8017 17.2469 18.7824C17.0315 18.75 17.0315 18.75 16.7776 18.584C16.6146 18.3163 16.5768 18.1979 16.6408 17.8906C16.7922 17.6709 16.7922 17.6709 17.0315 17.5C17.1865 17.4832 17.1865 17.4832 17.3586 17.4805C17.882 17.4475 18.178 17.0883 18.5158 16.7188C20.5558 14.3419 21.4897 10.2924 21.3023 7.22609C21.2561 6.6479 21.163 6.05143 20.8596 5.5469C20.7046 5.4662 20.5484 5.38801 20.3908 5.31252C20.2079 5.03811 20.1958 4.93247 20.2346 4.6094C20.4225 4.24922 20.5995 4.15662 21.0094 4.18703Z" fill="url(#paint1_linear_242_191)"/>
<path d="M18.853 35.8057C19.1491 35.8609 19.2226 35.9086 19.4438 36.0938C19.7329 36.3302 19.9325 36.3904 20.3041 36.3647C20.6371 36.2909 20.859 36.0945 21.0942 35.8594C21.3291 35.8328 21.4925 35.8159 21.7192 35.8594C21.9507 36.0562 22.0187 36.1823 22.0756 36.4795C22.0171 36.798 21.8813 36.9816 21.6411 37.1875C20.9731 37.6296 20.4089 37.7225 19.6098 37.6562C19.0191 37.508 18.5448 37.2306 18.2036 36.7188C18.1556 36.4034 18.1767 36.2874 18.3647 36.0254C18.5942 35.8594 18.5942 35.8594 18.853 35.8057Z" fill="url(#paint2_linear_242_191)"/>
<path d="M24.7654 35.0342C24.8169 35.0341 24.8685 35.034 24.9216 35.0339C25.1633 35.1024 25.246 35.1832 25.3904 35.3907C25.4364 35.6389 25.434 35.881 25.4294 36.1329C25.4307 36.1996 25.4319 36.2664 25.4331 36.3352C25.4312 36.6414 25.4292 36.8193 25.2512 37.0749C25.0705 37.1924 24.9787 37.2319 24.7654 37.2315C24.7138 37.2332 24.6623 37.2349 24.6091 37.2367C24.3536 37.1563 24.2755 37.0243 24.1404 36.7969C24.0965 36.5741 24.0966 36.3594 24.1013 36.1329C24.1001 36.0746 24.0989 36.0162 24.0977 35.9562C24.0998 35.6561 24.123 35.4981 24.2795 35.2347C24.4622 35.0697 24.5243 35.0262 24.7654 35.0342Z" fill="url(#paint3_linear_242_191)"/>
<path d="M15.6248 35.0342C15.6763 35.0341 15.7279 35.034 15.781 35.0339C16.0227 35.1024 16.1054 35.1832 16.2498 35.3907C16.2958 35.6389 16.2934 35.881 16.2888 36.1329C16.29 36.1996 16.2912 36.2664 16.2925 36.3352C16.2906 36.6414 16.2885 36.8193 16.1106 37.0749C15.9299 37.1924 15.8381 37.2319 15.6248 37.2315C15.5732 37.2332 15.5216 37.2349 15.4685 37.2367C15.213 37.1563 15.1349 37.0243 14.9998 36.7969C14.9559 36.5741 14.956 36.3594 14.9607 36.1329C14.9595 36.0746 14.9583 36.0162 14.957 35.9562C14.9592 35.6561 14.9824 35.4981 15.1389 35.2347C15.3216 35.0697 15.3837 35.0262 15.6248 35.0342Z" fill="url(#paint4_linear_242_191)"/>
</g>
<defs>
<linearGradient id="paint0_linear_242_191" x1="6.6084" y1="-0.0841064" x2="35.263" y2="1.2776" gradientUnits="userSpaceOnUse">
<stop stop-color="#C42091"/>
<stop offset="1" stop-color="#6617CA"/>
</linearGradient>
<linearGradient id="paint1_linear_242_191" x1="16.6113" y1="4.18164" x2="23.1481" y2="4.37609" gradientUnits="userSpaceOnUse">
<stop stop-color="#C42091"/>
<stop offset="1" stop-color="#6617CA"/>
</linearGradient>
<linearGradient id="paint2_linear_242_191" x1="18.1816" y1="35.8057" x2="22.263" y2="36.4101" gradientUnits="userSpaceOnUse">
<stop stop-color="#C42091"/>
<stop offset="1" stop-color="#6617CA"/>
</linearGradient>
<linearGradient id="paint3_linear_242_191" x1="24.0977" y1="35.0333" x2="25.5254" y2="35.0949" gradientUnits="userSpaceOnUse">
<stop stop-color="#C42091"/>
<stop offset="1" stop-color="#6617CA"/>
</linearGradient>
<linearGradient id="paint4_linear_242_191" x1="14.957" y1="35.0333" x2="16.3848" y2="35.0949" gradientUnits="userSpaceOnUse">
<stop stop-color="#C42091"/>
<stop offset="1" stop-color="#6617CA"/>
</linearGradient>
<clipPath id="clip0_242_191">
<rect width="40" height="40" fill="white"/>
</clipPath>
</defs>
</svg>
