<svg width="40" height="40" viewBox="0 0 40 40" fill="none" xmlns="http://www.w3.org/2000/svg">
<path d="M11.8196 3.20119C12.6414 3.81535 13.3521 4.58496 14.0765 5.30769C14.2724 5.5028 14.4691 5.69706 14.6658 5.89132C14.7922 6.01725 14.9186 6.14324 15.045 6.26928C15.1029 6.32627 15.1609 6.38326 15.2206 6.44198C16.2006 7.42618 16.7617 8.53979 16.8263 9.93658C16.796 11.2575 16.2512 12.3016 15.3508 13.2322C14.9957 13.6073 14.8335 13.8661 14.8194 14.3897C14.8165 14.4601 14.8136 14.5305 14.8106 14.603C14.8943 15.2091 15.3085 15.7141 15.6544 16.2012C15.7023 16.269 15.7502 16.3368 15.7995 16.4067C16.722 17.7028 17.7014 18.9895 18.8478 20.0977C18.9898 20.2398 19.1186 20.3885 19.2482 20.542C19.5103 20.8462 19.7987 21.1094 20.0999 21.3743C20.2849 21.538 20.4659 21.7053 20.646 21.8743C21.141 22.3366 21.6599 22.7596 22.1982 23.1702C22.2967 23.2453 22.3949 23.3207 22.4928 23.3964C23.0817 23.8514 23.6803 24.2879 24.3019 24.6973C24.3827 24.7514 24.3827 24.7514 24.4652 24.8066C24.9273 25.1052 25.3702 25.2973 25.9339 25.2033C26.3394 25.0841 26.6375 24.8664 26.901 24.5402C27.1057 24.2878 27.3436 24.1081 27.6173 23.9356C27.6651 23.9054 27.713 23.8753 27.7623 23.8442C28.832 23.1959 30.0642 23.0661 31.2742 23.35C31.9861 23.5662 32.5715 23.8732 33.1086 24.3857C33.1512 24.4258 33.1938 24.4658 33.2378 24.507C33.3833 24.6445 33.5278 24.7831 33.672 24.9219C33.7259 24.9738 33.7798 25.0257 33.8353 25.0792C34.1967 25.4283 34.555 25.7803 34.9116 26.1342C35.0359 26.2571 35.1605 26.3797 35.2856 26.5018C36.5142 27.7016 37.5158 28.8213 37.5392 30.6251C37.5326 31.2663 37.4435 31.8284 37.1876 32.4219C37.1447 32.5266 37.1447 32.5266 37.1009 32.6334C36.7846 33.3002 36.2652 33.8028 35.7534 34.3225C35.6463 34.4316 35.541 34.5426 35.4362 34.654C33.8709 36.2927 31.6896 37.4441 29.401 37.5187C26.6964 37.5648 24.7598 36.6993 22.5782 35.1563C22.5197 35.115 22.4611 35.0736 22.4008 35.0311C21.035 34.0636 19.7045 33.0482 18.4132 31.9834C18.2941 31.8856 18.1744 31.7885 18.0546 31.6916C17.2042 31.0036 16.3805 30.2849 15.5803 29.5392C15.3612 29.335 15.1399 29.1349 14.9122 28.9405C14.6158 28.6847 14.3425 28.4072 14.0678 28.1287C13.8642 27.9234 13.6576 27.7266 13.4376 27.5391C12.8698 27.0529 12.3499 26.5133 11.8653 25.9449C11.6811 25.7391 11.4857 25.5455 11.2892 25.3516C10.9981 25.064 10.719 24.7709 10.4533 24.4596C10.2834 24.2632 10.1076 24.0729 9.93175 23.8819C9.61375 23.5332 9.31247 23.1749 9.01622 22.8077C8.80497 22.5498 8.58748 22.2979 8.36925 22.0459C7.94956 21.559 7.54752 21.0609 7.15533 20.5516C7.0666 20.4364 6.97761 20.3214 6.88846 20.2066C6.22615 19.3529 5.59035 18.488 4.98698 17.5916C4.8073 17.325 4.62081 17.0647 4.42882 16.8067C3.18605 15.1096 2.46549 13.3123 2.47569 11.1915C2.47613 11.0953 2.47657 10.9991 2.47703 10.8999C2.51096 8.35007 3.66387 6.2884 5.44271 4.5226C5.5817 4.38428 5.71916 4.24455 5.85658 4.10467C7.44764 2.50368 9.82618 1.79852 11.8196 3.20119ZM7.96886 4.14068C7.90924 4.17623 7.84962 4.21178 7.78819 4.2484C5.86155 5.51423 4.47837 7.47317 3.90636 9.68755C3.53072 11.6735 3.93544 13.676 5.05382 15.3467C5.15517 15.4941 5.25779 15.6405 5.3614 15.7863C5.47164 15.9415 5.58037 16.0976 5.68889 16.254C7.19599 18.417 8.80631 20.5063 10.5519 22.4827C10.6768 22.626 10.8002 22.7703 10.923 22.9154C11.3065 23.3679 11.6881 23.8127 12.1156 24.2248C12.258 24.3673 12.3892 24.5142 12.52 24.6674C12.8034 24.9936 13.1021 25.3009 13.408 25.6058C13.463 25.6609 13.5179 25.7159 13.5746 25.7726C13.69 25.8881 13.8054 26.0034 13.921 26.1187C14.0963 26.2935 14.2712 26.4688 14.4461 26.6442C14.559 26.7571 14.672 26.8699 14.785 26.9828C14.8364 27.0344 14.8879 27.086 14.9409 27.1392C15.2419 27.4387 15.5511 27.7244 15.8731 28.0013C16.1087 28.2057 16.3352 28.4196 16.5626 28.6329C16.9474 28.9916 17.3342 29.3461 17.7345 29.6876C17.8458 29.7833 17.8458 29.7833 17.9594 29.881C18.4839 30.3302 19.0191 30.7631 19.564 31.1872C19.7513 31.3331 19.9369 31.4808 20.1213 31.6303C21.3165 32.5993 22.5642 33.4983 23.8282 34.3751C23.879 34.4105 23.9297 34.446 23.982 34.4825C25.8592 35.79 27.8434 36.4716 30.1561 36.121C31.7235 35.8297 33.0292 35.058 34.167 33.9542C34.2587 33.8653 34.3509 33.777 34.4435 33.6891C35.7022 32.5034 35.7022 32.5034 36.2467 30.9046C36.2629 29.9363 35.9004 29.0951 35.2447 28.3909C35.0969 28.2416 34.9483 28.0939 34.7981 27.9471C34.7178 27.8672 34.6377 27.7871 34.5576 27.707C34.3909 27.5406 34.2234 27.3751 34.0553 27.2101C33.8411 27 33.6286 26.7883 33.4165 26.5761C33.2516 26.4112 33.086 26.2469 32.9203 26.0828C32.8417 26.005 32.7633 25.9271 32.685 25.849C31.9261 25.0936 31.2508 24.6058 30.1612 24.502C29.1671 24.5527 28.3705 24.9582 27.6905 25.6739C27.1298 26.2607 26.4317 26.5361 25.6282 26.5732C22.9323 26.5112 19.9021 23.1062 18.0958 21.3086C18.0447 21.2579 17.9936 21.2072 17.941 21.1549C17.596 20.8088 17.2718 20.4487 16.9532 20.0782C16.8781 19.9927 16.803 19.9072 16.7277 19.8218C15.8823 18.8544 15.134 17.8315 14.4142 16.7676C14.3608 16.6896 14.3075 16.6117 14.2525 16.5313C13.6826 15.6785 13.3142 14.8553 13.4913 13.8135C13.6753 13.0548 14.08 12.593 14.6095 12.0313C15.1917 11.3994 15.5175 10.6487 15.4881 9.77788C15.3598 8.65423 14.745 7.89855 13.9668 7.12285C13.8891 7.04455 13.8114 6.96622 13.7338 6.88786C13.5719 6.72477 13.4094 6.56229 13.2465 6.4002C13.0397 6.19438 12.8348 5.98684 12.6304 5.77877C12.4707 5.6168 12.31 5.45595 12.149 5.29538C12.073 5.21939 11.9975 5.14303 11.9223 5.06628C11.2643 4.39602 10.5143 3.82993 9.54299 3.80529C8.95088 3.8002 8.47854 3.80765 7.96886 4.14068Z" fill="url(#paint0_linear_141_347)"/>
<path d="M26.958 4.34444C28.2241 4.92397 29.3762 5.62097 30.4688 6.48433C30.54 6.54043 30.6112 6.59652 30.6845 6.65432C31.4513 7.27012 32.1822 7.91516 32.8125 8.67183C32.9044 8.7741 32.9044 8.7741 32.9981 8.87844C35.1677 11.3133 36.5979 14.4912 36.9531 17.7343C36.9617 17.8075 36.9703 17.8808 36.9791 17.9562C37.0264 18.4262 37.0451 18.8979 37.0557 19.3701C37.0592 19.4547 37.0592 19.4547 37.0627 19.541C37.0659 19.8245 37.0397 19.9862 36.8903 20.2298C36.654 20.4514 36.4924 20.4687 36.1719 20.4687C35.9416 20.3636 35.817 20.3058 35.7031 20.0781C35.6894 19.9339 35.6798 19.7894 35.6723 19.6447C35.4105 15.11 33.6809 11.1509 30.2655 8.09963C27.5356 5.80267 24.2819 4.52304 20.716 4.35482C20.6615 4.35218 20.6071 4.34954 20.551 4.34682C20.4132 4.34129 20.2753 4.3386 20.1374 4.3362C19.8675 4.28689 19.7762 4.19817 19.6094 3.98433C19.5198 3.70357 19.5066 3.57281 19.624 3.30074C20.7726 1.87491 25.6556 3.77054 26.958 4.34444Z" fill="url(#paint1_linear_141_347)"/>
<path d="M22.4219 8.28124C24.7301 8.77974 26.6066 9.84983 28.3594 11.4062C28.4104 11.4516 28.4615 11.4969 28.5141 11.5436C30.4231 13.3483 31.756 16.1511 31.8836 18.77C31.8881 18.9522 31.8895 19.1341 31.8896 19.3164C31.8906 19.378 31.8916 19.4397 31.8925 19.5032C31.894 20.0665 31.894 20.0665 31.7187 20.3125C31.5129 20.4726 31.3974 20.4686 31.1328 20.4639C30.792 20.3726 30.7272 20.3006 30.5469 20C30.4955 19.741 30.4858 19.4821 30.4736 19.2187C30.2779 16.4071 29.0318 13.9022 26.9501 12.0075C25.3625 10.6352 23.3074 9.74487 21.2167 9.57183C21.1431 9.56571 21.0695 9.55959 20.9936 9.55329C20.8485 9.54208 20.7033 9.5323 20.5581 9.52414C20.1515 9.49485 19.8989 9.45567 19.6094 9.14062C19.5127 8.85679 19.5043 8.73109 19.6289 8.45702C20.1515 7.78514 21.6844 8.1348 22.4219 8.28124Z" fill="url(#paint2_linear_141_347)"/>
<path d="M22.255 13.5363C24.0542 14.1564 25.4024 15.4499 26.2354 17.1387C26.6264 18.0661 26.85 19.071 26.7188 20.0782C26.6115 20.2777 26.5486 20.3649 26.3385 20.4493C26.0334 20.4873 25.903 20.4948 25.6299 20.3321C25.3869 20.067 25.3789 19.8289 25.3481 19.4806C25.2847 18.7943 25.1391 18.2068 24.8438 17.5782C24.8148 17.5159 24.7859 17.4537 24.7562 17.3896C24.1477 16.1979 23.1232 15.3735 21.875 14.9219C21.3949 14.7696 20.9375 14.6811 20.4346 14.6534C20.1519 14.6338 20.0074 14.6132 19.751 14.4825C19.5601 14.2324 19.5312 14.0632 19.5312 13.75C19.9404 12.8537 21.4885 13.302 22.255 13.5363Z" fill="url(#paint3_linear_141_347)"/>
<defs>
<linearGradient id="paint0_linear_141_347" x1="2.47559" y1="2.44849" x2="39.8437" y2="5.10514" gradientUnits="userSpaceOnUse">
<stop stop-color="#C42091"/>
<stop offset="1" stop-color="#6617CA"/>
</linearGradient>
<linearGradient id="paint1_linear_141_347" x1="19.5391" y1="2.78052" x2="38.2164" y2="4.09635" gradientUnits="userSpaceOnUse">
<stop stop-color="#C42091"/>
<stop offset="1" stop-color="#6617CA"/>
</linearGradient>
<linearGradient id="paint2_linear_141_347" x1="19.5361" y1="8.05896" x2="32.7054" y2="8.99168" gradientUnits="userSpaceOnUse">
<stop stop-color="#C42091"/>
<stop offset="1" stop-color="#6617CA"/>
</linearGradient>
<linearGradient id="paint3_linear_141_347" x1="19.5312" y1="13.2148" x2="27.2316" y2="13.76" gradientUnits="userSpaceOnUse">
<stop stop-color="#C42091"/>
<stop offset="1" stop-color="#6617CA"/>
</linearGradient>
</defs>
</svg>
