<svg width="40" height="40" viewBox="0 0 40 40" fill="none" xmlns="http://www.w3.org/2000/svg">
<path d="M19.6426 2.0191C22.0407 1.96218 24.1459 2.79101 25.8789 4.43854C27.4139 6.03332 27.9944 8.01081 27.9902 10.1831C27.9905 10.2996 27.9909 10.4161 27.9914 10.5327C27.9924 10.8462 27.9925 11.1596 27.9923 11.4731C27.9922 11.7364 27.9926 11.9996 27.9929 12.2628C27.9938 12.8847 27.9938 13.5065 27.9934 14.1284C27.9929 14.7664 27.9938 15.4044 27.9955 16.0425C27.9969 16.5934 27.9974 17.1443 27.9971 17.6952C27.997 18.0229 27.9972 18.3505 27.9983 18.6782C27.9992 18.9868 27.9991 19.2953 27.9981 19.6039C27.9979 19.716 27.9981 19.828 27.9987 19.9401C28.0103 22.0838 27.368 24.0147 25.8517 25.5573C25.7763 25.6322 25.7007 25.7068 25.6249 25.7813C25.5357 25.8704 25.5357 25.8704 25.4446 25.9614C24.7581 26.6088 23.9191 27.073 23.0468 27.4219C22.9776 27.4499 22.9084 27.4779 22.8372 27.5068C20.8481 28.2406 18.5016 28.1436 16.5711 27.2776C14.635 26.3653 13.1593 24.7963 12.4023 22.7878C12.0822 21.8101 12.0077 20.8406 12.0097 19.817C12.0094 19.7005 12.009 19.584 12.0085 19.4674C12.0075 19.154 12.0074 18.8405 12.0076 18.527C12.0077 18.2638 12.0073 18.0006 12.007 17.7373C12.0061 17.1155 12.0061 16.4936 12.0065 15.8717C12.007 15.2337 12.006 14.5957 12.0044 13.9577C12.003 13.4067 12.0025 12.8558 12.0028 12.3049C12.0029 11.9772 12.0027 11.6496 12.0016 11.322C12.0006 11.0134 12.0008 10.7048 12.0018 10.3962C12.002 10.2842 12.0018 10.1721 12.0012 10.06C11.9896 7.91632 12.6318 5.98539 14.1482 4.44281C14.2236 4.36797 14.2992 4.29329 14.3749 4.21881C14.4345 4.15939 14.494 4.09998 14.5553 4.03876C15.9122 2.75904 17.8035 2.10298 19.6426 2.0191ZM16.2499 6.01569C16.1632 6.08774 16.1632 6.08774 16.0748 6.16125C15.2482 6.91224 14.7667 8.05185 14.6093 9.14069C14.6021 9.30485 14.5985 9.46921 14.5978 9.63353C14.5973 9.73097 14.5967 9.82842 14.5961 9.92881C14.5959 10.0358 14.5957 10.1428 14.5955 10.2498C14.595 10.3633 14.5945 10.4768 14.5939 10.5903C14.5923 10.9622 14.5915 11.3341 14.5907 11.706C14.5904 11.8346 14.5901 11.9632 14.5897 12.0917C14.5883 12.6964 14.5871 13.3011 14.5865 13.9058C14.5857 14.6009 14.5837 15.296 14.5805 15.991C14.5781 16.5301 14.577 17.0691 14.5767 17.6082C14.5766 17.9292 14.5759 18.2503 14.5739 18.5713C14.5721 18.8741 14.5718 19.1769 14.5725 19.4797C14.5726 19.5898 14.5721 19.6999 14.571 19.81C14.5572 21.2939 14.9447 22.6294 15.979 23.7303C17.0649 24.8245 18.4617 25.3801 19.9999 25.42C21.5868 25.3771 22.8915 24.7923 24.0478 23.7208C25.1177 22.5884 25.4145 21.2176 25.4133 19.7148C25.4137 19.6013 25.4143 19.4878 25.4149 19.3742C25.4162 19.0678 25.4166 18.7614 25.4167 18.455C25.4168 18.2629 25.4172 18.0708 25.4176 17.8787C25.419 17.2066 25.4196 16.5345 25.4195 15.8624C25.4194 15.239 25.4211 14.6157 25.4235 13.9924C25.4256 13.4547 25.4264 12.917 25.4263 12.3793C25.4263 12.0592 25.4267 11.7392 25.4284 11.4192C25.4299 11.1177 25.4299 10.8162 25.4288 10.5147C25.4286 10.4051 25.429 10.2955 25.4299 10.1859C25.442 8.70394 25.0538 7.36915 24.0209 6.2698C22.9349 5.17561 21.5382 4.62007 19.9999 4.58014C18.564 4.61895 17.3426 5.09029 16.2499 6.01569Z" fill="url(#paint0_linear_307_185)"/>
<path d="M9.93803 17.244C10.2262 17.4488 10.3599 17.7195 10.469 18.0469C10.4766 18.1848 10.4796 18.3231 10.4801 18.4612C10.4807 18.5461 10.4812 18.6309 10.4818 18.7183C10.4821 18.8104 10.4824 18.9024 10.4828 18.9972C10.4846 19.1933 10.4865 19.3895 10.4884 19.5856C10.4911 19.8938 10.4934 20.2019 10.4945 20.5101C10.5047 22.9831 11.0018 24.9182 12.7444 26.7578C14.8444 28.7933 17.6997 29.4955 20.5408 29.4699C21.2121 29.4556 21.8485 29.3779 22.5003 29.2188C22.5555 29.2054 22.6106 29.192 22.6675 29.1781C25.028 28.5834 27.2366 27.2754 28.5159 25.1563C29.0628 24.2018 29.4605 23.16 29.4645 22.0479C29.465 21.9608 29.4656 21.8737 29.4662 21.784C29.4666 21.6445 29.4666 21.6445 29.4671 21.5021C29.469 21.3035 29.4708 21.105 29.4728 20.9064C29.4755 20.5945 29.4778 20.2827 29.4789 19.9709C29.4801 19.6691 29.4832 19.3673 29.4867 19.0656C29.4865 18.9729 29.4864 18.8801 29.4862 18.7846C29.4942 18.2431 29.548 17.8803 29.844 17.4219C30.2533 17.0962 30.5724 16.9885 31.094 17.0313C31.5059 17.1727 31.7929 17.3621 32.0315 17.7344C32.1122 17.9763 32.121 18.1471 32.1235 18.4009C32.1245 18.4897 32.1255 18.5785 32.1265 18.6699C32.1274 18.8146 32.1274 18.8146 32.1283 18.9621C32.1289 19.0621 32.1295 19.1621 32.1302 19.2652C32.1314 19.4779 32.1321 19.6906 32.1327 19.9033C32.1334 20.1184 32.135 20.3335 32.1375 20.5486C32.1687 23.2801 31.6554 25.6924 29.844 27.8125C29.8104 27.8523 29.7768 27.892 29.7421 27.9329C27.9182 30.0666 25.4108 31.337 22.6858 31.9043C22.6229 31.9175 22.56 31.9306 22.4952 31.9441C22.4346 31.9558 22.3741 31.9674 22.3117 31.9794C22.2332 31.9946 22.2332 31.9946 22.1531 32.01C21.8538 32.0419 21.5513 32.0313 21.2503 32.0313C21.2503 33.1399 21.2503 34.2485 21.2503 35.3906C21.5419 35.3861 21.8336 35.3816 22.1341 35.3769C22.4177 35.3739 22.7014 35.3715 22.985 35.3692C23.1816 35.3672 23.3781 35.3646 23.5747 35.3612C23.8579 35.3564 24.1409 35.3542 24.4241 35.3525C24.5115 35.3505 24.5988 35.3485 24.6888 35.3464C25.2305 35.3462 25.6008 35.4192 26.0159 35.7813C26.2996 36.1323 26.2895 36.4481 26.2778 36.8845C26.2282 37.2904 26.0325 37.4906 25.7425 37.7588C25.4322 37.9683 25.1693 37.9786 24.7998 37.9797C24.7113 37.9802 24.6228 37.9806 24.5317 37.9811C24.3865 37.9812 24.3865 37.9812 24.2385 37.9814C24.1363 37.9817 24.0341 37.9821 23.9289 37.9825C23.6488 37.9836 23.3688 37.9841 23.0887 37.9844C22.9136 37.9846 22.7386 37.985 22.5635 37.9853C22.0156 37.9864 21.4676 37.9871 20.9197 37.9874C20.2876 37.9878 19.6555 37.9892 19.0234 37.9914C18.5345 37.9931 18.0456 37.9939 17.5566 37.994C17.2648 37.9941 16.9729 37.9945 16.681 37.9959C16.3554 37.9975 16.0298 37.9971 15.7042 37.9966C15.6078 37.9973 15.5113 37.9981 15.412 37.9988C14.8926 37.9963 14.4892 37.9866 14.0906 37.6145C13.7202 37.1302 13.682 36.7792 13.7503 36.1719C13.8766 35.8593 14.0465 35.6882 14.324 35.5024C14.7373 35.3407 15.1214 35.3617 15.5612 35.3678C15.6524 35.3681 15.7437 35.3684 15.8377 35.3688C16.1282 35.3701 16.4187 35.373 16.7093 35.376C16.9066 35.3772 17.104 35.3782 17.3013 35.3792C17.7843 35.3816 18.2673 35.3862 18.7503 35.3906C18.7503 34.282 18.7503 33.1735 18.7503 32.0313C18.5183 32.0313 18.2862 32.0313 18.0472 32.0313C15.6816 31.7482 13.3814 30.7503 11.5628 29.2188C11.5201 29.183 11.4773 29.1473 11.4333 29.1105C9.4912 27.4646 8.21159 25.1876 7.89091 22.6563C7.86946 22.2893 7.86714 21.9233 7.86741 21.5558C7.86708 21.4542 7.86675 21.3526 7.8664 21.2479C7.86582 21.0348 7.86584 20.8217 7.86625 20.6086C7.86671 20.3364 7.86537 20.0643 7.86357 19.7922C7.86214 19.5305 7.86243 19.2687 7.86253 19.007C7.86181 18.9098 7.86109 18.8126 7.86035 18.7125C7.86487 17.8701 7.86487 17.8701 8.12529 17.5C8.67459 16.9796 9.26959 16.88 9.93803 17.244Z" fill="url(#paint1_linear_307_185)"/>
<path d="M35.2539 3.72565C35.3252 3.72273 35.3965 3.71981 35.47 3.7168C35.9078 3.77926 36.171 3.96443 36.4407 4.29938C36.4974 4.3888 36.5526 4.47919 36.6064 4.57037C36.6361 4.61888 36.6657 4.66739 36.6962 4.71737C36.7838 4.86267 36.8688 5.00912 36.9531 5.15631C36.9977 5.23335 37.0424 5.31039 37.0883 5.38977C38.1004 7.27078 38.209 9.52264 37.6538 11.558C37.3331 12.5969 36.7955 13.9048 35.8594 14.5313C35.4557 14.6659 35.0698 14.6607 34.668 14.5215C34.3708 14.319 34.1412 14.094 33.999 13.7549C33.9942 13.7018 33.9894 13.6486 33.9844 13.5938C33.9747 13.5132 33.965 13.4327 33.9551 13.3497C34.0085 12.7981 34.3129 12.3614 34.6094 11.9044C35.3639 10.6741 35.4596 9.16399 35.1538 7.78357C34.9538 7.03423 34.6098 6.4052 34.1931 5.75903C33.9776 5.4091 33.9422 5.09117 33.9844 4.68756C34.1209 4.32102 34.316 4.0849 34.6094 3.82819C34.8411 3.75096 35.0113 3.73208 35.2539 3.72565Z" fill="url(#paint2_linear_307_185)"/>
<path d="M5.38109 3.83789C5.75626 4.16893 5.99658 4.46007 6.04027 4.97559C6.03292 5.42394 5.82523 5.7435 5.59196 6.11481C4.72675 7.49871 4.49011 8.97307 4.84093 10.5649C5.0499 11.323 5.38641 11.9914 5.82695 12.6401C6.03161 12.9586 6.04064 13.222 6.01585 13.5938C5.87362 14.0521 5.69329 14.2617 5.31273 14.5312C4.91201 14.6648 4.52668 14.6599 4.12621 14.5264C2.9963 13.748 2.40662 12.0101 2.15202 10.7278C1.7891 8.51117 2.19842 6.29722 3.48135 4.43241C3.95852 3.78168 4.58926 3.52804 5.38109 3.83789Z" fill="url(#paint3_linear_307_185)"/>
<path d="M31.5774 5.4736C32.3723 6.02116 32.8118 7.03889 33.0084 7.95956C33.2683 9.59297 33.0118 11.1396 32.0315 12.5C31.697 12.7943 31.4371 12.9476 30.9915 12.998C30.5329 12.9514 30.2056 12.79 29.8879 12.456C29.6556 12.0935 29.638 11.7468 29.6877 11.3281C29.7684 11.1051 29.8806 10.9073 30.0002 10.7031C30.4004 9.98048 30.5517 9.33956 30.3909 8.51559C30.2663 8.10419 30.0867 7.74376 29.8635 7.37789C29.6607 7.02363 29.6194 6.72974 29.6877 6.32809C29.8304 5.91612 30.0477 5.71895 30.3909 5.46871C30.7916 5.33514 31.1769 5.34011 31.5774 5.4736Z" fill="url(#paint4_linear_307_185)"/>
<path d="M9.62853 5.4785C9.95507 5.70114 10.1847 5.94576 10.3121 6.32811C10.402 6.87436 10.2373 7.21936 9.963 7.68584C9.56609 8.36524 9.44606 9.07503 9.61388 9.84862C9.72698 10.2526 9.90166 10.5839 10.1321 10.9329C10.3516 11.2794 10.3674 11.6338 10.3121 12.0312C10.1719 12.4046 9.96816 12.6578 9.61876 12.8515C9.20539 13.0249 8.85336 13.0294 8.43712 12.8613C7.66997 12.4384 7.29534 11.4003 7.05041 10.6055C6.70308 9.2082 6.87655 7.7437 7.55211 6.47307C8.04391 5.6603 8.64472 5.13795 9.62853 5.4785Z" fill="url(#paint5_linear_307_185)"/>
<defs>
<linearGradient id="paint0_linear_307_185" x1="12.001" y1="2.01636" x2="29.1038" y2="2.76521" gradientUnits="userSpaceOnUse">
<stop stop-color="#C42091"/>
<stop offset="1" stop-color="#6617CA"/>
</linearGradient>
<linearGradient id="paint1_linear_307_185" x1="7.86035" y1="17.0223" x2="33.6904" y2="19.1483" gradientUnits="userSpaceOnUse">
<stop stop-color="#C42091"/>
<stop offset="1" stop-color="#6617CA"/>
</linearGradient>
<linearGradient id="paint2_linear_307_185" x1="33.9551" y1="3.7168" x2="38.27" y2="3.83015" gradientUnits="userSpaceOnUse">
<stop stop-color="#C42091"/>
<stop offset="1" stop-color="#6617CA"/>
</linearGradient>
<linearGradient id="paint3_linear_307_185" x1="2.02539" y1="3.70642" x2="6.32283" y2="3.81875" gradientUnits="userSpaceOnUse">
<stop stop-color="#C42091"/>
<stop offset="1" stop-color="#6617CA"/>
</linearGradient>
<linearGradient id="paint4_linear_307_185" x1="29.6572" y1="5.37097" x2="33.3447" y2="5.48945" gradientUnits="userSpaceOnUse">
<stop stop-color="#C42091"/>
<stop offset="1" stop-color="#6617CA"/>
</linearGradient>
<linearGradient id="paint5_linear_307_185" x1="6.87598" y1="5.3728" x2="10.5815" y2="5.49269" gradientUnits="userSpaceOnUse">
<stop stop-color="#C42091"/>
<stop offset="1" stop-color="#6617CA"/>
</linearGradient>
</defs>
</svg>
