<svg width="80" height="80" viewBox="0 0 80 80" fill="none" xmlns="http://www.w3.org/2000/svg">
<g clip-path="url(#clip0_142_142)">
<path d="M58.7654 -0.0275455C58.9276 -0.029551 59.0898 -0.0315565 59.257 -0.0336227C59.4323 -0.034777 59.6075 -0.0359312 59.7881 -0.0371203C60.059 -0.0390122 60.059 -0.0390122 60.3353 -0.0409422C60.7178 -0.0431045 61.1002 -0.04478 61.4827 -0.0460086C62.0664 -0.0486964 62.6499 -0.0555541 63.2336 -0.0624499C63.6053 -0.0640324 63.977 -0.065363 64.3487 -0.0664172C64.5227 -0.0691529 64.6967 -0.0718885 64.876 -0.074707C65.8936 -0.0718742 66.5182 0.016156 67.3443 0.625111C68.0111 1.3279 68.3104 2.01196 68.3495 2.97699C68.356 3.13062 68.3626 3.28425 68.3693 3.44254C68.3898 4.15455 68.4062 4.86646 68.417 5.57869C68.4244 5.94948 68.436 6.32023 68.4522 6.69075C68.4756 7.23361 68.4846 7.77529 68.4911 8.31859C68.5007 8.47793 68.5102 8.63727 68.52 8.80143C68.5126 10.1947 67.9714 11.0436 67.2676 12.214C66.0508 14.2932 65.9711 16.0836 66.018 18.4474C66.0183 18.8379 66.0177 19.2284 66.0162 19.6189C66.0148 20.6332 66.0253 21.6469 66.0386 22.6611C66.0501 23.7014 66.0498 24.7416 66.0507 25.782C66.0539 27.8132 66.0695 29.8441 66.0943 31.8751C66.2426 31.8986 66.3909 31.922 66.5438 31.9462C66.9534 32.0177 67.2422 32.0958 67.6098 32.2761C67.7108 32.3256 67.8118 32.375 67.9159 32.426C68.0728 32.5062 68.0728 32.5062 68.233 32.588C68.3426 32.6436 68.4523 32.6992 68.5653 32.7564C69.532 33.2589 70.4014 33.8481 71.2505 34.5314C71.3587 34.6139 71.4669 34.6965 71.5783 34.7816C74.2847 36.9661 75.7843 40.4672 76.2017 43.8441C76.3344 45.2868 76.2124 46.6279 76.0095 48.0598C75.8087 49.5615 76.0141 50.5764 76.9048 51.8067C79.0986 54.8399 80.0984 58.3537 80.0689 62.0802C80.0682 62.2379 80.0682 62.2379 80.0675 62.3988C80.056 64.1157 79.9099 65.7088 79.3755 67.3439C79.3253 67.5033 79.3253 67.5033 79.2741 67.6659C77.7587 72.3719 74.381 76.0909 70.0103 78.34C65.8061 80.412 60.6408 80.662 56.2275 79.1708C52.2964 77.7749 48.8916 75.141 46.7193 71.5626C46.6658 71.4747 46.6123 71.3869 46.5573 71.2963C45.5763 69.6556 44.9608 67.9075 44.3755 66.0939C44.2601 66.1561 44.1447 66.2183 44.0258 66.2825C43.8673 66.3652 43.7088 66.448 43.5455 66.5333C43.3914 66.6149 43.2373 66.6965 43.0786 66.7805C41.7796 67.3861 40.456 67.5878 39.0338 67.5782C38.8779 67.5773 38.7221 67.5764 38.5615 67.5755C35.8763 67.5114 33.7403 66.4549 31.7846 64.6205C29.8518 62.5659 28.8342 60.0285 28.9105 57.1956C29.0413 54.5535 30.0602 52.1598 31.8957 50.2461C34.284 48.1048 36.9741 47.35 40.1228 47.4784C42.4871 47.6267 44.808 48.9226 46.4068 50.6251C46.6767 50.9315 46.9329 51.2437 47.188 51.5626C47.2912 51.6142 47.3943 51.6657 47.5005 51.7189C47.5424 51.6125 47.5843 51.5062 47.6275 51.3966C47.7624 51.0629 47.9108 50.7346 48.067 50.4103C48.41 49.5058 48.2879 48.773 48.1255 47.8419C47.713 45.2536 48.012 42.8139 48.7505 40.3126C46.476 39.1931 44.231 38.3885 41.7193 37.9689C41.5984 37.9481 41.4776 37.9274 41.3531 37.906C36.4264 37.2144 31.2282 38.7321 27.2845 41.7042C26.5986 42.2529 25.9514 42.8347 25.3131 43.4376C25.1862 43.5526 25.0593 43.6676 24.9285 43.7861C21.5948 46.9253 19.4972 51.7261 19.3316 56.2843C19.2116 61.9414 20.9181 67.0417 24.8075 71.2093C28.4192 74.9573 33.3834 77.1117 38.5789 77.2318C40.9108 77.256 43.0848 76.9438 45.2953 76.1988C45.9573 76.056 46.5763 76.086 47.1783 76.4161C47.4463 76.9048 47.4743 77.4356 47.3443 77.9689C46.8723 78.603 46.283 78.7916 45.5474 78.9942C45.4308 79.0269 45.3142 79.0596 45.1941 79.0932C39.3857 80.6492 33.2333 79.9425 27.9693 77.0314C26.3539 76.0865 24.8892 74.9262 23.4381 73.7501C23.3956 73.8622 23.3532 73.9744 23.3094 74.0899C22.9895 74.858 22.5594 75.5666 22.149 76.2892C22.0614 76.4453 21.9738 76.6014 21.8835 76.7622C20.4126 79.3608 20.4126 79.3608 19.6881 79.8439C19.2388 79.9122 19.2388 79.9122 18.7506 79.8439C18.3013 79.5118 18.3013 79.5118 17.9693 79.0626C17.8827 78.3012 18.0525 77.8674 18.4381 77.2163C18.5376 77.0462 18.6371 76.8762 18.7396 76.7009C18.8474 76.5213 18.9552 76.3418 19.0631 76.1622C19.1711 75.9787 19.2789 75.795 19.3865 75.6113C19.8307 74.8559 20.2815 74.1051 20.7525 73.3662C20.8119 73.2728 20.8713 73.1793 20.9326 73.083C21.0817 72.8517 21.2343 72.6227 21.3873 72.3939C21.5989 71.9575 21.5614 71.8533 21.4068 71.4064C21.2408 71.1176 21.2408 71.1176 21.0308 70.8345C20.9539 70.7249 20.877 70.6154 20.7977 70.5025C20.7151 70.3851 20.6325 70.2676 20.5474 70.1466C18.9343 67.7791 17.8694 65.2799 17.1881 62.5001C17.1603 62.3869 17.1325 62.2737 17.1038 62.1571C15.8229 56.6471 17.0026 50.5817 19.9035 45.7765C20.5412 44.7649 21.2614 43.8239 22.0318 42.9103C22.1021 42.8267 22.1723 42.7432 22.2447 42.6571C22.5934 42.2573 22.927 41.9067 23.3541 41.5875C24.2008 40.9358 24.2008 40.9358 24.6755 40.0056C24.7269 39.4706 24.7321 38.9547 24.7186 38.4175C24.7198 38.2252 24.7211 38.033 24.7224 37.835C24.7247 37.225 24.7163 36.6158 24.7076 36.006C24.7064 35.5908 24.7077 35.1757 24.7088 34.7605C24.71 33.7465 24.7024 32.7328 24.6881 31.7189C24.592 31.7219 24.4959 31.725 24.3969 31.7281C24.2075 31.7317 24.2075 31.7317 24.0142 31.7353C23.8891 31.7384 23.7641 31.7415 23.6352 31.7446C23.0938 31.7052 22.849 31.4967 22.5006 31.0939C22.272 30.551 22.3267 30.3562 22.5494 29.8048C22.8131 29.3751 22.8131 29.3751 23.1256 29.2189C23.5276 29.2026 23.9254 29.1958 24.3275 29.1959C24.453 29.1953 24.5785 29.1947 24.7079 29.1941C25.1308 29.1924 25.5538 29.1918 25.9767 29.1912C26.279 29.1902 26.5813 29.1892 26.8836 29.1881C27.7065 29.1854 28.5294 29.1837 29.3523 29.1824C29.866 29.1816 30.3797 29.1807 30.8933 29.1797C32.4993 29.1767 34.1053 29.1745 35.7113 29.1732C37.5675 29.1717 39.4236 29.1676 41.2798 29.1612C42.713 29.1565 44.1463 29.1542 45.5795 29.1537C46.4363 29.1533 47.293 29.1519 48.1497 29.148C48.9554 29.1444 49.761 29.1437 50.5667 29.1453C50.8627 29.1454 51.1588 29.1444 51.4548 29.1423C51.8583 29.1395 52.2616 29.1406 52.6652 29.1427C52.7829 29.1409 52.9006 29.1392 53.0219 29.1375C53.567 29.1442 53.8544 29.1783 54.2914 29.5166C54.6231 29.9681 54.6331 30.251 54.5995 30.796C54.5318 31.0939 54.5318 31.0939 54.2388 31.4845C53.7505 31.7189 53.7505 31.7189 52.188 31.7189C52.2396 32.8017 52.2912 33.8845 52.3443 35.0001C52.6311 34.7681 52.9179 34.536 53.2134 34.297C53.9685 33.7064 54.7431 33.1906 55.5865 32.7345C55.6784 32.6836 55.7704 32.6328 55.8652 32.5804C56.3875 32.3079 56.8811 32.1376 57.4586 32.0158C57.5839 31.989 57.7092 31.9623 57.8383 31.9347C57.9331 31.915 58.0279 31.8954 58.1255 31.8751C58.1528 29.6351 58.1679 27.3952 58.1697 25.155C58.1707 24.1144 58.1757 23.0741 58.1893 22.0335C58.2024 21.0264 58.2052 20.0196 58.2014 19.0124C58.2017 18.6312 58.2055 18.2499 58.213 17.8687C58.2575 15.4787 57.9532 13.8819 56.6685 11.8458C55.9222 10.6612 55.6463 9.84815 55.7232 8.42723C55.725 8.2438 55.7267 8.06036 55.7285 7.87136C55.7366 7.30095 55.7591 6.73221 55.7818 6.16222C55.788 5.77252 55.7933 5.38281 55.7977 4.99309C55.8593 1.68736 55.8593 1.68736 56.6754 0.802723C56.7672 0.727998 56.859 0.653273 56.9537 0.576283C57.0455 0.499543 57.1374 0.422804 57.232 0.343739C57.7305 -0.00406919 58.177 -0.0212075 58.7654 -0.0275455ZM58.438 2.65636C58.4155 2.86659 58.4033 3.07796 58.3955 3.28926C58.3905 3.42407 58.3855 3.55888 58.3803 3.69777C58.3628 4.32663 58.35 4.95546 58.3404 5.58448C58.334 5.91288 58.3245 6.24123 58.3116 6.56944C58.2144 9.09027 58.5988 10.5366 60.0005 12.6564C61.3927 12.6564 62.7849 12.6564 64.2193 12.6564C65.735 10.3643 65.9954 8.79058 65.8892 6.0841C65.8827 5.75198 65.8769 5.41984 65.8718 5.0877C65.8602 4.48803 65.8467 3.88863 65.8243 3.28926C65.8178 3.11097 65.8178 3.11097 65.8111 2.92909C65.8102 2.65207 65.8102 2.65207 65.6255 2.50011C65.4057 2.48479 65.1852 2.48011 64.9648 2.47989C64.8246 2.4794 64.6843 2.47891 64.5398 2.4784C64.3873 2.47872 64.2348 2.47903 64.0777 2.47936C63.9222 2.47921 63.7668 2.47906 63.6066 2.47891C63.2771 2.4788 62.9477 2.47909 62.6183 2.47974C62.1121 2.48058 61.606 2.47975 61.0998 2.47875C60.7806 2.47885 60.4614 2.47905 60.1422 2.47936C59.9134 2.47888 59.9134 2.47888 59.68 2.4784C59.4696 2.47914 59.4696 2.47914 59.255 2.47989C59.0689 2.48008 59.0689 2.48008 58.879 2.48027C58.5912 2.46904 58.5912 2.46904 58.438 2.65636ZM60.6255 15.1564C60.6255 16.6001 60.6255 18.0439 60.6255 19.5314C61.6052 19.5314 62.5849 19.5314 63.5943 19.5314C63.5943 18.0876 63.5943 16.6439 63.5943 15.1564C62.6146 15.1564 61.6349 15.1564 60.6255 15.1564ZM60.6255 22.0314C60.6255 23.1657 60.6255 24.3001 60.6255 25.4689C61.6052 25.4689 62.5849 25.4689 63.5943 25.4689C63.5943 24.3345 63.5943 23.2001 63.5943 22.0314C62.6146 22.0314 61.6349 22.0314 60.6255 22.0314ZM60.6255 27.9689C60.6255 29.1032 60.6255 30.2376 60.6255 31.4064C61.6052 31.4064 62.5849 31.4064 63.5943 31.4064C63.5943 30.272 63.5943 29.1376 63.5943 27.9689C62.6146 27.9689 61.6349 27.9689 60.6255 27.9689ZM27.1881 31.7189C27.1881 33.9876 27.1881 36.2564 27.1881 38.5939C27.9615 38.1814 28.7349 37.7689 29.5318 37.3439C30.0475 37.1251 30.5499 36.9177 31.0748 36.7286C31.8445 36.5004 31.8445 36.5004 32.5006 36.0939C32.5142 35.77 32.5173 35.4457 32.5158 35.1216C32.5154 34.9443 32.515 34.7671 32.5146 34.5844C32.5132 34.3574 32.5118 34.1305 32.5103 33.8966C32.5071 33.1779 32.5039 32.4593 32.5006 31.7189C30.7474 31.7189 28.9943 31.7189 27.1881 31.7189ZM35.0006 31.7189C35.0006 32.9564 35.0006 34.1939 35.0006 35.4689C35.384 35.4431 35.7675 35.4173 36.1627 35.3907C38.0145 35.2778 39.8646 35.3024 41.7193 35.3126C41.7193 34.1267 41.7193 32.9407 41.7193 31.7189C39.5021 31.7189 37.2849 31.7189 35.0006 31.7189ZM44.2193 31.7189C44.2193 33.0595 44.2193 34.4001 44.2193 35.7814C45.3312 36.1588 45.3312 36.1588 46.444 36.5337C47.3595 36.8483 48.2157 37.2089 49.0698 37.6654C49.3659 37.8352 49.3659 37.8352 49.688 37.8126C49.688 35.8017 49.688 33.7907 49.688 31.7189C47.8834 31.7189 46.0787 31.7189 44.2193 31.7189ZM60.6255 33.9064C60.6255 35.0407 60.6255 36.1751 60.6255 37.3439C61.6052 37.3439 62.5849 37.3439 63.5943 37.3439C63.5943 36.2095 63.5943 35.0751 63.5943 33.9064C62.6146 33.9064 61.6349 33.9064 60.6255 33.9064ZM53.8227 37.1136C51.6474 39.3064 50.4565 42.2698 50.44 45.3419C50.4445 46.255 50.5446 47.1003 50.7098 47.9957C51.0608 50.1494 50.4034 51.7343 49.197 53.4736C46.7939 56.971 46.1584 61.0981 46.8908 65.2278C47.6015 68.9463 49.8717 72.3833 52.9107 74.629C56.6331 77.0753 60.8786 78.2142 65.3371 77.332C68.2843 76.6272 70.9859 75.1085 73.1255 72.9689C73.2458 72.8486 73.366 72.7284 73.4899 72.6045C76.5433 69.3847 77.5919 65.3994 77.5433 61.0835C77.4598 58.0393 76.3612 55.4337 74.6599 52.9447C73.3955 51.0894 73.2559 49.369 73.5943 47.1681C74.1077 43.7848 73.135 40.7165 71.1651 37.9408C69.9422 36.4333 68.1931 35.2577 66.4068 34.5314C66.3037 34.5314 66.2006 34.5314 66.0943 34.5314C66.058 36.4804 66.0303 38.4294 66.0133 40.3788C66.0052 41.2841 65.9942 42.1891 65.9764 43.0943C65.9594 43.9686 65.9501 44.8427 65.9461 45.7172C65.9432 46.05 65.9376 46.3828 65.9291 46.7155C65.8016 48.557 65.8016 48.557 66.4333 50.2164C66.8346 50.6292 66.8346 50.6292 67.267 50.9387C68.2449 51.7199 68.6824 53.1135 68.8683 54.3196C69.0851 56.3944 68.5614 58.3756 67.235 60.016C66.514 60.7776 65.7348 61.423 64.649 61.4845C64.063 61.4064 64.063 61.4064 63.7408 61.1622C63.5103 60.5629 63.5357 60.3014 63.7505 59.6876C64.1185 59.3513 64.5092 59.0627 64.9096 58.766C65.7374 58.0923 66.3304 57.175 66.5344 56.1195C66.6532 54.7184 66.391 53.5794 65.5175 52.48C64.6752 51.556 63.7863 51.0498 62.5427 50.879C61.2938 50.8227 60.1734 51.1594 59.1705 51.9142C58.211 52.8959 57.6736 53.9751 57.5982 55.3614C57.636 56.6677 58.215 57.7048 59.0923 58.6427C59.4726 58.9967 59.8719 59.2583 60.313 59.5314C60.5513 60.0079 60.5061 60.413 60.4693 60.9376C60.3033 61.2403 60.3033 61.2403 60.0005 61.4064C59.2725 61.5374 58.8248 61.4056 58.2134 61.0255C56.7179 59.9325 55.8205 58.6057 55.3735 56.8006C55.0669 54.7999 55.4351 52.9294 56.563 51.2501C57.3226 50.2438 57.3226 50.2438 57.8235 49.9975C58.2431 49.567 58.1994 49.2525 58.2033 48.6675C58.2011 48.5274 58.1988 48.3874 58.1965 48.2431C58.1966 48.0952 58.1967 47.9473 58.1968 47.7949C58.1963 47.3054 58.1915 46.8159 58.1866 46.3264C58.1854 45.9873 58.1845 45.6481 58.1839 45.309C58.1815 44.4158 58.1754 43.5227 58.1685 42.6296C58.1621 41.7184 58.1592 40.8072 58.1561 39.896C58.1494 38.1078 58.1387 36.3196 58.1255 34.5314C56.5865 34.5314 54.8882 36.0993 53.8227 37.1136ZM60.6255 39.8439C60.6255 40.9782 60.6255 42.1126 60.6255 43.2814C61.6052 43.2814 62.5849 43.2814 63.5943 43.2814C63.5943 42.147 63.5943 41.0126 63.5943 39.8439C62.6146 39.8439 61.6349 39.8439 60.6255 39.8439ZM60.6255 45.7814C60.6255 46.7095 60.6255 47.6376 60.6255 48.5939C61.6052 48.5939 62.5849 48.5939 63.5943 48.5939C63.5943 47.6657 63.5943 46.7376 63.5943 45.7814C62.6146 45.7814 61.6349 45.7814 60.6255 45.7814ZM34.3756 51.5626C34.2797 51.6313 34.1838 51.7 34.085 51.7707C32.6571 52.8669 31.7955 54.6524 31.48 56.3966C31.2254 58.619 31.8346 60.5307 33.1426 62.328C34.4512 63.8732 36.25 64.8535 38.2623 65.1368C40.1265 65.2548 42.0361 64.7622 43.5595 63.672C44.0223 63.2588 44.1459 62.96 44.2162 62.3463C44.2314 62.0462 44.242 61.7458 44.2486 61.4454C44.2663 61.1227 44.2854 60.8 44.306 60.4774C44.316 60.3176 44.326 60.1579 44.3363 59.9932C44.4803 58.2977 44.9506 56.6712 45.6481 55.1246C45.8105 54.5938 45.7732 54.2822 45.6255 53.7501C45.3685 53.2886 45.0301 52.9015 44.688 52.5001C44.6127 52.4062 44.5374 52.3124 44.4598 52.2157C43.3256 50.9318 41.4143 50.0994 39.7308 49.9476C37.696 49.9272 36.0135 50.2826 34.3756 51.5626Z" fill="url(#paint0_linear_142_142)"/>
<path d="M5.58623 11.5845C5.7204 11.6211 5.85457 11.6577 5.9928 11.6954C6.44366 11.8189 6.89384 11.9446 7.34404 12.0704C7.66668 12.1593 7.98936 12.2481 8.31206 12.3368C9.03541 12.536 9.75842 12.7363 10.4813 12.9374C11.4877 13.2173 12.4945 13.4956 13.5016 13.7734C14.7616 14.121 16.0214 14.4693 17.2811 14.818C17.6539 14.9212 18.0268 15.0243 18.3996 15.1274C18.9965 15.2925 19.5933 15.4581 20.19 15.624C20.4098 15.6851 20.6297 15.746 20.8496 15.8068C22.0138 16.1287 23.1746 16.4611 24.3301 16.8125C24.4865 16.8589 24.4865 16.8589 24.6461 16.9062C25.7357 17.2428 26.3699 17.7309 26.9339 18.711C27.3551 19.6684 27.4684 20.6475 27.1878 21.6602C26.7824 22.692 26.1004 23.4837 25.1077 23.9844C23.6381 24.5192 22.2663 24.1278 20.8145 23.7061C20.6294 23.6541 20.4444 23.6021 20.2537 23.5485C19.6674 23.3832 19.0819 23.2151 18.4964 23.0469C18.0971 22.9336 17.6977 22.8209 17.2983 22.7082C16.3233 22.4326 15.3491 22.1547 14.3753 21.8751C14.3794 22.0556 14.3835 22.2361 14.3877 22.422C14.4019 23.0932 14.4108 23.7644 14.4182 24.4357C14.4221 24.7259 14.4275 25.0161 14.4342 25.3063C14.4437 25.7241 14.4481 26.1417 14.4516 26.5595C14.4556 26.6888 14.4597 26.818 14.4638 26.9512C14.4641 27.6275 14.4374 27.8887 14.0092 28.4414C13.594 28.7501 13.594 28.7501 13.1253 28.8477C12.4738 28.712 12.2771 28.4992 11.8753 27.9688C11.7685 27.4407 11.7842 26.9255 11.799 26.3886C11.8001 26.2371 11.8012 26.0856 11.8023 25.9295C11.8067 25.4471 11.8165 24.9649 11.8265 24.4825C11.8304 24.1548 11.8339 23.8272 11.8371 23.4995C11.8457 22.6975 11.8592 21.8957 11.8753 21.0938C11.7235 21.0596 11.5718 21.0253 11.4154 20.99C9.66961 20.5906 7.9419 20.1354 6.21676 19.6549C5.76778 19.5302 5.31829 19.4075 4.86876 19.2847C4.57871 19.2043 4.28869 19.1237 3.99871 19.043C3.86653 19.0072 3.73435 18.9714 3.59816 18.9345C2.56052 18.642 1.41946 18.3033 0.722949 17.4317C0.650842 17.3449 0.578736 17.2581 0.504444 17.1686C-0.156654 16.1559 -0.104445 15.077 0.00029321 13.9063C0.25705 12.93 0.886384 12.2632 1.71904 11.7188C3.00907 11.0337 4.23171 11.201 5.58623 11.5845ZM2.85186 13.9942C2.45139 14.3576 2.45139 14.3576 2.4124 14.9219C2.51784 15.578 2.60547 15.6934 3.12529 16.0938C3.60233 16.2927 4.09523 16.4218 4.5938 16.5558C4.75377 16.6007 4.91373 16.6455 5.07855 16.6917C5.5627 16.827 6.04737 16.9602 6.53218 17.0931C7.17712 17.2707 7.82119 17.4513 8.46541 17.6315C10.151 18.1024 11.8375 18.57 13.5241 19.037C14.7928 19.3884 16.0614 19.7402 17.33 20.092C17.7673 20.2133 18.2047 20.3344 18.6421 20.4555C18.847 20.5123 18.847 20.5123 19.056 20.5703C19.3202 20.6434 19.5844 20.7164 19.8488 20.789C20.429 20.9491 21.0069 21.113 21.5814 21.2926C21.7725 21.3514 21.9636 21.4103 22.1606 21.4709C22.3224 21.5228 22.4842 21.5747 22.651 21.6282C23.3048 21.7531 23.9453 21.745 24.512 21.3672C24.7479 21.0003 24.8232 20.7502 24.844 20.3126C24.6205 19.8113 24.4679 19.5783 23.9737 19.3274C23.8019 19.275 23.6301 19.2227 23.4531 19.1688C23.3528 19.1377 23.2525 19.1067 23.1493 19.0747C22.7778 18.9621 22.405 18.8556 22.0315 18.7501C21.8788 18.7067 21.7261 18.6634 21.5688 18.6187C20.3425 18.2728 19.1133 17.9381 17.8835 17.6049C17.024 17.3719 16.1649 17.1375 15.3058 16.9032C15.0859 16.8432 14.866 16.7833 14.6461 16.7234C13.0468 16.2878 11.4493 15.8459 9.8532 15.3986C9.65763 15.3439 9.46207 15.2892 9.26057 15.2328C8.50916 15.0224 7.75777 14.8121 7.00682 14.6001C6.49564 14.4558 5.9842 14.3125 5.47271 14.1694C5.24683 14.1051 5.24683 14.1051 5.01639 14.0396C4.87842 14.0011 4.74045 13.9627 4.5983 13.9231C4.47902 13.8894 4.35973 13.8558 4.23683 13.8212C3.67698 13.7006 3.35085 13.7107 2.85186 13.9942Z" fill="url(#paint1_linear_142_142)"/>
<path d="M13.1252 31.6211C13.7871 31.759 13.9732 31.9528 14.3752 32.5C14.493 33.1159 14.4799 33.7251 14.4734 34.3505C14.4751 34.6349 14.4751 34.6349 14.4768 34.9251C14.479 35.451 14.4778 35.9767 14.4751 36.5025C14.473 37.0698 14.4754 37.6371 14.4772 38.2044C14.4801 39.3155 14.4788 40.4266 14.476 41.5377C14.4738 42.4406 14.4732 43.3436 14.4737 44.2465C14.4738 44.375 14.4739 44.5034 14.4739 44.6358C14.4741 44.8968 14.4743 45.1577 14.4744 45.4187C14.4758 47.7268 14.4732 50.0348 14.4685 52.3429C14.464 54.5831 14.4629 56.8232 14.4653 59.0633C14.4679 61.5021 14.4686 63.9409 14.4658 66.3797C14.4655 66.6397 14.4652 66.8997 14.465 67.1597C14.4648 67.2877 14.4647 67.4156 14.4645 67.5474C14.4637 68.4494 14.4642 69.3513 14.4652 70.2533C14.4664 71.3523 14.4654 72.4513 14.4614 73.5504C14.4595 74.1112 14.4585 74.6721 14.4603 75.2329C14.4621 75.8406 14.4591 76.4482 14.4557 77.0558C14.4576 77.3224 14.4576 77.3224 14.4596 77.5945C14.4469 78.786 14.4469 78.786 14.0772 79.406C13.726 79.7083 13.5829 79.7941 13.1252 79.7852C13.0221 79.7872 12.919 79.7892 12.8127 79.7913C12.2925 79.6185 12.1568 79.3784 11.8752 78.9062C11.7801 78.2902 11.7903 77.6781 11.7948 77.0558C11.7937 76.8662 11.7927 76.6766 11.7915 76.4812C11.7892 75.9553 11.7896 75.4296 11.7912 74.9037C11.7923 74.3364 11.7898 73.7691 11.7878 73.2019C11.7844 72.0908 11.7845 70.9797 11.7857 69.8685C11.7867 68.9656 11.7865 68.0627 11.7855 67.1597C11.7854 67.0313 11.7852 66.9028 11.7851 66.7704C11.7848 66.5095 11.7845 66.2485 11.7842 65.9876C11.7816 63.5399 11.783 61.0924 11.7856 58.6447C11.7879 56.4048 11.7856 54.1648 11.7811 51.9248C11.7765 49.6254 11.7748 47.326 11.7763 45.0265C11.7765 44.7665 11.7766 44.5065 11.7768 44.2465C11.7769 44.1186 11.7769 43.9907 11.777 43.8589C11.7773 42.9569 11.7758 42.0549 11.7735 41.153C11.7708 40.0539 11.7708 38.9549 11.7744 37.8559C11.7761 37.295 11.7766 36.7342 11.7737 36.1733C11.7706 35.5657 11.7735 34.9581 11.7771 34.3505C11.7752 34.1727 11.7734 33.9949 11.7715 33.8118C11.7857 32.6219 11.7857 32.6219 12.2427 31.9998C12.6565 31.7188 12.6565 31.7188 13.1252 31.6211Z" fill="url(#paint2_linear_142_142)"/>
<path d="M57.5168 67.404C57.6256 67.4031 57.7344 67.4022 57.8466 67.4014C58.2047 67.3995 58.5625 67.4033 58.9205 67.4073C59.1701 67.4076 59.4198 67.4076 59.6694 67.4073C60.1918 67.4076 60.714 67.4105 61.2364 67.4154C61.9056 67.4216 62.5747 67.4223 63.244 67.4211C63.7591 67.4207 64.2742 67.4226 64.7893 67.4252C65.0361 67.4263 65.2829 67.4268 65.5296 67.4267C65.8745 67.427 66.2192 67.4303 66.564 67.4345C66.7601 67.4358 66.9562 67.4371 67.1583 67.4385C67.6911 67.5046 67.9108 67.5851 68.2803 67.9689C68.4527 68.5897 68.5014 68.9204 68.2314 69.5118C67.9678 69.8439 67.9678 69.8439 67.6553 70.0001C67.3037 70.0185 66.9515 70.0267 66.5995 70.0303C66.491 70.0315 66.3824 70.0328 66.2706 70.0341C65.9109 70.038 65.5511 70.0406 65.1913 70.0428C65.0684 70.0437 64.9456 70.0445 64.819 70.0454C64.1687 70.0495 63.5184 70.0526 62.8681 70.0548C62.1966 70.0574 61.5252 70.0644 60.8537 70.0724C60.3372 70.0776 59.8208 70.0794 59.3043 70.0803C59.0568 70.0814 58.8093 70.0838 58.5618 70.0875C58.215 70.0924 57.8685 70.0924 57.5217 70.0913C57.3245 70.0925 57.1274 70.0938 56.9242 70.0951C56.2643 69.9743 56.0344 69.7388 55.624 69.2189C55.5264 68.7501 55.5264 68.7501 55.624 68.2814C56.209 67.5414 56.5848 67.4025 57.5168 67.404Z" fill="url(#paint3_linear_142_142)"/>
</g>
<defs>
<linearGradient id="paint0_linear_142_142" x1="16.5898" y1="-0.074707" x2="84.3689" y2="3.74042" gradientUnits="userSpaceOnUse">
<stop stop-color="#C42091"/>
<stop offset="1" stop-color="#6617CA"/>
</linearGradient>
<linearGradient id="paint1_linear_142_142" x1="-0.0625" y1="11.2509" x2="28.935" y2="14.4622" gradientUnits="userSpaceOnUse">
<stop stop-color="#C42091"/>
<stop offset="1" stop-color="#6617CA"/>
</linearGradient>
<linearGradient id="paint2_linear_142_142" x1="11.7715" y1="31.6211" x2="14.6713" y2="31.6327" gradientUnits="userSpaceOnUse">
<stop stop-color="#C42091"/>
<stop offset="1" stop-color="#6617CA"/>
</linearGradient>
<linearGradient id="paint3_linear_142_142" x1="55.5508" y1="67.4009" x2="67.9106" y2="71.5997" gradientUnits="userSpaceOnUse">
<stop stop-color="#C42091"/>
<stop offset="1" stop-color="#6617CA"/>
</linearGradient>
<clipPath id="clip0_142_142">
<rect width="80" height="80" fill="white"/>
</clipPath>
</defs>
</svg>
