<svg width="80" height="80" viewBox="0 0 80 80" fill="none" xmlns="http://www.w3.org/2000/svg">
<g clip-path="url(#clip0_142_120)">
<path d="M40.5578 8.33387C44.4373 11.7066 47.0797 15.9458 48.4185 20.9083C48.4484 21.0181 48.4782 21.1279 48.509 21.2411C48.9906 23.156 49.1205 25.1024 49.1119 27.0704C49.1115 27.1754 49.1112 27.2805 49.1108 27.3888C49.0787 33.6708 46.6625 39.5079 42.3443 44.0625C42.1349 44.287 42.1349 44.287 41.9213 44.516C38.3447 48.2752 33.6282 50.4057 28.5943 51.4063C28.5934 51.4975 28.5924 51.5887 28.5915 51.6826C28.5815 52.6358 28.5683 53.5889 28.5533 54.542C28.5481 54.8972 28.5437 55.2524 28.5401 55.6077C28.5349 56.1197 28.5267 56.6316 28.518 57.1436C28.517 57.3012 28.516 57.4588 28.515 57.6212C28.487 58.9778 28.2085 60.0019 27.2747 61.0193C26.8787 61.3955 26.4984 61.7188 25.938 61.7188C25.7809 62.8674 25.6857 64.0529 26.0943 65.1563C26.8704 66.1299 27.9498 66.7907 29.0058 67.4281C29.3755 67.6563 29.3755 67.6563 29.6423 67.901C30.141 68.2129 30.5157 68.1852 31.1019 68.1874C31.2128 68.1884 31.3237 68.1894 31.438 68.1905C31.8097 68.1934 32.1812 68.193 32.5529 68.1926C32.8193 68.194 33.0857 68.1956 33.3521 68.1974C34.0755 68.2018 34.7989 68.2032 35.5223 68.2041C36.2782 68.2056 37.0342 68.2097 37.7901 68.2135C39.2217 68.2203 40.6532 68.2248 42.0848 68.2284C43.7145 68.2326 45.3443 68.2395 46.974 68.2466C50.3266 68.2611 53.6792 68.2723 57.0318 68.2813C57.077 68.1339 57.1223 67.9865 57.169 67.8347C57.366 67.2829 57.5691 67.0592 58.0083 66.6797C58.1252 66.5758 58.242 66.4719 58.3623 66.3648C59.5102 65.5635 60.4311 65.7813 61.8755 65.7813C61.8755 63.2547 61.8755 60.7282 61.8755 58.125C61.0505 58.125 60.2255 58.125 59.3755 58.125C59.3884 58.4215 59.4013 58.718 59.4146 59.0235C59.4528 59.9017 59.4528 59.9017 59.0893 60.3644C58.6506 60.7019 58.3652 60.77 57.813 60.7813C57.2616 60.5307 57.0587 60.3529 56.7193 59.8438C56.6848 59.3753 56.668 58.9216 56.6668 58.4528C56.6657 58.3162 56.6647 58.1797 56.6636 58.0389C56.6621 57.7501 56.6613 57.4613 56.6614 57.1725C56.6607 56.7307 56.655 56.2892 56.6491 55.8475C56.6482 55.5669 56.6475 55.2862 56.6473 55.0055C56.6439 54.8075 56.6439 54.8075 56.6404 54.6055C56.6476 53.6929 56.6476 53.6929 57.0027 53.2022C57.487 52.8713 57.8549 52.8228 58.438 52.8125C58.8986 53.0228 59.1478 53.1384 59.3755 53.5938C59.3972 54.2193 59.3822 54.8428 59.3755 55.4688C60.2005 55.4688 61.0255 55.4688 61.8755 55.4688C61.8626 55.1369 61.8497 54.8049 61.8365 54.4629C61.8426 53.2394 61.9837 52.413 62.8442 51.5174C63.7216 50.7176 63.7216 50.7176 64.2193 50.4688C64.2776 49.7922 64.3228 49.1153 64.3658 48.4375C64.3824 48.2468 64.399 48.0561 64.4161 47.8595C64.4944 46.8128 64.4944 46.8128 64.1376 45.8564C63.8489 45.5267 63.8489 45.5267 63.5366 45.2576C63.1229 44.8395 63.1316 44.4385 63.0767 43.8672C63.1537 42.9427 63.4794 42.2892 64.1509 41.6504C64.9533 41.1361 65.7942 41.1546 66.7193 41.25C67.4148 41.5915 67.8425 42.0218 68.2818 42.6563C68.5455 43.4475 68.6139 44.2846 68.2745 45.0623C67.7729 45.8795 67.7729 45.8795 67.3443 46.0938C67.3033 46.8033 67.2784 47.5124 67.2564 48.2227C67.2446 48.4235 67.2328 48.6243 67.2207 48.8312C67.1588 49.9012 67.1588 49.9012 67.6471 50.7954C68.0148 51.0425 68.0148 51.0425 68.4002 51.2163C69.1139 51.6034 69.4401 52.3813 69.688 53.125C69.7018 53.3353 69.7071 53.5461 69.7068 53.7568C69.7071 53.9491 69.7071 53.9491 69.7075 54.1452C69.7069 54.2852 69.7063 54.4253 69.7058 54.5696C69.7058 54.7175 69.7058 54.8654 69.7058 55.0177C69.7057 55.5072 69.7045 55.9967 69.7033 56.4863C69.703 56.8254 69.7028 57.1645 69.7026 57.5037C69.702 58.3968 69.7005 59.29 69.6988 60.1831C69.6972 61.0943 69.6964 62.0054 69.6957 62.9166C69.694 64.7048 69.6913 66.4931 69.688 68.2813C70.513 68.2813 71.338 68.2813 72.188 68.2813C72.1719 68.0138 72.1558 67.7463 72.1392 67.4708C72.1416 66.8398 72.157 66.6119 72.5005 66.0645C73.1517 65.6711 73.4653 65.6736 74.2193 65.7813C74.5647 66.0071 74.5647 66.0071 74.8443 66.4063C74.9387 66.8976 74.9356 67.3818 74.9328 67.8809C74.9337 68.0242 74.9347 68.1675 74.9357 68.3151C74.9368 68.6177 74.9363 68.9203 74.9343 69.2229C74.9322 69.686 74.9375 70.1486 74.9435 70.6116C74.9436 70.9058 74.9433 71.2 74.9425 71.4942C74.9446 71.6326 74.9467 71.7709 74.9488 71.9135C74.9343 72.8697 74.9343 72.8697 74.4817 73.368C73.9244 73.6686 73.5938 73.6942 72.9693 73.5938C72.5103 73.3106 72.5103 73.3106 72.188 72.8126C72.1235 72.2233 72.1521 71.6899 72.188 71.0938C71.363 71.0938 70.538 71.0938 69.688 71.0938C69.6921 71.3035 69.6962 71.5133 69.7004 71.7293C69.7146 72.5074 69.7235 73.2854 69.7309 74.0635C69.7349 74.4003 69.7402 74.7371 69.747 75.0738C69.7564 75.5579 69.7609 76.0418 69.7643 76.5259C69.7684 76.6765 69.7724 76.8271 69.7765 76.9822C69.777 78.0071 69.777 78.0071 69.3811 78.532C68.7368 78.8282 68.1928 78.8427 67.4908 78.8386C67.355 78.8395 67.2192 78.8405 67.0793 78.8415C66.7931 78.8426 66.5068 78.8421 66.2205 78.8401C65.7831 78.8379 65.3463 78.8433 64.909 78.8492C64.6302 78.8494 64.3515 78.8491 64.0728 78.8483C63.9426 78.8504 63.8123 78.8525 63.6782 78.8546C63.0266 78.8442 62.7299 78.8012 62.1824 78.4179C61.8111 77.8745 61.7843 77.5888 61.7992 76.9355C61.803 76.6432 61.803 76.6432 61.8069 76.345C61.8134 76.1428 61.82 75.9407 61.8267 75.7325C61.8302 75.5273 61.8337 75.3222 61.8374 75.1108C61.8466 74.605 61.8594 74.0995 61.8755 73.5938C61.7276 73.5975 61.5796 73.6013 61.4272 73.6051C61.1343 73.6095 61.1343 73.6095 60.8355 73.6139C60.6424 73.6177 60.4494 73.6214 60.2505 73.6253C59.139 73.5631 58.3094 73.0682 57.5689 72.2559C57.2577 71.8742 57.1411 71.5704 57.0318 71.0938C56.8903 71.0944 56.7487 71.095 56.6029 71.0955C53.1588 71.1094 49.7148 71.1197 46.2707 71.1262C44.6051 71.1294 42.9396 71.1338 41.2741 71.141C39.8223 71.1472 38.3706 71.1512 36.9189 71.1526C36.1502 71.1534 35.3816 71.1553 34.613 71.1599C33.8893 71.1641 33.1656 71.1654 32.4419 71.1645C32.1765 71.1647 31.9112 71.1659 31.6458 71.1683C31.2828 71.1714 30.92 71.1707 30.557 71.169C30.2526 71.1698 30.2526 71.1698 29.942 71.1707C29.0154 71.0449 28.3453 70.5496 27.6202 69.9732C27.5055 69.8828 27.3908 69.7924 27.2726 69.6993C27.1545 69.6052 27.0363 69.5111 26.9146 69.4141C25.9816 68.6784 25.0443 67.9588 24.0734 67.2736C23.5804 66.9036 23.3232 66.6869 23.1255 66.0938C23.1125 65.7597 23.1088 65.4253 23.1103 65.091C23.1108 64.8951 23.1113 64.6992 23.1118 64.4974C23.1131 64.2927 23.1144 64.0879 23.1158 63.877C23.1165 63.6684 23.1173 63.4597 23.1179 63.2511C23.1197 62.7403 23.1223 62.2296 23.1255 61.7188C23.0028 61.6714 22.88 61.624 22.7536 61.5752C22.3606 61.413 22.0997 61.2499 21.7779 60.9766C21.6888 60.9033 21.5998 60.83 21.5081 60.7544C21.2505 60.4688 21.2505 60.4688 20.7818 59.5313C19.9052 59.4797 19.0287 59.4282 18.1255 59.375C18.1384 59.6715 18.1513 59.968 18.1646 60.2735C18.2027 61.1501 18.2027 61.1501 17.8442 61.6144C17.3631 61.9793 17.0058 62.0208 16.4068 62.0313C15.9462 61.821 15.697 61.7054 15.4693 61.25C15.448 60.7789 15.436 60.3115 15.432 59.8401C15.4308 59.6999 15.4295 59.5596 15.4282 59.4151C15.4261 59.118 15.4244 58.8209 15.4232 58.5238C15.4205 58.0693 15.4136 57.6151 15.4067 57.1607C15.4051 56.8722 15.4038 56.5837 15.4027 56.2952C15.4 56.1593 15.3973 56.0234 15.3945 55.8833C15.3978 54.9416 15.3978 54.9416 15.7572 54.4497C16.1981 54.1477 16.4975 54.0735 17.0318 54.0625C17.5832 54.3132 17.7861 54.4909 18.1255 55C18.1672 55.5756 18.1391 56.1409 18.1255 56.7188C18.9505 56.7188 19.7755 56.7188 20.6255 56.7188C20.574 54.9657 20.5224 53.2126 20.4693 51.4063C19.9955 51.3032 19.5218 51.2001 19.0337 51.0938C15.4283 50.2556 12.0902 48.7643 9.21927 46.4063C9.13151 46.335 9.04374 46.2637 8.95331 46.1902C4.04366 42.1832 0.792643 36.5021 0.0323897 30.1721C-0.0630091 29.1894 -0.037781 28.1939 -0.0385399 27.2071C-0.0386453 27.0844 -0.0387507 26.9617 -0.0388594 26.8352C-0.0363994 25.0353 0.0244209 23.3153 0.469273 21.5625C0.496917 21.453 0.524561 21.3434 0.553043 21.2304C1.6795 16.8657 3.75726 13.0994 6.87552 9.8438C6.98368 9.72758 7.09184 9.61137 7.20328 9.49163C15.9641 0.349205 31.139 0.297961 40.5578 8.33387ZM8.17435 12.461C4.23011 17.0492 2.37074 22.7284 2.65677 28.75C3.02643 33.4967 4.91318 37.7866 7.96927 41.4063C8.07844 41.5366 8.18761 41.6669 8.30008 41.8012C9.1467 42.7789 10.0708 43.5873 11.0943 44.375C11.2183 44.4758 11.3424 44.5765 11.4703 44.6802C16.0317 48.2313 22.0126 49.4892 27.6861 48.8288C32.2536 48.1471 36.3618 45.956 39.688 42.8125C39.8926 42.6258 39.8926 42.6258 40.1012 42.4354C42.046 40.5936 43.4492 38.3742 44.5318 35.9375C44.5756 35.8405 44.6195 35.7435 44.6647 35.6436C46.9432 30.5403 46.998 24.5369 45.0193 19.3255C43.6481 15.9038 41.4804 12.6427 38.5943 10.3125C38.3952 10.1515 38.3952 10.1515 38.1921 9.98723C36.2122 8.44495 34.0887 7.23533 31.7193 6.4063C31.5529 6.34728 31.3865 6.28827 31.2151 6.22747C30.7095 6.05996 30.2035 5.91568 29.688 5.7813C29.42 5.7109 29.42 5.7109 29.1466 5.63909C21.4389 3.95669 13.5175 6.78331 8.17435 12.461ZM23.2818 51.7188C23.2624 52.6613 23.2483 53.6038 23.2389 54.5464C23.2349 54.867 23.2296 55.1875 23.2228 55.5081C23.2133 55.9692 23.2089 56.4303 23.2055 56.8915C23.2014 57.0345 23.1974 57.1774 23.1933 57.3247C23.1929 58.0331 23.2069 58.3389 23.6473 58.9193C24.0448 59.2508 24.0448 59.2508 24.5415 59.3067C25.097 59.2003 25.2782 59.0312 25.6255 58.5938C25.8041 58.2366 25.8007 58.0401 25.7995 57.6434C25.7995 57.4464 25.7995 57.4464 25.7995 57.2453C25.7987 57.1034 25.7979 56.9615 25.797 56.8152C25.7968 56.67 25.7966 56.5248 25.7964 56.3752C25.7955 55.9103 25.7935 55.4454 25.7915 54.9805C25.7908 54.6658 25.79 54.351 25.7894 54.0363C25.7877 53.2638 25.785 52.4913 25.7818 51.7188C24.9568 51.7188 24.1318 51.7188 23.2818 51.7188ZM64.688 53.5938C64.5231 54.0887 64.5125 54.4356 64.513 54.9553C64.5128 55.1413 64.5126 55.3273 64.5123 55.519C64.5129 55.7233 64.5135 55.9277 64.514 56.1382C64.5141 56.3553 64.5141 56.5724 64.514 56.7895C64.5139 57.3793 64.5148 57.9691 64.5159 58.5588C64.5169 59.175 64.517 59.7913 64.5172 60.4075C64.5177 61.5745 64.519 62.7416 64.5205 63.9086C64.5223 65.2372 64.5231 66.5658 64.5239 67.8944C64.5256 70.6275 64.5283 73.3607 64.5318 76.0938C65.3568 76.0938 66.1818 76.0938 67.0318 76.0938C67.039 73.2117 67.0446 70.3296 67.048 67.4475C67.0496 66.1093 67.0518 64.7712 67.0554 63.433C67.0585 62.2667 67.0605 61.1005 67.0612 59.9343C67.0616 59.3167 67.0625 58.699 67.0648 58.0814C67.0669 57.5002 67.0676 56.919 67.0671 56.3378C67.0673 56.0226 67.0689 55.7073 67.0707 55.3921C67.0702 55.2046 67.0698 55.017 67.0694 54.8238C67.0696 54.6607 67.0699 54.4977 67.0702 54.3297C67.0309 53.8971 66.9531 53.6443 66.7193 53.2813C65.9077 52.7402 65.3571 52.9609 64.688 53.5938Z" fill="url(#paint0_linear_142_120)"/>
<path d="M60.5916 1.22227C60.7136 1.22124 60.8357 1.22021 60.9614 1.21916C61.365 1.21608 61.7685 1.21425 62.1721 1.21269C62.3797 1.21174 62.3797 1.21174 62.5916 1.21076C63.3252 1.2075 64.0588 1.20527 64.7925 1.2038C65.5462 1.20208 66.2998 1.19671 67.0535 1.1905C67.6364 1.18639 68.2192 1.1851 68.8021 1.18454C69.0796 1.18378 69.3572 1.18198 69.6348 1.17907C72.0086 1.15568 73.8631 1.42604 75.6383 3.12492C76.8058 4.34246 77.5236 5.78569 77.5155 7.48953C77.5151 7.71623 77.5151 7.71623 77.5147 7.94752C77.5131 8.1935 77.5131 8.1935 77.5115 8.44444C77.5105 8.80522 77.5096 9.16599 77.5087 9.52677C77.5076 9.81306 77.5076 9.81306 77.5065 10.1051C77.5035 11.1156 77.5059 12.1261 77.5075 13.1365C77.5095 14.4225 77.5098 15.7084 77.503 16.9943C77.4976 18.0337 77.4986 19.0729 77.5036 20.1123C77.5043 20.5085 77.5029 20.9048 77.4992 21.301C77.4943 21.8547 77.4971 22.4079 77.5017 22.9617C77.4984 23.1256 77.4951 23.2896 77.4918 23.4586C77.4892 24.2917 77.4892 24.2917 77.9313 24.9541C78.2605 25.1669 78.2605 25.1669 78.6022 25.3222C79.2588 25.6393 79.6517 26.3254 79.9144 26.9872C80.1856 28.1266 80.2131 29.4817 79.594 30.5077C79.0153 31.2278 78.4133 31.8285 77.4992 32.0312C77.5006 32.1226 77.502 32.214 77.5034 32.3082C77.5174 33.269 77.5267 34.2298 77.5336 35.1907C77.5367 35.5482 77.5409 35.9056 77.5464 36.2631C77.5875 39.0341 77.5734 41.2709 75.6242 43.4374C74.5715 44.4341 73.3393 45.0617 71.8809 45.0829C71.4098 44.9604 71.2314 44.7594 70.9367 44.3749C70.7951 43.8793 70.7951 43.8793 70.7024 43.3202C70.5314 42.4302 70.3278 41.703 69.843 40.9374C69.7592 40.8021 69.6754 40.6667 69.5891 40.5273C68.5236 39.4618 67.2805 38.9767 65.8 38.8573C64.1783 38.9114 63.0314 39.624 61.9133 40.7421C61.2905 41.6416 60.9628 42.5775 60.7805 43.6523C60.6943 44.1129 60.6231 44.3768 60.3801 44.7851C59.7701 45.1292 59.2752 45.1309 58.593 44.9999C56.6587 44.3183 55.4469 43.0977 54.5604 41.2792C54.1069 40.066 54.0177 38.9187 54.0312 37.6311C54.0316 37.4701 54.0321 37.3091 54.0325 37.1432C54.0343 36.6339 54.0382 36.1245 54.0422 35.6152C54.0438 35.2678 54.0452 34.9204 54.0465 34.573C54.0499 33.7257 54.0551 32.8784 54.0617 32.0312C53.8774 31.9596 53.8774 31.9596 53.6894 31.8866C52.8375 31.5368 52.2254 30.9563 51.8059 30.1366C51.3732 29.0242 51.3748 27.8338 51.8254 26.7284C52.2159 25.9694 52.6751 25.4513 53.4553 25.0814C53.9559 24.6433 53.9745 24.5863 54.021 23.9616C54.0251 23.6552 54.0239 23.3487 54.0188 23.0423C54.0197 22.8747 54.0206 22.7072 54.0216 22.5346C54.0236 21.9796 54.0191 21.4247 54.0147 20.8697C54.0153 20.4831 54.0163 20.0965 54.0178 19.7099C54.0208 18.6901 54.0186 17.6704 54.015 16.6506C54.0092 15.0234 54.0105 13.3962 54.0144 11.769C54.0147 11.2025 54.0119 10.6361 54.0088 10.0697C54.0035 7.39729 54.0601 5.16383 55.9477 3.08037C57.272 1.81064 58.7813 1.2289 60.5916 1.22227ZM62.0305 3.90617C62.016 4.30739 62.016 4.30739 62.0012 4.71672C61.9426 5.33048 61.8893 5.60114 61.552 6.13274C61.0113 6.45482 60.7304 6.48359 60.1243 6.35918C59.843 6.24992 59.843 6.24992 59.5402 5.92766C59.3311 5.34934 59.2699 4.83143 59.218 4.21867C58.1849 4.74043 57.5634 5.37544 57.0305 6.40617C56.8893 6.86843 56.8549 7.28251 56.8554 7.76477C56.8552 7.91126 56.855 8.05774 56.8548 8.20867C56.8553 8.36891 56.8559 8.52914 56.8565 8.69423C56.8565 8.86622 56.8564 9.03821 56.8564 9.21541C56.8565 9.77233 56.8577 10.3292 56.859 10.8862C56.8592 11.2299 56.8594 11.5737 56.8594 11.9174C56.8603 13.1923 56.8624 14.4672 56.8645 15.7421C56.8677 18.5909 56.8709 21.4398 56.8742 24.3749C62.7523 24.3749 68.6305 24.3749 74.6867 24.3749C74.6996 21.4874 74.7125 18.5999 74.7258 15.6249C74.7315 14.7145 74.7372 13.8041 74.743 12.8661C74.7451 12.0472 74.7451 12.0472 74.7464 11.2283C74.7473 10.8647 74.7495 10.5011 74.7527 10.1375C74.7573 9.58541 74.7579 9.03346 74.7577 8.48137C74.7611 8.24 74.7611 8.24 74.7645 7.99375C74.7578 6.83281 74.5257 5.98784 73.7437 5.11284C73.6392 5.02724 73.5347 4.94163 73.427 4.85344C73.322 4.76502 73.2171 4.6766 73.109 4.58549C72.8021 4.34652 72.8021 4.34652 72.343 4.21867C72.3408 4.31112 72.3385 4.40357 72.3363 4.49882C72.2963 5.16103 72.2367 5.54919 71.8645 6.1132C71.325 6.45751 71.053 6.49541 70.4368 6.36894C70.1555 6.24992 70.1555 6.24992 69.8527 5.8593C69.6521 5.19837 69.5826 4.5948 69.5305 3.90617C68.757 3.90617 67.9836 3.90617 67.1867 3.90617C67.1722 4.30739 67.1722 4.30739 67.1574 4.71672C67.0988 5.33048 67.0456 5.60114 66.7082 6.13274C66.0517 6.52383 65.7342 6.43067 64.9992 6.24992C64.4186 5.66926 64.4816 4.68868 64.3742 3.90617C63.6008 3.90617 62.8273 3.90617 62.0305 3.90617ZM54.4806 27.6377C54.1877 28.0929 54.1877 28.0929 54.2082 28.5351C54.4105 28.9872 54.6162 29.2164 54.9992 29.5312C55.422 29.6251 55.422 29.6251 55.8947 29.6116C56.0774 29.6136 56.2601 29.6156 56.4483 29.6176C56.6482 29.6166 56.8481 29.6156 57.054 29.6145C57.267 29.6156 57.4801 29.617 57.6931 29.6186C58.2713 29.6221 58.8495 29.6217 59.4277 29.6203C59.9103 29.6195 60.393 29.6206 60.8757 29.6218C62.0142 29.6244 63.1527 29.6238 64.2913 29.6212C65.4661 29.6186 66.6408 29.6211 67.8156 29.6261C68.8243 29.6303 69.8329 29.6314 70.8415 29.6301C71.444 29.6293 72.0463 29.6297 72.6488 29.6329C73.2152 29.6357 73.7814 29.6348 74.3478 29.631C74.6548 29.6298 74.9618 29.6325 75.2689 29.6353C75.5429 29.6324 75.5429 29.6324 75.8225 29.6293C76.0607 29.6292 76.0607 29.6292 76.3036 29.6291C76.751 29.5611 76.751 29.5611 77.0864 29.1698C77.3922 28.7514 77.3922 28.7514 77.343 28.1835C77.1674 27.5908 77.083 27.4862 76.5617 27.1874C76.1409 27.1159 76.1409 27.1159 75.6732 27.1247C75.4921 27.1227 75.3109 27.1207 75.1243 27.1187C74.9261 27.1189 74.728 27.1191 74.5238 27.1193C74.3125 27.1179 74.1013 27.1163 73.89 27.1146C73.3167 27.1104 72.7433 27.1093 72.17 27.109C71.8117 27.1087 71.4534 27.1077 71.0952 27.1064C69.8451 27.1021 68.5951 27.1002 67.345 27.1006C66.1799 27.1008 65.015 27.0959 63.85 27.0885C62.8494 27.0824 61.8489 27.0799 60.8483 27.0802C60.2509 27.0803 59.6535 27.0789 59.056 27.074C58.4941 27.0694 57.9324 27.0694 57.3704 27.0728C57.0662 27.0735 56.762 27.0696 56.4579 27.0656C55.3504 27.0443 55.3504 27.0443 54.4806 27.6377ZM56.8742 32.3437C56.3385 38.7509 56.3385 38.7509 57.6555 41.0937C57.8617 41.2484 58.068 41.403 58.2805 41.5624C58.4049 41.3195 58.4049 41.3195 58.5319 41.0717C58.6434 40.8576 58.7549 40.6436 58.8664 40.4296C58.9208 40.3231 58.9752 40.2165 59.0312 40.1067C59.3465 39.5053 59.6575 39.0648 60.1555 38.5937C60.1555 38.4905 60.1555 38.3874 60.1555 38.2812C60.2453 38.2389 60.3351 38.1966 60.4277 38.153C60.7849 37.9664 61.097 37.7531 61.425 37.5195C63.3407 36.2244 65.5113 35.9553 67.7629 36.3512C69.7181 36.9011 71.3995 38.0093 72.426 39.79C72.6175 40.1686 72.7953 40.5499 72.968 40.9374C73.0711 41.1463 73.175 41.3548 73.2805 41.5624C73.4255 41.4561 73.5705 41.3497 73.7199 41.2402C73.8015 41.1803 73.8831 41.1205 73.9671 41.0589C75.8394 38.9862 74.6867 33.4257 74.6867 32.3437C68.8086 32.3437 62.9305 32.3437 56.8742 32.3437Z" fill="url(#paint1_linear_142_120)"/>
<path d="M36.9707 12.0864C40.7995 15.3772 43.3116 19.7973 43.9063 24.8438C43.9502 25.5574 43.9586 26.2676 43.9552 26.9824C43.9543 27.1747 43.9534 27.3669 43.9525 27.5649C43.8815 32.9107 41.6149 37.6907 37.8126 41.4063C34.0961 44.8877 29.007 46.7342 23.9277 46.6059C18.3428 46.2777 13.6896 44.0299 9.84382 39.9805C7.79594 37.6722 6.46546 34.9896 5.62507 32.0313C5.57492 31.8554 5.52477 31.6796 5.47309 31.4984C4.29925 26.4809 5.31689 21.0828 7.96882 16.7188C8.74453 15.5268 9.651 14.4706 10.6251 13.4375C10.7286 13.3221 10.8321 13.2067 10.9388 13.0878C17.6015 5.95641 29.7175 6.00172 36.9707 12.0864ZM11.5137 16.543C8.70182 20.0431 7.42224 24.4957 7.84668 28.9518C8.30404 32.5681 9.81693 35.7008 12.1876 38.4375C12.2881 38.5539 12.3886 38.6704 12.4921 38.7903C15.1214 41.6078 19.1218 43.5162 22.9631 43.7821C23.444 43.7973 23.9232 43.8015 24.4044 43.7988C24.5755 43.798 24.7465 43.7971 24.9228 43.7962C28.7346 43.7395 32.4387 42.3747 35.3126 39.8438C35.4405 39.7382 35.5684 39.6327 35.7001 39.5239C39.0866 36.6468 40.827 32.4771 41.2501 28.125C41.5669 23.543 39.8675 19.2827 36.9035 15.8554C34.9321 13.6425 32.3585 11.9834 29.5313 11.0938C29.4349 11.0631 29.3385 11.0325 29.2392 11.0009C22.6511 8.99615 15.9122 11.5085 11.5137 16.543Z" fill="url(#paint2_linear_142_120)"/>
<path d="M29.0874 13.4717C32.6507 14.6672 35.5873 17.3225 37.3442 20.625C38.3653 22.7164 39.1788 25.3173 38.7504 27.6562C38.3131 28.2029 38.1176 28.411 37.4223 28.5351C36.713 28.4085 36.5328 28.2254 36.0942 27.6562C35.9517 27.1446 35.9078 26.6313 35.8598 26.1035C35.4816 22.8991 34.1321 20.1944 31.6398 18.1097C29.4168 16.4836 26.9868 15.7818 24.276 15.5914C23.7504 15.4687 23.7504 15.4687 23.3714 15.097C23.0668 14.5899 23.0284 14.3324 23.1254 13.75C24.3268 11.948 27.3093 12.924 29.0874 13.4717Z" fill="url(#paint3_linear_142_120)"/>
<path d="M66.5625 19.375C67.0146 19.7807 67.1658 20.0258 67.2656 20.625C67.1695 21.2019 66.9662 21.4594 66.5625 21.875C66.1167 22.0979 65.8071 22.0797 65.3125 22.0313C64.7269 21.7059 64.5633 21.5165 64.375 20.8691C64.375 20.2471 64.4504 20.006 64.8438 19.5313C65.3989 19.0951 65.9061 19.1992 66.5625 19.375Z" fill="url(#paint4_linear_142_120)"/>
<path d="M61.4062 19.375C61.8584 19.7807 62.0095 20.0258 62.1094 20.625C62.0132 21.2019 61.81 21.4594 61.4062 21.875C60.9604 22.0979 60.6509 22.0797 60.1562 22.0313C59.5706 21.7059 59.4071 21.5165 59.2188 20.8691C59.2188 20.2471 59.2941 20.006 59.6875 19.5313C60.2426 19.0951 60.7498 19.1992 61.4062 19.375Z" fill="url(#paint5_linear_142_120)"/>
<path d="M71.7188 14.2188C72.1709 14.6245 72.322 14.8696 72.4219 15.4688C72.3257 16.0456 72.1225 16.3032 71.7188 16.7188C71.2729 16.9417 70.9634 16.9235 70.4688 16.875C69.8831 16.5497 69.7196 16.3602 69.5312 15.7129C69.5312 15.0909 69.6066 14.8498 70 14.375C70.5551 13.9388 71.0623 14.0429 71.7188 14.2188Z" fill="url(#paint6_linear_142_120)"/>
<path d="M66.5625 14.2188C67.0146 14.6245 67.1658 14.8696 67.2656 15.4688C67.1695 16.0456 66.9662 16.3032 66.5625 16.7188C66.1167 16.9417 65.8071 16.9235 65.3125 16.875C64.7269 16.5497 64.5633 16.3602 64.375 15.7129C64.375 15.0909 64.4504 14.8498 64.8438 14.375C65.3989 13.9388 65.9061 14.0429 66.5625 14.2188Z" fill="url(#paint7_linear_142_120)"/>
<path d="M61.4062 14.2188C61.8584 14.6245 62.0095 14.8696 62.1094 15.4688C62.0132 16.0456 61.81 16.3032 61.4062 16.7188C60.9604 16.9417 60.6509 16.9235 60.1562 16.875C59.5706 16.5497 59.4071 16.3602 59.2188 15.7129C59.2188 15.0909 59.2941 14.8498 59.6875 14.375C60.2426 13.9388 60.7498 14.0429 61.4062 14.2188Z" fill="url(#paint8_linear_142_120)"/>
<path d="M71.7188 9.06248C72.1709 9.46823 72.322 9.71332 72.4219 10.3125C72.322 10.9116 72.1709 11.1567 71.7188 11.5625C71.1064 11.7406 70.7763 11.7826 70.1855 11.5332C69.8173 11.2281 69.6589 11.0844 69.5312 10.625C69.5812 9.6762 69.5812 9.6762 69.9023 9.23826C70.5165 8.81307 71.0215 8.89122 71.7188 9.06248Z" fill="url(#paint9_linear_142_120)"/>
<path d="M71.7188 19.375C72.1709 19.7807 72.322 20.0258 72.4219 20.625C72.3257 21.2019 72.1225 21.4594 71.7188 21.875C71.2729 22.0979 70.9634 22.0797 70.4688 22.0312C69.8899 21.7096 69.7214 21.5138 69.5215 20.8789C69.5335 20.183 69.7078 19.8982 70.1562 19.375C70.7552 19.1753 71.1074 19.2248 71.7188 19.375Z" fill="url(#paint10_linear_142_120)"/>
<path d="M66.5625 9.06248C67.0146 9.46823 67.1658 9.71332 67.2656 10.3125C67.1658 10.9116 67.0146 11.1567 66.5625 11.5625C65.9501 11.7406 65.6201 11.7826 65.0293 11.5332C64.6611 11.2281 64.5026 11.0844 64.375 10.625C64.4249 9.6762 64.4249 9.6762 64.7461 9.23826C65.3603 8.81307 65.8652 8.89122 66.5625 9.06248Z" fill="url(#paint11_linear_142_120)"/>
<path d="M61.4062 9.06248C61.8584 9.46823 62.0095 9.71332 62.1094 10.3125C62.0095 10.9116 61.8584 11.1567 61.4062 11.5625C60.7939 11.7406 60.4638 11.7826 59.873 11.5332C59.5048 11.2281 59.3464 11.0844 59.2188 10.625C59.2687 9.6762 59.2687 9.6762 59.5898 9.23826C60.204 8.81307 60.709 8.89122 61.4062 9.06248Z" fill="url(#paint12_linear_142_120)"/>
</g>
<defs>
<linearGradient id="paint0_linear_142_120" x1="-0.0410156" y1="2.46289" x2="79.8919" y2="8.0427" gradientUnits="userSpaceOnUse">
<stop stop-color="#C42091"/>
<stop offset="1" stop-color="#6617CA"/>
</linearGradient>
<linearGradient id="paint1_linear_142_120" x1="51.4844" y1="1.17773" x2="82.0663" y2="2.59499" gradientUnits="userSpaceOnUse">
<stop stop-color="#C42091"/>
<stop offset="1" stop-color="#6617CA"/>
</linearGradient>
<linearGradient id="paint2_linear_142_120" x1="4.99023" y1="7.62457" x2="46.517" y2="10.5759" gradientUnits="userSpaceOnUse">
<stop stop-color="#C42091"/>
<stop offset="1" stop-color="#6617CA"/>
</linearGradient>
<linearGradient id="paint3_linear_142_120" x1="23.0781" y1="12.7114" x2="39.9053" y2="13.9054" gradientUnits="userSpaceOnUse">
<stop stop-color="#C42091"/>
<stop offset="1" stop-color="#6617CA"/>
</linearGradient>
<linearGradient id="paint4_linear_142_120" x1="64.375" y1="19.2232" x2="67.455" y2="19.4462" gradientUnits="userSpaceOnUse">
<stop stop-color="#C42091"/>
<stop offset="1" stop-color="#6617CA"/>
</linearGradient>
<linearGradient id="paint5_linear_142_120" x1="59.2188" y1="19.2232" x2="62.2988" y2="19.4462" gradientUnits="userSpaceOnUse">
<stop stop-color="#C42091"/>
<stop offset="1" stop-color="#6617CA"/>
</linearGradient>
<linearGradient id="paint6_linear_142_120" x1="69.5312" y1="14.067" x2="72.6113" y2="14.29" gradientUnits="userSpaceOnUse">
<stop stop-color="#C42091"/>
<stop offset="1" stop-color="#6617CA"/>
</linearGradient>
<linearGradient id="paint7_linear_142_120" x1="64.375" y1="14.067" x2="67.455" y2="14.29" gradientUnits="userSpaceOnUse">
<stop stop-color="#C42091"/>
<stop offset="1" stop-color="#6617CA"/>
</linearGradient>
<linearGradient id="paint8_linear_142_120" x1="59.2188" y1="14.067" x2="62.2988" y2="14.29" gradientUnits="userSpaceOnUse">
<stop stop-color="#C42091"/>
<stop offset="1" stop-color="#6617CA"/>
</linearGradient>
<linearGradient id="paint9_linear_142_120" x1="69.5312" y1="8.92517" x2="72.6106" y2="9.15261" gradientUnits="userSpaceOnUse">
<stop stop-color="#C42091"/>
<stop offset="1" stop-color="#6617CA"/>
</linearGradient>
<linearGradient id="paint10_linear_142_120" x1="69.5215" y1="19.2432" x2="72.6116" y2="19.4693" gradientUnits="userSpaceOnUse">
<stop stop-color="#C42091"/>
<stop offset="1" stop-color="#6617CA"/>
</linearGradient>
<linearGradient id="paint11_linear_142_120" x1="64.375" y1="8.92517" x2="67.4544" y2="9.15261" gradientUnits="userSpaceOnUse">
<stop stop-color="#C42091"/>
<stop offset="1" stop-color="#6617CA"/>
</linearGradient>
<linearGradient id="paint12_linear_142_120" x1="59.2188" y1="8.92517" x2="62.2981" y2="9.15261" gradientUnits="userSpaceOnUse">
<stop stop-color="#C42091"/>
<stop offset="1" stop-color="#6617CA"/>
</linearGradient>
<clipPath id="clip0_142_120">
<rect width="80" height="80" fill="white"/>
</clipPath>
</defs>
</svg>
