<svg width="44" height="61" viewBox="0 0 44 61" fill="none" xmlns="http://www.w3.org/2000/svg">
<path d="M44 39C44 44.9834 41.8775 50.0344 38 54C34 58.5 28.169 61 22 61C15.8067 61 9.5 58.5 6 54C2.14979 50.0382 0 44.9595 0 39C0 26.8506 9.8506 17 22 17C34.1494 17 44 26.8506 44 39Z" fill="white"/>
<path d="M24.1361 10.9922H19.8242V30.0109H24.1361V10.9922Z" fill="#C42091"/>
<path d="M31.1635 44.5948C30.0481 41.0493 34.1862 38.7197 33.4383 34.1958C32.7829 30.2424 27.7971 28.0068 22.0253 28.0034V28C22.0153 28 22.0041 28.0034 21.9942 28.0034C21.9842 28.0034 21.9738 28 21.9639 28V28.0034C16.1917 28.0068 11.205 30.2424 10.5501 34.1958C9.80173 38.7201 13.9411 41.0493 12.8257 44.5948C12.026 47.1303 7.6337 49.2294 6 54C9.5 58.5 15.5 61 22 61C28.5192 61 34 58.5 38 54C36.3788 49.1988 31.9632 47.1366 31.1635 44.5948ZM21.9488 42.7816C19.8871 42.7816 18.2158 41.1373 18.2158 39.1076C18.2158 37.0788 19.8867 35.4382 21.9488 35.4382C24.0083 35.4382 25.6792 37.0788 25.6792 39.1076C25.6792 41.1373 24.0083 42.7816 21.9488 42.7816Z" fill="#C42091"/>
<path d="M25.4173 0.932592C25.4173 1.44847 24.9923 1.86561 24.4676 1.86561H19.4961C18.9723 1.86561 18.5469 1.44805 18.5469 0.932592C18.5469 0.417554 18.9719 0 19.4961 0H24.4676C24.9923 0 25.4173 0.417554 25.4173 0.932592Z" fill="#C42091"/>
<path d="M17.8801 9.30997H17.8869C18.1049 9.30997 18.2812 9.13676 18.2812 8.92254V8.76397H18.7769L18.6189 10.0438L20.2283 12.3178L20.2274 12.4019H23.7259L23.725 12.3178L25.3386 10.0438L25.1772 8.76397H25.6755V8.92254C25.6755 9.13676 25.8484 9.30997 26.0664 9.30997H26.0736C26.2917 9.30997 26.468 9.13676 26.468 8.92254V8.07196C26.468 7.86151 26.2917 7.68788 26.0736 7.68788H26.0664C25.8484 7.68788 25.6755 7.86151 25.6755 8.07196V8.21505H25.1099L24.8736 6.31681H25.4659V6.47622C25.4659 6.69002 25.6422 6.86281 25.8603 6.86281H25.868C26.0851 6.86281 26.2615 6.69002 26.2615 6.47622V5.62438C26.2615 5.41393 26.0851 5.24114 25.868 5.24114H25.8603C25.6422 5.24114 25.4659 5.41393 25.4659 5.62438V5.7683H24.802L24.5657 3.87384H25.2786V4.03241C25.2786 4.24244 25.454 4.41565 25.6721 4.41565H25.6797C25.8978 4.41565 26.0698 4.24244 26.0698 4.03241V3.18098C26.0698 2.96719 25.8978 2.79398 25.6797 2.79398H25.6721C25.454 2.79398 25.2786 2.96719 25.2786 3.18098V3.32114H24.4984L24.2199 1.17188H19.6951L19.4587 3.32114H18.6743V3.18098C18.6743 2.96719 18.5031 2.79398 18.2851 2.79398H18.2774C18.0594 2.79398 17.8831 2.96719 17.8831 3.18098V4.03241C17.8831 4.24244 18.0594 4.41565 18.2774 4.41565H18.2851C18.5031 4.41565 18.6743 4.24244 18.6743 4.03241V3.87384H19.388L19.1517 5.7683H18.4869V5.62438C18.4869 5.41393 18.3106 5.24114 18.0934 5.24114H18.0849C17.872 5.24114 17.6957 5.41393 17.6957 5.62438V6.47622C17.6957 6.69002 17.872 6.86281 18.0849 6.86281H18.0934C18.3106 6.86281 18.4869 6.69002 18.4869 6.47622V6.31681H19.0831L18.8468 8.21505H18.2804V8.07196C18.2804 7.86151 18.1041 7.68788 17.886 7.68788H17.8792C17.6612 7.68788 17.4883 7.86151 17.4883 8.07196V8.92254C17.4891 9.13676 17.662 9.30997 17.8801 9.30997Z" fill="#C42091"/>
<path d="M25.6087 53.4172C25.6087 53.7168 25.3617 53.9595 25.0572 53.9595H18.8141C18.5087 53.9595 18.2617 53.7168 18.2617 53.4172C18.2617 53.1181 18.5087 52.875 18.8141 52.875H25.0572C25.3617 52.875 25.6087 53.1181 25.6087 53.4172Z" fill="#C42091"/>
</svg>
