<svg width="148" height="60" viewBox="0 0 148 60" fill="none" xmlns="http://www.w3.org/2000/svg">
<path d="M44 38.386C44 44.2644 41.6169 49.588 37.7394 53.484C33.747 57.5056 28.169 60 22 60C15.8067 60 10.2122 57.4855 6.21672 53.4405C2.36651 49.5482 0 44.241 0 38.386C0 26.4498 9.8506 16.772 22 16.772C34.1494 16.772 44 26.4498 44 38.386Z" fill="#6617CA"/>
<path d="M24.1331 10.9928H19.8213V30.0115H24.1331V10.9928Z" fill="#C42091"/>
<path d="M31.0054 43.8627C29.9067 40.375 33.983 38.0835 33.2463 33.6335C32.6007 29.7446 27.6892 27.5455 22.0035 27.5422V27.5388C21.9937 27.5388 21.9827 27.5422 21.9729 27.5422C21.9631 27.5422 21.9529 27.5388 21.9431 27.5388V27.5422C16.257 27.5455 11.3447 29.7446 10.6995 33.6335C9.96231 38.0839 14.0399 40.375 12.9412 43.8627C12.1534 46.3567 7.82662 48.7478 6.21729 53.4405C10.2131 57.4855 15.8073 60 22.0006 60C28.1696 60 33.7475 57.5056 37.74 53.484C36.143 48.7612 31.7932 46.363 31.0054 43.8627ZM21.9282 42.0791C19.8972 42.0791 18.2508 40.4616 18.2508 38.4651C18.2508 36.4694 19.8968 34.8556 21.9282 34.8556C23.957 34.8556 25.6029 36.4694 25.6029 38.4651C25.6029 40.4616 23.957 42.0791 21.9282 42.0791Z" fill="#C42091"/>
<path d="M25.4158 0.932592C25.4158 1.44847 24.9908 1.86561 24.4662 1.86561H19.4947C18.9708 1.86561 18.5454 1.44805 18.5454 0.932592C18.5454 0.417554 18.9704 0 19.4947 0H24.4662C24.9908 0 25.4158 0.417554 25.4158 0.932592Z" fill="#C42091"/>
<path d="M17.8796 9.3121H17.8864C18.1044 9.3121 18.2807 9.13889 18.2807 8.92468V8.76611H18.7764L18.6185 10.046L20.2278 12.3199L20.2269 12.404H23.7254L23.7245 12.3199L25.3381 10.046L25.1767 8.76611H25.675V8.92468C25.675 9.13889 25.8479 9.3121 26.0659 9.3121H26.0732C26.2912 9.3121 26.4675 9.13889 26.4675 8.92468V8.07409C26.4675 7.86364 26.2912 7.69001 26.0732 7.69001H26.0659C25.8479 7.69001 25.675 7.86364 25.675 8.07409V8.21719H25.1094L24.8731 6.31895H25.4655V6.47836C25.4655 6.69216 25.6418 6.86494 25.8598 6.86494H25.8675C26.0847 6.86494 26.261 6.69216 26.261 6.47836V5.62651C26.261 5.41606 26.0847 5.24327 25.8675 5.24327H25.8598C25.6418 5.24327 25.4655 5.41606 25.4655 5.62651V5.77044H24.8015L24.5652 3.87597H25.2781V4.03454C25.2781 4.24457 25.4535 4.41778 25.6716 4.41778H25.6792C25.8973 4.41778 26.0693 4.24457 26.0693 4.03454V3.18312C26.0693 2.96932 25.8973 2.79611 25.6792 2.79611H25.6716C25.4535 2.79611 25.2781 2.96932 25.2781 3.18312V3.32328H24.4979L24.2194 1.17401H19.6946L19.4583 3.32328H18.6738V3.18312C18.6738 2.96932 18.5026 2.79611 18.2846 2.79611H18.2769C18.0589 2.79611 17.8826 2.96932 17.8826 3.18312V4.03454C17.8826 4.24457 18.0589 4.41778 18.2769 4.41778H18.2846C18.5026 4.41778 18.6738 4.24457 18.6738 4.03454V3.87597H19.3876L19.1512 5.77044H18.4864V5.62651C18.4864 5.41606 18.3101 5.24327 18.0929 5.24327H18.0844C17.8715 5.24327 17.6952 5.41606 17.6952 5.62651V6.47836C17.6952 6.69216 17.8715 6.86494 18.0844 6.86494H18.0929C18.3101 6.86494 18.4864 6.69216 18.4864 6.47836V6.31895H19.0826L18.8463 8.21719H18.2799V8.07409C18.2799 7.86364 18.1036 7.69001 17.8855 7.69001H17.8787C17.6607 7.69001 17.4878 7.86364 17.4878 8.07409V8.92468C17.4886 9.13889 17.6616 9.3121 17.8796 9.3121Z" fill="#C42091"/>
<path d="M25.6055 53.4137C25.6055 53.7133 25.3585 53.9559 25.054 53.9559H18.8109C18.5055 53.9559 18.2585 53.7133 18.2585 53.4137C18.2585 53.1146 18.5055 52.8715 18.8109 52.8715H25.054C25.3585 52.8715 25.6055 53.1146 25.6055 53.4137Z" fill="#C42091"/>
<path d="M70.63 37.41V33.51H81.25C81.35 35.19 81.18 36.76 80.74 38.22C80.3 39.68 79.62 40.97 78.7 42.09C77.78 43.21 76.63 44.09 75.25 44.73C73.87 45.35 72.29 45.66 70.51 45.66C68.83 45.66 67.29 45.4 65.89 44.88C64.49 44.34 63.28 43.58 62.26 42.6C61.24 41.6 60.44 40.42 59.86 39.06C59.3 37.68 59.02 36.16 59.02 34.5C59.02 32.84 59.31 31.34 59.89 30C60.47 28.64 61.29 27.48 62.35 26.52C63.41 25.56 64.65 24.82 66.07 24.3C67.49 23.78 69.03 23.52 70.69 23.52C72.17 23.52 73.5 23.73 74.68 24.15C75.86 24.57 76.9 25.16 77.8 25.92C78.72 26.66 79.51 27.52 80.17 28.5L75.67 30.84C75.19 30 74.54 29.31 73.72 28.77C72.92 28.21 71.91 27.93 70.69 27.93C69.53 27.93 68.46 28.19 67.48 28.71C66.52 29.23 65.75 29.98 65.17 30.96C64.61 31.92 64.33 33.1 64.33 34.5C64.33 35.88 64.6 37.08 65.14 38.1C65.7 39.1 66.45 39.88 67.39 40.44C68.35 40.98 69.45 41.25 70.69 41.25C71.45 41.25 72.14 41.16 72.76 40.98C73.38 40.78 73.91 40.51 74.35 40.17C74.79 39.81 75.16 39.4 75.46 38.94C75.78 38.46 76.03 37.95 76.21 37.41H70.63ZM84.6536 24H89.8136V45H84.6536V24ZM92.163 28.53V24H108.783V28.53H102.993V45H97.923V28.53H92.163ZM111.391 40.95L111.751 37.08H122.161L122.491 40.95H111.391ZM116.881 31.71L113.941 38.49L114.181 39.6L111.571 45H105.841L116.881 22.68L127.951 45H122.191L119.671 39.81L119.851 38.52L116.881 31.71ZM135.402 35.49H140.652L147.222 45H141.282L135.402 35.49ZM130.152 24H135.222V45H130.152V24ZM133.332 28.29V24H137.802C139.602 24 141.102 24.29 142.302 24.87C143.502 25.45 144.412 26.26 145.032 27.3C145.652 28.32 145.962 29.51 145.962 30.87C145.962 32.21 145.652 33.4 145.032 34.44C144.412 35.46 143.502 36.26 142.302 36.84C141.102 37.42 139.602 37.71 137.802 37.71H133.332V33.78H137.442C138.122 33.78 138.702 33.68 139.182 33.48C139.682 33.26 140.062 32.95 140.322 32.55C140.582 32.13 140.712 31.63 140.712 31.05C140.712 30.47 140.582 29.98 140.322 29.58C140.062 29.16 139.682 28.84 139.182 28.62C138.702 28.4 138.122 28.29 137.442 28.29H133.332Z" fill="white"/>
</svg>
